<svg width="576" height="512" viewBox="0 0 576 512" fill="none" xmlns="http://www.w3.org/2000/svg">
<path d="M160 208V240H224C232.837 240 240 232.837 240 224C240 215.163 232.837 208 224 208H160Z" fill="black"/>
<path d="M160 272V304H224C232.837 304 240 296.837 240 288C240 279.163 232.837 272 224 272H160Z" fill="black"/>
<path fill-rule="evenodd" clip-rule="evenodd" d="M32 112C32 85.4903 53.4903 64 80 64H496C522.51 64 544 85.4903 544 112V400C544 426.51 522.51 448 496 448H80C53.4903 448 32 426.51 32 400V112ZM144 176C135.163 176 128 183.163 128 192V320C128 328.837 135.163 336 144 336H217.869C232.812 336 245.57 331.399 256.142 322.198C266.714 312.996 272 301.918 272 288.965C272 276.101 266.587 265.112 256.218 256C266.587 246.888 272 235.899 272 223.035C272 210.082 266.714 199.004 256.142 189.802C245.57 180.601 232.812 176 217.869 176H144ZM288 256C288 241.528 291.678 228.15 299.033 215.866C306.388 203.582 316.387 193.867 329.029 186.72C341.671 179.573 355.439 176 370.334 176C387.987 176 403.64 180.4 417.293 189.199C430.947 197.999 440.716 209.948 446.6 225.045C449.358 232.281 447.965 236 443.092 236H418.077C416.239 236 414.466 235.721 413.363 235.363C412.259 235.006 411.524 234.671 411.156 234.358C410.788 234.046 410.099 233.175 409.087 231.745C408.076 230.316 407.249 229.199 406.605 228.395C402.284 223.035 396.951 218.792 390.607 215.665C384.263 212.538 377.413 210.975 370.058 210.975C357.186 210.975 346.222 215.375 337.166 224.174C328.11 232.974 323.582 243.582 323.582 256C323.582 268.418 328.11 279.026 337.166 287.826C346.222 296.625 357.186 301.025 370.058 301.025C377.413 301.025 384.263 299.462 390.607 296.335C396.951 293.208 402.284 288.965 406.605 283.605C407.249 282.801 408.076 281.684 409.087 280.255C410.099 278.825 410.788 277.954 411.156 277.642C411.524 277.329 412.259 276.994 413.363 276.637C414.466 276.279 416.239 276 418.077 276H443.092C447.965 276 449.358 279.719 446.6 286.955C440.716 302.052 430.947 314.001 417.293 322.801C403.64 331.6 387.987 336 370.334 336C355.439 336 341.671 332.427 329.029 325.28C316.387 318.133 306.388 308.418 299.033 296.134C291.678 283.85 288 270.472 288 256Z" fill="black"/>
</svg>
