<svg width="576" height="512" viewBox="0 0 576 512" fill="none" xmlns="http://www.w3.org/2000/svg">
<path d="M262.25 224H128C119.5 224 111.625 224.792 104.375 226.375C97.125 227.958 90.375 230.458 84.125 233.875C77.875 237.292 72.9583 242.25 69.375 248.75C65.7917 255.25 64 263 64 272C64 283.5 67.5417 295.833 74.625 309C81.7083 322.167 90.9167 334.208 102.25 345.125C113.583 356.042 127 365.125 142.5 372.375C158 379.625 173.417 383.167 188.75 383C214.083 382.667 236.583 372.667 256.25 353C248.75 362.667 244.167 373.542 242.5 385.625C240.833 397.708 241.75 409.125 245.25 419.875C248.75 430.625 253.5 440.625 259.5 449.875C265.5 459.125 272.417 466.458 280.25 471.875C288.083 477.292 295.583 480 302.75 480C313.417 480 322.708 478.208 330.625 474.625C338.542 471.042 344.792 466.042 349.375 459.625C353.958 453.208 357.333 446.042 359.5 438.125C361.667 430.208 362.75 421.583 362.75 412.25C362.75 398.417 360.542 384.25 356.125 369.75C351.708 355.25 345.917 342.917 338.75 332.75L262.25 224ZM274.25 214.5L310.25 81.5C313.917 67.6667 320.042 55.9583 328.625 46.375C337.208 36.7917 348 32 361 32C374.5 32 388.25 38.125 402.25 50.375C416.25 62.625 427.833 78.5833 437 98.25C446.167 117.917 450.75 137.5 450.75 157C450.75 175.167 446.5 191.583 438 206.25C429.5 220.917 417.333 232.75 401.5 241.75C415.333 236.25 428.875 235.125 442.125 238.375C455.375 241.625 467.167 247.292 477.5 255.375C487.833 263.458 496.167 272.75 502.5 283.25C508.833 293.75 512 303.583 512 312.75C512 317.75 510.917 323.083 508.75 328.75C506.583 334.417 503.375 339.875 499.125 345.125C494.875 350.375 489.042 354.75 481.625 358.25C474.208 361.75 465.917 363.5 456.75 363.5C439.917 363.5 422.292 359.042 403.875 350.125C385.458 341.208 370.917 330.417 360.25 317.75L274.25 214.5Z" fill="black"/>
</svg>
