<svg width="576" height="512" viewBox="0 0 576 512" fill="none" xmlns="http://www.w3.org/2000/svg">
<path d="M416 80V48C416 39.1634 423.163 32 432 32C440.837 32 448 39.1635 448 48V64H464C473.94 64 482.293 70.7988 484.661 80H492.348C507.032 80 530.498 89.9935 534.06 104.239L544 144C544 152.837 536.837 160 528 160C519.163 160 512 152.837 512 144H464C464 144 448.021 248.76 432 272C411.938 301.101 368 320 368 320V456C368 469.255 357.255 480 344 480H328C314.745 480 304 469.255 304 456V320H160L145.255 393.724C144.427 397.867 144.427 402.133 145.255 406.276L156.172 460.862C158.153 470.763 150.58 480 140.483 480H115.675C104.235 480 94.385 471.925 92.1414 460.707L81.2551 406.276C80.4266 402.133 80.4266 397.867 81.2551 393.724L96 320L64 240L32 304V240C32 204.654 60.6538 176 96 176L112.795 148.915C133.195 116.015 169.155 80 207.867 80C246.302 80 282.045 99.731 302.527 132.254C325.872 169.323 308.466 192 352 192C382.738 186.411 416 80 416 80Z" fill="black"/>
</svg>
