<svg width="576" height="512" viewBox="0 0 576 512" fill="none" xmlns="http://www.w3.org/2000/svg">
<path d="M240 16C231.163 16 224 23.1634 224 32V208L128 288V488C128 492.418 131.582 496 136 496H168C172.418 496 176 492.418 176 488V320H304V488C304 492.418 307.582 496 312 496H344C348.418 496 352 492.418 352 488V320L384 288V392C384 396.418 387.582 400 392 400H424C428.418 400 432 396.418 432 392V32C432 23.1634 424.837 16 416 16H240Z" fill="black"/>
<path d="M224 336H272V392C272 396.418 268.418 400 264 400H232C227.582 400 224 396.418 224 392V336Z" fill="black"/>
</svg>
