<svg width="576" height="512" viewBox="0 0 576 512" fill="none" xmlns="http://www.w3.org/2000/svg">
<path d="M182.342 320H394.032L416.579 94.7692C419.502 64.6154 415.222 41.282 403.74 24.7692C392.257 8.2564 373.886 0 348.625 0H228.375C203.114 0 184.638 8.2564 172.947 24.7692C161.256 41.282 156.872 64.6154 159.795 94.7692L182.342 320ZM368 416H208V491.077C208 496.82 206.069 501.743 202.207 505.846C198.345 509.949 193.595 512 187.958 512L148.208 512C142.572 512 137.822 510.154 133.96 506.461C130.098 502.769 128.167 498.051 128.167 492.308L127.854 408.923C120.547 405.846 114.127 401.897 108.595 397.077C103.062 392.256 98.5739 386.359 95.1292 379.384C91.6846 372.41 88.8662 365.487 86.6742 358.615C84.4821 351.743 82.8641 343.231 81.8203 333.077C80.7765 322.923 80.098 313.743 79.7848 305.538C79.4717 297.333 79.3151 287.077 79.3151 274.769C70.1293 272.923 62.6137 268.564 56.7682 261.692C50.9227 254.82 48 246.359 48 236.308C48 225.026 52.0188 215.641 60.0563 208.154C68.0939 200.667 80.5677 196.923 97.4779 196.923C104.785 196.923 110.996 197.949 116.11 200C121.225 202.051 125.453 205.282 128.793 209.692C132.133 214.103 134.638 218 136.309 221.385C137.979 224.769 139.858 229.538 141.945 235.692L153.797 335.038C155.467 343.449 157.137 348.269 158.807 349.5C160.895 351.141 165.488 351.961 172.586 351.961H403.065C410.789 351.961 415.434 351.141 417 349.5C418.566 347.859 420.184 343.038 421.854 335.038L434.428 235.692C436.516 229.538 438.395 224.769 440.065 221.385C441.735 218 444.24 214.103 447.581 209.692C450.921 205.282 455.149 202.051 460.263 200C465.378 197.949 471.589 196.923 478.896 196.923C495.806 196.923 508.384 200.667 516.631 208.154C524.877 215.641 529 225.026 529 236.308C529 246.154 526.025 254.564 520.075 261.538C514.125 268.513 506.453 272.923 497.059 274.769C497.059 287.282 496.902 297.59 496.589 305.692C496.276 313.795 495.597 323.025 494.553 333.384C493.51 343.743 491.944 352.41 489.856 359.384C487.768 366.359 485.002 373.384 481.558 380.461C478.113 387.538 473.624 393.487 468.092 398.308C462.56 403.128 456.14 407.077 448.833 410.154V492.308C448.833 498.051 446.902 502.769 443.04 506.461C439.178 510.154 434.428 512 428.792 512H388.042C382.405 512 377.656 510.154 373.793 506.461C369.931 502.769 368 498.051 368 492.308V416Z" fill="black"/>
</svg>
