<svg width="576" height="512" viewBox="0 0 576 512" fill="none" xmlns="http://www.w3.org/2000/svg">
<path fill-rule="evenodd" clip-rule="evenodd" d="M107.875 301.17C105.458 309.922 104.083 319.298 103.75 329.3C102.417 377.475 118.75 415.064 152.75 442.069C186.75 469.073 234.667 481.659 296.5 479.825C306.333 479.492 317.25 478.075 329.25 475.574C341.25 473.074 353.875 469.323 367.125 464.323C380.375 459.322 392.625 452.195 403.875 442.944C415.125 433.692 423.333 423.149 428.5 411.314C410.333 422.816 392.25 428.483 374.25 428.316C349.75 428.15 326.417 420.523 304.25 405.438C282.083 390.352 265.167 369.307 253.5 342.302C259 351.637 267.667 360.263 279.5 368.181C291.333 376.099 304.625 382.559 319.375 387.56C334.125 392.56 349.833 395.561 366.5 396.561C383.167 397.561 398.917 396.478 413.75 393.311C428.583 390.143 442.125 383.642 454.375 373.807C466.625 363.972 475.583 351.387 481.25 336.051C485.583 324.549 489.917 316.548 494.25 312.047C498.583 307.546 504.5 304.962 512 304.296C508.833 294.961 502.25 287.501 492.25 281.917C482.25 276.333 474.333 274.207 468.5 275.541C470.333 269.873 474.667 264.331 481.5 258.913C488.333 253.495 496.167 250.787 505 250.787C502.5 243.285 498.667 237.368 493.5 233.034C488.333 228.7 483.458 226.158 478.875 225.407C474.292 224.657 469.917 224.157 465.75 223.907C461.583 223.657 459.333 223.365 459 223.032C467.833 216.864 474.75 209.655 479.75 201.403C484.75 193.152 487.958 185.359 489.375 178.025C490.792 170.69 491.083 162.48 490.25 153.395C489.417 144.311 488.25 136.976 486.75 131.392C485.25 125.807 483.25 119.515 480.75 112.514C476.583 121.015 470.958 130.517 463.875 141.018C456.792 151.52 448.292 162.605 438.375 174.274C428.458 185.942 418.208 196.528 407.625 206.029C397.042 215.531 385.708 223.407 373.625 229.658C361.542 235.909 350.25 238.951 339.75 238.785C330.417 238.618 320.208 235.743 309.125 230.158C298.042 224.574 287.75 217.698 278.25 209.53C277.083 206.863 274.958 198.653 271.875 184.901C268.792 171.148 265.042 156.938 260.625 142.268C256.208 127.599 251.5 116.598 246.5 109.263C246.167 108.763 245.375 107.554 244.125 105.637C242.875 103.72 242.125 102.554 241.875 102.137C241.625 101.72 240.958 100.762 239.875 99.2613C238.792 97.761 238.083 96.8859 237.75 96.6358C237.417 96.3858 236.792 95.719 235.875 94.6355C234.958 93.552 234.208 92.8852 233.625 92.6352C233.042 92.3851 232.25 91.9267 231.25 91.2599C230.25 90.5932 229.333 90.1347 228.5 89.8847C227.667 89.6347 226.667 89.3429 225.5 89.0096C224.333 88.6762 223.083 88.4261 221.75 88.2594C226.583 81.7583 229 74.5905 229 66.7558C229 57.0875 225.667 48.8778 219 42.1267C212.333 35.3756 204.333 32 195 32C185.833 32 178.708 34.7088 173.625 40.1264C168.542 45.5439 165.5 51.6283 164.5 58.3794C163.5 65.1306 163.583 72.4234 164.75 80.2581C161.25 73.2569 156.5 66.8808 150.5 61.1299C144.5 55.3789 137.917 52.5034 130.75 52.5034C122.417 52.5034 114.667 55.9624 107.5 62.8802C100.333 69.798 96.75 77.841 96.75 87.0092C96.75 99.678 101.917 109.43 112.25 116.264C101.645 124.423 91.7223 133.915 81.8622 143.346C75.9304 149.02 70.0213 154.673 64 160C72.7987 164.4 82.1019 167.503 91.3944 170.603C103.034 174.486 114.657 178.363 125.25 184.776C134.917 189.11 139.5 198.445 139 212.78C138.667 221.448 137.292 229.742 134.875 237.66C132.458 245.578 129.625 252.704 126.375 259.038C123.125 265.372 119.833 271.79 116.5 278.291C113.167 284.792 110.292 292.419 107.875 301.17ZM168 160C181.255 160 192 149.255 192 136C192 122.745 181.255 112 168 112C154.745 112 144 122.745 144 136C144 149.255 154.745 160 168 160Z" fill="black"/>
</svg>
