<svg width="576" height="512" viewBox="0 0 576 512" fill="none" xmlns="http://www.w3.org/2000/svg">
<path d="M402.062 112.337C403.414 99.3592 404.356 82.4467 402 72.5C398.4 57.3 389.833 46.8333 386 43.5L384 32H400V43.5C402.333 46.3333 407.7 55 414.5 67C419.725 76.2205 426.465 100.201 429.912 116.259C445.627 121.826 456.538 131.1 464.065 143.514C454.003 147.329 445.307 154.186 439.242 163.213L433.898 171.167C430.513 176.205 424.842 179.227 418.773 179.227C411.285 179.227 404.559 174.645 401.817 167.676L398.615 159.538C391.81 142.243 375.495 130.628 357.044 129.76C370.345 118.121 388.339 113.529 402.062 112.337Z" fill="black"/>
<path d="M344.105 146.918C344.307 146.482 344.515 146.051 344.728 145.625L355.073 145.708C367.746 145.811 379.085 153.603 383.726 165.396L386.928 173.535C392.077 186.622 404.709 195.227 418.773 195.227C430.172 195.227 440.822 189.551 447.179 180.09L452.523 172.136C456.965 165.525 463.441 160.593 470.918 158.05C477.415 176.004 479.557 198.407 479.983 224.207C480.99 285.118 436.2 383.905 376.313 434.066C316.426 484.227 232.382 481.668 165.952 478.597C99.5228 475.526 96 449.422 96 439.185C96 429.937 115.301 429.461 146.113 428.701L146.128 428.7C149.421 428.619 152.845 428.535 156.391 428.436C193.128 427.412 245.467 400.284 267.61 377.251C289.753 354.217 315.922 297 315.922 249.288C315.922 207.176 325.142 187.469 340.71 154.189C341.81 151.838 342.942 149.418 344.105 146.918Z" fill="black"/>
</svg>
