<svg width="576" height="512" viewBox="0 0 576 512" fill="none" xmlns="http://www.w3.org/2000/svg">
<path fill-rule="evenodd" clip-rule="evenodd" d="M105.769 107.711L83.142 130.338C61.014 108.21 61.6906 72.6037 83.294 51.0003C105.435 28.8596 140.755 29.5538 162.352 51.1763L193.029 81.8914C199.853 35.5609 239.774 0 288 0C336.209 0 376.118 35.5349 382.963 81.8406L413.662 51.1417L436.289 73.7691L334.059 176H241.796L139.711 73.79C130.343 64.4106 115.295 64.254 105.921 73.6278C96.5517 82.9975 96.3997 98.3408 105.769 107.711ZM105.769 107.711L208 209.941V456C208 469.255 218.745 480 232 480H248C261.255 480 272 469.255 272 456V352H304V456C304 469.255 314.745 480 328 480H344C357.255 480 368 469.255 368 456V209.796L470.21 107.71C479.589 98.3422 479.746 83.2948 470.372 73.9211C461.003 64.5513 445.659 64.3994 436.289 73.7691L413.662 51.1417C435.79 29.0137 471.396 29.6902 493 51.2936C515.14 73.4344 514.446 108.755 492.824 130.351L400 223.062V456C400 486.928 374.928 512 344 512H328C312.331 512 298.164 505.564 288 495.192C277.836 505.564 263.67 512 248 512H232C201.072 512 176 486.928 176 456L176 223.196L83.142 130.338L105.769 107.711ZM245.667 144C250.762 148.497 256.579 152.196 262.922 154.9C270.623 158.183 279.099 160 288 160C296.868 160 305.315 158.196 312.994 154.936C319.37 152.228 325.215 148.517 330.333 144C338.769 136.555 345.226 126.921 348.818 115.986C350.883 109.698 352 102.979 352 96C352 60.6538 323.346 32 288 32C252.654 32 224 60.6538 224 96C224 103.034 225.135 109.804 227.232 116.135C230.832 127.008 237.27 136.589 245.667 144Z" fill="black"/>
</svg>
