<svg width="576" height="512" viewBox="0 0 576 512" fill="none" xmlns="http://www.w3.org/2000/svg">
<path d="M288 160C323.346 160 352 131.346 352 96C352 60.6538 323.346 32 288 32C252.654 32 224 60.6538 224 96C224 131.346 252.654 160 288 160Z" fill="black"/>
<path d="M105.921 73.6278C96.5516 82.9975 96.3997 98.3408 105.769 107.711L208 209.941V488C208 501.255 218.745 512 232 512H248C261.255 512 272 501.255 272 488V352H304V488C304 501.255 314.745 512 328 512H344C357.255 512 368 501.255 368 488V209.796L470.21 107.71C479.589 98.3422 479.746 83.2948 470.372 73.921C461.002 64.5513 445.659 64.3994 436.289 73.7691L334.059 176H241.796L139.711 73.79C130.342 64.4106 115.295 64.254 105.921 73.6278Z" fill="black"/>
</svg>
