<svg width="576" height="512" viewBox="0 0 576 512" fill="none" xmlns="http://www.w3.org/2000/svg">
<path d="M150.882 392.921C151.217 392.585 151.543 392.245 151.86 391.899L151.904 391.942C151.558 392.259 151.217 392.585 150.882 392.921Z" fill="black"/>
<path fill-rule="evenodd" clip-rule="evenodd" d="M263.923 380.738C255.912 381.135 248.412 378.997 241.598 373.4L229.849 385.15C242.945 409.399 239.25 440.317 218.764 460.803C193.771 485.796 153.248 485.796 128.255 460.803C120.012 452.56 114.487 442.628 111.682 432.121C101.175 429.315 91.2427 423.791 82.9998 415.548C58.0063 390.554 58.0063 350.032 82.9998 325.038C102.618 305.42 131.805 301.201 155.539 312.381L168.399 299.521C164.294 293.438 162.719 286.853 163.065 279.88C163.465 271.803 166.076 264.498 170.898 257.966C173.492 254.64 175.489 251.752 176.889 249.301C178.289 246.851 179.504 244.593 180.535 242.528C181.566 240.462 182.294 237.452 182.72 233.496C183.145 229.54 183.516 226.157 183.833 223.346C184.15 220.535 184.552 215.188 185.039 207.305C185.527 199.422 186.004 192.208 186.471 185.664C186.806 164.421 192.671 143.61 204.065 123.23C215.459 102.85 229.981 85.5434 247.63 71.3093C265.28 57.0752 285.596 46.374 308.58 39.2056C331.563 32.0371 354.188 30.3125 376.454 34.0316C396.186 37.3274 414.676 44.577 431.924 55.7804C443.327 63.1873 453.563 71.651 462.632 81.1714C472.152 90.2402 480.616 100.476 488.023 111.879C499.226 129.127 506.475 147.616 509.771 167.349C513.49 189.615 511.766 212.24 504.597 235.223C497.429 258.206 486.728 278.523 472.494 296.172C458.26 313.822 440.953 328.344 420.573 339.738C400.193 351.132 379.382 356.997 358.139 357.332C351.595 357.799 344.381 358.276 336.498 358.763C328.615 359.251 323.268 359.653 320.457 359.97C317.646 360.286 314.263 360.658 310.307 361.083C306.351 361.509 303.34 362.237 301.275 363.268C299.21 364.299 296.952 365.514 294.502 366.914C292.051 368.314 289.163 370.311 285.837 372.905C279.305 377.727 272 380.338 263.923 380.738ZM190.672 322.503L156.988 356.187C155.477 353.11 153.441 350.225 150.882 347.666C150.553 347.336 150.218 347.016 149.878 346.704C147.577 344.591 145.042 342.877 142.361 341.56C130.412 335.693 115.565 337.728 105.627 347.666C93.1304 360.162 93.1304 380.424 105.627 392.921C107.579 394.872 109.719 396.518 111.99 397.86C118.909 401.949 127.036 403.209 134.699 401.641C137.334 401.102 139.914 400.229 142.371 399.021C145.041 397.708 147.567 396.001 149.86 393.899C150.206 393.582 150.547 393.256 150.882 392.921C150.547 393.256 150.221 393.596 149.904 393.942C147.467 396.6 145.561 399.57 144.185 402.717C143.892 403.387 143.623 404.065 143.379 404.749C140.214 413.599 141.068 423.565 145.942 431.813C147.284 434.083 148.931 436.224 150.882 438.175C163.379 450.672 183.64 450.672 196.137 438.175C205.179 429.133 207.679 416.026 203.636 404.736C202.238 400.834 200.059 397.149 197.099 393.924C196.787 393.585 196.466 393.25 196.137 392.921C192.682 389.466 188.635 386.966 184.321 385.422L218.956 350.787L190.672 322.503ZM332.805 84.9701C333.947 86.303 334.772 87.7311 335.28 89.2545C336.676 93.3167 336.042 95.919 333.376 97.0615C319.415 103.028 306.723 110.803 295.3 120.387C283.878 129.972 274.39 141.555 266.839 155.138C259.287 168.721 255.257 183.002 254.749 197.982C254.622 201.155 253.448 203.789 251.227 205.884C249.006 207.979 246.88 208.518 244.85 207.503C239.265 204.71 235.331 201.79 233.046 198.743C230.508 195.316 229.556 191.19 230.19 186.366C233.363 162.755 241.708 141.714 255.225 123.244C268.742 104.773 286.289 89.7622 307.865 78.2104C314.719 74.2751 320.05 73.9577 323.857 77.2583C324.238 77.6391 325.539 78.6864 327.76 80.4001C329.981 82.1139 331.663 83.6372 332.805 84.9701Z" fill="black"/>
</svg>
