<svg width="576" height="512" viewBox="0 0 576 512" fill="none" xmlns="http://www.w3.org/2000/svg">
<path fill-rule="evenodd" clip-rule="evenodd" d="M288 480C411.712 480 512 379.712 512 256C512 132.288 411.712 32 288 32C164.288 32 64 132.288 64 256C64 379.712 164.288 480 288 480ZM162.686 138.314C168.935 132.065 179.065 132.065 185.314 138.314L208 161L230.686 138.314C236.935 132.065 247.065 132.065 253.314 138.314C259.562 144.562 259.562 154.693 253.314 160.941L230.627 183.627L253.196 206.196C259.444 212.444 259.444 222.575 253.196 228.823C246.948 235.072 236.817 235.072 230.569 228.823L208 206.255L185.431 228.823C179.183 235.072 169.052 235.072 162.804 228.823C156.556 222.575 156.556 212.444 162.804 206.196L185.373 183.627L162.686 160.941C156.438 154.693 156.438 144.562 162.686 138.314ZM345.941 139.314C339.693 133.065 329.562 133.065 323.314 139.314C317.065 145.562 317.065 155.693 323.314 161.941L346 184.627L323.431 207.196C317.183 213.444 317.183 223.575 323.431 229.823C329.68 236.072 339.811 236.072 346.059 229.823L368.627 207.255L391.196 229.823C397.444 236.072 407.575 236.072 413.823 229.823C420.072 223.575 420.072 213.444 413.823 207.196L391.255 184.627L413.941 161.941C420.19 155.693 420.19 145.562 413.941 139.314C407.693 133.065 397.562 133.065 391.314 139.314L368.627 162L345.941 139.314ZM203.314 308.686C197.065 302.438 186.935 302.438 180.686 308.686L148.686 340.686C142.438 346.935 142.438 357.065 148.686 363.314C154.935 369.562 165.065 369.562 171.314 363.314L192 342.627L228.686 379.314C234.935 385.562 245.065 385.562 251.314 379.314L288 342.627L324.686 379.314C330.935 385.562 341.065 385.562 347.314 379.314L384 342.627L404.686 363.314C410.935 369.562 421.065 369.562 427.314 363.314C433.562 357.065 433.562 346.935 427.314 340.686L395.314 308.686C389.065 302.438 378.935 302.438 372.686 308.686L336 345.373L299.314 308.686C293.065 302.438 282.935 302.438 276.686 308.686L240 345.373L203.314 308.686Z" fill="black"/>
</svg>
