<svg width="576" height="512" viewBox="0 0 576 512" fill="none" xmlns="http://www.w3.org/2000/svg">
<path d="M65 0C47.3269 0 33 14.3269 33 32V480C33 497.673 47.3269 512 65 512H385C402.673 512 417 497.673 417 480V352H160V224H417V160H289C271.327 160 257 145.673 257 128V0H65Z" fill="black"/>
<path d="M290.745 0H288V128H416V125.255C416 116.768 412.629 108.629 406.627 102.627L313.373 9.37258C307.371 3.37142 299.232 0 290.745 0Z" fill="black"/>
<path d="M448 320V369.121C448 391.159 475.213 401.545 489.896 385.112L561.785 304.658C569.892 295.586 569.927 281.883 561.868 272.769L489.979 191.472C475.34 174.918 448 185.272 448 207.371V256H192V320H448Z" fill="black"/>
</svg>
