<svg width="576" height="512" viewBox="0 0 576 512" fill="none" xmlns="http://www.w3.org/2000/svg">
<path d="M73.625 157.797C70.125 156.046 67.6458 154.15 66.1875 152.108C64.7292 150.066 64 147.294 64 143.793C64 140.292 64.7292 137.521 66.1875 135.478C67.6458 133.436 70.125 131.54 73.625 129.789L259.417 37.0152C267 33.3198 276.528 31.6666 288 32.0556C299.472 31.6666 309 33.3198 316.583 37.0152L502.375 129.789C505.875 131.54 508.354 133.436 509.812 135.478C511.271 137.521 512 140.292 512 143.793C512 147.294 511.271 150.066 509.812 152.108C508.354 154.15 505.875 156.046 502.375 157.797L316.583 250.571C309 254.266 299.472 255.919 288 255.531C276.528 255.919 267 254.266 259.417 250.571L73.625 157.797ZM73.625 382.439C70.125 380.688 67.6458 378.792 66.1875 376.75C64.7292 374.707 64 371.936 64 368.435C64 364.934 64.7292 362.162 66.1875 360.12C67.6458 358.078 70.125 356.182 73.625 354.431L120.292 331.092L259.417 400.527C267.194 404.222 276.722 405.778 288 405.195C299.278 405.778 308.806 404.222 316.583 400.527L455.708 331.092L502.375 354.431C505.875 356.182 508.354 358.078 509.812 360.12C511.271 362.162 512 364.934 512 368.435C512 371.936 511.271 374.707 509.812 376.75C508.354 378.792 505.875 380.688 502.375 382.439L316.583 475.213C308.806 478.908 299.278 480.464 288 479.881C276.722 480.464 267.194 478.908 259.417 475.213L73.625 382.439ZM73.625 270.409C70.125 268.659 67.6458 266.763 66.1875 264.72C64.7292 262.678 64 259.907 64 256.406C64 252.905 64.7292 250.133 66.1875 248.091C67.6458 246.049 70.125 244.153 73.625 242.402L120.292 219.063L259.417 288.497C267.194 292.193 276.722 293.749 288 293.165C299.278 293.749 308.806 292.193 316.583 288.497L455.708 219.063L502.375 242.402C505.875 244.153 508.354 246.049 509.812 248.091C511.271 250.133 512 252.905 512 256.406C512 259.907 511.271 262.678 509.812 264.72C508.354 266.763 505.875 268.659 502.375 270.409L316.583 363.184C308.806 366.879 299.278 368.435 288 367.851C276.722 368.435 267.194 366.879 259.417 363.184L73.625 270.409Z" fill="black"/>
</svg>
