<svg width="576" height="512" viewBox="0 0 576 512" fill="none" xmlns="http://www.w3.org/2000/svg">
<path fill-rule="evenodd" clip-rule="evenodd" d="M259.417 37.0152L73.625 129.789C70.125 131.54 67.6458 133.436 66.1875 135.478C64.7292 137.521 64 140.292 64 143.793C64 147.294 64.7292 150.065 66.1875 152.108C67.6458 154.15 70.125 156.046 73.625 157.797L259.417 250.571C267 254.266 276.528 255.919 288 255.53C299.472 255.919 309 254.266 316.583 250.571L502.375 157.797C505.875 156.046 508.354 154.15 509.812 152.108C511.271 150.065 512 147.294 512 143.793C512 140.292 511.271 137.521 509.812 135.478C508.354 133.436 505.875 131.54 502.375 129.789L316.583 37.0152C309 33.3198 299.472 31.6666 288 32.0556C276.528 31.6666 267 33.3198 259.417 37.0152ZM288 64.074L289.084 64.0372C296.983 63.7694 300.918 65.0031 302.48 65.7406L458.79 143.793L302.48 221.845C300.918 222.583 296.984 223.817 289.084 223.549L288 223.512L286.916 223.549C279.016 223.817 275.082 222.583 273.52 221.845L117.21 143.793L273.52 65.7406C275.082 65.0031 279.017 63.7694 286.916 64.0372L288 64.074Z" fill="black"/>
<path fill-rule="evenodd" clip-rule="evenodd" d="M133.282 324L73.625 353.789C70.125 355.54 67.6458 357.436 66.1875 359.478C64.7292 361.521 64 364.292 64 367.793C64 371.294 64.7292 374.066 66.1875 376.108C67.6458 378.15 70.125 380.046 73.625 381.797L259.417 474.571C267 478.266 276.528 479.92 288 479.531C299.472 479.92 309 478.266 316.583 474.571L502.375 381.797C505.875 380.046 508.354 378.15 509.812 376.108C511.271 374.066 512 371.294 512 367.793C512 364.292 511.271 361.521 509.812 359.478C508.354 357.436 505.875 355.54 502.375 353.789L442.718 324L406.904 341.884L458.79 367.793L302.48 445.845C300.918 446.583 296.984 447.817 289.084 447.549L288 447.512L286.916 447.549C279.016 447.817 275.082 446.583 273.52 445.845L117.21 367.793L169.096 341.884L133.282 324ZM87.778 382.494C87.7779 382.494 87.7845 382.49 87.7982 382.483L87.7828 382.491L87.778 382.494Z" fill="black"/>
<path fill-rule="evenodd" clip-rule="evenodd" d="M73.625 242.204L133.696 212.207L169.511 230.091L117.21 256.207L273.52 334.26C275.082 334.997 279.016 336.231 286.916 335.963L288 335.926L289.084 335.963C296.984 336.231 300.918 334.997 302.48 334.26L458.79 256.207L406.489 230.091L442.304 212.207L502.375 242.204C505.875 243.954 508.354 245.85 509.812 247.893C511.271 249.935 512 252.706 512 256.207C512 259.708 511.271 262.48 509.812 264.522C508.354 266.564 505.875 268.46 502.375 270.211L316.583 362.985C309 366.68 299.472 368.334 288 367.945C276.528 368.334 267 366.68 259.417 362.985L73.625 270.211C70.125 268.46 67.6458 266.564 66.1875 264.522C64.7292 262.48 64 259.708 64 256.207C64 252.706 64.7292 249.935 66.1875 247.893C67.6458 245.85 70.125 243.954 73.625 242.204ZM87.7787 241.507L87.78 241.508L87.7982 241.518C87.785 241.51 87.7788 241.507 87.7787 241.507Z" fill="black"/>
</svg>
