<svg width="576" height="512" viewBox="0 0 576 512" fill="none" xmlns="http://www.w3.org/2000/svg">
<path d="M398.701 280.867C376.501 302.181 348.371 315.226 314.309 320H304V423.711C306.922 417.648 315.429 411.402 324.185 404.975C328.915 401.503 333.717 397.978 337.75 394.399C349.25 384.197 362.5 375.723 377.5 368.979C400.5 358.603 425.333 352.983 452 352.118C478.667 351.253 498.667 355.144 512 363.791C488.5 402.008 456.833 430.931 417 450.559C377.167 470.186 334.167 480 288 480C241.833 480 198.875 470.186 159.125 450.559C119.375 430.931 87.6667 402.008 64 363.791C77.3333 355.144 97.3333 351.253 124 352.118C150.667 352.983 175.5 358.603 198.5 368.979C213.5 375.723 226.75 384.24 238.25 394.529C242.382 398.226 247.342 401.85 252.203 405.402C260.871 411.736 269.224 417.839 272 423.711V320H261.691C245.423 317.783 230.256 313.478 216.191 307.083C202.125 300.689 189.67 292.462 178.824 282.401C167.979 272.341 159.463 260.021 153.278 245.442C147.093 230.863 144 214.877 144 197.485V52.7176C144 46.92 146.034 42.0178 150.101 38.0107C154.168 34.0035 158.997 32 164.59 32C168.318 33.7051 174.122 38.5222 182.002 46.4511C189.659 54.1559 196.335 66.6984 203.01 79.2383C209.682 91.7729 216.352 104.305 224 112C231.858 104.093 239.656 91.1057 247.457 78.1111C255.268 65.1013 263.083 52.084 270.969 44.1492C279.019 36.0497 284.738 32 288.127 32C291.347 32 296.981 36.0497 305.031 44.1492C312.935 52.1025 320.74 65.1083 328.54 78.1073C336.332 91.0928 344.12 104.071 352 112C359.648 104.305 366.382 91.7731 373.117 79.2385C379.855 66.6987 386.595 54.1559 394.252 46.4511C402.132 38.5222 407.852 33.7051 411.41 32C417.172 32 422.044 34.0035 426.026 38.0107C430.009 42.0178 432 46.92 432 52.7176V197.485C432 231.758 420.9 259.552 398.701 280.867Z" fill="black"/>
</svg>
