<svg width="576" height="512" viewBox="0 0 576 512" fill="none" xmlns="http://www.w3.org/2000/svg">
<path fill-rule="evenodd" clip-rule="evenodd" d="M128 32C119.163 32 112 39.1634 112 48V80H32C23.1634 80 16 87.1634 16 96V160C16 168.837 23.1635 176 32 176H112V336H64C55.1634 336 48 343.163 48 352V416C48 424.837 55.1634 432 64 432H112V464C112 472.837 119.163 480 128 480C136.837 480 144 472.837 144 464V432H272V464C272 472.837 279.163 480 288 480C296.837 480 304 472.837 304 464V432H384C392.837 432 400 424.837 400 416V352C400 343.163 392.837 336 384 336H304V304H432V464C432 472.837 439.163 480 448 480C456.837 480 464 472.837 464 464V304H544C552.837 304 560 296.837 560 288V224C560 215.163 552.837 208 544 208H464V48C464 39.1634 456.837 32 448 32C439.163 32 432 39.1634 432 48V208H304V176H352C360.837 176 368 168.837 368 160V96C368 87.1634 360.837 80 352 80H304V48C304 39.1634 296.837 32 288 32C279.163 32 272 39.1634 272 48V80H144V48C144 39.1634 136.837 32 128 32ZM272 336V304H224C215.163 304 208 296.837 208 288V224C208 215.163 215.163 208 224 208H272V176H144V336H272Z" fill="black"/>
</svg>
