<svg width="576" height="512" viewBox="0 0 576 512" fill="none" xmlns="http://www.w3.org/2000/svg">
<path d="M32 16C23.1634 16 16 23.1634 16 32V96C16 104.837 23.1635 112 32 112H384C392.837 112 400 104.837 400 96V32C400 23.1634 392.837 16 384 16H32Z" fill="black"/>
<path d="M160 144C151.163 144 144 151.163 144 160V224C144 232.837 151.163 240 160 240H544C552.837 240 560 232.837 560 224V160C560 151.163 552.837 144 544 144H160Z" fill="black"/>
<path d="M64 288C64 279.163 71.1634 272 80 272H320C328.837 272 336 279.163 336 288V352C336 360.837 328.837 368 320 368H80C71.1634 368 64 360.837 64 352V288Z" fill="black"/>
<path d="M240 400C231.163 400 224 407.163 224 416V480C224 488.837 231.163 496 240 496H480C488.837 496 496 488.837 496 480V416C496 407.163 488.837 400 480 400H240Z" fill="black"/>
</svg>
