<svg width="576" height="512" viewBox="0 0 576 512" fill="none" xmlns="http://www.w3.org/2000/svg">
<g clip-path="url(#clip0)">
<path d="M70 10.8089C75.12 32.9955 82.4681 50.4889 92.0444 63.2889C101.621 76.0889 113.141 84.7645 126.604 89.3156C140.068 93.8667 155.76 96.5689 173.68 97.4222C191.6 98.2756 211.369 97.9437 232.987 96.4267C244.554 95.8578 253.372 95.4785 259.44 95.2889C249.39 11.6622 186.243 -16.4978 70 10.8089Z" fill="black"/>
<path d="M216 184C216 147.315 243.436 117.038 278.909 112.569C279.884 104.213 282.591 84.0877 287.031 74.0978C292.72 61.2978 300.4 50.3941 310.071 41.3867C319.742 32.3793 331.167 24.7941 344.347 18.6311C357.526 12.4681 371.511 7.86962 386.302 4.83554C401.093 1.80147 416.643 0.18963 432.951 0V28.4444C410.006 28.8237 389.336 31.9526 370.942 37.8311C352.548 43.7096 337.046 53.3807 324.436 66.8444C313.845 78.1515 307.1 105.575 305.211 114.07C336.664 121.785 360 150.167 360 184C360 223.765 327.764 256 288 256C248.236 256 216 223.765 216 184Z" fill="black"/>
<path d="M144 312C144 303.555 145.454 295.449 148.125 287.92C174.436 286.893 198.238 276.093 216 259.047C228.145 270.702 243.114 279.438 259.778 284.125C257.316 292.997 256 302.345 256 312C256 329.858 260.501 346.664 268.43 361.347C255.299 375.293 236.666 384 216 384C176.235 384 144 351.765 144 312Z" fill="black"/>
<path d="M376.717 238.3C386.411 222.495 392 203.9 392 184C392 164.1 386.411 145.506 376.717 129.701C389.366 118.677 405.903 112 424 112C463.765 112 496 144.236 496 184C496 223.765 463.765 256 424 256C405.903 256 389.366 249.324 376.717 238.3Z" fill="black"/>
<path d="M152 112C170.097 112 186.634 118.677 199.283 129.701C189.589 145.506 184 164.1 184 184C184 203.9 189.589 222.495 199.283 238.3C186.634 249.324 170.097 256 152 256C112.235 256 80 223.765 80 184C80 144.236 112.235 112 152 112Z" fill="black"/>
<path d="M220.125 415.92C217.454 423.449 216 431.555 216 440C216 479.765 248.236 512 288 512C327.764 512 360 479.765 360 440C360 431.555 358.546 423.449 355.875 415.92C329.564 414.894 305.762 404.093 288 387.047C270.238 404.093 246.436 414.893 220.125 415.92Z" fill="black"/>
<path d="M424 292C425.727 292 427.444 291.958 429.15 291.875C431.005 298.262 432 305.015 432 312C432 351.765 399.764 384 360 384C320.236 384 288 351.765 288 312C288 303.555 289.454 295.449 292.125 287.92C315.434 287.01 336.773 278.43 353.689 264.632C372.202 281.627 396.889 292 424 292Z" fill="black"/>
</g>
<defs>
<clipPath id="clip0">
<rect width="576" height="512" fill="white"/>
</clipPath>
</defs>
</svg>
