<svg width="576" height="512" viewBox="0 0 576 512" fill="none" xmlns="http://www.w3.org/2000/svg">
<path d="M301.5 48C345.345 48 385.897 56.5332 423.156 73.5996C460.415 90.6659 489.871 113.873 511.522 143.22C533.174 172.567 544 204.577 544 239.252C544 273.926 533.174 305.982 511.522 335.42C489.871 364.857 460.46 388.109 423.291 405.175C386.122 422.241 345.525 430.775 301.5 430.775C287.607 430.775 273.262 429.781 258.467 427.795C194.233 472.402 160.042 494.977 155.892 495.518C153.907 496.241 152.012 496.15 150.208 495.248C149.486 494.706 148.945 493.983 148.584 493.08C148.223 492.177 148.043 491.365 148.043 490.642V489.559C149.126 482.515 157.335 453.169 172.672 401.518C137.849 384.181 110.197 361.2 89.7185 332.575C69.2395 303.951 59 272.843 59 239.252C59 204.577 69.8259 172.567 91.4777 143.22C113.129 113.873 142.585 90.6659 179.844 73.5996C217.103 56.5332 257.655 48 301.5 48Z" fill="black"/>
</svg>
