<svg width="576" height="512" viewBox="0 0 576 512" fill="none" xmlns="http://www.w3.org/2000/svg">
<path fill-rule="evenodd" clip-rule="evenodd" d="M112 32C85.4903 32 64 53.4903 64 80V432C64 458.51 85.4903 480 112 480H464C490.51 480 512 458.51 512 432V80C512 53.4903 490.51 32 464 32H112ZM368.268 128.857C343.685 117.619 316.929 112 288 112C259.071 112 232.315 117.619 207.732 128.857C183.149 140.095 163.714 155.376 149.429 174.7C135.143 194.025 128 215.103 128 237.936C128 260.055 134.756 280.539 148.268 299.388C161.78 318.236 180.024 333.369 203 344.785C192.881 378.796 187.464 398.121 186.75 402.759V403.472C186.75 403.948 186.869 404.483 187.107 405.077C187.345 405.672 187.702 406.148 188.179 406.505C189.369 407.099 190.619 407.159 191.929 406.683C194.667 406.326 217.226 391.461 259.607 362.088C269.369 363.396 278.833 364.05 288 364.05C317.048 364.05 343.833 358.431 368.357 347.193C392.881 335.955 412.286 320.645 426.571 301.261C440.857 281.877 448 260.768 448 237.936C448 215.103 440.857 194.025 426.571 174.7C412.286 155.376 392.851 140.095 368.268 128.857Z" fill="black"/>
</svg>
