<svg width="576" height="512" viewBox="0 0 576 512" fill="none" xmlns="http://www.w3.org/2000/svg">
<path d="M285.722 32C329.607 32 370.196 40.5332 407.489 57.5996C444.782 74.6659 474.265 97.8726 495.936 127.22C517.608 156.567 528.444 188.577 528.444 223.252C528.444 257.926 517.608 289.982 495.936 319.42C474.265 348.857 444.827 372.109 407.625 389.175C370.422 406.241 329.787 414.775 285.722 414.775C271.816 414.775 257.458 413.781 242.65 411.795C178.357 456.402 144.134 478.977 139.98 479.518C137.994 480.241 136.098 480.151 134.292 479.248C133.569 478.706 133.027 477.983 132.666 477.08C132.305 476.177 132.124 475.365 132.124 474.642V473.559C133.208 466.515 141.425 437.169 156.776 385.518C121.921 368.181 94.2443 345.2 73.7466 316.575C53.2489 287.951 43 256.843 43 223.252C43 188.577 53.8358 156.567 75.5074 127.22C97.179 97.8726 126.661 74.6659 163.955 57.5996C201.248 40.5332 241.837 32 285.722 32ZM162.736 273.909V190.744H184.136C187.026 190.744 190.051 189.706 193.211 187.629C196.372 185.552 197.952 182.708 197.952 179.096C197.952 175.484 196.507 172.459 193.618 170.021C190.728 167.583 187.929 166.364 185.22 166.364H114.787C111.717 166.364 108.827 167.267 106.119 169.073C103.41 170.879 102.055 173.859 102.055 178.012C102.055 182.166 103.5 185.327 106.389 187.494C109.279 189.661 112.53 190.744 116.142 190.744H137.542V273.909C137.542 278.424 138.626 282.126 140.793 285.016C142.96 287.905 146.03 289.35 150.003 289.35C153.977 289.35 157.092 287.725 159.349 284.474C161.607 281.223 162.736 277.702 162.736 273.909ZM280.033 289.35C286.715 286.822 288.792 280.411 286.264 270.117C285.541 267.769 280.439 253.728 270.958 227.992C261.477 202.257 256.014 187.584 254.569 183.972C249.693 172.233 243.011 166.364 234.523 166.364C225.312 166.364 218.179 172.233 213.122 183.972C211.677 187.042 206.169 201.987 196.597 228.805C187.026 255.624 182.059 269.394 181.698 270.117C180.434 271.742 180.118 274.722 180.75 279.056C181.382 283.391 183.324 286.37 186.574 287.996C190.186 289.621 193.708 289.802 197.139 288.538C200.571 287.273 202.918 285.377 204.182 282.849L210.684 264.97H257.82C259.806 271.471 261.251 275.715 262.154 277.702C263.057 279.508 264.05 281.314 265.134 283.12C266.217 284.926 268.204 286.686 271.094 288.402C273.983 290.118 276.963 290.434 280.033 289.35ZM352.904 289.35C356.696 289.35 360.173 288.176 363.333 285.829C366.494 283.481 368.074 280.32 368.074 276.347C368.074 272.374 366.629 269.259 363.74 267.001C360.85 264.744 357.238 263.615 352.904 263.615H322.834V181.805C322.834 178.012 321.706 174.491 319.448 171.24C317.191 167.989 314.076 166.364 310.102 166.364C306.129 166.364 303.059 167.809 300.892 170.698C298.725 173.588 297.641 177.29 297.641 181.805V273.909C297.641 278.424 298.725 282.126 300.892 285.016C303.059 287.905 306.129 289.35 310.102 289.35C310.283 289.35 310.599 289.305 311.051 289.215C311.502 289.124 311.818 289.079 311.999 289.079C312.179 289.079 312.495 289.124 312.947 289.215C313.398 289.305 313.714 289.35 313.895 289.35H352.904ZM459.636 287.454C462.707 284.564 464.242 281.268 464.242 277.566C464.242 273.864 463.068 270.568 460.72 267.679C459.636 266.053 448.259 250.793 426.587 221.897C437.062 211.242 447.627 200.587 458.282 189.932C460.991 187.223 462.661 184.017 463.293 180.315C463.926 176.613 462.887 173.136 460.178 169.886C457.108 166.996 453.812 165.822 450.29 166.364C446.769 166.906 443.473 168.712 440.403 171.782C439.861 172.324 437.513 174.716 433.36 178.96C429.206 183.205 423.833 188.668 417.241 195.35C410.65 202.032 404.825 207.991 399.769 213.229V181.805C399.769 178.012 398.64 174.491 396.382 171.24C394.125 167.989 391.01 166.364 387.037 166.364C383.063 166.364 379.993 167.809 377.826 170.698C375.659 173.588 374.575 177.29 374.575 181.805V273.909C374.575 278.424 375.659 282.126 377.826 285.016C379.993 287.905 383.063 289.35 387.037 289.35C391.01 289.35 394.125 287.725 396.382 284.474C398.64 281.223 399.769 277.702 399.769 273.909V249.258C400.491 248.535 401.845 247.136 403.832 245.059C405.819 242.982 407.444 241.311 408.708 240.047C420.628 256.301 431.283 270.658 440.674 283.12C443.202 286.551 446.137 288.763 449.478 289.757C452.819 290.75 456.205 289.982 459.636 287.454ZM217.998 240.589L234.523 192.099L250.776 240.589H217.998Z" fill="black"/>
</svg>
