<svg width="576" height="512" viewBox="0 0 576 512" fill="none" xmlns="http://www.w3.org/2000/svg">
<path d="M206.929 216.885V271.833C206.929 274.339 206.185 276.665 204.696 278.813C203.208 280.961 201.155 282.035 198.536 282.035C195.917 282.035 193.893 281.08 192.464 279.171C191.036 277.262 190.321 274.816 190.321 271.833V216.885H176.214C173.833 216.885 171.69 216.169 169.786 214.737C167.881 213.305 166.929 211.217 166.929 208.472C166.929 205.728 167.821 203.759 169.607 202.566C171.393 201.373 173.298 200.776 175.321 200.776H221.75C223.536 200.776 225.381 201.582 227.286 203.192C229.19 204.803 230.143 206.802 230.143 209.188C230.143 211.575 229.101 213.454 227.018 214.826C224.935 216.199 222.94 216.885 221.036 216.885H206.929Z" fill="black"/>
<path fill-rule="evenodd" clip-rule="evenodd" d="M288.357 269.327C290.024 276.128 288.655 280.364 284.25 282.035C282.226 282.751 280.262 282.542 278.357 281.408C276.452 280.275 275.143 279.112 274.429 277.918C273.714 276.725 273.06 275.532 272.464 274.339C271.869 273.026 270.917 270.222 269.607 265.926H238.536L234.25 277.739C233.417 279.41 231.869 280.663 229.607 281.498C227.345 282.333 225.024 282.214 222.643 281.14C220.5 280.066 219.22 278.097 218.804 275.234C218.387 272.37 218.595 270.401 219.429 269.327C219.667 268.85 222.94 259.751 229.25 242.032C235.56 224.313 239.19 214.439 240.143 212.41C243.476 204.654 248.179 200.776 254.25 200.776C259.845 200.776 264.25 204.654 267.464 212.41C268.417 214.797 272.018 224.492 278.268 241.495C284.518 258.499 287.881 267.776 288.357 269.327ZM254.25 217.78L243.357 249.818H264.964L254.25 217.78Z" fill="black"/>
<path d="M339.161 279.708C337.077 281.259 334.786 282.035 332.286 282.035H306.571C306.452 282.035 306.244 282.005 305.946 281.945C305.649 281.886 305.44 281.856 305.321 281.856C305.202 281.856 304.994 281.886 304.696 281.945C304.399 282.005 304.19 282.035 304.071 282.035C301.452 282.035 299.429 281.08 298 279.171C296.571 277.262 295.857 274.816 295.857 271.833V210.978C295.857 207.995 296.571 205.549 298 203.64C299.429 201.731 301.452 200.776 304.071 200.776C306.69 200.776 308.744 201.85 310.232 203.998C311.72 206.146 312.464 208.472 312.464 210.978V265.031H332.286C335.143 265.031 337.524 265.777 339.429 267.269C341.333 268.76 342.286 270.819 342.286 273.444C342.286 276.069 341.244 278.157 339.161 279.708Z" fill="black"/>
<path d="M405.679 274.249C405.679 276.695 404.667 278.873 402.643 280.782C400.381 282.453 398.149 282.96 395.946 282.303C393.744 281.647 391.81 280.185 390.143 277.918C383.952 269.685 376.929 260.199 369.071 249.46C368.238 250.295 367.167 251.399 365.857 252.771C364.548 254.143 363.655 255.068 363.179 255.545V271.833C363.179 274.339 362.435 276.665 360.946 278.813C359.458 280.961 357.405 282.035 354.786 282.035C352.167 282.035 350.143 281.08 348.714 279.171C347.286 277.262 346.571 274.816 346.571 271.833V210.978C346.571 207.995 347.286 205.549 348.714 203.64C350.143 201.731 352.167 200.776 354.786 200.776C357.405 200.776 359.458 201.85 360.946 203.998C362.435 206.146 363.179 208.472 363.179 210.978V231.74C366.512 228.28 370.351 224.342 374.696 219.927C379.042 215.512 382.583 211.903 385.321 209.099C388.06 206.295 389.607 204.714 389.964 204.356C391.988 202.327 394.161 201.134 396.482 200.776C398.804 200.418 400.976 201.194 403 203.103C404.786 205.251 405.47 207.548 405.054 209.994C404.637 212.44 403.536 214.558 401.75 216.348C394.726 223.388 387.762 230.428 380.857 237.468C395.143 256.56 402.643 266.642 403.357 267.716C404.905 269.625 405.679 271.803 405.679 274.249Z" fill="black"/>
<path fill-rule="evenodd" clip-rule="evenodd" d="M112 32C85.4903 32 64 53.4903 64 80V432C64 458.51 85.4903 480 112 480H464C490.51 480 512 458.51 512 432V80C512 53.4903 490.51 32 464 32H112ZM368.268 128.914C343.685 117.638 316.929 112 288 112C259.071 112 232.315 117.638 207.732 128.914C183.149 140.19 163.714 155.523 149.429 174.913C135.143 194.303 128 215.453 128 238.363C128 260.557 134.756 281.11 148.268 300.023C161.78 318.936 180.024 334.119 203 345.574C192.881 379.701 187.464 399.091 186.75 403.744V404.46C186.75 404.937 186.869 405.474 187.107 406.071C187.345 406.668 187.702 407.145 188.179 407.503C189.369 408.099 190.619 408.159 191.929 407.682C194.667 407.324 217.226 392.409 259.607 362.936C269.369 364.248 278.833 364.905 288 364.905C317.048 364.905 343.833 359.267 368.357 347.991C392.881 336.715 412.286 321.352 426.571 301.902C440.857 282.453 448 261.273 448 238.363C448 215.453 440.857 194.303 426.571 174.913C412.286 155.523 392.851 140.19 368.268 128.914Z" fill="black"/>
</svg>
