<svg width="576" height="512" viewBox="0 0 576 512" fill="none" xmlns="http://www.w3.org/2000/svg">
<path d="M448 464V480H512V256H256V480H320V464H448ZM448 336H320V304H448V336ZM320 416V384H448V416H320ZM235 279.25L229.75 227.5C223.417 230 210.833 233.917 192 239.25V160H224V112H192V32H128V112H80V160H128V255.75C97.8333 262.917 77.1667 271.833 64 273.5L75.25 327L128 313V406.25C128 416.083 122.75 421 112.25 421H73.75L81 480H135.75C151.417 480 164.5 474.667 175 466C185.5 457.167 192 444.833 192 429V295C211 288.833 225.333 283.583 235 279.25ZM512 175.5V118.5L457.5 112C457.5 143.333 455.417 161.083 451.25 165.25C446.75 169.417 432.833 171.5 393.5 171.5C378 171.5 363.75 171.083 350.75 170.25C340.583 169.75 333.333 169.167 329 168.5C326 167.833 323.75 166.417 322.25 164.25C320.583 161.75 319.75 158.917 319.75 155.75V137C416.083 120.333 472.583 104.917 505.25 90.75L472 39.5C444 53.3333 398.833 68.1667 320 84V32H256V173.5C256 189.167 261 201.25 270 209.75C279.167 218.417 295.75 223.5 319.75 225C342.917 226.667 365.083 227.5 386.25 227.5C447.75 227.5 477.5 223.167 491.5 214.5C505.167 205.833 512 192.833 512 175.5Z" fill="black"/>
</svg>
