<svg width="576" height="512" viewBox="0 0 576 512" fill="none" xmlns="http://www.w3.org/2000/svg">
<path fill-rule="evenodd" clip-rule="evenodd" d="M427 352.5H512V304H254.25C256.871 299.107 259.149 295.794 261.083 292.981C262.299 291.213 263.379 289.642 264.324 288H448V128H128V288H194.897C193.976 289.699 192.911 291.322 191.7 293.166C189.879 295.939 187.729 299.213 185.25 304H64V352.5H160L146.25 373.75C144.417 376.917 143.5 380 143.5 383C143.5 387.333 145.167 391.167 148.5 394.5C151.833 397.833 155 399.75 158 400.25C179.5 402.417 207.167 406.75 241 413.25C184.333 425.917 128 432.25 72 432.25L84.25 480C189.083 476.167 265.083 463.75 312.25 442.75L321.25 438.75C402.583 459.083 449.917 472.667 463.25 479.5L497.75 425.75C478.25 419.25 442.5 409.75 390.5 397.25C405.667 382.583 417.833 367.667 427 352.5ZM315.75 386C274.75 377.167 242.75 370.583 219.75 366.25L228 352.5H352.75C341.75 366.333 329.417 377.5 315.75 386ZM377 160H192V192H377V160ZM192 224H377V256H192V224Z" fill="black"/>
<path d="M512 176V64H320V32H256V64H64V176H112V112H464V176H512Z" fill="black"/>
</svg>
