<svg width="576" height="512" viewBox="0 0 576 512" fill="none" xmlns="http://www.w3.org/2000/svg">
<path d="M196.5 301.75L140 283C134.667 301.667 125.083 327.75 111.25 361.25C96.75 396.583 81.9167 425.25 66.75 447.25L123 480C137.5 456.667 152 427.417 166.5 392.25C181.5 355.917 191.5 325.75 196.5 301.75ZM179.75 219.25C160.417 199.917 132.917 176.75 97.25 149.75L64 198C94.8333 222.667 121.667 246.833 144.5 270.5L179.75 219.25ZM200.5 110.5C184.5 94.5 156.75 71 117.25 40L81.75 86.75C112.75 112.75 140.25 137.75 164.25 161.75L200.5 110.5ZM512 480V415.75H386.25V320H497V256H386.25V193H512V128H396L410 113.5C384.5 86.3333 356.583 59.1667 326.25 32L276.5 69.75C301.167 93.0833 319.667 114.667 332 128H192V193H319.5V256H209V320H319.5V415.75H192V480H512Z" fill="black"/>
</svg>
