<svg width="576" height="512" viewBox="0 0 576 512" fill="none" xmlns="http://www.w3.org/2000/svg">
<path fill-rule="evenodd" clip-rule="evenodd" d="M112 32C85.4903 32 64 53.4903 64 80V432C64 458.51 85.4903 480 112 480H464C490.51 480 512 458.51 512 432V80C512 53.4903 490.51 32 464 32H112ZM208 128C199.163 128 192 135.163 192 144V368C192 376.837 199.163 384 208 384H240C248.837 384 256 376.837 256 368V288H336C344.837 288 352 280.837 352 272V240C352 231.163 344.837 224 336 224H256V192H368C376.837 192 384 184.837 384 176V144C384 135.163 376.837 128 368 128H208Z" fill="black"/>
</svg>
