<svg width="576" height="512" viewBox="0 0 576 512" fill="none" xmlns="http://www.w3.org/2000/svg">
<path fill-rule="evenodd" clip-rule="evenodd" d="M112 32C85.4903 32 64 53.4903 64 80V432C64 458.51 85.4903 480 112 480H464C490.51 480 512 458.51 512 432V80C512 53.4903 490.51 32 464 32H112ZM160 256C160 232.844 165.884 211.439 177.653 191.786C189.421 172.132 205.419 156.587 225.647 145.152C245.874 133.717 267.903 128 291.734 128C319.979 128 345.024 135.04 366.869 149.119C388.715 163.198 404.345 182.316 413.76 206.472C418.173 218.05 415.944 224 408.148 224H368.124C365.182 224 362.346 223.553 360.58 222.982C358.815 222.41 357.638 221.874 357.05 221.374C356.461 220.873 355.358 219.48 353.74 217.193C352.122 214.906 350.798 213.119 349.768 211.832C342.854 203.256 334.322 196.467 324.171 191.464C314.021 186.461 303.062 183.96 291.293 183.96C270.698 183.96 253.156 190.999 238.666 205.079C224.175 219.158 216.93 236.132 216.93 256C216.93 275.868 224.175 292.842 238.666 306.921C253.156 321.001 270.698 328.04 291.293 328.04C303.062 328.04 314.021 325.539 324.171 320.536C334.322 315.533 342.854 308.744 349.768 300.167C350.798 298.881 352.122 297.094 353.74 294.807C355.358 292.52 356.461 291.127 357.05 290.626C357.638 290.126 358.815 289.59 360.58 289.018C362.346 288.447 365.182 288 368.124 288H408.148C415.944 288 418.173 293.95 413.76 305.528C404.345 329.684 388.715 348.802 366.869 362.881C345.024 376.96 319.979 384 291.734 384C267.903 384 245.874 378.283 225.647 366.848C205.419 355.413 189.421 339.868 177.653 320.214C165.884 300.561 160 279.156 160 256Z" fill="black"/>
</svg>
