<svg width="576" height="512" viewBox="0 0 576 512" fill="none" xmlns="http://www.w3.org/2000/svg">
<path fill-rule="evenodd" clip-rule="evenodd" d="M112 32C85.4903 32 64 53.4903 64 80V432C64 458.51 85.4903 480 112 480H464C490.51 480 512 458.51 512 432V80C512 53.4903 490.51 32 464 32H112ZM256.054 367.92L256 283.444L252.573 278.397C231.762 247.753 201.6 203.338 162.358 145.152C160.786 142.294 160 139.721 160 137.434C160 131.145 165.36 128 176.08 128H202.024C209.313 128 216.603 133.36 223.893 144.08L288 234.559L352.108 144.08C359.398 133.36 366.687 128 373.977 128H399.92C410.641 128 416.001 131.145 416.001 137.434C416.001 139.721 415.215 142.294 413.642 145.152C374.482 203.217 344.364 247.568 323.557 278.205C322.34 279.999 321.154 281.745 320 283.444L319.947 367.92C319.947 372.351 318.41 376.138 315.337 379.283C312.264 382.428 308.512 384 304.081 384H271.92C267.632 384 263.915 382.428 260.771 379.283C257.626 376.138 256.054 372.351 256.054 367.92Z" fill="black"/>
</svg>
