<svg width="576" height="512" viewBox="0 0 576 512" fill="none" xmlns="http://www.w3.org/2000/svg">
<path fill-rule="evenodd" clip-rule="evenodd" d="M112 32C85.4903 32 64 53.4903 64 80V432C64 458.51 85.4903 480 112 480H464C490.51 480 512 458.51 512 432V80C512 53.4903 490.51 32 464 32H112ZM392 308C392 256.778 344.3 241.484 302.67 235.477C298.883 234.93 295.114 234.442 291.414 233.963C263.824 230.392 240 227.307 240 204C240 177.335 278.275 176 288 176C316.328 176 328.411 180.5 341.108 203.506C344.425 208 346.04 208 350.061 208H382.073C390.561 208 393.756 199.72 391.076 190C379.218 147.23 341.423 128 288 128C229.082 128 184 153.53 184 204C184 255.222 231.7 270.516 273.33 276.523C277.117 277.07 280.886 277.558 284.586 278.037C312.176 281.608 336 284.693 336 308C336 335.665 305.725 336 288 336C259.672 336 247.589 331.5 234.892 308.494C231.575 304 229.96 304 225.939 304H193.927C185.439 304 182.244 312.28 184.924 322C196.782 364.77 234.577 384 288 384C346.918 384 392 358.47 392 308Z" fill="black"/>
</svg>
