<svg width="576" height="512" viewBox="0 0 576 512" fill="none" xmlns="http://www.w3.org/2000/svg">
<path d="M240 176H310C324.359 176 336 187.641 336 202V214C336 228.359 324.359 240 310 240H240V176Z" fill="black"/>
<path fill-rule="evenodd" clip-rule="evenodd" d="M112 32C85.4903 32 64 53.4903 64 80V432C64 458.51 85.4903 480 112 480H464C490.51 480 512 458.51 512 432V80C512 53.4903 490.51 32 464 32H112ZM240 368V288.054H312C318.838 288.054 324.65 291.02 329.436 296.952C334.222 302.884 336.615 310.067 336.615 318.5V368C336.615 372.431 338.12 376.138 341.128 379.283C344.137 382.428 347.761 384 352 384H384.82C388.923 384 392.479 382.428 395.487 379.283C398.496 376.138 400 372.431 400 368V308.744C400 296.308 398.325 286.303 394.974 278.727C391.624 271.151 386.325 263.576 379.077 256C393.026 241.42 400 223.839 400 203.256C400 182.53 392.889 164.806 378.667 150.084C364.444 135.361 337.846 128 317.744 128H191.18C187.077 128 183.521 129.572 180.513 132.717C177.504 135.861 176 139.649 176 144.08V368C176 372.431 177.504 376.138 180.513 379.283C183.521 382.428 187.077 384 191.18 384H224C228.239 384 231.863 382.428 234.872 379.283C237.88 376.138 240 372.431 240 368Z" fill="black"/>
</svg>
