<svg width="576" height="512" viewBox="0 0 576 512" fill="none" xmlns="http://www.w3.org/2000/svg">
<path d="M240 224V192H320C328.837 192 336 199.163 336 208C336 216.837 328.837 224 320 224H240Z" fill="black"/>
<path d="M240 320V288H320C328.837 288 336 295.163 336 304C336 312.837 328.837 320 320 320H240Z" fill="black"/>
<path fill-rule="evenodd" clip-rule="evenodd" d="M112 32C85.4903 32 64 53.4903 64 80V432C64 458.51 85.4903 480 112 480H464C490.51 480 512 458.51 512 432V80C512 53.4903 490.51 32 464 32H112ZM176 144C176 135.163 183.163 128 192 128H321.111C342.889 128 361.481 135.361 376.889 150.084C392.296 164.806 400 182.53 400 203.256C400 223.839 392.111 241.42 377 256C392.111 270.58 400 288.161 400 308.744C400 329.47 392.296 347.194 376.889 361.916C361.481 376.639 342.889 384 321.111 384L192 384C183.163 384 176 376.837 176 368V144Z" fill="black"/>
</svg>
