<svg width="576" height="512" viewBox="0 0 576 512" fill="none" xmlns="http://www.w3.org/2000/svg">
<path fill-rule="evenodd" clip-rule="evenodd" d="M112 32C85.4903 32 64 53.4903 64 80V432C64 458.51 85.4903 480 112 480H464C490.51 480 512 458.51 512 432V80C512 53.4903 490.51 32 464 32H112ZM223.62 128H352.169C356.531 128 360.26 129.572 363.356 132.717C366.452 135.862 368 139.649 368 144.08V176.027C368 180.458 366.452 184.21 363.356 187.283C360.26 190.356 356.531 191.893 352.169 191.893H319.451V320.107H352.169C356.531 320.107 360.26 321.644 363.356 324.717C366.452 327.79 368 331.542 368 335.973V367.92C368 372.351 366.452 376.138 363.356 379.283C360.26 382.428 356.531 384 352.169 384H223.62C219.398 384 215.74 382.428 212.644 379.283C209.548 376.138 208 372.351 208 367.92V335.973C208 331.542 209.548 327.79 212.644 324.717C215.74 321.644 219.398 320.107 223.62 320.107H256.549V191.893H223.62C219.398 191.893 215.74 190.356 212.644 187.283C209.548 184.21 208 180.458 208 176.027V144.08C208 139.649 209.548 135.862 212.644 132.717C215.74 129.572 219.398 128 223.62 128Z" fill="black"/>
</svg>
