<svg width="576" height="512" viewBox="0 0 576 512" fill="none" xmlns="http://www.w3.org/2000/svg">
<path fill-rule="evenodd" clip-rule="evenodd" d="M112 32C85.4903 32 64 53.4903 64 80V432C64 458.51 85.4903 480 112 480H464C490.51 480 512 458.51 512 432V80C512 53.4903 490.51 32 464 32H112ZM176.01 261H176L176.007 260.913C175.971 259.606 176.078 258.226 176.33 256.798L185.603 142.835C186.26 134.473 193.759 128 202.788 128H382.769C392.285 128 400 135.163 400 144V160C400 168.837 392.285 176 382.769 176H230.829L227.857 221.806C242.832 216.231 267.983 209 296.615 209C357.911 209 400 232.03 400 296.5C400 346.97 362.219 384 295.538 384C238.006 384 189.766 364.77 176.995 322C174.109 312.28 177.55 304 186.691 304H221.165C225.495 304 227.235 304 230.806 308.494C244.012 330.711 270.759 336 296.615 336C325.808 336 352.308 322.735 352.308 296.5C352.308 269.385 324.615 256 296.615 256C262.611 256 248.658 261.749 237.479 266.354C230.008 269.432 223.776 272 213.627 272H186.691C179.866 272 176.219 267.384 176.01 261Z" fill="black"/>
</svg>
