<svg width="576" height="512" viewBox="0 0 576 512" fill="none" xmlns="http://www.w3.org/2000/svg">
<path fill-rule="evenodd" clip-rule="evenodd" d="M112 32C85.4903 32 64 53.4903 64 80V432C64 458.51 85.4903 480 112 480H464C490.51 480 512 458.51 512 432V80C512 53.4903 490.51 32 464 32H112ZM176 128C167.163 128 160 135.163 160 144V368C160 376.837 167.163 384 176 384H208C216.837 384 224 376.837 224 368V224L271.491 291.162C276.922 299.024 282.425 303 288 303C293.575 303 299.078 299.024 304.509 291.162L352 224V368C352 376.837 359.163 384 368 384H400C408.837 384 416 376.837 416 368V144C416 135.163 408.837 128 400 128L367.973 128C366.115 128 364.364 128.143 362.72 128.429C357.779 129.288 352.475 131.797 348.998 135.504C343.659 141.198 342.375 143.023 322.579 171.164L322.561 171.189C318 177.673 312.457 185.49 305.656 195.08C300.526 202.315 294.68 210.558 288 220C281.323 210.562 275.479 202.321 270.35 195.088C263.543 185.49 257.997 177.668 253.433 171.181L253.421 171.164C233.625 143.023 232.341 141.198 227.002 135.504C223.525 131.797 218.221 129.288 213.28 128.429C211.636 128.143 209.885 128 208.027 128L176 128Z" fill="black"/>
</svg>
