<svg width="576" height="512" viewBox="0 0 576 512" fill="none" xmlns="http://www.w3.org/2000/svg">
<path d="M309 176L256 176.027V240H309C316.259 240 322.63 236.784 327.889 230.352C333.148 223.92 335.778 216.201 335.778 207.196C335.778 198.048 333.185 192.107 328 185.675C322.815 179.243 316.407 176 309 176Z" fill="black"/>
<path fill-rule="evenodd" clip-rule="evenodd" d="M112 32C85.4903 32 64 53.4903 64 80V432C64 458.51 85.4903 480 112 480H464C490.51 480 512 458.51 512 432V80C512 53.4903 490.51 32 464 32H112ZM321 288L256 288.027V368C256 372.431 253.259 376.138 250 379.283C246.741 382.428 242.593 384 238 384H208C203.556 384 200.148 382.428 196.889 379.283C193.63 376.138 192 372.431 192 368V144C192 139.569 193.63 135.862 196.889 132.717C200.148 129.572 203.556 128 208 128H321C343.074 128 361.926 136.004 377.333 152.013C392.444 168.022 400 185.184 400 207.196C400 229.637 392.296 248.719 376.889 264.442C361.481 280.165 342.778 288 321 288Z" fill="black"/>
</svg>
