<svg width="576" height="512" viewBox="0 0 576 512" fill="none" xmlns="http://www.w3.org/2000/svg">
<path d="M238.938 288L304 208.429V288L238.938 288Z" fill="black"/>
<path fill-rule="evenodd" clip-rule="evenodd" d="M112 32C85.4903 32 64 53.4903 64 80V432C64 458.51 85.4903 480 112 480H464C490.51 480 512 458.51 512 432V80C512 53.4903 490.51 32 464 32H112ZM306.162 128C300.055 128 294.652 131.014 291.36 135.636C290.854 136.111 290.374 136.625 289.923 137.176L179.747 271.922C177.698 274.428 176.535 277.368 176.221 280.364C176.076 281.166 176 281.993 176 282.838V303.925L176 304V320C176 324.876 178.182 329.243 181.622 332.178C184.026 334.229 187.045 335.58 190.364 335.917C190.902 335.972 191.448 336 192 336H304V368C304 376.837 311.163 384 320 384H352C360.837 384 368 376.837 368 368V336H384C392.837 336 400 328.837 400 320V304C400 295.163 392.837 288 384 288H368V144C368 135.163 360.837 128 352 128H306.162Z" fill="black"/>
</svg>
