<svg width="576" height="512" viewBox="0 0 576 512" fill="none" xmlns="http://www.w3.org/2000/svg">
<path d="M236.65 204.864C222.428 218.658 215.317 235.703 215.317 256C215.317 275.868 222.356 292.842 236.436 306.921C250.515 321.001 267.489 328.04 287.357 328.04C295.075 328.04 302.365 326.968 309.226 324.824L284.57 295.236C279.853 289.376 277.494 285.159 277.494 282.586C277.494 275.116 287.486 272 293.575 272H327.665C332.61 272 337.988 274.512 341.28 278.191C344.892 282.228 348.477 286.316 351.893 290.519C357.753 279.942 360.683 268.436 360.683 256C360.683 236.132 353.644 219.158 339.564 205.079C325.485 190.999 308.511 183.96 288.643 183.96C268.203 184.103 250.872 191.071 236.65 204.864Z" fill="black"/>
<path fill-rule="evenodd" clip-rule="evenodd" d="M112 32C85.4903 32 64 53.4903 64 80V432C64 458.51 85.4903 480 112 480H464C490.51 480 512 458.51 512 432V80C512 53.4903 490.51 32 464 32H112ZM416 256C416 285.445 406.852 311.817 388.556 335.116L407.853 358.271C408.138 358.7 408.96 359.701 410.318 361.273C411.676 362.845 412.641 364.025 413.213 364.811C413.784 365.597 414.392 366.705 415.035 368.134C415.678 369.563 416 370.921 416 372.208C416 375.781 414.285 378.64 410.854 380.784C407.424 382.928 403.779 384 399.92 384H365.829C360.54 384 354.037 379.355 346.318 370.064C327.736 379.355 308.297 384 288 384C264.844 384 243.439 378.283 223.786 366.848C204.132 355.413 188.587 339.868 177.152 320.214C165.717 300.561 160 279.156 160 256C160 232.844 165.717 211.439 177.152 191.786C188.587 172.132 204.132 156.587 223.786 145.152C243.439 133.717 264.844 128 288 128C311.156 128 332.561 133.717 352.214 145.152C371.868 156.587 387.413 172.132 398.848 191.786C410.283 211.439 416 232.844 416 256Z" fill="black"/>
</svg>
