<svg width="576" height="512" viewBox="0 0 576 512" fill="none" xmlns="http://www.w3.org/2000/svg">
<path fill-rule="evenodd" clip-rule="evenodd" d="M112 32C85.4903 32 64 53.4903 64 80V432C64 458.51 85.4903 480 112 480H464C490.51 480 512 458.51 512 432V80C512 53.4903 490.51 32 464 32H112ZM368 128C359.163 128 352 135.163 352 144V288C338.467 271.315 333.919 265.709 329.375 260.099C320.233 248.813 311.105 237.515 228.82 135.933C227.223 134.218 224.61 132.467 220.98 130.68C217.35 128.893 213.646 128 209 128H176C167.163 128 160 135.163 160 144V368C160 376.837 167.163 384 176 384H208C216.837 384 224 376.837 224 368V224L341.953 369.42C343.985 372.136 345.728 374.316 347.18 375.96C348.632 377.604 351.209 379.355 354.911 381.213C358.613 383.071 362.354 384 367 384H400C408.837 384 416 376.837 416 368V144C416 135.163 408.837 128 400 128H368Z" fill="black"/>
</svg>
