<svg width="576" height="512" viewBox="0 0 576 512" fill="none" xmlns="http://www.w3.org/2000/svg">
<path d="M288 281C298.473 281 339.692 282.335 339.692 309C339.692 335.665 298.473 337 288 337C277.527 337 236.308 335.665 236.308 309C236.308 282.335 277.527 281 288 281Z" fill="black"/>
<path d="M288 233C298.473 233 339.692 231.665 339.692 205C339.692 178.335 298.473 177 288 177C277.527 177 236.308 178.335 236.308 205C236.308 231.665 277.527 233 288 233Z" fill="black"/>
<path fill-rule="evenodd" clip-rule="evenodd" d="M112 32C85.4903 32 64 53.4903 64 80V432C64 458.51 85.4903 480 112 480H464C490.51 480 512 458.51 512 432V80C512 53.4903 490.51 32 464 32H112ZM288 129C351.45 129 400 154.53 400 205C400 227.157 390.643 244.507 374.777 257C390.643 269.493 400 286.843 400 309C400 359.47 351.45 385 288 385C224.55 385 176 359.47 176 309C176 286.843 185.357 269.493 201.223 257C185.357 244.507 176 227.157 176 205C176 154.53 224.55 129 288 129Z" fill="black"/>
</svg>
