<svg width="576" height="512" viewBox="0 0 576 512" fill="none" xmlns="http://www.w3.org/2000/svg">
<path fill-rule="evenodd" clip-rule="evenodd" d="M112 32C85.4903 32 64 53.4903 64 80V432C64 458.51 85.4903 480 112 480H464C490.51 480 512 458.51 512 432V80C512 53.4903 490.51 32 464 32H112ZM176 208.216C176 208.24 176.001 208.266 176.003 208.293C176.159 216.995 183.261 224 192 224C192.71 224 193.408 223.954 194.093 223.864C194.742 223.953 195.4 224 196.066 224C217.386 224 235.934 212.617 252.025 202.742C253.367 201.918 254.692 201.105 256 200.31V320H192C183.163 320 176 327.163 176 336V368C176 376.837 183.163 384 192 384H384C392.837 384 400 376.837 400 368V336C400 327.163 392.837 320 384 320H320V144C320 135.163 312.837 128 304 128H256C245.244 144.518 216.126 163.11 193.5 168C193.422 168.016 193.345 168.032 193.267 168.049C192.849 168.017 192.426 168 192 168C183.163 168 176 175.163 176 184C176 184.455 176.019 184.905 176.056 185.35C176.019 185.675 176 185.996 176 186.312V208.216Z" fill="black"/>
</svg>
