<svg width="576" height="512" viewBox="0 0 576 512" fill="none" xmlns="http://www.w3.org/2000/svg">
<path fill-rule="evenodd" clip-rule="evenodd" d="M112 32C85.4903 32 64 53.4903 64 80V432C64 458.51 85.4903 480 112 480H464C490.51 480 512 458.51 512 432V80C512 53.4903 490.51 32 464 32H112ZM393.812 192.75L268.611 320H384C388.125 320 392.265 321.68 395.359 324.824C398.453 327.969 400 331.712 400 336V368C400 372.288 398.453 376.138 395.359 379.283C392.265 382.428 388.125 384 384 384H192C187.875 384 183.563 382.463 180.538 379.39C177.513 376.317 176 372.431 176 368V336C176 329.425 177.994 323.824 181.982 319.25L307.389 192H192C187.737 192 183.563 190.356 180.538 187.283C177.513 184.21 176 180.431 176 176V144C176 139.569 177.513 135.683 180.538 132.61C183.563 129.537 187.737 128 192 128H384.53C388.793 128 392.437 129.537 395.462 132.61C398.487 135.683 400 139.569 400 144V176C400 182.575 397.937 188.176 393.812 192.75Z" fill="black"/>
</svg>
