<svg width="576" height="512" viewBox="0 0 576 512" fill="none" xmlns="http://www.w3.org/2000/svg">
<path fill-rule="evenodd" clip-rule="evenodd" d="M112 32C85.4903 32 64 53.4903 64 80V432C64 458.51 85.4903 480 112 480H464C490.51 480 512 458.51 512 432V80C512 53.4903 490.51 32 464 32H112ZM196.766 379.39C193.589 376.317 192 372.431 192 368V144C192 139.569 193.589 135.683 196.766 132.61C199.943 129.537 203.77 128 208.248 128H240.526C245.003 128 248.83 129.537 252.008 132.61C255.185 135.683 256 139.569 256 144V320H400C404.477 320 408.057 321.644 411.234 324.717C414.411 327.79 416 331.569 416 336V368C416 372.431 414.411 376.317 411.234 379.39C408.057 382.463 404.477 384 400 384H208C203.523 384 199.943 382.463 196.766 379.39Z" fill="black"/>
</svg>
