<svg width="576" height="512" viewBox="0 0 576 512" fill="none" xmlns="http://www.w3.org/2000/svg">
<path d="M389.853 316.811C382.1 333.558 372.686 341.931 361.61 341.931C350.535 341.931 341.12 333.558 333.367 316.811C325.615 300.065 321.738 279.877 321.738 256.245C321.738 232.613 325.615 212.425 333.367 195.679C341.12 178.932 350.535 170.559 361.61 170.559C372.686 170.559 382.1 178.932 389.853 195.679C397.606 212.425 401.482 232.613 401.482 256.245C401.482 279.877 397.606 300.065 389.853 316.811Z" fill="black"/>
<path fill-rule="evenodd" clip-rule="evenodd" d="M112 32C85.4903 32 64 53.4903 64 80V432C64 458.51 85.4903 480 112 480H464C490.51 480 512 458.51 512 432V80C512 53.4903 490.51 32 464 32H112ZM227.425 346.266V127.207C227.425 119.046 226.275 113.266 223.974 109.865C221.674 106.465 217.457 104.765 211.323 104.765H188.064C186.019 104.765 184.273 104.85 182.824 105.02C181.376 105.19 180.055 105.36 178.863 105.53C177.67 105.7 176.605 106.125 175.668 106.805C174.731 107.485 174.006 107.995 173.495 108.335C172.984 108.675 172.302 109.525 171.45 110.885C170.599 112.246 170.002 113.266 169.661 113.946C169.321 114.626 168.596 116.028 167.489 118.153C166.381 120.279 165.572 121.936 165.061 123.126C157.223 138.087 148.106 147.863 137.712 152.453C135.157 153.643 132.899 156.278 130.939 160.359C128.98 164.439 128 168.349 128 172.089V192.746C128 197.846 129.448 202.266 132.345 206.007C135.242 209.747 138.82 211.617 143.08 211.617C143.729 211.617 144.3 211.626 144.814 211.634C147.855 211.68 148.924 211.696 152.537 209.704L157.393 207.027L161.994 203.967C163.016 203.287 164.933 201.884 167.744 199.759C170.556 197.634 172.643 196.146 174.006 195.296V346.266H155.348C151.259 346.266 147.723 348.094 144.741 351.749C141.759 355.404 140.268 359.867 140.268 365.137V390.129C140.268 395.399 141.759 399.862 144.741 403.517C147.723 407.172 151.259 409 155.348 409H246.083C250.173 409 253.708 407.172 256.69 403.517C259.672 399.862 261.163 395.399 261.163 390.129V365.137C261.163 359.867 259.672 355.404 256.69 351.749C253.708 348.094 250.173 346.266 246.083 346.266H227.425ZM318.16 387.961C331.451 401.477 345.934 408.235 361.61 408.235C377.286 408.235 391.77 401.477 405.061 387.961C418.351 374.445 428.831 355.999 436.498 332.622C444.166 309.246 448 283.787 448 256.245C448 228.703 444.166 203.244 436.498 179.867C428.831 156.491 418.351 138.002 405.061 124.401C391.77 110.8 377.286 104 361.61 104C345.934 104 331.451 110.8 318.16 124.401C304.869 138.002 294.39 156.491 286.722 179.867C279.054 203.244 275.22 228.703 275.22 256.245C275.22 283.787 279.054 309.246 286.722 332.622C294.39 355.999 304.869 374.445 318.16 387.961Z" fill="black"/>
</svg>
