<svg width="576" height="512" viewBox="0 0 576 512" fill="none" xmlns="http://www.w3.org/2000/svg">
<path fill-rule="evenodd" clip-rule="evenodd" d="M112 32C85.4903 32 64 53.4903 64 80V432C64 458.51 85.4903 480 112 480H464C490.51 480 512 458.51 512 432V80C512 53.4903 490.51 32 464 32H112ZM416 368V272C416 263.163 408.837 256 400 256H320C311.163 256 304 263.163 304 272V288C304 296.837 311.163 304 320 304H340.574C333.745 319.996 316.765 327.994 289.634 327.994C269.299 327.994 251.978 320.948 237.671 306.857C223.365 292.766 216.211 275.779 216.211 255.894C216.211 236.009 223.365 219.021 237.671 204.93C251.978 190.839 269.299 183.794 289.634 183.794C308.226 183.794 325.604 186.258 339.548 198.56C341 199.848 342.307 201.135 343.469 202.423C344.631 203.71 345.503 204.605 346.084 205.105C346.665 205.606 347.137 206.071 347.5 206.5C347.863 206.929 348.626 207.18 349.788 207.251C350.95 207.323 352.003 207.394 352.947 207.466C353.891 207.537 355.888 207.573 358.938 207.573H400.77C404.339 207.573 409.989 205.398 407.939 199.673C397.481 176.641 381.758 158.902 360.769 146.457C339.781 134.011 316.214 127.859 290.07 128.002C272.495 128.002 255.682 131.364 239.632 138.088C223.582 144.811 209.748 153.895 198.128 165.34C186.508 176.784 177.248 190.375 170.349 206.111C163.45 221.847 160 238.441 160 255.894C160 279.069 165.81 300.491 177.43 320.162C189.05 339.832 204.845 355.389 224.817 366.833C244.789 378.278 266.54 384 290.07 384C305.466 384 320.245 380.352 334.407 373.056C347.868 366.121 359.066 357.764 368 347.985V368C368 376.837 375.163 384 384 384H400C408.837 384 416 376.837 416 368Z" fill="black"/>
</svg>
