<svg width="576" height="512" viewBox="0 0 576 512" fill="none" xmlns="http://www.w3.org/2000/svg">
<path fill-rule="evenodd" clip-rule="evenodd" d="M112 32C85.4903 32 64 53.4903 64 80V432C64 458.51 85.4903 480 112 480H464C490.51 480 512 458.51 512 432V80C512 53.4903 490.51 32 464 32H112ZM192 144C192 135.163 199.163 128 208 128H368C376.837 128 384 135.163 384 144V176C384 184.837 376.837 192 368 192H256V224H336C344.837 224 352 231.163 352 240V272C352 280.837 344.837 288 336 288H256V320H368C376.837 320 384 327.163 384 336V368C384 376.837 376.837 384 368 384H208C199.163 384 192 376.837 192 368V144Z" fill="black"/>
</svg>
