<svg width="576" height="512" viewBox="0 0 576 512" fill="none" xmlns="http://www.w3.org/2000/svg">
<path d="M288 176C263.527 176 224 184.335 224 230V282C224 292.777 226.201 301.474 229.887 308.474L305.518 177.477C299.341 176.393 293.316 176 288 176Z" fill="black"/>
<path d="M288 336C282.63 336 276.535 335.599 270.292 334.49L346.013 203.337C349.759 210.369 352 219.126 352 230V282C352 327.665 312.473 336 288 336Z" fill="black"/>
<path fill-rule="evenodd" clip-rule="evenodd" d="M112 32C85.4903 32 64 53.4903 64 80V432C64 458.51 85.4903 480 112 480H464C490.51 480 512 458.51 512 432V80C512 53.4903 490.51 32 464 32H112ZM288 128C351.45 128 400 158.53 400 232V280C400 353.47 351.45 384 288 384C224.55 384 176 353.47 176 280V232C176 158.53 224.55 128 288 128Z" fill="black"/>
</svg>
