<svg width="576" height="512" viewBox="0 0 576 512" fill="none" xmlns="http://www.w3.org/2000/svg">
<path d="M256 192C280.336 192 294.786 192.186 299.349 192.557C317.835 193.919 330.94 198.81 338.662 207.231C347.554 216.889 352 233.711 352 256C352 278.289 347.554 295.111 338.662 304.769C330.94 313.19 317.835 318.081 299.349 319.443C294.786 319.814 280.336 320 256 320V192Z" fill="black"/>
<path fill-rule="evenodd" clip-rule="evenodd" d="M112 32C85.4903 32 64 53.4903 64 80V432C64 458.51 85.4903 480 112 480H464C490.51 480 512 458.51 512 432V80C512 53.4903 490.51 32 464 32H112ZM192 144C192 135.163 199.163 128 208 128L293.721 128C375.24 128 416 170.452 416 255.357C416 298.238 405.792 330.399 385.377 351.839C364.961 373.28 334.766 384 294.792 384H208C199.163 384 192 376.837 192 368V144Z" fill="black"/>
</svg>
