<svg width="576" height="512" viewBox="0 0 576 512" fill="none" xmlns="http://www.w3.org/2000/svg">
<path fill-rule="evenodd" clip-rule="evenodd" d="M112 32C85.4903 32 64 53.4903 64 80V432C64 458.51 85.4903 480 112 480H464C490.51 480 512 458.51 512 432V80C512 53.4903 490.51 32 464 32H112ZM192 256C183.163 256 176 263.163 176 272V282C176 290.288 177.216 298.408 179.649 307.267C182.081 316.126 186.172 325.2 191.921 334.488C197.67 343.776 204.673 352.028 212.928 359.244C221.183 366.46 231.834 372.39 244.881 377.034C257.927 381.678 272.226 384 288 384C303.774 384 318.294 381.678 331.341 377.034C344.387 372.39 355.038 366.46 363.293 359.244C371.549 352.028 378.514 343.776 384.19 334.488C389.865 325.2 393.919 316.126 396.351 307.267C398.784 298.408 400 290.288 400 282V144C400 135.163 392.837 128 384 128H352C343.163 128 336 135.163 336 144V282C336 294.86 332.13 305.65 324.391 311.366C316.652 317.082 303.184 321.02 288 321.02C272.816 321.02 259.348 317.082 251.609 311.366C243.87 305.65 240 294.86 240 282V272C240 263.163 232.837 256 224 256H192Z" fill="black"/>
</svg>
