<svg width="576" height="512" viewBox="0 0 576 512" fill="none" xmlns="http://www.w3.org/2000/svg">
<path fill-rule="evenodd" clip-rule="evenodd" d="M112 32C85.4903 32 64 53.4903 64 80V432C64 458.51 85.4903 480 112 480H464C490.51 480 512 458.51 512 432V80C512 53.4903 490.51 32 464 32H112ZM176 368C176 376.837 183.163 384 192 384H384C392.837 384 400 376.837 400 368V336C400 327.163 392.837 320 384 320H237.373C243.288 298.432 272.947 285.657 303.798 281.523C348.631 275.516 400 255.222 400 204C400 153.53 351.45 128 288 128C230.468 128 189.766 147.23 176.995 190C174.109 199.72 177.55 208 186.691 208H221.165C225.495 208 227.235 208 230.806 203.506C244.481 180.5 257.493 176 288 176C298.473 176 339.692 177.335 339.692 204C339.692 230.433 306.693 235.855 272.202 240.477C229.756 246.164 181.449 273.623 176.428 320H176V368Z" fill="black"/>
</svg>
