<svg width="576" height="512" viewBox="0 0 576 512" fill="none" xmlns="http://www.w3.org/2000/svg">
<path fill-rule="evenodd" clip-rule="evenodd" d="M112 32C85.4903 32 64 53.4903 64 80V432C64 458.51 85.4903 480 112 480H464C490.51 480 512 458.51 512 432V80C512 53.4903 490.51 32 464 32H112ZM192 128C183.163 128 176 135.163 176 144V368C176 376.837 183.163 384 192 384H224C232.837 384 240 376.837 240 368V287.946H244.427C249.316 287.946 253.192 288.733 256.056 290.305C258.92 291.877 262.098 294.807 265.59 299.095L336 375C336.227 375.215 336.521 375.539 336.884 375.938C339.185 378.465 344.226 384 352 384H388.266C395.949 384 399.86 381.713 400 377.139C400 371.709 399 368 392.037 360.343L296 256L392.037 151.657C399 144 400 140.291 400 134.861C399.86 130.287 395.949 128 388.266 128H352C344.226 128 339.186 133.535 336.885 136.062C336.522 136.461 336.227 136.785 336 137L265.59 212.905C262.098 217.193 258.92 220.123 256.056 221.695C253.192 223.267 249.316 224.054 244.427 224.054H240V144C240 135.163 232.837 128 224 128H192Z" fill="black"/>
</svg>
