<svg width="576" height="512" viewBox="0 0 576 512" fill="none" xmlns="http://www.w3.org/2000/svg">
<path fill-rule="evenodd" clip-rule="evenodd" d="M112 32C85.4903 32 64 53.4903 64 80V432C64 458.51 85.4903 480 112 480H464C490.51 480 512 458.51 512 432V80C512 53.4903 490.51 32 464 32H112ZM368.958 381.32C367.676 383.107 366.709 384 365 384H326C322.155 384 319.4 378.64 316.837 367.92L288 256L259.163 367.92C256.6 378.64 253.845 384 250 384H212C210.291 384 208.324 383.107 207.042 381.32C205.761 379.533 204.835 377.747 204.265 375.96C203.696 374.173 202.913 371.493 201.916 367.92L144.455 144.08C143.458 140.221 144.099 136.576 146.378 133.146C148.656 129.715 151.152 128 154 128H192C193.709 128 195.508 128.893 196.789 130.68C198.071 132.467 198.996 134.254 199.566 136.04C200.136 137.827 200.919 140.507 201.916 144.08L231 256L259.163 144.08C260.587 138.935 261.975 134.968 263.328 132.181C264.681 129.394 266.722 128 269 128H307C308.566 128 310.215 128.858 311.497 130.573C312.779 132.288 313.775 134.111 314.487 136.04C315.199 137.97 315.983 140.65 316.837 144.08L345 256L374.084 144.08C375.081 140.507 375.864 137.827 376.434 136.04C377.004 134.254 377.929 132.467 379.211 130.68C380.492 128.893 382.291 128 384 128H422C424.848 128 427.344 129.715 429.622 133.146C431.901 136.576 432.542 140.221 431.545 144.08L374.084 367.92C373.087 371.493 372.304 374.173 371.735 375.96C371.165 377.747 370.239 379.533 368.958 381.32Z" fill="black"/>
</svg>
