<svg width="576" height="512" viewBox="0 0 576 512" fill="none" xmlns="http://www.w3.org/2000/svg">
<path fill-rule="evenodd" clip-rule="evenodd" d="M112 32C85.4903 32 64 53.4903 64 80V432C64 458.51 85.4903 480 112 480H464C490.51 480 512 458.51 512 432V80C512 53.4903 490.51 32 464 32H112ZM160 144C160 135.163 167.163 128 176 128H400C408.837 128 416 135.163 416 144V176C416 184.837 408.837 192 400 192H320V368C320 376.837 312.837 384 304 384H272C263.163 384 256 376.837 256 368L256 192H176C167.163 192 160 184.837 160 176V144Z" fill="black"/>
</svg>
