<svg width="576" height="512" viewBox="0 0 576 512" fill="none" xmlns="http://www.w3.org/2000/svg">
<path d="M286.923 176C254.211 176 227.692 190.327 227.692 208C227.692 225.673 254.211 240 286.923 240C319.635 240 346.154 225.673 346.154 208C346.154 191.431 322.847 177.804 292.979 176.165C290.988 176.056 288.968 176 286.923 176Z" fill="black"/>
<path fill-rule="evenodd" clip-rule="evenodd" d="M112 32C85.4903 32 64 53.4903 64 80V432C64 458.51 85.4903 480 112 480H464C490.51 480 512 458.51 512 432V80C512 53.4903 490.51 32 464 32H112ZM400 280C400 353.47 351.45 384 288 384C230.468 384 189.765 364.77 176.995 322C174.108 312.28 177.55 304 186.691 304H221.165C225.495 304 227.235 304 230.806 308.494C244.481 331.5 257.493 336 288 336C312.473 336 352 327.665 352 282V275.367C334.359 283.793 312.601 288 288 288C270.065 288 251.418 285.311 234.643 279.494C208.56 271.025 191.573 255.993 183.187 237.531C179.248 228.987 177.028 219.252 176.995 208.245C176.995 208.163 176.995 208.082 176.995 208C176.995 151 235.544 128 288 128C346.039 128 388.26 151.415 397.908 198.414C398.543 201.507 399.037 204.702 399.385 208C399.792 211.86 400 215.86 400 220L400 280Z" fill="black"/>
</svg>
