<svg width="576" height="512" viewBox="0 0 576 512" fill="none" xmlns="http://www.w3.org/2000/svg">
<path fill-rule="evenodd" clip-rule="evenodd" d="M112 32C85.4903 32 64 53.4903 64 80V432C64 458.51 85.4903 480 112 480H464C490.51 480 512 458.51 512 432V80C512 53.4903 490.51 32 464 32H112ZM339.692 205.027C339.692 213.608 336.217 219.532 330.344 224H272C263.163 224 256 231.163 256 240V272C256 280.837 263.163 288 272 288H329.404C335.845 293.124 339.692 299.944 339.692 308.973C339.692 335.647 298.473 336.983 288 336.983C257.493 336.983 244.481 332.481 230.806 309.467C227.235 304.972 225.495 304.972 221.165 304.972H186.691C177.55 304.972 174.109 313.255 176.995 322.978C189.766 365.763 230.468 385 288 385C351.45 385 400 359.461 400 308.973C400 285.218 388.959 268.363 372.647 256.499C388.959 245.135 400 228.782 400 205.027C400 154.539 351.45 129 288 129C230.468 129 189.766 148.237 176.995 191.022C174.109 200.745 177.55 209.028 186.691 209.028H221.165C225.495 209.028 227.235 209.028 230.806 204.533C244.481 181.519 257.493 177.017 288 177.017C298.473 177.017 339.692 178.353 339.692 205.027Z" fill="black"/>
</svg>
