<svg width="576" height="512" viewBox="0 0 576 512" fill="none" xmlns="http://www.w3.org/2000/svg">
<path d="M252.16 270.365H323.841L295.08 187.819C293.9 184.103 291.54 182.245 288 182.245C284.46 182.245 282.1 184.103 280.92 187.819L252.16 270.365Z" fill="black"/>
<path fill-rule="evenodd" clip-rule="evenodd" d="M112 32C85.4903 32 64 53.4903 64 80V432C64 458.51 85.4903 480 112 480H464C490.51 480 512 458.51 512 432V80C512 53.4903 490.51 32 464 32H112ZM338.663 318.606H237.337L218.531 372.422C216.909 377.568 215.139 380.784 213.222 382.07C211.304 383.357 208.059 384 203.487 384H168.753C160.936 384 158.355 379.069 161.01 369.206L234.682 162.519C237.189 153.371 241.429 145.331 247.403 138.399C253.376 131.466 260.567 128 268.974 128H307.026C315.433 128 322.624 131.466 328.597 138.399C334.571 145.331 338.811 153.371 341.318 162.519L414.99 369.206C417.645 379.069 415.064 384 407.247 384H372.513C367.941 384 364.696 383.357 362.778 382.07C360.861 380.784 359.091 377.568 357.469 372.422L338.663 318.606Z" fill="black"/>
</svg>
