<svg width="576" height="512" viewBox="0 0 576 512" fill="none" xmlns="http://www.w3.org/2000/svg">
<path d="M289.077 336C321.789 336 348.308 321.673 348.308 304C348.308 286.327 321.789 272 289.077 272C256.365 272 229.846 286.327 229.846 304C229.846 320.569 253.153 334.196 283.021 335.835C285.012 335.944 287.032 336 289.077 336Z" fill="black"/>
<path fill-rule="evenodd" clip-rule="evenodd" d="M112 32C85.4903 32 64 53.4903 64 80V432C64 458.51 85.4903 480 112 480H464C490.51 480 512 458.51 512 432V80C512 53.4903 490.51 32 464 32H112ZM176 232C176 158.53 224.55 128 288 128C345.532 128 386.235 147.23 399.005 190C401.892 199.72 398.45 208 389.309 208H354.835C350.505 208 348.765 208 345.194 203.506C331.519 180.5 318.507 176 288 176C263.527 176 224 184.335 224 230V236.633C241.641 228.207 263.399 224 288 224C305.935 224 324.582 226.689 341.357 232.506C367.44 240.975 384.427 256.007 392.813 274.469C396.752 283.013 398.972 292.748 399.005 303.755C399.005 303.837 399.005 303.918 399.005 304C399.005 361 340.456 384 288 384C229.961 384 187.74 360.585 178.092 313.586C177.457 310.493 176.963 307.298 176.615 304C176.208 300.14 176 296.14 176 292L176 232Z" fill="black"/>
</svg>
