<svg width="576" height="512" viewBox="0 0 576 512" fill="none" xmlns="http://www.w3.org/2000/svg">
<path d="M352 256C352 291.346 323.346 320 288 320C252.654 320 224 291.346 224 256C224 220.654 252.654 192 288 192C323.346 192 352 220.654 352 256Z" fill="black"/>
<path fill-rule="evenodd" clip-rule="evenodd" d="M112 32C85.4903 32 64 53.4903 64 80V432C64 458.51 85.4903 480 112 480H464C490.51 480 512 458.51 512 432V80C512 53.4903 490.51 32 464 32H112ZM416 256C416 326.692 358.692 384 288 384C217.308 384 160 326.692 160 256C160 185.308 217.308 128 288 128C358.692 128 416 185.308 416 256Z" fill="black"/>
</svg>
