<svg width="576" height="512" viewBox="0 0 576 512" fill="none" xmlns="http://www.w3.org/2000/svg">
<path fill-rule="evenodd" clip-rule="evenodd" d="M112 32C85.4903 32 64 53.4903 64 80V432C64 458.51 85.4903 480 112 480H464C490.51 480 512 458.51 512 432V80C512 53.4903 490.51 32 464 32H112ZM416 144V368C416 372.431 414.428 376.317 411.283 379.39C408.138 382.463 404.351 384 399.92 384H367.973C363.542 384 359.79 382.463 356.717 379.39C353.644 376.317 352 372.431 352 368V288H224V368C224 372.431 222.356 376.317 219.283 379.39C216.21 382.463 212.458 384 208.027 384H176.08C171.649 384 167.862 382.463 164.717 379.39C161.572 376.317 160 372.431 160 368V144C160 139.569 161.572 135.683 164.717 132.61C167.862 129.537 171.649 128 176.08 128H208.027C212.458 128 216.21 129.537 219.283 132.61C222.356 135.683 224 139.569 224 144V224H352V144C352 139.569 353.644 135.683 356.717 132.61C359.79 129.537 363.542 128 367.973 128H399.92C404.351 128 408.138 129.537 411.283 132.61C414.428 135.683 416 139.569 416 144Z" fill="black"/>
</svg>
