<svg width="576" height="512" viewBox="0 0 576 512" fill="none" xmlns="http://www.w3.org/2000/svg">
<path d="M224 312.047L341.75 312C379.861 312 412.593 298.289 439.556 270.774C466.519 243.259 480 209.865 480 170.593C480 132.071 466.778 102.039 440.333 74.0234C413.37 46.0078 380.38 32 341.75 32H140C132.222 32 126.259 34.7515 120.556 40.2546C114.852 45.7577 112 52.2456 112 60V452C112 459.754 114.852 466.242 120.556 471.745C126.259 477.248 132.222 480 140 480H192.5C200.537 480 207.796 477.248 213.5 471.745C219.204 466.242 224 459.754 224 452V312.047ZM224 116.047L320.75 116C333.713 116 344.926 121.675 354 132.931C363.074 144.188 367.611 154.584 367.611 170.593C367.611 186.352 363.009 199.859 353.806 211.116C344.602 222.372 333.454 228 320.75 228H224V116.047Z" fill="black"/>
</svg>
