<svg width="576" height="512" viewBox="0 0 576 512" fill="none" xmlns="http://www.w3.org/2000/svg">
<path fill-rule="evenodd" clip-rule="evenodd" d="M112 32C85.4903 32 64 53.4903 64 80V432C64 458.51 85.4903 480 112 480H464C490.51 480 512 458.51 512 432V80C512 53.4903 490.51 32 464 32H112ZM303.521 347.122L303.73 368.134C303.87 372.422 302.367 376.138 299.221 379.283C296.075 382.428 292.405 384 288.21 384H256.086C251.752 384 248.046 382.463 244.97 379.39C241.894 376.317 240.356 372.565 240.356 368.134V336C240.356 326.274 244.2 285.123 261.888 254.178C264.091 250.323 266.136 246.712 268.062 243.313C281.592 219.427 289.189 206.015 304 192H192C187.665 192 183.69 190.173 180.614 187.028C177.538 183.884 176 180.431 176 176L176 144C176 139.712 177.538 135.862 180.614 132.717C183.69 129.572 187.396 128 191.73 128H384.27C388.604 128 392.31 129.572 395.386 132.717C398.462 135.862 400 139.578 400 143.866V154.586C400 158.017 398.986 161.876 396.959 166.164C394.931 170.452 392.799 174.026 390.562 176.884C388.325 179.743 385.703 182.959 382.697 186.533C379.69 190.106 377.978 192.107 377.558 192.536C373.923 197.396 369.203 203.578 363.401 211.082C357.598 218.586 352.984 224.59 349.558 229.092C346.132 233.595 342.042 239.241 337.288 246.03C332.534 252.82 328.724 258.716 325.858 263.719C322.991 268.721 319.95 274.689 316.734 281.621C313.518 288.554 311.071 295.165 309.393 301.454C307.715 307.743 306.317 314.819 305.198 322.68C304.08 330.542 303.521 338.689 303.521 347.122Z" fill="black"/>
</svg>
