<svg width="576" height="512" viewBox="0 0 576 512" fill="none" xmlns="http://www.w3.org/2000/svg">
<path fill-rule="evenodd" clip-rule="evenodd" d="M112 32C85.4903 32 64 53.4903 64 80V432C64 458.51 85.4903 480 112 480H464C490.51 480 512 458.51 512 432V80C512 53.4903 490.51 32 464 32H112ZM344.818 367.92L288 300L231.183 367.92C228.467 371.35 226.394 373.851 224.965 375.424C223.536 376.996 221.356 378.819 218.426 380.891C215.495 382.964 212.573 384 210 384H176C172.141 384 168.576 382.928 165.146 380.784C161.715 378.64 160 375.781 160 372.208C160 369.349 162.43 365.061 167.29 359.343L253 256L167.29 152.657C162.43 146.939 160 142.651 160 139.792C160 136.219 161.715 133.36 165.146 131.216C168.576 129.072 172.141 128 176 128H210C212.573 128 215.495 129.036 218.426 131.109C221.356 133.181 223.536 135.004 224.965 136.576C226.394 138.149 228.467 140.65 231.183 144.08L288 213L344.818 144.08C347.534 140.65 349.606 138.149 351.036 136.576C352.465 135.004 354.645 133.181 357.575 131.109C360.505 129.036 363.427 128 366 128H400C403.859 128 407.424 129.072 410.855 131.216C414.285 133.36 416.001 136.219 416.001 139.792C416.001 142.651 413.571 146.939 408.711 152.657L323 256L408.711 359.343C413.571 365.061 416.001 369.349 416.001 372.208C416.001 375.781 414.285 378.64 410.855 380.784C407.424 382.928 403.859 384 400 384H366C363.427 384 360.505 382.964 357.575 380.891C354.645 378.819 352.465 376.996 351.036 375.424C349.606 373.851 347.534 371.35 344.818 367.92Z" fill="black"/>
</svg>
