<svg width="576" height="512" viewBox="0 0 576 512" fill="none" xmlns="http://www.w3.org/2000/svg">
<path fill-rule="evenodd" clip-rule="evenodd" d="M112 32C85.4903 32 64 53.4903 64 80V432C64 458.51 85.4903 480 112 480H464C490.51 480 512 458.51 512 432V80C512 53.4903 490.51 32 464 32H112ZM304 384H272C268.013 384 265.282 382.606 263.004 379.819C260.726 377.032 258.518 373.065 256.382 367.92L160.689 144.08C159.123 140.221 160.226 136.576 164 133.146C167.774 129.715 171.301 128 176 128H208C210.706 128 213.662 128.858 215.798 130.573C217.934 132.288 219.536 134.111 220.604 136.04C221.672 137.97 222.918 140.65 224.342 144.08L287.995 293L351.648 144.08C353.784 138.935 355.992 134.968 358.27 132.181C360.548 129.394 364.013 128 368 128H400C404.699 128 408.395 129.715 412.097 133.146C415.8 136.576 416.868 140.221 415.301 144.08L319.822 367.92C317.686 373.065 315.479 377.032 313.2 379.819C310.922 382.606 307.987 384 304 384Z" fill="black"/>
</svg>
