<svg width="576" height="512" viewBox="0 0 576 512" fill="none" xmlns="http://www.w3.org/2000/svg">
<path d="M253.425 192C254.406 192 255.203 192.313 255.816 192.939C256.429 193.565 256.736 194.379 256.736 195.38V268.808C256.736 270.936 255.632 272 253.425 272H241.839C239.632 272 238.529 270.936 238.529 268.808V195.38C238.529 194.379 238.866 193.565 239.54 192.939C240.215 192.313 240.981 192 241.839 192H253.425Z" fill="black"/>
<path d="M333.057 192C335.142 192 336.184 193.127 336.184 195.38V268.808C336.184 270.936 335.142 272 333.057 272H321.471C320.245 272 319.326 271.562 318.713 270.685L285.793 225.052V268.808C285.793 270.936 284.751 272 282.667 272H271.08C268.874 272 267.77 270.936 267.77 268.808V195.38C267.77 193.127 268.874 192 271.08 192H282.667C283.77 192 284.628 192.438 285.241 193.315L318.161 238.948V195.38C318.161 194.379 318.467 193.565 319.08 192.939C319.693 192.313 320.49 192 321.471 192H333.057Z" fill="black"/>
<path d="M225.471 253.596C227.678 253.596 228.782 254.66 228.782 256.789V268.808C228.782 270.936 227.678 272 225.471 272H179.31C177.103 272 176 270.936 176 268.808V195.38C176 193.127 177.103 192 179.31 192H190.897C192.981 192 194.023 193.127 194.023 195.38V253.596H225.471Z" fill="black"/>
<path d="M396.69 210.404H365.425V222.986H396.69C398.897 222.986 400 224.05 400 226.178V237.822C400 238.823 399.663 239.668 398.988 240.357C398.314 241.045 397.548 241.39 396.69 241.39H365.425V253.596H396.69C398.897 253.596 400 254.66 400 256.789V268.808C400 270.936 398.897 272 396.69 272H350.529C348.444 272 347.402 270.936 347.402 268.808V195.38C347.402 193.127 348.444 192 350.529 192H396.69C397.548 192 398.314 192.313 398.988 192.939C399.663 193.565 400 194.379 400 195.38V207.211C400 209.34 398.897 210.404 396.69 210.404Z" fill="black"/>
<path fill-rule="evenodd" clip-rule="evenodd" d="M112 32C85.4903 32 64 53.4903 64 80V432C64 458.51 85.4903 480 112 480H464C490.51 480 512 458.51 512 432V80C512 53.4903 490.51 32 464 32H112ZM435.321 179.528C443.774 196.34 448 213.996 448 232.495C448 262.244 436.571 290.243 413.714 316.492C398.833 334.492 377.077 353.96 348.446 374.896C319.815 395.833 299.667 408.864 288 413.989C280.504 418.767 272.524 414.74 274.071 404.989C274.31 403.364 275.083 398.552 276.393 390.552C276.988 383.177 276.81 378.178 275.857 375.553C274.31 371.553 269.607 368.74 261.75 367.115C236.512 363.616 213.714 355.491 193.357 342.741C173 329.992 157.018 313.961 145.411 294.649C133.804 275.337 128 254.619 128 232.495C128 213.996 132.226 196.34 140.679 179.528C149.131 162.716 160.5 148.217 174.786 136.03C189.071 123.843 206.095 114.124 225.857 106.875C245.619 99.6249 266.333 96 288 96C309.667 96 330.381 99.6249 350.143 106.875C369.905 114.124 386.929 123.843 401.214 136.03C415.5 148.217 426.869 162.716 435.321 179.528Z" fill="black"/>
</svg>
