<svg width="576" height="512" viewBox="0 0 576 512" fill="none" xmlns="http://www.w3.org/2000/svg">
<path fill-rule="evenodd" clip-rule="evenodd" d="M288 160C332.183 160 368 124.183 368 80C368 35.8172 332.183 0 288 0C243.817 0 208 35.8172 208 80C208 124.183 243.817 160 288 160ZM248 80C248 57.9086 265.909 40 288 40C292.418 40 296 36.4183 296 32C296 27.5817 292.418 24 288 24C257.072 24 232 49.0721 232 80C232 84.4183 235.582 88 240 88C244.418 88 248 84.4183 248 80Z" fill="black"/>
<path d="M176.001 80H112C94.3269 80 80 94.3269 80 112V480C80 497.673 94.3269 512 112 512H336V384C336 366.327 350.327 352 368 352H496V112C496 94.3269 481.673 80 464 80H398.999C398.73 141.35 348.913 191 287.5 191C226.087 191 176.27 141.35 176.001 80Z" fill="black"/>
<path d="M370.745 512H368V384H496V386.745C496 395.232 492.629 403.371 486.627 409.373L393.373 502.627C387.371 508.629 379.232 512 370.745 512Z" fill="black"/>
</svg>
