<svg width="576" height="512" viewBox="0 0 576 512" fill="none" xmlns="http://www.w3.org/2000/svg">
<path d="M160 128C195.346 128 224 99.3462 224 64C224 28.6538 195.346 0 160 0C124.654 0 96 28.6538 96 64C96 99.3462 124.654 128 160 128Z" fill="black"/>
<path d="M96.7143 144C78.6467 144 64 158.647 64 176.714V320C64 337.673 78.3269 352 96 352V488C96 501.255 106.745 512 120 512H200C213.255 512 224 501.255 224 488V352C241.673 352 256 337.673 256 320V175.714C256 158.199 241.801 144 224.286 144H213.429C213.429 144 183.655 159.857 160 159.857C136.345 159.857 107.571 144 107.571 144H96.7143Z" fill="black"/>
<path d="M480 64C480 99.3462 451.346 128 416 128C380.654 128 352 99.3462 352 64C352 28.6538 380.654 0 416 0C451.346 0 480 28.6538 480 64Z" fill="black"/>
<path d="M371.714 144C360.669 144 350.995 151.403 348.108 162.064L298.932 343.635C293.423 363.978 308.743 384 329.82 384H368V488C368 501.255 378.745 512 392 512H440C453.255 512 464 501.255 464 488V384H502.348C523.373 384 538.685 364.07 533.268 343.755L485.08 163.049C482.084 151.816 471.911 144 460.286 144H453.429C453.429 144 439.655 158.857 416 158.857C392.345 158.857 378.571 144 378.571 144H371.714Z" fill="black"/>
</svg>
