<svg width="576" height="512" viewBox="0 0 576 512" fill="none" xmlns="http://www.w3.org/2000/svg">
<path d="M299.567 158.14C283.884 167.221 262.071 179.875 234.126 196.103C206.182 212.33 184.368 225.068 168.686 234.317C149.333 228.263 133.151 217.333 120.138 201.526L117.385 203.291C115.383 204.469 113.214 204.763 110.878 204.174C108.543 203.586 106.708 202.282 105.373 200.264L97.1147 185.887C95.9469 183.869 95.6967 181.599 96.364 179.076C97.0313 176.554 98.366 174.62 100.368 173.275L103.121 171.761C94.2786 148.555 94.07 124.97 102.495 101.008C110.92 77.0446 126.06 58.7572 147.915 46.1451C170.104 33.3649 193.461 29.2449 217.985 33.7853C242.51 38.3256 262.613 50.265 278.295 69.6035L281.048 67.8378C283.384 66.6607 285.719 66.4505 288.055 67.2072C290.391 67.964 292.226 69.3513 293.561 71.3692L301.569 85.747C302.736 87.7649 303.028 89.951 302.445 92.3052C301.861 94.6595 300.568 96.5093 298.566 97.8545L295.312 99.6202C302.319 118.286 303.737 137.793 299.567 158.14ZM362.88 442.921C369.053 454.86 376.769 464.025 386.028 470.415C395.287 476.805 405.255 480 415.933 480C434.618 480 450.008 473.82 462.104 461.46C474.199 449.1 480.163 433.756 479.997 415.426C479.997 409.541 479.538 403.655 478.62 397.769C477.703 391.884 476.743 386.923 475.742 382.887C474.741 378.851 473.198 374.269 471.113 369.14C469.027 364.011 467.484 360.396 466.483 358.294C465.482 356.192 463.814 352.912 461.478 348.456C459.142 344 457.891 341.52 457.724 341.015C454.054 333.952 450.259 329.16 446.338 326.637C442.417 324.115 439.206 323.526 436.703 324.872C435.035 325.712 433.867 327.31 433.2 329.664C432.533 332.018 432.616 335.087 433.45 338.871C434.284 342.655 435.869 346.648 438.205 350.852C443.043 359.261 447.84 370.317 452.594 384.022C457.349 397.727 459.726 408.868 459.726 417.444C459.726 428.375 455.18 437.876 446.088 445.947C436.995 454.019 426.527 458.055 414.681 458.055C405.005 458.055 394.661 448.974 383.651 430.813L385.653 429.552C390.157 426.861 393.494 424.381 395.662 422.111C397.831 419.84 399.166 416.856 399.666 413.156C400.167 409.457 399.166 405.253 396.663 400.544L302.069 182.355L261.278 206.066L282.049 242.137C283.05 243.818 283.259 245.71 282.675 247.812C282.091 249.914 280.965 251.469 279.296 252.478L269.537 258.028L259.777 263.577C257.942 264.754 256.065 265.048 254.146 264.46C252.228 263.871 250.685 262.652 249.517 260.802L228.996 224.984L188.206 248.695L328.345 440.398C333.017 446.62 337.771 450.025 342.61 450.614C347.448 451.202 352.87 449.479 358.876 445.443L362.88 442.921Z" fill="black"/>
</svg>
