<svg width="576" height="512" viewBox="0 0 576 512" fill="none" xmlns="http://www.w3.org/2000/svg">
<path fill-rule="evenodd" clip-rule="evenodd" d="M48 80C48 53.4903 69.4903 32 96 32H274C300.51 32 322 53.4903 322 80V432C322 458.51 300.51 480 274 480H96C69.4903 480 48 458.51 48 432V80ZM82 112H288V400H82V112ZM176 64C167.163 64 160 71.1634 160 80C160 88.8366 167.163 96 176 96H192C200.837 96 208 88.8366 208 80C208 71.1634 200.837 64 192 64H176ZM144 432C144 423.163 151.163 416 160 416H208C216.837 416 224 423.163 224 432C224 440.837 216.837 448 208 448H160C151.163 448 144 440.837 144 432Z" fill="black"/>
<path d="M414.215 126.221C420.843 114.742 435.521 110.809 447 117.436C477.198 134.871 499.562 160.663 512.859 190.204C522.464 211.43 527.056 233.869 527.027 256.06C527.039 278.182 522.459 300.548 512.898 321.709C499.606 351.287 477.228 377.112 447 394.564C435.521 401.192 420.843 397.259 414.215 385.78C407.588 374.301 411.521 359.622 423 352.995C440.396 342.952 454.078 328.946 463.565 312.776C463.703 312.516 463.846 312.257 463.995 312C465.892 308.715 467.603 305.374 469.132 301.988C475.605 287.582 478.997 271.904 479.019 256.046C479.01 240.13 475.606 224.395 469.101 209.943C467.58 206.581 465.879 203.263 463.995 200C463.847 199.744 463.704 199.486 463.567 199.227C454.08 183.056 440.397 169.049 423 159.005C411.521 152.378 407.588 137.7 414.215 126.221Z" fill="black"/>
<path d="M399 200.574C387.521 193.947 372.843 197.88 366.215 209.359C359.588 220.838 363.521 235.516 375 242.143C377.452 243.559 379.387 245.525 380.74 247.796C380.764 247.838 380.787 247.879 380.811 247.921C380.826 247.947 380.841 247.974 380.857 248C381.122 248.46 381.362 248.927 381.577 249.401C382.518 251.484 383.008 253.754 383.003 256.049C382.994 258.283 382.516 260.492 381.611 262.524C381.387 263.023 381.136 263.516 380.856 264C380.816 264.07 380.776 264.14 380.737 264.21C379.384 266.478 377.45 268.442 375 269.856C363.521 276.484 359.588 291.162 366.215 302.641C372.843 314.12 387.521 318.053 399 311.426C411.103 304.438 420.061 294.094 425.375 282.248C429.184 273.805 431.011 264.884 431.011 256.06C431.027 247.167 429.189 238.173 425.337 229.668C420.018 217.857 411.074 207.545 399 200.574Z" fill="black"/>
</svg>
