<svg width="576" height="512" viewBox="0 0 576 512" fill="none" xmlns="http://www.w3.org/2000/svg">
<path fill-rule="evenodd" clip-rule="evenodd" d="M352 48C352 30.3269 337.673 16 320 16H288L256 16C238.327 16 224 30.3269 224 48L224 168.781C207.576 204.561 187.382 242.914 166.776 269.309C146.007 295.913 112.568 326.066 82.9006 350.421C81.8889 351.251 80.8839 352.073 79.8863 352.886L43.3137 316.314C33.2343 306.234 16 313.373 16 327.627V433C16 441.837 23.1634 449 32 449H137.373C151.627 449 158.766 431.766 148.686 421.686L125.363 398.363C155.35 373.639 192.387 340.506 217.224 308.692C231.051 290.979 244.151 269.765 256 248.021V384H206.879C184.841 384 174.455 411.213 190.888 425.896L271.342 497.785C280.414 505.892 294.117 505.927 303.231 497.868L384.528 425.979C401.082 411.34 390.728 384 368.629 384H320V248.021C331.849 269.765 344.949 290.979 358.776 308.692C383.613 340.506 420.65 373.639 450.637 398.363L427.314 421.686C417.234 431.766 424.373 449 438.627 449H544C552.837 449 560 441.837 560 433V327.627C560 313.373 542.766 306.234 532.686 316.314L496.114 352.886C495.116 352.073 494.111 351.251 493.099 350.421C463.432 326.066 429.993 295.913 409.224 269.309C388.618 242.914 368.424 204.561 352 168.781V48Z" fill="black"/>
</svg>
