<svg width="576" height="512" viewBox="0 0 576 512" fill="none" xmlns="http://www.w3.org/2000/svg">
<path d="M80 32C75.8333 32 72.125 33.5833 68.875 36.75C65.625 39.9167 64 43.6667 64 48V464C64 468.333 65.625 472.083 68.875 475.25C72.125 478.417 75.8333 480 80 480H496C500.167 480 503.875 478.417 507.125 475.25C510.375 472.083 512 468.333 512 464V48C512 43.6667 510.375 39.9167 507.125 36.75C503.875 33.5833 500.167 32 496 32H80ZM164.25 144H250.5L325.5 256V144H411.75V368H325.5L250.5 256V368H164.25V144Z" fill="black"/>
</svg>
