<svg width="576" height="512" viewBox="0 0 576 512" fill="none" xmlns="http://www.w3.org/2000/svg">
<path d="M240 32H336C347 32.1667 355.458 35.75 361.375 42.75C367.292 49.75 369 56.8333 366.5 64L336 112C335.667 112.5 335.25 113.25 334.75 114.25C332.75 117.583 330.958 120.083 329.375 121.75C327.792 123.417 325 124.833 321 126C317 127.167 311.333 127.833 304 128H272C264.667 127.833 259 127.167 255 126C251 124.833 248.208 123.417 246.625 121.75C245.042 120.083 243.25 117.583 241.25 114.25C240.75 113.25 240.333 112.5 240 112L209.5 64C207 56.8333 208.708 49.75 214.625 42.75C220.542 35.75 229 32.1667 240 32Z" fill="black"/>
<path d="M264.875 144H311.125L313.625 144.125C315.292 144.208 316.083 144.417 316 144.75C315.917 145.083 316.458 145.542 317.625 146.125C318.792 146.708 319.292 147.417 319.125 148.25C318.958 149.083 319.25 150.167 320 151.5L368 400L288 480L208 400L256 151.5C256.75 150.167 257.042 149.083 256.875 148.25C256.708 147.417 257.208 146.708 258.375 146.125C259.542 145.542 260.083 145.083 260 144.75C259.917 144.417 260.708 144.208 262.375 144.125L264.875 144Z" fill="black"/>
</svg>
