<svg width="576" height="512" viewBox="0 0 576 512" fill="none" xmlns="http://www.w3.org/2000/svg">
<path fill-rule="evenodd" clip-rule="evenodd" d="M391.95 109.454C360.185 100.52 325.01 96 288 96C250.99 96 215.815 100.52 184.05 109.454C181.732 105.902 178.965 102.04 175.75 97.8665C172.083 93.1072 168.208 88.348 164.125 83.5887C160.042 78.8294 155.25 73.9355 149.75 68.9068C144.25 63.8781 138.583 59.2984 132.75 55.1678C121.25 46.9064 111.292 40.9797 102.875 37.3878C94.4583 33.796 85.5 32 76 32C71 42.5961 59.7084 69.8497 62.125 113.761C63.7269 142.867 65.9329 164.93 68.743 179.952C45.421 208.776 32 244.87 32 288C32 434.039 146.615 480 288 480C429.385 480 544 424.039 544 288C544 244.87 530.579 208.776 507.257 179.952C510.067 164.93 512.273 142.867 513.875 113.761C516.292 69.8497 505 42.5961 500 32C490.5 32 481.542 33.796 473.125 37.3878C464.708 40.9797 454.75 46.9064 443.25 55.1678C437.417 59.2984 431.75 63.8781 426.25 68.9068C420.75 73.9355 415.958 78.8294 411.875 83.5887C407.792 88.348 403.917 93.1072 400.25 97.8665C397.035 102.04 394.268 105.902 391.95 109.454ZM208 256C208 273.673 193.673 288 176 288C158.327 288 144 273.673 144 256C144 238.327 158.327 224 176 224C193.673 224 208 238.327 208 256ZM400 288C417.673 288 432 273.673 432 256C432 238.327 417.673 224 400 224C382.327 224 368 238.327 368 256C368 273.673 382.327 288 400 288ZM192 336C200.837 336 208 343.163 208 352C208 360.868 218.64 374 240 374C251.833 374 260.75 371.927 266.108 368.918C270.632 366.379 272 363.763 272 360C272 351.163 279.163 344 288 344C296.837 344 304 351.163 304 360C304 363.763 305.368 366.379 309.892 368.918C315.25 371.927 324.167 374 336 374C357.36 374 368 360.868 368 352C368 343.163 375.163 336 384 336C392.837 336 400 343.163 400 352C400 385.106 367.66 406 336 406C321.323 406 306.24 403.566 294.226 396.822C292.041 395.595 289.956 394.218 288 392.694C286.044 394.218 283.959 395.595 281.774 396.822C269.76 403.566 254.677 406 240 406C208.34 406 176 385.106 176 352C176 343.163 183.163 336 192 336Z" fill="black"/>
</svg>
