<svg width="576" height="512" viewBox="0 0 576 512" fill="none" xmlns="http://www.w3.org/2000/svg">
<path d="M166.5 193H408.5C425.786 193 438.57 200.764 446.853 216.292C455.135 231.819 458.665 246.16 457.585 271.979C457.225 280.646 454.929 288.545 450.698 295.677C446.466 302.809 441.334 308.361 435.302 312.333C429.27 316.306 423.238 319.33 417.206 321.406C411.174 323.483 405.638 324.521 400.596 324.521C387.992 324.521 376.513 323.347 366.16 321C355.806 318.653 347.388 315.809 340.906 312.469C334.424 309.128 328.437 305.833 322.945 302.583C317.453 299.333 311.737 296.535 305.795 294.188C299.853 291.84 293.731 290.667 287.429 290.667C279.866 290.667 272.214 292.427 264.471 295.948C256.728 299.469 249.706 303.351 243.404 307.594C237.102 311.837 227.874 315.719 215.72 319.24C203.566 322.76 189.746 324.521 174.261 324.521C169.219 324.521 163.683 323.483 157.651 321.406C151.619 319.33 145.542 316.306 139.42 312.333C133.298 308.361 128.121 302.809 123.89 295.677C119.658 288.545 117.362 280.646 117.002 271.979C116.102 245.979 119.865 231.594 128.147 216.156C136.43 200.719 149.214 193 166.5 193ZM287.429 464C315.518 464 342.347 458.493 367.915 447.479C393.484 436.465 415.541 421.705 434.087 403.198C452.633 384.691 467.353 362.573 478.247 336.844C489.14 311.115 494.587 284.167 494.587 256C494.587 234.694 491.616 214.382 485.674 195.062L541.042 239.208L564 186.667L479.462 177.458C479.282 177.097 479.102 176.646 478.922 176.104C478.742 175.562 478.562 175.066 478.382 174.615C478.202 174.163 478.022 173.757 477.842 173.396L559.409 139.542L525.107 92.6875L473.25 163.917C456.144 129.069 430.936 101.038 397.625 79.8229C364.314 58.6076 327.582 48 287.429 48C249.796 48 215.09 57.2986 183.309 75.8958C151.529 94.4931 126.365 119.726 107.819 151.594C89.2731 183.462 80 218.264 80 256C80 293.736 89.2731 328.538 107.819 360.406C126.365 392.274 151.529 417.507 183.309 436.104C215.09 454.701 249.796 464 287.429 464ZM163.188 200.208L149.143 238.667L182.904 237.854C177.862 243.813 175.342 251.396 175.342 260.604C175.342 268.549 178.087 275.545 183.579 281.594C189.071 287.642 194.878 290.667 201 290.667C207.302 290.667 212.929 287.688 217.881 281.729C222.832 275.771 225.308 268.729 225.308 260.604C225.308 256.09 224.678 252.208 223.417 248.958L258.799 256.542L265.551 240.021L163.188 200.208ZM411.67 200.208L309.306 240.021L316.058 256.542L351.44 248.958C350.179 252.208 349.549 256.09 349.549 260.604C349.549 268.729 352.025 275.771 356.977 281.729C361.928 287.688 367.555 290.667 373.857 290.667C379.979 290.667 385.786 287.642 391.278 281.594C396.77 275.545 399.516 268.549 399.516 260.604C399.516 251.396 396.995 243.813 391.953 237.854L425.714 238.667L411.67 200.208Z" fill="black"/>
</svg>
