<svg width="576" height="512" viewBox="0 0 576 512" fill="none" xmlns="http://www.w3.org/2000/svg">
<path d="M192.804 240H144C135.163 240 128 247.163 128 256V288C128 296.837 135.163 304 144 304H256.804L192.804 240Z" fill="black"/>
<path d="M414.39 183.034C406.657 149.591 381.445 128 352 128C339.063 128 325.43 116.854 321.275 103.866C319.928 99.6574 316.418 96 312 96H297.106C292.279 96 288.522 100.263 289.61 104.966C297.343 138.412 322.555 160.04 352 160.5C365.398 160.5 379.146 171.018 383.264 184.127C384.588 188.342 388.082 192 392.5 192H406.894C411.721 192 415.478 187.737 414.39 183.034Z" fill="black"/>
<path fill-rule="evenodd" clip-rule="evenodd" d="M544 256C544 397.385 429.385 512 288 512C146.615 512 32 397.385 32 256C32 114.615 146.615 0 288 0C429.385 0 544 114.615 544 256ZM417.131 419.072C381.657 447.201 336.79 464 288 464C173.125 464 80 370.875 80 256C80 207.21 96.7987 162.343 124.928 126.869L417.131 419.072ZM451.072 385.131L369.941 304H432C440.837 304 448 296.837 448 288V256C448 247.163 440.837 240 432 240H305.941L158.869 92.9276C194.344 64.7986 239.21 48 288 48C402.875 48 496 141.125 496 256C496 304.79 479.201 349.656 451.072 385.131Z" fill="black"/>
</svg>
