<svg width="576" height="512" viewBox="0 0 576 512" fill="none" xmlns="http://www.w3.org/2000/svg">
<path fill-rule="evenodd" clip-rule="evenodd" d="M64 81.1679V332.725C71.9147 325.712 91.8133 314.354 123.696 298.65C155.579 282.947 176.299 273.876 185.856 271.436C213.184 287.597 238.72 310.847 262.464 341.186C286.208 371.526 303.755 403.694 315.104 437.693L303.68 480C318.315 463.382 354.379 443.41 411.872 420.084L386.336 415.967L410.08 403.847C399.179 404.609 387.755 401.712 375.808 395.157C363.861 388.601 357.44 380.673 356.544 371.373C355.648 362.073 359.157 354.222 367.072 347.818C374.987 341.415 383.797 338.29 393.504 338.442C403.659 338.595 412.955 341.453 421.392 347.018C429.829 352.583 435.355 359.596 437.968 368.057C440.581 376.519 439.051 385.628 433.376 395.385C447.861 395.385 459.397 392.069 467.984 385.437C476.571 378.806 484.747 368.629 492.512 354.908L499.008 333.64L512 309.856L496.768 289.732C486.613 267.168 473.099 241.783 456.224 213.578C439.349 185.374 427.253 168.451 419.936 162.81C413.067 155.949 408.027 150.956 404.816 147.831C401.605 144.705 396.603 140.093 389.808 133.995C383.013 127.897 377.189 123.17 372.336 119.816C367.483 116.462 361.659 112.917 354.864 109.182C348.069 105.447 341.387 102.512 334.816 100.378C329.44 89.7056 327.648 66.9131 329.44 32C314.955 32 301.888 33.4865 290.24 36.4594C278.592 39.4324 268.885 43.625 261.12 49.0373C253.355 54.4495 247.083 59.7475 242.304 64.9311C237.525 70.1147 233.045 75.9843 228.864 82.5401C194.517 79.7958 139.563 79.3384 64 81.1679ZM303.68 56.927C302.635 66.9893 303.307 82.3876 305.696 103.122C289.568 99.1581 273.44 96.1851 257.312 94.2032C260.448 78.8048 275.904 66.3794 303.68 56.927ZM342.88 191.396C352.885 192.158 360.949 193.225 367.072 194.597C373.195 195.969 379.317 198.676 385.44 202.716C391.563 206.756 396.64 210.796 400.672 214.836C404.704 218.876 411.125 225.699 419.936 235.304L380.288 241.021L342.88 191.396Z" fill="black"/>
</svg>
