<svg width="576" height="512" viewBox="0 0 576 512" fill="none" xmlns="http://www.w3.org/2000/svg">
<g clip-path="url(#clip0)">
<path fill-rule="evenodd" clip-rule="evenodd" d="M248 0C287.764 0 320 32.2355 320 72V80H444C472.719 80 496 103.281 496 132V352H495.704C494.445 363.755 489.207 374.793 480.77 383.23L367.23 496.77C358.793 505.207 347.755 510.445 336 511.704V512H487.438C476.372 531.13 455.689 544 432 544H304V512H132C103.281 512 80 488.719 80 460V132C80 103.281 103.281 80 132 80H176V72C176 32.2355 208.236 0 248 0ZM336 479.218C339.222 478.289 342.189 476.556 344.603 474.142L458.142 360.603C460.556 358.189 462.289 355.222 463.218 352H368C350.327 352 336 366.327 336 384V479.218ZM464 320H368C332.654 320 304 348.654 304 384V480H132C120.954 480 112 471.046 112 460V132C112 120.954 120.954 112 132 112H176V264C176 294.928 201.072 320 232 320C262.928 320 288 294.928 288 264V144H256V264C256 277.255 245.255 288 232 288C218.745 288 208 277.255 208 264V112H444C455.046 112 464 120.954 464 132V320ZM208 72V80H288V72C288 49.9086 270.091 32 248 32C225.909 32 208 49.9086 208 72Z" fill="black"/>
</g>
<defs>
<clipPath id="clip0">
<rect width="576" height="512" fill="white"/>
</clipPath>
</defs>
</svg>
