<svg width="576" height="512" viewBox="0 0 576 512" fill="none" xmlns="http://www.w3.org/2000/svg">
<path fill-rule="evenodd" clip-rule="evenodd" d="M320 72C320 32.2355 287.764 0 248 0C208.236 0 176 32.2355 176 72V80H112C94.3269 80 80 94.3269 80 112V480C80 497.673 94.3269 512 112 512H336V384C336 366.327 350.327 352 368 352H496V112C496 94.3269 481.673 80 464 80H320V72ZM288 80V72C288 49.9086 270.091 32 248 32C225.909 32 208 49.9086 208 72V80H176V264C176 294.928 201.072 320 232 320C262.928 320 288 294.928 288 264V117.333H256V264C256 277.255 245.255 288 232 288C218.745 288 208 277.255 208 264V80H288Z" fill="black"/>
<path d="M368 512H370.745C379.232 512 387.371 508.629 393.373 502.627L486.627 409.373C492.629 403.371 496 395.232 496 386.745V384H368V512Z" fill="black"/>
</svg>
