<svg width="576" height="512" viewBox="0 0 576 512" fill="none" xmlns="http://www.w3.org/2000/svg">
<path d="M112 160C147.346 160 176 131.346 176 96C176 60.6538 147.346 32 112 32C76.6538 32 48 60.6538 48 96C48 131.346 76.6538 160 112 160Z" fill="black"/>
<path d="M59.2619 176C44.2056 176 32 188.206 32 203.262V304C32 321.673 46.3269 336 64 336V456C64 469.255 74.7452 480 88 480H136C149.255 480 160 469.255 160 456V336C177.673 336 192 321.673 192 304V202.429C192 187.832 180.168 176 165.571 176H156.524C156.524 176 131.712 189.789 112 189.789C92.2879 189.789 68.3095 176 68.3095 176H59.2619Z" fill="black"/>
<path d="M288 160C323.346 160 352 131.346 352 96C352 60.6538 323.346 32 288 32C252.654 32 224 60.6538 224 96C224 131.346 252.654 160 288 160Z" fill="black"/>
<path d="M235.262 176C220.206 176 208 188.206 208 203.262V304C208 321.673 222.327 336 240 336V456C240 469.255 250.745 480 264 480H312C325.255 480 336 469.255 336 456V336C353.673 336 368 321.673 368 304V202.429C368 187.832 356.168 176 341.571 176H332.524C332.524 176 307.712 189.789 288 189.789C268.288 189.789 244.31 176 244.31 176H235.262Z" fill="black"/>
<path d="M528 96C528 131.346 499.346 160 464 160C428.654 160 400 131.346 400 96C400 60.6538 428.654 32 464 32C499.346 32 528 60.6538 528 96Z" fill="black"/>
<path d="M384 203.262C384 188.206 396.206 176 411.262 176H420.31C420.31 176 444.288 189.789 464 189.789C483.712 189.789 508.524 176 508.524 176H517.571C532.168 176 544 187.832 544 202.429V304C544 321.673 529.673 336 512 336V456C512 469.255 501.255 480 488 480H440C426.745 480 416 469.255 416 456V336C398.327 336 384 321.673 384 304V203.262Z" fill="black"/>
</svg>
