<svg width="576" height="512" viewBox="0 0 576 512" fill="none" xmlns="http://www.w3.org/2000/svg">
<path d="M272 296C272 309.255 264.837 320 256 320C247.163 320 240 309.255 240 296C240 282.745 247.163 272 256 272C264.837 272 272 282.745 272 296Z" fill="black"/>
<path d="M320 320C328.837 320 336 309.255 336 296C336 282.745 328.837 272 320 272C311.163 272 304 282.745 304 296C304 309.255 311.163 320 320 320Z" fill="black"/>
<path fill-rule="evenodd" clip-rule="evenodd" d="M256 416C264.333 416.833 275 417.25 288 417.25C301 417.25 311.667 416.833 320 416C319.667 423 319.667 434.583 320 450.75C320.167 453.25 320.167 455.833 320 458.5C319.833 461.167 319.917 463.792 320.25 466.375C320.583 468.958 321.083 471.25 321.75 473.25C322.417 475.25 323.708 476.875 325.625 478.125C327.542 479.375 330.083 480 333.25 480H356.75C362.583 480 367.208 479 370.625 477C374.042 475 377.583 471.417 381.25 466.25L440.25 381.5C457.417 365.5 471.458 344.667 482.375 319C493.292 293.333 498.75 270.833 498.75 251.5C498.75 244.667 498.375 238.083 497.625 231.75C496.875 225.417 495.417 218.792 493.25 211.875C491.083 204.958 489.583 200.125 488.75 197.375C487.917 194.625 485.833 189.375 482.5 181.625C479.167 173.875 477.5 169.917 477.5 169.75C479.667 162.917 483.583 151.375 489.25 135.125C494.917 118.875 500 104.167 504.5 91C509 77.8333 511.5 69.6667 512 66.5C511.167 65.6667 509.125 63.5417 505.875 60.125C502.625 56.7083 500.458 54.5417 499.375 53.625C498.292 52.7083 496.042 50.875 492.625 48.125C489.208 45.375 486.375 43.5417 484.125 42.625C481.875 41.7083 478.583 40.3333 474.25 38.5C469.917 36.6667 465.625 35.4167 461.375 34.75C457.125 34.0833 451.917 33.4583 445.75 32.875C439.583 32.2917 432.917 32 425.75 32C415.083 32 406.042 33.5833 398.625 36.75C391.208 39.9167 385.917 43.4583 382.75 47.375C379.583 51.2917 375.958 56.1667 371.875 62C367.792 67.8333 364.083 72.25 360.75 75.25C337.417 67.5833 313.167 63.75 288 63.75C262.833 63.75 238.583 67.5833 215.25 75.25C211.917 72.25 208.208 67.8333 204.125 62C200.042 56.1667 196.417 51.2917 193.25 47.375C190.083 43.4583 184.792 39.9167 177.375 36.75C169.958 33.5833 160.917 32 150.25 32C143.083 32 136.417 32.2917 130.25 32.875C124.083 33.4583 118.875 34.0833 114.625 34.75C110.375 35.4167 106.083 36.6667 101.75 38.5C97.4167 40.3333 94.125 41.7083 91.875 42.625C89.625 43.5417 86.7917 45.375 83.375 48.125C79.9583 50.875 77.7083 52.7083 76.625 53.625C75.5417 54.5417 73.375 56.7083 70.125 60.125C66.875 63.5417 64.8333 65.6667 64 66.5C64.5 69.6667 67 77.8333 71.5 91C76 104.167 81.0833 118.875 86.75 135.125C92.4167 151.375 96.3333 162.917 98.5 169.75C98.5 169.917 96.8333 173.875 93.5 181.625C90.1667 189.375 88.0833 194.625 87.25 197.375C86.4167 200.125 84.9167 204.958 82.75 211.875C80.5833 218.792 79.125 225.417 78.375 231.75C77.625 238.083 77.25 244.667 77.25 251.5C77.25 270.833 82.7083 293.333 93.625 319C104.542 344.667 118.583 365.5 135.75 381.5L194.75 466.25C198.417 471.417 201.958 475 205.375 477C208.792 479 213.417 480 219.25 480H242.75C245.917 480 248.458 479.375 250.375 478.125C252.292 476.875 253.583 475.25 254.25 473.25C254.917 471.25 255.417 468.958 255.75 466.375C256.083 463.792 256.167 461.167 256 458.5C255.833 455.833 255.833 453.25 256 450.75C256.333 434.583 256.333 423 256 416ZM205.25 299.25C205.25 288.917 207.625 279.625 212.375 271.375C217.125 263.125 223.375 256.417 231.125 251.25C238.875 246.083 247.708 242.125 257.625 239.375C267.542 236.625 277.667 235.25 288 235.25C298.333 235.25 308.458 236.625 318.375 239.375C328.292 242.125 337.125 246.083 344.875 251.25C352.625 256.417 358.875 263.125 363.625 271.375C368.375 279.625 370.75 288.917 370.75 299.25C370.75 309.583 368.375 318.875 363.625 327.125C358.875 335.375 352.625 342.083 344.875 347.25C337.125 352.417 328.292 356.375 318.375 359.125C308.458 361.875 298.333 363.25 288 363.25C277.667 363.25 267.542 361.875 257.625 359.125C247.708 356.375 238.875 352.417 231.125 347.25C223.375 342.083 217.125 335.375 212.375 327.125C207.625 318.875 205.25 309.583 205.25 299.25ZM192 184C192 170.745 202.745 160 216 160C229.255 160 240 170.745 240 184V200C240 213.255 229.255 224 216 224C202.745 224 192 213.255 192 200V184ZM360 160C346.745 160 336 170.745 336 184V200C336 213.255 346.745 224 360 224C373.255 224 384 213.255 384 200V184C384 170.745 373.255 160 360 160Z" fill="black"/>
</svg>
