<svg width="576" height="512" viewBox="0 0 576 512" fill="none" xmlns="http://www.w3.org/2000/svg">
<path d="M353 64C353 99.3462 324.346 128 289 128C253.654 128 225 99.3462 225 64C225 28.6538 253.654 0 289 0C324.346 0 353 28.6538 353 64Z" fill="black"/>
<path fill-rule="evenodd" clip-rule="evenodd" d="M309.569 144C331.144 144 340.949 166.377 348.963 184.67C350.227 187.555 351.447 190.338 352.661 192.916C354.52 196.704 358.618 200.904 364.955 205.516C371.292 210.127 378.093 214.904 385.36 219.845C392.626 224.786 399.85 230.427 407.032 236.768C414.214 243.109 420.171 251.055 424.903 260.608C429.634 270.161 432 280.702 432 292.231C432 305.901 429.296 318.583 423.889 330.277C418.481 341.97 408.37 352.117 399.921 358.376V384.069C399.921 390.657 398.78 393.351 396.499 396.15C394.217 398.95 392.373 400.18 384.599 400.18L335.762 400.074V479.636C335.762 488.695 332.72 496.353 326.637 502.612C320.553 508.871 312.949 512 303.824 512L272.223 512C263.267 512 255.578 508.829 249.156 502.489C242.735 496.148 239.524 488.53 239.524 479.636V400.074H222.482C217.412 400.074 213.37 399.368 209.652 395.745C202.641 388.912 204.319 382.401 206.396 374.344C206.44 374.172 206.485 373.999 206.53 373.826L206.611 373.51L233.779 255.42V224.023H220.598L193.498 311.452C189.14 329.15 161.569 329.053 151.778 319.653C140.343 308.675 143.699 297.943 148.102 285.066L182.322 174.387C185.195 165.164 191.659 157.794 201.713 152.276C211.768 146.759 222.457 144 233.779 144H309.569ZM338.614 346.695L299.173 308.813C292.451 302.395 288.726 295.458 288 288C288 278.808 290.453 271.177 295.358 265.105C300.263 259.035 307.075 256 315.795 256C324.697 256 331.556 258.255 336.37 262.765C341.16 267.251 343.747 273.198 344.131 280.604C344.137 280.567 344.142 280.531 344.148 280.494C344.549 273.139 347.044 267.229 351.63 262.765C356.263 258.255 362.939 256 371.66 256C380.38 256 387.283 259.035 392.37 265.105C397.456 271.177 400 278.808 400 288C399.274 295.285 395.458 302.222 388.555 308.813L344.137 352L343.842 351.717L343.789 351.77L338.614 346.695Z" fill="black"/>
</svg>
