<svg width="576" height="512" viewBox="0 0 576 512" fill="none" xmlns="http://www.w3.org/2000/svg">
<path fill-rule="evenodd" clip-rule="evenodd" d="M64 80C64 53.4903 85.4903 32 112 32H464C490.51 32 512 53.4903 512 80V432C512 458.51 490.51 480 464 480H112C85.4903 480 64 458.51 64 432V80ZM335 384C335 409.405 314.405 430 289 430C263.595 430 243 409.405 243 384C243 358.595 263.595 338 289 338C314.405 338 335 358.595 335 384ZM232.5 194C251 170.5 263 158.5 290 158.5C310.5 158.5 336 171 336 191.5C336 206.032 324.922 212.496 307.141 222.871C305.957 223.562 304.743 224.271 303.5 225C303.236 225.155 302.971 225.31 302.705 225.466C279.782 238.916 249 256.976 249 298C249 307.2 254 312 260.5 312H316.5C324 312 328.5 307.1 328.5 299.5C328.5 288.222 340.632 281.109 355.62 272.322C379.833 258.126 411.5 239.561 411.5 192C411.5 133 352 90 295 90C241 90 205.5 112.5 179 154.5C179 154.5 171.5 162.811 180.5 169.5L217.5 197C226 203.318 232.5 194 232.5 194Z" fill="black"/>
</svg>
