<svg width="576" height="512" viewBox="0 0 576 512" fill="none" xmlns="http://www.w3.org/2000/svg">
<path d="M447 72.75C437.5 75.25 429.417 81.375 422.75 91.125C416.083 100.875 412.75 111.5 412.75 123C412.75 132.833 413.125 148.083 413.875 168.75C414.625 189.417 415 204.5 415 214C415 226 413.917 236.333 411.75 245C409.583 253.667 406.792 260.667 403.375 266C399.958 271.333 395.333 275.75 389.5 279.25C383.667 282.75 377.875 285.292 372.125 286.875C366.375 288.458 359.25 289.917 350.75 291.25C357.917 278.75 361.5 265.25 361.5 250.75C361.5 236.25 358.583 221.292 352.75 205.875C346.917 190.458 340.042 176.417 332.125 163.75C324.208 151.083 315.917 140.333 307.25 131.5C323.75 111.667 342.583 96.7917 363.75 86.875C384.917 76.9583 412.667 72.25 447 72.75ZM304 304C329.833 297.833 342.833 281.167 343 254C343.167 242.5 341 230.167 336.5 217C332 203.833 325.625 190.667 317.375 177.5C309.125 164.333 298.667 151.708 286 139.625C273.333 127.542 259.417 116.875 244.25 107.625C229.083 98.375 211.708 91.0833 192.125 85.75C172.542 80.4167 152.333 77.9167 131.5 78.25C140.833 80.75 148.875 87.7917 155.625 99.375C162.375 110.958 165.75 122.667 165.75 134.5C165.75 144.5 165.375 158.833 164.625 177.5C163.875 196.167 163.5 210.167 163.5 219.5C163.5 230.667 165.583 240.958 169.75 250.375C173.917 259.792 179.542 267.75 186.625 274.25C193.708 280.75 201.917 286.25 211.25 290.75C220.583 295.25 230.375 298.583 240.625 300.75C250.875 302.917 261.333 304 272 304V368C266.833 361.667 258.208 355.25 246.125 348.75C234.042 342.25 221.083 336.75 207.25 332.25C187.583 325.583 166.708 322.542 144.625 323.125C122.542 323.708 106.333 328 96 336C119.833 367 148.083 387 180.75 396C213.417 405 243.833 401 272 384V464C272 472.837 279.163 480 288 480C296.837 480 304 472.837 304 464V432C319 438.833 334.708 442.458 351.125 442.875C367.542 443.292 383.458 440.75 398.875 435.25C414.292 429.75 429.083 421.25 443.25 409.75C457.417 398.25 469.667 384.333 480 368C472 363.167 461.625 359.333 448.875 356.5C436.125 353.667 421.917 352.625 406.25 353.375C390.583 354.125 376.5 357.167 364 362.5C353.5 367 342.667 374.208 331.5 384.125C320.333 394.042 311.167 403.583 304 412.75V304ZM387 56.25C387 60.0833 382.875 64.25 374.625 68.75C366.375 73.25 356.417 77.6667 344.75 82C333.083 86.3333 326.667 88.8333 325.5 89.5C326 85.5 324.292 81.8333 320.375 78.5C316.458 75.1667 312 72.7083 307 71.125C302 69.5417 297.292 68.0417 292.875 66.625C288.458 65.2083 286.167 64.1667 286 63.5C285.167 61.5 289.458 60.2083 298.875 59.625C308.292 59.0417 317.75 58.5417 327.25 58.125C336.75 57.7083 341.25 56.6667 340.75 55C340.417 54 339.375 53.125 337.625 52.375C335.875 51.625 333.542 51 330.625 50.5C327.708 50 324.625 49.5833 321.375 49.25C318.125 48.9167 314.625 48.6667 310.875 48.5C307.125 48.3333 303.875 48.2083 301.125 48.125L292.875 47.875C292.875 47.875 291.25 47.8333 288 47.75C281.5 47.4167 271.083 47.9167 256.75 49.25C242.417 50.5833 235.583 52.6667 236.25 55.5C236.75 57.8333 241 60.3333 249 63C257 65.6667 265.625 68.125 274.875 70.375C284.125 72.625 292.583 75.8333 300.25 80C307.917 84.1667 311.75 88.9167 311.75 94.25C311.75 96.0833 311.583 97.625 311.25 98.875C310.917 100.125 310.083 101.542 308.75 103.125C307.417 104.708 306.25 106.042 305.25 107.125C304.25 108.208 302.25 110.042 299.25 112.625C296.25 115.208 293.75 117.5 291.75 119.5C284.25 111.667 275.833 105.083 266.5 99.75C257.167 94.4167 244.917 90.4167 229.75 87.75C218.417 85.5833 209.083 81.9167 201.75 76.75C194.417 71.5833 190.75 65.8333 190.75 59.5C190.75 55.1667 192.625 51.375 196.375 48.125C200.125 44.875 205.333 42.2917 212 40.375C218.667 38.4583 225.333 36.875 232 35.625C238.667 34.375 246.208 33.5417 254.625 33.125C263.042 32.7083 269.458 32.4167 273.875 32.25C278.292 32.0833 283 32 288 32C354 32 387 40.0833 387 56.25Z" fill="black"/>
</svg>
