<svg width="576" height="512" viewBox="0 0 576 512" fill="none" xmlns="http://www.w3.org/2000/svg">
<path d="M368 56C368 86.9279 342.928 112 312 112C281.072 112 256 86.9279 256 56C256 25.0721 281.072 0 312 0C342.928 0 368 25.0721 368 56Z" fill="black"/>
<path d="M258.743 112.563C270.932 113.313 279.311 118.564 283.882 128.315L328.709 211.721L408.493 220.787C422.609 222.391 432.752 235.134 431.148 249.25C429.541 263.392 416.754 273.541 402.616 271.896L309 261C305 260.5 298.404 258.367 293.738 254.616C289.072 250.865 284.454 246.224 279.883 240.692C275.312 235.16 271.503 230.237 268.456 225.924C265.409 221.611 261.647 215.985 257.172 209.046C252.696 202.108 249.602 197.42 247.888 194.982L216.464 277.12L228.462 346.88C230.176 354.569 231.033 359.82 231.033 362.633C231.033 365.446 230.271 370.415 228.748 377.542L203.323 486.965C199.133 503.655 185.706 512 163.043 512C153.521 511.812 145.855 507.781 140.047 499.904C134.238 492.028 132.191 483.214 133.905 473.463L155.33 359.257L137.618 283.589C129.239 264.836 126.334 245.708 128.905 226.205C131.476 206.702 138.571 187.856 150.188 169.665C174.375 132.159 201.609 112.938 231.89 112C245.221 112 254.172 112.188 258.743 112.563Z" fill="black"/>
<path d="M392 288C361.072 288 336 313.072 336 344V382.25C336 391.087 343.163 398.25 352 398.25C360.837 398.25 368 391.087 368 382.25V344C368 330.745 378.745 320 392 320C405.255 320 416 330.745 416 344V496C416 504.837 423.163 512 432 512C440.837 512 448 504.837 448 496V344C448 313.072 422.928 288 392 288Z" fill="black"/>
</svg>
