<svg width="576" height="512" viewBox="0 0 576 512" fill="none" xmlns="http://www.w3.org/2000/svg">
<path fill-rule="evenodd" clip-rule="evenodd" d="M191.532 203.777C192.878 204.076 195.12 204.226 198.26 204.226C199.456 204.226 200.689 204.076 201.96 203.777C203.231 203.478 204.352 203.179 205.324 202.88C206.296 202.581 207.417 202.021 208.688 201.198C209.959 200.376 210.93 199.741 211.603 199.292C212.276 198.844 213.322 198.021 214.743 196.825C216.163 195.629 217.06 194.882 217.434 194.583C217.807 194.284 218.742 193.424 220.237 192.004C221.732 190.584 222.554 189.799 222.704 189.649C225.694 196.227 230.141 202.021 236.047 207.029C241.952 212.037 248.119 214.541 254.547 214.541C262.77 214.541 270.096 211.439 276.524 205.235C282.953 199.031 287.064 191.742 288.858 183.37C299.622 194.732 309.564 200.413 318.684 200.413C324.215 200.413 329.747 198.844 335.278 195.704C340.81 192.565 345.594 188.678 349.63 184.043C351.574 193.312 356.32 201.348 363.87 208.15C371.42 214.952 379.755 218.354 388.874 218.354C391.865 230.314 393.359 242.573 393.359 255.131C393.359 278.154 390.369 299.084 384.389 317.922C378.409 336.759 370.411 352.12 360.394 364.005C350.378 375.891 339.165 385.01 326.757 391.364C314.348 397.718 301.416 400.895 287.961 400.895C274.506 400.746 261.574 397.494 249.165 391.14C236.757 384.786 225.544 375.704 215.527 363.893C205.511 352.083 197.475 336.759 191.42 317.922C185.366 299.084 182.338 278.154 182.338 255.131C182.338 238.536 185.403 221.418 191.532 203.777ZM256 264C256 277.255 245.255 288 232 288C218.745 288 208 277.255 208 264C208 250.745 218.745 240 232 240C245.255 240 256 250.745 256 264ZM344 288C357.255 288 368 277.255 368 264C368 250.745 357.255 240 344 240C330.745 240 320 250.745 320 264C320 277.255 330.745 288 344 288Z" fill="black"/>
<path fill-rule="evenodd" clip-rule="evenodd" d="M214.63 80.887C218.966 70.2724 225.058 61.2275 232.907 53.7525C240.756 46.2774 249.315 40.7832 258.584 37.2699C267.853 33.7567 277.645 32 287.961 32C298.277 32 308.069 33.7567 317.338 37.2699C326.607 40.7832 335.166 46.2774 343.015 53.7525C350.864 61.2275 356.956 70.2724 361.291 80.887C370.262 77.299 379.344 75.3928 388.538 75.1686C397.732 74.9443 406.329 76.2524 414.327 79.093C422.325 81.9335 429.875 85.8206 436.977 90.7541C444.078 95.6877 450.058 101.705 454.917 108.806C459.776 115.908 463.588 123.458 466.354 131.456C469.119 139.454 470.315 148.088 469.942 157.357C469.568 166.626 467.512 175.746 463.775 184.716C479.622 190.995 491.732 201.124 500.104 215.102C508.476 229.08 512.325 243.956 511.653 259.728C510.98 275.501 506.158 289.741 497.188 302.448C499.431 312.315 499.73 321.435 498.085 329.807C496.889 337.432 494.273 343.449 490.237 347.859C486.2 352.27 480.818 353.952 474.09 352.905C473.642 352.756 472.932 352.569 471.96 352.344C470.988 352.12 470.278 351.933 469.83 351.784C471.026 362.697 469.867 373.387 466.354 383.852C462.84 394.317 457.608 403.399 450.656 411.098C443.704 418.798 435.407 425.264 425.764 430.496C416.121 435.729 405.806 438.457 394.817 438.682C383.829 438.906 372.579 436.85 361.067 432.515C355.685 444.774 347.986 454.94 337.969 463.013C327.953 471.086 317.114 476.206 305.453 478.374C293.792 480.542 282.13 480.542 270.469 478.374C258.808 476.206 248.007 471.086 238.065 463.013C228.123 454.94 220.536 444.774 215.303 432.515C203.792 436.85 192.542 438.906 181.553 438.682C170.565 438.457 160.287 435.729 150.719 430.496C141.15 425.264 132.853 418.798 125.827 411.098C118.8 403.399 113.53 394.317 110.017 383.852C106.503 373.387 105.345 362.697 106.541 351.784C106.092 351.933 105.457 352.12 104.635 352.344C103.812 352.569 103.177 352.756 102.729 352.905C95.8515 353.952 90.2825 352.27 86.0218 347.859C81.761 343.449 78.8831 337.432 77.388 329.807C75.893 321.883 76.2668 312.764 78.5093 302.448C69.3897 289.741 64.5683 275.463 64.045 259.616C63.5218 243.769 67.5583 228.931 76.1547 215.102C84.751 201.273 96.898 191.144 112.596 184.716C108.858 175.746 106.802 166.626 106.429 157.357C106.055 148.088 107.214 139.454 109.905 131.456C112.596 123.458 116.371 115.908 121.229 108.806C126.088 101.705 132.031 95.6877 139.057 90.7541C146.084 85.8206 153.596 81.9335 161.595 79.093C169.593 76.2524 178.189 74.9443 187.384 75.1686C196.578 75.3928 205.66 77.299 214.63 80.887ZM406.142 210.505C405.992 210.056 408.048 210.841 412.309 212.859C416.57 214.878 422.139 218.055 429.016 222.39C435.893 226.726 443.069 231.809 450.544 237.639C458.019 243.47 465.494 250.534 472.969 258.831C480.444 267.129 486.349 275.613 490.685 284.284C495.021 275.912 497.226 267.129 497.3 257.934C497.375 248.74 495.506 239.994 491.694 231.697C487.882 223.399 481.678 215.812 473.081 208.935C464.485 202.058 454.207 196.9 442.247 193.462C448.376 182.548 452.076 171.634 453.347 160.721C454.618 149.807 453.833 140.052 450.992 131.456C448.152 122.86 443.517 115.31 437.089 108.806C430.66 102.303 423.148 97.5564 414.551 94.5664C405.955 91.5764 396.163 90.642 385.174 91.7632C374.186 92.8845 363.16 96.4352 352.097 102.415C348.808 90.4551 343.725 80.2142 336.848 71.6927C329.971 63.1711 322.421 56.9294 314.198 52.9676C305.976 49.0058 297.23 47.0249 287.961 47.0249C278.692 47.0249 269.946 49.0058 261.723 52.9676C253.501 56.9294 245.951 63.1711 239.074 71.6927C232.197 80.2142 227.114 90.4551 223.825 102.415C212.762 96.4352 201.773 92.8845 190.86 91.7632C179.946 90.642 170.191 91.5764 161.595 94.5664C152.998 97.5564 145.486 102.303 139.057 108.806C132.629 115.31 127.994 122.86 125.154 131.456C122.313 140.052 121.566 149.807 122.911 160.721C124.257 171.634 127.994 182.548 134.124 193.462C122.014 196.9 111.661 202.058 103.065 208.935C94.4686 215.812 88.2269 223.399 84.3399 231.697C80.4528 239.994 78.5467 248.74 78.6214 257.934C78.6962 267.129 80.9013 275.912 85.2369 284.284C89.5724 275.613 95.4777 267.129 102.953 258.831C110.428 250.534 117.903 243.47 125.378 237.639C132.853 231.809 139.992 226.726 146.794 222.39C153.596 218.055 159.128 214.84 163.389 212.747C167.65 210.654 169.63 209.907 169.331 210.505C163.949 222.016 161.146 235.06 160.922 249.637C160.698 264.213 162.679 276.883 166.865 287.648C165.071 290.638 162.193 297.104 158.231 307.045C154.269 316.987 149.784 324.986 144.776 331.04C139.768 337.095 132.778 342.141 123.808 346.177C121.416 357.241 121.454 367.78 123.92 377.797C126.387 387.814 130.872 396.186 137.376 402.913C143.879 409.641 151.541 414.836 160.361 418.499C169.182 422.162 179.199 423.395 190.411 422.199C201.624 421.003 212.762 417.34 223.825 411.211C227.263 423.021 232.421 433.113 239.298 441.485C246.175 449.857 253.688 455.986 261.836 459.873C269.983 463.76 278.692 465.704 287.961 465.704C297.23 465.704 305.938 463.76 314.086 459.873C322.234 455.986 329.747 449.857 336.624 441.485C343.501 433.113 348.659 423.021 352.097 411.211C363.16 417.34 374.298 421.003 385.511 422.199C396.723 423.395 406.777 422.162 415.673 418.499C424.568 414.836 432.267 409.641 438.771 402.913C445.274 396.186 449.759 387.814 452.226 377.797C454.693 367.78 454.73 357.241 452.338 346.177C445.311 343.038 439.331 338.927 434.398 333.844C429.464 328.761 425.951 324.014 423.858 319.604C421.765 315.193 419.298 309.624 416.457 302.897C413.617 296.169 411.225 291.086 409.281 287.648C413.318 276.883 415.149 264.251 414.776 249.749C414.402 235.247 411.524 222.166 406.142 210.505Z" fill="black"/>
</svg>
