<svg width="576" height="512" viewBox="0 0 576 512" fill="none" xmlns="http://www.w3.org/2000/svg">
<path fill-rule="evenodd" clip-rule="evenodd" d="M272.042 502.494C281.841 508.486 294.159 508.486 303.958 502.494C323.045 490.82 340.726 478.876 357 466.662C377.72 451.11 395.84 436.077 411.36 421.563C426.88 407.048 440.68 391.417 452.76 374.669C464.84 357.921 474.96 342.37 483.12 328.015C491.28 313.66 498.2 297.351 503.88 279.088C509.56 260.825 513.96 244.476 517.08 230.041C520.2 215.606 522.6 198.38 524.28 178.363C525.96 158.345 527 140.999 527.4 126.325C527.644 117.388 527.813 107.149 527.908 95.6083C528.025 81.4672 518.717 68.9996 505.169 64.9477L306.338 5.48415C294.374 1.90633 281.626 1.90633 269.662 5.48415L70.8311 64.9477C57.2824 68.9996 47.975 81.4672 48.0917 95.6083C48.1869 107.149 48.3563 117.388 48.6 126.325C49 140.999 50.04 158.345 51.72 178.363C53.4 198.38 55.8 215.606 58.92 230.041C62.04 244.476 66.44 260.825 72.12 279.088C77.8 297.351 84.72 313.66 92.88 328.015C101.04 342.37 111.16 357.921 123.24 374.669C135.32 391.417 149.12 407.048 164.64 421.563C180.16 436.077 198.28 451.11 219 466.662C235.274 478.876 252.955 490.82 272.042 502.494ZM208.804 122.177C215.052 115.928 225.183 115.928 231.431 122.177L288 178.745L344.569 122.177C350.817 115.928 360.948 115.928 367.196 122.177L389.823 144.804C396.072 151.052 396.072 161.183 389.823 167.431L333.255 224L389.823 280.568C396.072 286.817 396.072 296.947 389.823 303.196L367.196 325.823C360.947 332.072 350.817 332.072 344.568 325.823L288 269.255L231.431 325.823C225.183 332.072 215.052 332.072 208.804 325.823L186.177 303.196C179.928 296.947 179.928 286.817 186.177 280.568L242.745 224L186.176 167.431C179.928 161.183 179.928 151.052 186.176 144.804L208.804 122.177Z" fill="black"/>
</svg>
