<svg width="576" height="512" viewBox="0 0 576 512" fill="none" xmlns="http://www.w3.org/2000/svg">
<path fill-rule="evenodd" clip-rule="evenodd" d="M112 32C85.4903 32 64 53.4903 64 80V432C64 458.51 85.4903 480 112 480H464C490.51 480 512 458.51 512 432V80C512 53.4903 490.51 32 464 32H112ZM205.348 112.202L151.697 176H201.143C202.911 176 204.685 176.796 206.01 178.287C207.336 179.778 207.999 181.553 207.999 183.585L208 200.415C208 202.447 207.337 204.273 206.011 205.764C204.686 207.255 202.912 208 201.144 208H118.87C117.102 208 115.254 207.272 113.958 205.815C112.662 204.358 112.013 202.515 112.013 200.415L112 183.088C112 179.971 112.854 177.315 114.563 175.147L168.303 112H118.857C117.031 112 115.242 111.221 113.945 109.764C112.649 108.307 112.001 106.515 112.001 104.415L112.013 87.5855C112.013 85.4848 112.662 83.6424 113.958 82.1854C115.254 80.7285 117.043 80 118.87 80H201.371C203.198 80 204.759 80.7285 206.056 82.1854C207.352 83.6424 208 85.4848 208 87.5855L208 104.261C208 107.378 207.116 110.033 205.348 112.202ZM279.697 288L333.348 224.202C335.116 222.033 336 219.378 336 216.261V199.585C336 197.485 335.352 195.642 334.056 194.185C332.759 192.728 331.198 192 329.371 192H246.87C245.043 192 243.254 192.728 241.958 194.185C240.662 195.642 240.013 197.485 240.013 199.585L240.001 216.415C240.001 218.515 240.649 220.307 241.945 221.764C243.242 223.221 245.031 224 246.857 224H296.303L242.563 287.147C240.854 289.315 240 291.971 240 295.088L240.013 312.415C240.013 314.515 240.662 316.358 241.958 317.815C243.254 319.272 245.102 320 246.87 320H329.144C330.911 320 332.686 319.255 334.011 317.764C335.337 316.273 336 314.447 336 312.415L335.999 295.585C335.999 293.553 335.336 291.778 334.01 290.287C332.685 288.796 330.911 288 329.143 288H279.697ZM461.348 336.202L407.697 400H457.143C458.911 400 460.685 400.796 462.01 402.287C463.336 403.778 463.999 405.553 463.999 407.585L464 424.415C464 426.447 463.337 428.273 462.011 429.764C460.686 431.255 458.911 432 457.144 432H374.87C373.102 432 371.254 431.272 369.958 429.815C368.661 428.358 368.013 426.515 368.013 424.415L368 407.088C368 403.971 368.854 401.315 370.563 399.147L424.303 336H374.857C373.031 336 371.242 335.221 369.945 333.764C368.649 332.307 368.001 330.515 368.001 328.414L368.013 311.586C368.013 309.485 368.661 307.642 369.958 306.185C371.254 304.728 373.043 304 374.87 304H457.371C459.198 304 460.759 304.728 462.056 306.185C463.352 307.642 464 309.485 464 311.586V328.261C464 331.378 463.116 334.033 461.348 336.202Z" fill="black"/>
</svg>
