<svg width="576" height="512" viewBox="0 0 576 512" fill="none" xmlns="http://www.w3.org/2000/svg">
<g clip-path="url(#clip0)">
<path d="M66.1354 176L155.587 80.5543C158.533 77.2846 160.007 73.2805 160.007 68.5803L160.007 43.4375C160.007 40.27 158.926 37.492 156.765 35.2952C154.605 33.0984 152.002 32 148.957 32H11.4352C8.39039 32 5.40872 33.0984 3.24789 35.2952C1.08705 37.492 0.00663489 40.27 0.00663489 43.4375L0.00665283 68.5803C0.00665283 71.7478 1.08707 74.4492 3.2479 76.646C5.40874 78.8428 8.39041 80.0178 11.4352 80.0178H93.8556L4.25693 175.464C1.40856 178.733 -0.015625 182.737 -0.015625 187.438L0.00663489 213.562C0.00663489 216.73 1.08705 219.508 3.24789 221.705C5.40872 223.902 8.48861 225 11.4352 225H148.578C151.525 225 154.482 223.876 156.692 221.628C158.902 219.38 160.007 216.628 160.007 213.562L159.984 187.438C159.984 184.372 158.879 181.696 156.669 179.448C154.46 177.201 151.502 176 148.556 176H66.1354Z" fill="black"/>
<path d="M274.155 304L363.606 208.554C366.553 205.285 368.026 201.281 368.026 196.58V171.438C368.026 168.27 366.946 165.492 364.785 163.295C362.624 161.098 360.021 160 356.976 160H219.455C216.41 160 213.428 161.098 211.267 163.295C209.107 165.492 208.026 168.27 208.026 171.438L208.026 196.58C208.026 199.748 209.107 202.449 211.267 204.646C213.428 206.843 216.41 208.018 219.455 208.018H301.875L212.276 303.464C209.428 306.733 208.004 310.737 208.004 315.438L208.026 341.562C208.026 344.73 209.107 347.508 211.267 349.705C213.428 351.902 216.508 353 219.455 353H356.598C359.544 353 362.501 351.876 364.711 349.628C366.921 347.38 368.026 344.628 368.026 341.562L368.004 315.438C368.004 312.372 366.899 309.696 364.689 307.448C362.479 305.201 359.522 304 356.575 304H274.155Z" fill="black"/>
<path d="M571.61 336.554L482.158 432H564.579C567.526 432 570.483 433.201 572.693 435.448C574.903 437.696 576.008 440.372 576.008 443.438L576.03 469.562C576.03 472.628 574.925 475.38 572.715 477.628C570.505 479.876 567.548 481 564.601 481H427.458C424.511 481 421.431 479.902 419.27 477.705C417.11 475.508 416.029 472.73 416.029 469.562L416.007 443.438C416.007 438.737 417.431 434.733 420.279 431.464L509.879 336.018H427.458C424.413 336.018 421.431 334.843 419.27 332.646C417.11 330.449 416.029 327.748 416.029 324.58L416.029 299.438C416.029 296.27 417.11 293.492 419.27 291.295C421.431 289.098 424.413 288 427.458 288H564.98C568.025 288 570.628 289.098 572.789 291.295C574.95 293.492 576.03 296.27 576.03 299.438V324.58C576.03 329.28 574.557 333.285 571.61 336.554Z" fill="black"/>
</g>
<defs>
<clipPath id="clip0">
<rect width="576" height="512" fill="white"/>
</clipPath>
</defs>
</svg>
