<svg width="576" height="512" viewBox="0 0 576 512" fill="none" xmlns="http://www.w3.org/2000/svg">
<path d="M399.215 43.0821C405.843 31.6031 420.521 27.6701 432 34.2975C480.293 62.1798 516.065 103.421 537.343 150.658C552.742 184.66 560.099 220.612 560.043 256.163C560.053 291.521 552.731 327.267 537.456 361.091C516.192 408.433 480.379 449.771 432 477.703C420.521 484.33 405.843 480.397 399.216 468.918C392.588 457.439 396.521 442.761 408 436.133C440.428 417.411 465.907 391.276 483.533 361.104C483.722 360.733 483.923 360.365 484.133 360C487.665 353.882 490.851 347.66 493.697 341.355C505.691 314.64 511.983 285.573 512.035 256.168C512.031 226.553 505.696 197.272 493.58 170.384C490.764 164.169 487.617 158.033 484.134 152C483.925 151.638 483.726 151.273 483.538 150.904C465.912 120.729 440.431 94.5906 408 75.8667C396.521 69.2393 392.588 54.5612 399.215 43.0821Z" fill="black"/>
<path d="M384 117.436C372.521 110.809 357.843 114.742 351.215 126.221C344.588 137.7 348.521 152.378 360 159.005C377.397 169.05 391.08 183.056 400.567 199.227C400.704 199.486 400.847 199.744 400.995 200C402.879 203.263 404.58 206.581 406.101 209.943C412.606 224.396 416.01 240.13 416.019 256.046C415.997 271.905 412.605 287.582 406.132 301.988C404.603 305.374 402.892 308.715 400.995 312C400.846 312.257 400.703 312.516 400.565 312.776C391.078 328.946 377.396 342.952 360 352.995C348.521 359.623 344.588 374.301 351.215 385.78C357.843 397.259 372.521 401.192 384 394.564C414.226 377.113 436.605 351.289 449.896 321.713C459.46 300.547 464.041 278.176 464.027 256.049C464.054 233.864 459.463 211.431 449.862 190.212C436.566 160.667 414.2 134.872 384 117.436Z" fill="black"/>
<path d="M336 200.574C324.521 193.947 309.843 197.88 303.215 209.359C296.588 220.838 300.521 235.516 312 242.144C314.452 243.559 316.387 245.526 317.74 247.796C317.779 247.864 317.817 247.932 317.857 248C318.122 248.46 318.362 248.927 318.577 249.401C319.518 251.484 320.008 253.754 320.003 256.049C319.994 258.284 319.516 260.492 318.611 262.524C318.387 263.024 318.136 263.516 317.856 264C317.816 264.07 317.776 264.14 317.737 264.21C316.384 266.478 314.45 268.442 312 269.857C300.521 276.484 296.588 291.162 303.215 302.641C309.843 314.12 324.521 318.053 336 311.426C348.103 304.438 357.061 294.094 362.375 282.248C366.184 273.805 368.011 264.884 368.011 256.06C368.027 247.167 366.189 238.173 362.337 229.668C357.018 217.857 348.074 207.546 336 200.574Z" fill="black"/>
<path fill-rule="evenodd" clip-rule="evenodd" d="M148.857 32.4302L16 32.0001V480H192V384H224C241.673 384 256 369.673 256 352V288H271.896C282.493 288 290.163 277.884 287.301 267.68L240.98 102.507C229.39 61.181 191.777 32.5692 148.857 32.4302ZM192 160C192 177.673 177.673 192 160 192C142.327 192 128 177.673 128 160C128 142.327 142.327 128 160 128C177.673 128 192 142.327 192 160Z" fill="black"/>
</svg>
