<svg width="576" height="512" viewBox="0 0 576 512" fill="none" xmlns="http://www.w3.org/2000/svg">
<path d="M320 32C320 14.3269 305.673 0 288 0C270.327 -2.17128e-06 256 14.3269 256 32V82.902C266.377 80.9959 277.072 80 288 80C298.928 80 309.623 80.9959 320 82.902V32Z" fill="black"/>
<path d="M146.579 80.6374L181.675 115.734C164.563 128.726 149.901 144.777 138.504 163.073L101.324 125.892C88.827 113.395 88.827 93.1342 101.324 80.6374C113.821 68.1406 134.082 68.1406 146.579 80.6374Z" fill="black"/>
<path d="M64 224H114.902C112.996 234.377 112 245.072 112 256C112 266.928 112.996 277.623 114.902 288H64C46.3269 288 32 273.673 32 256C32 238.327 46.3269 224 64 224Z" fill="black"/>
<path d="M101.324 386.108L138.504 348.927C149.901 367.223 164.563 383.274 181.675 396.266L146.579 431.362C134.082 443.859 113.821 443.859 101.324 431.362C88.827 418.866 88.827 398.604 101.324 386.108Z" fill="black"/>
<path d="M256 480V429.098C266.377 431.004 277.072 432 288 432C298.928 432 309.623 431.004 320 429.098V480C320 497.673 305.673 512 288 512C270.327 512 256 497.673 256 480Z" fill="black"/>
<path d="M418.108 442.676L380.927 405.496C399.223 394.099 415.274 379.437 428.266 362.325L463.362 397.421C475.859 409.918 475.859 430.179 463.362 442.676C450.866 455.173 430.604 455.173 418.108 442.676Z" fill="black"/>
<path d="M512 288H461.098C463.004 277.623 464 266.928 464 256C464 245.072 463.004 234.377 461.098 224H512C529.673 224 544 238.327 544 256C544 273.673 529.673 288 512 288Z" fill="black"/>
<path d="M463.362 114.579L428.266 149.675C415.274 132.563 399.223 117.901 380.927 106.504L418.108 69.3237C430.604 56.827 450.866 56.827 463.362 69.3238C475.859 81.8205 475.859 102.082 463.362 114.579Z" fill="black"/>
<path d="M288 384C358.692 384 416 326.692 416 256C416 185.308 358.692 128 288 128C217.308 128 160 185.308 160 256C160 326.692 217.308 384 288 384Z" fill="black"/>
</svg>
