<svg width="576" height="512" viewBox="0 0 576 512" fill="none" xmlns="http://www.w3.org/2000/svg">
<g clip-path="url(#clip0)">
<path d="M320 80C320 62.3269 305.673 48 288 48C270.327 48 256 62.3269 256 80V130.902C266.377 128.996 277.072 128 288 128C298.928 128 309.623 128.996 320 130.902V80Z" fill="black"/>
<path d="M146.579 128.637L181.675 163.734C164.563 176.726 149.901 192.777 138.504 211.073L101.324 173.892C88.827 161.395 88.827 141.134 101.324 128.637C113.821 116.141 134.082 116.141 146.579 128.637Z" fill="black"/>
<path d="M64 272H114.902C112.996 282.377 112 293.072 112 304C112 314.928 112.996 325.623 114.902 336H64C46.3269 336 32 321.673 32 304C32 286.327 46.3269 272 64 272Z" fill="black"/>
<path d="M160 304C160 315.05 161.4 325.772 164.033 336H411.967C414.6 325.772 416 315.05 416 304C416 233.308 358.692 176 288 176C217.308 176 160 233.308 160 304Z" fill="black"/>
<path d="M512 336H461.098C463.004 325.623 464 314.928 464 304C464 293.072 463.004 282.377 461.098 272H512C529.673 272 544 286.327 544 304C544 321.673 529.673 336 512 336Z" fill="black"/>
<path d="M320 528V512H256V528C256 545.673 270.327 560 288 560C305.673 560 320 545.673 320 528Z" fill="black"/>
<path d="M463.362 162.579L428.266 197.675C415.274 180.563 399.223 165.901 380.927 154.504L418.108 117.324C430.604 104.827 450.866 104.827 463.362 117.324C475.859 129.821 475.859 150.082 463.362 162.579Z" fill="black"/>
<path d="M64 384C46.3269 384 32 398.327 32 416C32 433.673 46.3269 448 64 448H512C529.673 448 544 433.673 544 416C544 398.327 529.673 384 512 384H64Z" fill="black"/>
</g>
<defs>
<clipPath id="clip0">
<rect width="576" height="512" fill="white"/>
</clipPath>
</defs>
</svg>
