<svg width="576" height="512" viewBox="0 0 576 512" fill="none" xmlns="http://www.w3.org/2000/svg">
<path d="M64 344L144 264C144.833 281.5 148.833 298.333 156 314.5C163.167 330.667 173.167 345.167 186 358C198.833 370.833 213.333 380.833 229.5 388C245.667 395.167 262.5 399.167 280 400L200 480C168.667 467.667 141.333 449.667 118 426C94.3333 402.667 76.3333 375.333 64 344ZM512 344L432 264C431.167 281.5 427.167 298.333 420 314.5C412.833 330.667 402.833 345.167 390 358C377.167 370.833 362.667 380.833 346.5 388C330.333 395.167 313.5 399.167 296 400L376 480C407.333 467.667 434.667 449.667 458 426C481.667 402.667 499.667 375.333 512 344ZM376 32L296 112C313.5 112.833 330.333 116.833 346.5 124C362.667 131.167 377.167 141.167 390 154C402.833 166.833 412.833 181.333 420 197.5C427.167 213.667 431.167 230.5 432 248L512 168C499.667 136.667 481.667 109.333 458 86C434.667 62.3333 407.333 44.3333 376 32ZM200 32L280 112C262.5 112.833 245.667 116.833 229.5 124C213.333 131.167 198.833 141.167 186 154C173.167 166.833 163.167 181.333 156 197.5C148.833 213.667 144.833 230.5 144 248L64 168C76.3333 136.667 94.3333 109.333 118 86C141.333 62.3333 168.667 44.3333 200 32Z" fill="black"/>
</svg>
