<svg width="576" height="512" viewBox="0 0 576 512" fill="none" xmlns="http://www.w3.org/2000/svg">
<path d="M336 32C318.327 32 304 46.3269 304 64V208C304 225.673 318.327 240 336 240H480C497.673 240 512 225.673 512 208V64C512 46.3269 497.673 32 480 32H336Z" fill="black"/>
<path fill-rule="evenodd" clip-rule="evenodd" d="M304 304C304 286.327 318.327 272 336 272H480C497.673 272 512 286.327 512 304V448C512 465.673 497.673 480 480 480H336C318.327 480 304 465.673 304 448V304ZM336 304H480V448H336V304Z" fill="black"/>
<path fill-rule="evenodd" clip-rule="evenodd" d="M96 272C78.3269 272 64 286.327 64 304V448C64 465.673 78.3269 480 96 480H240C257.673 480 272 465.673 272 448V304C272 286.327 257.673 272 240 272H96ZM240 304H96L96 448H240V304Z" fill="black"/>
<path fill-rule="evenodd" clip-rule="evenodd" d="M64 64C64 46.3269 78.3269 32 96 32H240C257.673 32 272 46.3269 272 64V208C272 225.673 257.673 240 240 240H96C78.3269 240 64 225.673 64 208V64ZM96 64H240V208H96L96 64Z" fill="black"/>
</svg>
