<svg width="576" height="512" viewBox="0 0 576 512" fill="none" xmlns="http://www.w3.org/2000/svg">
<path d="M368 112L367.999 112.002L368 112.001V296.001C368 300.42 364.418 304.001 360 304.001H344C339.582 304.001 336 300.42 336 296.001V173.979L271.978 231.409C271.993 231.605 272 231.802 272 232.001V392.001C272 396.42 268.418 400.001 264 400.001H249C244.582 400.001 241 396.42 241 392.001V240.001H48V392.001C48 396.42 44.4183 400.001 40 400.001H24C19.5817 400.001 16 396.42 16 392.001V208.001L16.005 208H16L133.333 112H368Z" fill="black"/>
<path d="M144 256.001H112V296.001C112 300.42 115.582 304.001 120 304.001H136C140.418 304.001 144 300.42 144 296.001V256.001Z" fill="black"/>
<path d="M432 200C432 177.909 449.909 160 472 160C494.091 160 512 177.909 512 200C512 222.091 494.091 240 472 240C458.745 240 448 250.745 448 264V296C448 309.255 458.745 320 472 320C485.255 320 496 309.255 496 296V284.687C532.936 274.241 560 240.281 560 200C560 151.399 520.601 112 472 112C423.399 112 384 151.399 384 200C384 213.255 394.745 224 408 224C421.255 224 432 213.255 432 200Z" fill="black"/>
<path d="M496 360C496 373.255 485.255 384 472 384C458.745 384 448 373.255 448 360C448 346.745 458.745 336 472 336C485.255 336 496 346.745 496 360Z" fill="black"/>
</svg>
