<svg width="576" height="512" viewBox="0 0 576 512" fill="none" xmlns="http://www.w3.org/2000/svg">
<path d="M528 64L528 304C528 312.837 520.837 320 512 320H496C487.163 320 480 312.837 480 304V154.667L400 225.778V432C400 440.837 392.837 448 384 448H368C359.163 448 352 440.837 352 432V240H96V432C96 440.837 88.8366 448 80 448H64C55.1634 448 48 440.837 48 432V192L208 64H528Z" fill="black"/>
<path d="M176 256H224V304C224 312.837 216.837 320 208 320H192C183.163 320 176 312.837 176 304V256Z" fill="black"/>
</svg>
