<svg width="576" height="512" viewBox="0 0 576 512" fill="none" xmlns="http://www.w3.org/2000/svg">
<path fill-rule="evenodd" clip-rule="evenodd" d="M248 316L128 256V376C128 398.091 110.091 416 88 416C65.9086 416 48 398.091 48 376V216L32 208V160L288 32L544 160V208L528 216V376C528 398.091 510.091 416 488 416C465.909 416 448 398.091 448 376V256L328 316V472C328 494.091 310.091 512 288 512C265.909 512 248 494.091 248 472V316ZM288 67.7771L93.5542 165L285.574 256.072C286.377 256.024 287.185 256 288 256C288.815 256 289.623 256.024 290.426 256.072L482.446 165L288 67.7771ZM296 332V472C296 476.418 292.418 480 288 480C283.582 480 280 476.418 280 472V332L288 336L296 332ZM480 240V376C480 380.418 483.582 384 488 384C492.418 384 496 380.418 496 376V232L480 240ZM80 232V376C80 380.418 83.5817 384 88 384C92.4183 384 96 380.418 96 376V240L80 232Z" fill="black"/>
</svg>
