<svg width="576" height="512" viewBox="0 0 576 512" fill="none" xmlns="http://www.w3.org/2000/svg">
<path d="M416 200C416 177.909 433.909 160 456 160C478.091 160 496 177.909 496 200C496 222.091 478.091 240 456 240C442.745 240 432 250.745 432 264V296C432 309.255 442.745 320 456 320C469.255 320 480 309.255 480 296V284.687C516.936 274.241 544 240.281 544 200C544 151.399 504.601 112 456 112C407.399 112 368 151.399 368 200C368 213.255 378.745 224 392 224C405.255 224 416 213.255 416 200Z" fill="black"/>
<path d="M480 360C480 373.255 469.255 384 456 384C442.745 384 432 373.255 432 360C432 346.745 442.745 336 456 336C469.255 336 480 346.745 480 360Z" fill="black"/>
<path fill-rule="evenodd" clip-rule="evenodd" d="M32 192C32 165.49 53.4903 144 80 144H304C330.51 144 352 165.49 352 192V320C352 346.51 330.51 368 304 368H80C53.4903 368 32 346.51 32 320V192ZM80 192H304V320H80L80 192ZM80.0024 320.06C80.0024 320.06 80.0025 320.061 80.0022 320.058L80.0024 320.06Z" fill="black"/>
</svg>
