<svg width="576" height="512" viewBox="0 0 576 512" fill="none" xmlns="http://www.w3.org/2000/svg">
<path fill-rule="evenodd" clip-rule="evenodd" d="M16 288C16 305.673 30.3269 320 48 320H144C161.673 320 176 305.673 176 288V224C176 206.327 161.673 192 144 192H48C30.3269 192 16 206.327 16 224L16 288ZM16 448C16 465.673 30.3269 480 48 480H144C161.673 480 176 465.673 176 448V384C176 366.327 161.673 352 144 352H48C30.3269 352 16 366.327 16 384L16 448ZM144 64H48V128H144V64ZM336 64H240V128H336V64ZM368 128C368 145.673 353.673 160 336 160H240C222.327 160 208 145.673 208 128V64C208 46.3269 222.327 32 240 32H336C353.673 32 368 46.3269 368 64V128ZM240 288H336V224H240V288ZM336 384H240V448H336V384ZM432 64V128H528V64H432ZM528 224H432V288H528V224ZM528.019 287.978L528.018 287.979C528.02 287.976 528.02 287.976 528.019 287.978ZM16 64C16 46.3269 30.3269 32 48 32H144C161.673 32 176 46.3269 176 64V128C176 145.673 161.673 160 144 160H48C30.3269 160 16 145.673 16 128V64ZM48 224V288H144V224H48ZM48 384V448H144V384H48ZM208 224C208 206.327 222.327 192 240 192H336C353.673 192 368 206.327 368 224V288C368 305.673 353.673 320 336 320H240C222.327 320 208 305.673 208 288V224ZM208 384C208 366.327 222.327 352 240 352H336C353.673 352 368 366.327 368 384V448C368 465.673 353.673 480 336 480H240C222.327 480 208 465.673 208 448V384ZM400 64C400 46.3269 414.327 32 432 32H528C545.673 32 560 46.3269 560 64V128C560 145.673 545.673 160 528 160H432C414.327 160 400 145.673 400 128V64ZM400 224C400 206.327 414.327 192 432 192H528C545.673 192 560 206.327 560 224V288C560 305.673 545.673 320 528 320H432C414.327 320 400 305.673 400 288V224ZM432 352C414.327 352 400 366.327 400 384V448C400 465.673 414.327 480 432 480H528C545.673 480 560 465.673 560 448V384C560 366.327 545.673 352 528 352H432ZM432 384V448H528V384H432Z" fill="black"/>
</svg>
