<svg width="576" height="512" viewBox="0 0 576 512" fill="none" xmlns="http://www.w3.org/2000/svg">
<path d="M16 64C16 46.3269 30.3269 32 48 32H144C161.673 32 176 46.3269 176 64V128C176 145.673 161.673 160 144 160H48C30.3269 160 16 145.673 16 128V64Z" fill="black"/>
<path fill-rule="evenodd" clip-rule="evenodd" d="M48 192C30.3269 192 16 206.327 16 224V288C16 305.673 30.3269 320 48 320H144C161.673 320 176 305.673 176 288V224C176 206.327 161.673 192 144 192H48ZM144 224H48L48 288H144V224Z" fill="black"/>
<path fill-rule="evenodd" clip-rule="evenodd" d="M16 384C16 366.327 30.3269 352 48 352H144C161.673 352 176 366.327 176 384V448C176 465.673 161.673 480 144 480H48C30.3269 480 16 465.673 16 448V384ZM48 384H144V448H48L48 384Z" fill="black"/>
<path d="M208 64C208 46.3269 222.327 32 240 32H336C353.673 32 368 46.3269 368 64V128C368 145.673 353.673 160 336 160H240C222.327 160 208 145.673 208 128V64Z" fill="black"/>
<path d="M240 192C222.327 192 208 206.327 208 224V288C208 305.673 222.327 320 240 320H336C353.673 320 368 305.673 368 288V224C368 206.327 353.673 192 336 192H240Z" fill="black"/>
<path d="M208 384C208 366.327 222.327 352 240 352H336C353.673 352 368 366.327 368 384V448C368 465.673 353.673 480 336 480H240C222.327 480 208 465.673 208 448V384Z" fill="black"/>
<path d="M432 32C414.327 32 400 46.3269 400 64V128C400 145.673 414.327 160 432 160H528C545.673 160 560 145.673 560 128V64C560 46.3269 545.673 32 528 32H432Z" fill="black"/>
<path d="M400 224C400 206.327 414.327 192 432 192H528C545.673 192 560 206.327 560 224V288C560 305.673 545.673 320 528 320H432C414.327 320 400 305.673 400 288V224Z" fill="black"/>
<path fill-rule="evenodd" clip-rule="evenodd" d="M400 384C400 366.327 414.327 352 432 352H528C545.673 352 560 366.327 560 384V448C560 465.673 545.673 480 528 480H432C414.327 480 400 465.673 400 448V384ZM432 384H528V448H432V384Z" fill="black"/>
</svg>
