<svg width="576" height="512" viewBox="0 0 576 512" fill="none" xmlns="http://www.w3.org/2000/svg">
<g clip-path="url(#clip0)">
<path fill-rule="evenodd" clip-rule="evenodd" d="M422.602 267.561C400.075 271.553 375.795 263.694 349.763 243.986C329.989 256.958 308.212 263.445 284.433 263.445C262.907 263.445 242.757 258.081 223.984 247.354C215.474 252.842 203.396 258.58 187.752 264.567C172.108 270.555 160.907 272.925 154.148 271.677C165.162 259.204 170.794 249.225 171.044 241.741C165.537 245.982 159.029 249.162 151.52 251.283C144.011 253.403 138.504 253.341 135 251.096C149.017 240.368 158.279 212.926 162.784 168.769C162.784 168.021 163.034 159.352 163.535 142.762C164.036 126.172 164.849 109.519 165.975 92.8044C167.102 76.0896 168.541 65.1128 170.293 59.8738C176.551 41.4127 191.694 26.8185 215.724 16.0911C239.753 5.36369 262.656 0 284.433 0C300.202 0 319.852 4.1163 343.38 12.349C366.909 20.5816 382.428 30.0616 389.937 40.789C395.945 49.2711 399.95 59.1254 401.952 70.3517C403.955 81.5781 405.144 97.2326 405.519 117.315C405.894 137.398 406.583 152.928 407.584 163.905C409.586 183.862 412.59 199.579 416.595 211.055C420.6 222.531 428.735 233.633 441 244.36C433.741 246.855 426.294 247.354 418.66 245.857C411.026 244.36 405.206 240.992 401.201 235.753C403.454 249.973 410.588 260.576 422.602 267.561ZM213.471 135.839C208.215 171.763 206.713 197.209 208.966 212.178C229.24 234.381 254.396 245.483 284.433 245.483C301.454 245.483 317.348 241.553 332.117 233.695C346.885 225.837 359.025 215.171 368.536 201.7C368.286 200.702 367.785 197.147 367.034 191.035C366.283 184.923 365.72 180.682 365.345 178.312C364.969 175.942 364.218 171.825 363.092 165.963C361.966 160.1 360.777 155.485 359.525 152.117C358.274 148.749 356.772 144.757 355.02 140.142C353.267 135.527 351.077 131.348 348.449 127.606C345.821 123.864 343.005 120.371 340.001 117.128C334.244 118.376 325.796 119.436 314.658 120.309C303.519 121.182 291.129 121.12 277.487 120.122C263.845 119.124 254.647 116.504 249.891 112.263C254.396 104.779 255.898 97.0455 254.396 89.0623C253.896 86.3181 251.267 83.0125 246.512 79.1457C241.756 75.2788 238.502 73.7196 236.75 74.468C226.487 79.4575 218.728 99.9144 213.471 135.839Z" fill="black"/>
<path d="M288 288L224 272V336L288 322L352 336V272L288 288Z" fill="black"/>
<path d="M288 384C296.837 384 304 376.837 304 368C304 359.163 296.837 352 288 352C279.163 352 272 359.163 272 368C272 376.837 279.163 384 288 384Z" fill="black"/>
<path d="M304 416C304 424.837 296.837 432 288 432C279.163 432 272 424.837 272 416C272 407.163 279.163 400 288 400C296.837 400 304 407.163 304 416Z" fill="black"/>
<path d="M242.909 448H288V512H80C77.1602 495.564 68.9381 475.278 60.0836 453.431C46.758 420.554 32.0001 384.142 32 352C56.1706 322.062 98.9562 311.615 139.27 301.772C156.658 297.526 173.587 293.393 188.364 287.856C190.061 289.764 191.636 299.673 193.091 317.583C194.545 335.493 196.606 355.894 199.273 378.785C201.939 401.677 205.212 416.845 209.091 428.291C210.788 433.378 214.303 437.617 219.636 441.008C224.97 444.399 229.576 446.519 233.455 447.367C236.711 448.079 239.455 448.042 241.687 448.011C242.113 448.005 242.52 448 242.909 448Z" fill="black"/>
<path d="M288 448.144H333.091C333.48 448.144 333.887 448.15 334.313 448.155C336.545 448.186 339.289 448.223 342.545 447.511C346.424 446.663 351.03 444.543 356.364 441.152C361.697 437.761 365.212 433.522 366.909 428.435C370.788 416.989 374.061 401.821 376.727 378.929C379.394 356.038 381.455 335.637 382.909 317.727C384.364 299.817 385.939 289.908 387.636 288C402.413 293.537 419.342 297.67 436.73 301.916C477.044 311.759 519.829 322.206 544 352.144C544 384.286 529.242 420.698 515.916 453.575C507.062 475.422 498.84 495.708 496 512.144H288V448.144Z" fill="black"/>
</g>
<defs>
<clipPath id="clip0">
<rect width="576" height="512" fill="white"/>
</clipPath>
</defs>
</svg>
