<svg width="576" height="512" viewBox="0 0 576 512" fill="none" xmlns="http://www.w3.org/2000/svg">
<g clip-path="url(#clip0)">
<path fill-rule="evenodd" clip-rule="evenodd" d="M288 256C358.692 256 416 198.692 416 128C416 57.3076 358.692 0 288 0C217.308 0 160 57.3076 160 128C160 198.692 217.308 256 288 256ZM396.8 128.8C386.4 130.933 371.533 129.933 352.2 125.8C332.867 121.666 316.533 116.8 303.2 111.2C294.133 107.2 285.467 102.6 277.2 97.3998C268.933 92.1998 259.467 85.6665 248.8 77.7998C238.133 69.9332 229.867 64.1332 224 60.3998C228.267 92.1332 213.333 114.8 179.2 128.4C179.467 158.533 190.2 184.133 211.4 205.2C232.6 226.266 258.133 236.8 288 236.8C317.867 236.8 343.4 226.266 364.6 205.2C385.8 184.133 396.533 158.667 396.8 128.8Z" fill="black"/>
<path d="M224 272L288 288L352 272V336L288 322L224 336V272Z" fill="black"/>
<path d="M288 384C296.837 384 304 376.837 304 368C304 359.163 296.837 352 288 352C279.163 352 272 359.163 272 368C272 376.837 279.163 384 288 384Z" fill="black"/>
<path d="M304 416C304 424.837 296.837 432 288 432C279.163 432 272 424.837 272 416C272 407.163 279.163 400 288 400C296.837 400 304 407.163 304 416Z" fill="black"/>
<path d="M242.909 448.145H335.273C335.662 448.145 336.069 448.15 336.495 448.156C338.727 448.186 341.471 448.223 344.727 447.511C348.606 446.664 353.212 444.544 358.545 441.153C363.879 437.761 367.394 433.522 369.091 428.435C372.97 416.99 376.061 401.821 378.364 378.93C380.667 356.039 382.364 335.638 383.455 317.727C384.545 299.817 385.939 289.908 387.636 288C389.333 288.636 393.152 290.332 399.091 293.087C405.03 295.843 411.152 298.28 417.455 300.4C424.727 302.731 434.667 305.911 447.273 309.938C459.879 313.965 469.818 317.198 477.091 319.635C484.364 322.073 492.424 324.987 501.273 328.378C510.121 331.77 517.273 335.214 522.727 338.711C528.182 342.208 532.364 345.759 535.273 349.362C538.424 357.84 540.667 381.155 542 419.308C543.333 457.46 544 488.405 544 512.145H32C32 417.188 34.9091 362.927 40.7273 349.362C43.6364 345.759 47.8182 342.208 53.2727 338.711C58.7273 335.214 65.8788 331.77 74.7273 328.378C83.5758 324.987 91.6364 322.073 98.9091 319.635C106.182 317.198 116.121 313.965 128.727 309.938C141.333 305.911 151.273 302.731 158.545 300.4C164.848 298.28 170.97 295.843 176.909 293.087C182.848 290.332 186.667 288.636 188.364 288C190.061 289.908 191.636 299.817 193.091 317.727C194.545 335.638 196.606 356.039 199.273 378.93C201.939 401.821 205.212 416.99 209.091 428.435C210.788 433.522 214.303 437.761 219.636 441.153C224.97 444.544 229.576 446.664 233.455 447.511C236.711 448.223 239.455 448.186 241.687 448.156C242.113 448.15 242.52 448.145 242.909 448.145Z" fill="black"/>
</g>
<defs>
<clipPath id="clip0">
<rect width="576" height="512" fill="white"/>
</clipPath>
</defs>
</svg>
