<svg width="576" height="512" viewBox="0 0 576 512" fill="none" xmlns="http://www.w3.org/2000/svg">
<g clip-path="url(#clip0)">
<path fill-rule="evenodd" clip-rule="evenodd" d="M349.763 243.986C375.795 263.694 400.075 271.553 422.602 267.561C410.588 260.576 403.454 249.973 401.201 235.753C405.206 240.992 411.026 244.36 418.66 245.857C426.294 247.354 433.741 246.855 441 244.36C428.735 233.633 420.6 222.531 416.595 211.055C412.59 199.579 409.586 183.862 407.584 163.905C406.583 152.928 405.894 137.398 405.519 117.315C405.144 97.2326 403.955 81.5781 401.952 70.3517C399.95 59.1254 395.945 49.2711 389.937 40.789C382.428 30.0616 366.909 20.5816 343.38 12.349C319.852 4.1163 300.202 0 284.433 0C262.656 0 239.753 5.36369 215.724 16.0911C191.694 26.8185 176.551 41.4127 170.293 59.8738C168.541 65.1128 167.102 76.0896 165.975 92.8044C164.849 109.519 164.036 126.172 163.535 142.762C163.034 159.352 162.784 168.021 162.784 168.769C158.279 212.926 149.017 240.368 135 251.096C138.504 253.341 144.011 253.403 151.52 251.283C159.029 249.162 165.537 245.982 171.044 241.741C170.794 249.225 165.162 259.204 154.148 271.677C160.907 272.925 172.108 270.555 187.752 264.567C203.396 258.58 215.474 252.842 223.984 247.354C242.757 258.081 262.907 263.445 284.433 263.445C308.212 263.445 329.989 256.958 349.763 243.986ZM208.966 212.178C206.713 197.209 208.215 171.763 213.471 135.839C218.728 99.9144 226.487 79.4575 236.75 74.468C238.502 73.7196 241.756 75.2788 246.512 79.1457C251.267 83.0125 253.896 86.3181 254.396 89.0623C255.898 97.0455 254.396 104.779 249.891 112.263C254.647 116.504 263.845 119.124 277.487 120.122C291.129 121.12 303.519 121.182 314.658 120.309C325.796 119.436 334.244 118.376 340.001 117.128C343.005 120.371 345.821 123.864 348.449 127.606C351.077 131.348 353.267 135.527 355.02 140.142C356.772 144.757 358.274 148.749 359.525 152.117C360.777 155.485 361.966 160.1 363.092 165.963C364.218 171.825 364.969 175.942 365.345 178.312C365.72 180.682 366.283 184.923 367.034 191.035C367.785 197.147 368.286 200.702 368.536 201.7C359.025 215.171 346.885 225.837 332.117 233.695C317.348 241.553 301.454 245.483 284.433 245.483C254.396 245.483 229.24 234.381 208.966 212.178Z" fill="black"/>
<path fill-rule="evenodd" clip-rule="evenodd" d="M288 364.865C269.277 365.059 251.101 359.483 235.092 349.913L215.3 288C209.325 290.319 191.4 294.203 161.525 299.653C131.65 305.102 105.26 311.363 82.3562 318.435C59.4521 325.508 48 333.45 48 342.261C48 393.709 60.1621 438.746 74.9886 493.649L74.9931 493.665C76.61 499.653 78.2585 505.757 79.9264 512L496.074 512C497.742 505.757 499.39 499.652 501.007 493.665L501.011 493.648C515.838 438.745 528 393.709 528 342.261C528 333.449 516.548 325.507 493.644 318.435C470.74 311.362 444.35 305.101 414.475 299.652C384.6 294.203 366.675 290.319 360.7 288L340.908 349.913C324.899 359.482 306.723 365.059 288 364.865ZM288 377.048C271.687 376.861 256.214 373.303 241.185 366.956L288 488.827L334.815 366.956C319.786 373.302 304.313 376.861 288 377.048Z" fill="black"/>
</g>
<defs>
<clipPath id="clip0">
<rect width="576" height="512" fill="white"/>
</clipPath>
</defs>
</svg>
