<svg width="576" height="512" viewBox="0 0 576 512" fill="none" xmlns="http://www.w3.org/2000/svg">
<path fill-rule="evenodd" clip-rule="evenodd" d="M288 256C358.692 256 416 198.692 416 128C416 57.3076 358.692 0 288 0C217.308 0 160 57.3076 160 128C160 198.692 217.308 256 288 256ZM396.8 128.8C386.4 130.933 371.533 129.933 352.2 125.8C332.867 121.666 316.533 116.8 303.2 111.2C294.133 107.2 285.467 102.6 277.2 97.3998C268.933 92.1998 259.467 85.6665 248.8 77.7998C238.133 69.9332 229.867 64.1332 224 60.3998C228.267 92.1332 213.333 114.8 179.2 128.4C179.467 158.533 190.2 184.133 211.4 205.2C232.6 226.266 258.133 236.8 288 236.8C317.867 236.8 343.4 226.266 364.6 205.2C385.8 184.133 396.533 158.667 396.8 128.8Z" fill="black"/>
<path d="M272.139 336.139L240 304L288 272L336 304L304.045 335.955C310.347 352.297 320.069 399.836 333.21 464.097C333.889 467.415 334.576 470.777 335.273 474.181C335.515 473.454 338.061 472.484 342.909 471.272C347.758 470.06 352.909 467.818 358.364 464.545C363.818 461.272 367.394 456.727 369.091 450.909C372.97 437.818 376.061 418.181 378.364 392C380.667 365.818 382.364 342.484 383.455 322C384.545 301.515 385.939 290.181 387.636 288C389.333 288.727 393.152 290.666 399.091 293.818C405.03 296.969 411.152 299.757 417.455 302.181C424.727 304.848 434.667 308.484 447.273 313.091C459.879 317.697 469.818 321.394 477.091 324.181C484.364 326.969 492.424 330.303 501.273 334.181C510.121 338.06 517.273 342 522.727 346C528.182 350 532.364 354.06 535.273 358.181C538.424 367.878 540.667 394.545 542 438.181C542.47 453.555 542.857 463.888 543.161 472.012L543.161 472.013L543.161 472.014C543.72 486.948 544 494.415 544 512H32C32 403.394 34.9091 373.697 40.7273 358.181C43.6364 354.06 47.8182 350 53.2727 346C58.7273 342 65.8788 338.06 74.7273 334.181C83.5758 330.303 91.6364 326.969 98.9091 324.181C106.182 321.394 116.121 317.697 128.727 313.091C141.333 308.484 151.273 304.848 158.545 302.181C164.848 299.757 170.97 296.969 176.909 293.818C182.848 290.666 186.667 288.727 188.364 288C190.061 290.181 191.636 301.515 193.091 322C194.545 342.484 196.606 365.818 199.273 392C201.939 418.181 205.212 437.818 209.091 450.909C210.788 456.727 214.364 461.272 219.818 464.545C225.273 467.818 230.424 470.06 235.273 471.272C240.121 472.484 242.667 473.454 242.909 474.181C243.152 473.212 245.636 461.212 250.364 438.181C255.091 415.151 259.515 394.788 263.636 377.091C265.411 369.47 267.006 361.186 268.421 353.836C269.842 346.457 271.081 340.019 272.139 336.139Z" fill="black"/>
</svg>
