<svg width="576" height="512" viewBox="0 0 576 512" fill="none" xmlns="http://www.w3.org/2000/svg">
<path fill-rule="evenodd" clip-rule="evenodd" d="M288 0C325.308 0 356.62 13.7333 381.935 41.2C389.131 37.7333 397.258 37.3333 406.319 40C409.783 40.5333 413.647 40.6667 417.911 40.4C422.174 40.1333 426.238 39.8 430.102 39.4C433.966 39 437.764 40.8667 441.494 45C445.225 49.1333 448.29 55.8666 450.688 65.2C451.754 69.4666 452.62 73.4 453.286 77C453.953 80.6 454.152 84 453.886 87.2C453.619 90.4 453.486 93.0667 453.486 95.2C453.486 97.3333 452.887 99.7333 451.687 102.4C450.488 105.067 449.755 107 449.489 108.2C449.222 109.4 448.023 111.267 445.891 113.8C443.76 116.333 442.494 117.867 442.094 118.4C441.694 118.933 440.229 120.533 437.697 123.2C435.165 125.867 433.766 127.333 433.5 127.6C432.168 134.267 429.303 140.133 424.906 145.2C420.509 150.267 416.712 152.8 413.514 152.8C407.651 182.4 392.995 207 369.544 226.6C346.093 246.2 318.912 256 288 256C257.088 256 229.907 246.2 206.456 226.6C183.006 207 168.349 182.4 162.486 152.8C159.289 152.8 155.491 150.267 151.094 145.2C146.697 140.133 143.833 134.267 142.5 127.6C142.234 127.333 140.835 125.867 138.303 123.2C135.771 120.533 134.306 118.933 133.906 118.4C133.506 117.867 132.241 116.333 130.109 113.8C127.977 111.267 126.778 109.4 126.511 108.2C126.245 107 125.512 105.067 124.313 102.4C123.114 99.7333 122.514 97.3333 122.514 95.2C122.514 93.0667 122.381 90.4 122.114 87.2C121.848 84 122.048 80.6 122.714 77C123.38 73.4 124.246 69.4666 125.312 65.2C127.71 55.8666 130.775 49.1333 134.506 45C138.236 40.8667 142.034 39 145.898 39.4C149.762 39.8 153.826 40.1333 158.089 40.4C162.353 40.6667 166.217 40.5333 169.681 40C178.742 37.3333 186.87 37.7333 194.065 41.2C219.381 13.7333 250.692 0 288 0ZM364.747 89.6L369.739 96H312C307.582 96 304 99.5817 304 104V124.361V125.377C303.014 125.635 301.875 125.919 300.639 126.203C296.423 127.17 291.639 128 288 128C284.361 128 279.577 127.17 275.361 126.203C274.125 125.919 272.986 125.635 272 125.377V124.361V104C272 99.5817 268.418 96 264 96H206.261L211.253 89.6C211.253 89.6 218.581 74.2666 218.048 70.8C217.782 68.1333 217.315 66.2666 216.649 65.2C215.983 64.1333 215.25 63.4666 214.451 63.2C213.651 62.9333 212.319 62.3333 210.453 61.4C208.588 60.4667 206.856 59.2 205.257 57.6C226.842 32 254.423 19.2 288 19.2C321.577 19.2 349.158 32 370.743 57.6C369.144 59.2 367.412 60.4667 365.547 61.4C363.681 62.3333 362.349 62.9333 361.549 63.2C360.75 63.4666 360.017 64.1333 359.351 65.2C358.685 66.2666 358.218 68.1333 357.952 70.8C357.419 74.2666 364.747 89.6 364.747 89.6ZM272 141.847V152C272 156.418 268.418 160 264 160H200C195.582 160 192 156.418 192 152V108.695C188.791 110.003 184.701 111.629 180.474 113.2C179.675 118 179.275 122.933 179.275 128C179.275 157.867 189.934 183.467 211.253 204.8C232.572 226.133 258.154 236.8 288 236.8C317.846 236.8 343.429 226.133 364.747 204.8C386.066 183.467 396.725 157.867 396.725 128C396.725 122.933 396.326 118 395.526 113.2C391.299 111.629 387.209 110.003 384 108.695V152C384 156.418 380.418 160 376 160H312C307.582 160 304 156.418 304 152V141.847C299.519 142.867 293.414 144 288 144C282.586 144 276.481 142.867 272 141.847ZM208 112V144H256V112H208ZM320 144V112H368V144H320Z" fill="black"/>
<path d="M304.045 335.955L336 304L288 272L240 304L272.139 336.139C271.081 340.019 269.842 346.457 268.421 353.836C267.006 361.186 265.411 369.47 263.636 377.091C259.515 394.788 255.091 415.151 250.364 438.181C245.636 461.212 243.152 473.212 242.909 474.181C242.667 473.454 240.121 472.484 235.273 471.272C230.424 470.06 225.273 467.818 219.818 464.545C214.364 461.272 210.788 456.727 209.091 450.909C205.212 437.818 201.939 418.181 199.273 392C196.606 365.818 194.545 342.484 193.091 322C191.636 301.515 190.061 290.181 188.364 288C186.667 288.727 182.848 290.666 176.909 293.818C170.97 296.969 164.848 299.757 158.545 302.181C151.273 304.848 141.333 308.484 128.727 313.091C116.121 317.697 106.182 321.394 98.9091 324.181C91.6364 326.969 83.5758 330.303 74.7273 334.181C65.8788 338.06 58.7273 342 53.2727 346C47.8182 350 43.6364 354.06 40.7273 358.181C34.9091 373.697 32 403.394 32 512H544C544 494.416 543.72 486.949 543.161 472.018L543.161 472.014L543.161 472.013V472.012C542.857 463.888 542.47 453.555 542 438.181C540.667 394.545 538.424 367.878 535.273 358.181C532.364 354.06 528.182 350 522.727 346C517.273 342 510.121 338.06 501.273 334.181C492.424 330.303 484.364 326.969 477.091 324.181C469.818 321.394 459.879 317.697 447.273 313.091C434.667 308.484 424.727 304.848 417.455 302.181C411.152 299.757 405.03 296.969 399.091 293.818C393.152 290.666 389.333 288.727 387.636 288C385.939 290.181 384.545 301.515 383.455 322C382.364 342.484 380.667 365.818 378.364 392C376.061 418.181 372.97 437.818 369.091 450.909C367.394 456.727 363.818 461.272 358.364 464.545C352.909 467.818 347.758 470.06 342.909 471.272C338.061 472.484 335.515 473.454 335.273 474.181L333.21 464.098L333.21 464.096C320.068 399.835 310.347 352.297 304.045 335.955Z" fill="black"/>
</svg>
