<svg width="576" height="512" viewBox="0 0 576 512" fill="none" xmlns="http://www.w3.org/2000/svg">
<path d="M144 0C135.163 0 128 7.16344 128 16V203.643C128 210.971 128.667 217.238 130 222.445C131.333 227.652 132.917 231.75 134.75 234.739C136.583 237.728 139.25 240.38 142.75 242.694C146.25 245.008 149.333 246.647 152 247.611C154.667 248.576 158.542 249.877 163.625 251.516C166.024 252.29 169.396 253.031 172.622 253.74C173.785 253.996 174.928 254.247 176 254.494V480C176 497.673 190.327 512 208 512C225.673 512 240 497.673 240 480V254.494C241.072 254.247 242.215 253.995 243.377 253.74C246.604 253.031 249.976 252.29 252.375 251.516C257.458 249.877 261.333 248.576 264 247.611C266.667 246.647 269.75 245.008 273.25 242.694C276.75 240.38 279.417 237.728 281.25 234.739C283.083 231.75 284.667 227.652 286 222.445C287.333 217.238 288 210.971 288 203.643V16C288 7.16344 280.837 0 272 0C263.163 0 256 7.16344 256 16V144C256 152.837 248.837 160 240 160C231.163 160 224 152.837 224 144V16C224 7.16344 216.837 0 208 0C199.163 0 192 7.16344 192 16V144C192 152.837 184.837 160 176 160C167.163 160 160 152.837 160 144V16C160 7.16344 152.837 0 144 0Z" fill="black"/>
<path d="M448 18.2857V285.429C448 285.887 447.993 286.342 447.978 286.793C447.993 287.193 448 287.596 448 288V480C448 497.673 433.673 512 416 512C398.327 512 384 497.673 384 480V320H314.734C312.324 320 310.285 319.048 308.616 317.143C305.093 313.524 305.239 308.857 309.503 284.857C310.244 280.095 311.681 270.429 313.813 255.857C315.946 241.286 317.939 227.667 319.793 215C321.647 202.333 324.242 186.952 327.58 168.857C330.917 150.762 334.347 134.429 337.87 119.857C341.392 105.286 345.796 90.2381 351.08 74.7143C356.364 59.1905 361.88 46.2381 367.627 35.8571C373.375 25.4762 380.142 16.9047 387.929 10.1428C395.716 3.38092 403.874 0 412.402 0H430.201C435.022 0 439.193 1.80951 442.716 5.42856C446.239 9.04761 448 13.3333 448 18.2857Z" fill="black"/>
</svg>
