<svg width="576" height="512" viewBox="0 0 576 512" fill="none" xmlns="http://www.w3.org/2000/svg">
<path d="M328.363 112C359.291 112 384.363 86.9279 384.363 56C384.363 25.0721 359.291 0 328.363 0C297.435 0 272.363 25.0721 272.363 56C272.363 86.9279 297.435 112 328.363 112Z" fill="black"/>
<path d="M222.898 213.433L249.387 202.913L231.282 285.54C230.207 290.447 231.499 295.575 234.771 299.386L235.051 299.712L288.363 360L288.196 360.517L288.42 360.057L321.236 404.301C323.692 407.611 325.485 411.366 326.516 415.357L345.004 486.891C349.454 504.109 367.209 514.364 384.388 509.761C401.257 505.241 411.504 487.999 407.266 471.056L385.943 385.804C384.832 381.36 382.78 377.207 379.925 373.625L325.545 305.385L342.404 239.637L352.115 265.385C354.238 271.014 357.904 275.931 362.694 279.571L396.606 305.344C410.632 316.004 430.646 313.309 441.368 299.331C452.151 285.274 449.472 265.118 435.378 254.384L410.271 235.261C405.748 231.816 402.224 227.228 400.063 221.969L378.382 169.221C375.576 162.395 370.476 157.185 364.329 154.135L364.363 154C364.363 154 338.667 136.564 319.863 131.5C300.31 126.235 269.224 129.559 265.693 129.962C261.753 129.948 257.746 130.666 253.859 132.2L180.993 160.962C179.273 161.641 177.776 162.783 176.666 164.261L143.532 208.407C132.939 222.521 135.797 242.566 149.889 253.189C164.001 263.828 184.092 261.033 194.731 246.921L216.027 218.672C217.794 216.329 220.171 214.517 222.898 213.433Z" fill="black"/>
<path d="M197.822 394.263L219.081 344.659L270.731 396.309L253.801 431.004C252.188 434.31 250.017 437.313 247.383 439.881L183.471 502.205C170.967 514.398 150.91 514.228 138.51 501.93C125.883 489.407 125.802 468.903 138.437 456.387L190.929 404.393C193.858 401.492 196.198 398.052 197.822 394.263Z" fill="black"/>
</svg>
