<svg width="576" height="512" viewBox="0 0 576 512" fill="none" xmlns="http://www.w3.org/2000/svg">
<path d="M240.226 41.1057C245.044 35.0352 251.735 32 260.299 32C269.042 32 275.778 34.2547 280.506 38.7642C285.234 43.2737 287.777 49.2575 288.134 56.7154C288.491 49.2575 290.944 43.2737 295.494 38.7642C300.044 34.2547 306.601 32 315.165 32C323.73 32 330.51 35.0352 335.506 41.1057C340.502 47.1762 343 54.8076 343 64C342.286 71.2845 338.539 78.2222 331.759 84.813L288.134 128L243.973 84.813C237.371 78.3957 233.714 71.458 233 64C233 54.8076 235.409 47.1762 240.226 41.1057Z" fill="black"/>
<path d="M368 202.667V144C368 135.163 360.837 128 352 128H288.134H224C215.163 128 208 135.163 208 144V202.667C212.267 202.667 216.524 204.365 219.673 207.724L228 216.606L246.327 197.057C249.352 193.831 253.577 192 258 192C262.423 192 266.648 193.831 269.673 197.057L288 216.606L306.327 197.057C309.352 193.831 313.577 192 318 192C322.423 192 326.648 193.831 329.673 197.057L348 216.606L356.327 207.724C359.476 204.365 363.733 202.667 368 202.667Z" fill="black"/>
<path d="M383.089 224C382.374 226.027 381.237 227.941 379.673 229.61L359.673 250.943C356.648 254.169 352.423 256 348 256C343.577 256 339.352 254.169 336.327 250.943L318 231.394L299.673 250.943C296.648 254.169 292.423 256 288 256C283.577 256 279.352 254.169 276.327 250.943L258 231.394L239.673 250.943C236.648 254.169 232.423 256 228 256C223.577 256 219.352 254.169 216.327 250.943L196.327 229.61C194.763 227.941 193.626 226.027 192.911 224H192C183.163 224 176 231.163 176 240V322.914C176.536 321.949 177.18 321.025 177.933 320.16C183.736 313.495 193.843 312.797 200.507 318.6L214.5 330.784L240.743 307.933C246.766 302.689 255.734 302.689 261.757 307.933L288 330.784L314.243 307.933C320.266 302.689 329.234 302.689 335.257 307.933L361.5 330.784L375.493 318.6C382.157 312.797 392.264 313.495 398.067 320.16C398.82 321.025 399.464 321.949 400 322.914V240C400 231.163 392.837 224 384 224H383.089Z" fill="black"/>
<path d="M396.507 342.733C398.666 340.853 400.2 338.521 401.088 336H432C440.837 336 448 343.163 448 352V448H464C472.837 448 480 455.163 480 464C480 472.837 472.837 480 464 480H112C103.163 480 96 472.837 96 464C96 455.163 103.163 448 112 448H128V352C128 343.163 135.163 336 144 336H174.912C175.8 338.521 177.334 340.853 179.493 342.733L203.993 364.067C210.016 369.311 218.984 369.311 225.007 364.067L251.25 341.216L277.493 364.067C283.516 369.311 292.484 369.311 298.507 364.067L324.75 341.216L350.993 364.067C357.016 369.311 365.984 369.311 372.007 364.067L396.507 342.733Z" fill="black"/>
</svg>
