<svg width="576" height="512" viewBox="0 0 576 512" fill="none" xmlns="http://www.w3.org/2000/svg">
<path d="M480 32H96L96 288H64V32C64 14.3269 78.3269 0 96 0H480C497.673 0 512 14.3269 512 32V288H480V32Z" fill="black"/>
<path d="M256 288H128V320H48C39.1634 320 32 327.163 32 336C32 344.837 39.1634 352 48 352H208.584L171.84 489.133C169.553 497.668 174.618 506.442 183.153 508.729C191.689 511.016 200.462 505.951 202.749 497.415L241.713 352H272V448C272 456.837 279.163 464 288 464C296.837 464 304 456.837 304 448V352H334.287L373.251 497.415C375.538 505.951 384.311 511.016 392.847 508.729C401.382 506.442 406.447 497.668 404.16 489.133L367.416 352H528C536.837 352 544 344.837 544 336C544 327.163 536.837 320 528 320H256V288Z" fill="black"/>
</svg>
