<svg width="576" height="512" viewBox="0 0 576 512" fill="none" xmlns="http://www.w3.org/2000/svg">
<path d="M192 400H144V288C153.663 288 162.353 293.883 165.942 302.856L181.272 341.179C188.359 358.897 192 377.804 192 396.887V400Z" fill="black"/>
<path d="M336 112H432V224L414.267 218.459C367.704 203.907 336 160.784 336 112Z" fill="black"/>
<path d="M432 400H384V396.887C384 377.804 387.641 358.897 394.728 341.179L410.058 302.856C413.647 293.883 422.337 288 432 288V400Z" fill="black"/>
<path d="M240 112H144V224L161.733 218.459C208.296 203.907 240 160.784 240 112Z" fill="black"/>
<path fill-rule="evenodd" clip-rule="evenodd" d="M64 80C64 53.4903 85.4903 32 112 32H464C490.51 32 512 53.4903 512 80V432C512 458.51 490.51 480 464 480H112C85.4903 480 64 458.51 64 432V80ZM128 272V416H272V272H128ZM448 240V96H304V240H448ZM304 272H448V416H304V272ZM272 240V96H128V240H272Z" fill="black"/>
</svg>
