<svg width="576" height="512" viewBox="0 0 576 512" fill="none" xmlns="http://www.w3.org/2000/svg">
<path d="M435.867 170.4L446.587 153.39H279.96L282.756 171.565C285.708 171.565 293.71 172.419 306.76 174.128C319.811 175.837 328.977 177.235 334.259 178.322C333.793 182.983 327.152 191.022 314.334 202.44C301.517 213.858 288 225.237 273.784 236.577C259.568 247.917 251.528 254.908 249.664 257.549C246.246 252.578 233.817 236.189 212.377 208.382C190.937 180.575 174.934 158.982 164.37 143.603C168.409 142.515 178.935 141.35 195.947 140.107C212.959 138.865 222.709 138.01 225.194 137.544L227.991 121H34.0974L32 138.476C34.7965 139.098 44.7786 140.535 61.9463 142.787C79.1139 145.04 88.7853 146.554 90.9604 147.331C101.214 155.098 121.606 177.895 152.135 215.722C182.664 253.548 199.016 275.569 201.191 281.782V341.435C201.191 345.94 199.637 349.474 196.53 352.037C193.423 354.601 189.072 356.659 183.479 358.212C170.118 361.941 157.456 363.261 145.493 362.174L140.599 381.98C149.765 382.291 158.621 382.446 167.166 382.446C175.711 382.446 187.014 382.33 201.074 382.097C215.135 381.864 223.796 381.747 227.059 381.747C289.204 381.747 321.908 381.98 325.171 382.446L327.501 360.077L269.939 356.115C269.162 309.822 269.162 284.656 269.939 280.617C271.959 274.87 282.135 263.801 300.468 247.412C318.801 231.023 337.211 215.8 355.7 201.741C374.188 187.682 385.296 180.187 389.025 179.255C417.767 173.817 433.381 170.866 435.867 170.4ZM544 171.798L453.112 326.289L421.651 317.434L472.222 150.127L544 171.798ZM386.928 380.582L427.477 392L443.091 357.28L401.376 345.629L386.928 380.582Z" fill="black"/>
</svg>
