<svg width="512" height="512" viewBox="0 0 512 512" version="1.1" xmlns="http://www.w3.org/2000/svg"><path fill="currentColor" d="M384 80V48C384 39.1634 391.163 32 400 32C408.837 32 416 39.1635 416 48V64H432C441.94 64 450.293 70.7988 452.661 80H460.348C475.032 80 498.498 89.9935 502.06 104.239L512 144C512 152.837 504.837 160 496 160C487.163 160 480 152.837 480 144H432C432 144 416.021 248.76 400 272C379.938 301.101 336 320 336 320V456C336 469.255 325.255 480 312 480H279C265.745 480 255 469.255 255 456V320H128L113.255 393.724C112.427 397.867 112.427 402.133 113.255 406.276L124.172 460.862C126.153 470.763 118.58 480 108.483 480H67.6753C56.2349 480 46.385 471.925 44.1414 460.707L33.2551 406.276C32.4266 402.133 32.4266 397.867 33.2551 393.724L48 320L32 240L0 304V240C0 204.654 28.6538 176 64 176C96.5 176 240 176 320 176C350.738 170.411 384 80 384 80Z"></path></svg>