<svg width="448" height="512" viewBox="0 0 448 512" version="1.1" xmlns="http://www.w3.org/2000/svg"><path fill="currentColor" d="M198.25 224H64C55.5 224 47.625 224.792 40.375 226.375C33.125 227.958 26.375 230.458 20.125 233.875C13.875 237.292 8.95833 242.25 5.375 248.75C1.79167 255.25 0 263 0 272C0 283.5 3.54167 295.833 10.625 309C17.7083 322.167 26.9167 334.208 38.25 345.125C49.5833 356.042 63 365.125 78.5 372.375C94 379.625 109.417 383.167 124.75 383C150.083 382.667 172.583 372.667 192.25 353C184.75 362.667 180.167 373.542 178.5 385.625C176.833 397.708 177.75 409.125 181.25 419.875C184.75 430.625 189.5 440.625 195.5 449.875C201.5 459.125 208.417 466.458 216.25 471.875C224.083 477.292 231.583 480 238.75 480C249.417 480 258.708 478.208 266.625 474.625C274.542 471.042 280.792 466.042 285.375 459.625C289.958 453.208 293.333 446.042 295.5 438.125C297.667 430.208 298.75 421.583 298.75 412.25C298.75 398.417 296.542 384.25 292.125 369.75C287.708 355.25 281.917 342.917 274.75 332.75L198.25 224ZM210.25 214.5L246.25 81.5C249.917 67.6667 256.042 55.9583 264.625 46.375C273.208 36.7917 284 32 297 32C310.5 32 324.25 38.125 338.25 50.375C352.25 62.625 363.833 78.5833 373 98.25C382.167 117.917 386.75 137.5 386.75 157C386.75 175.167 382.5 191.583 374 206.25C365.5 220.917 353.333 232.75 337.5 241.75C351.333 236.25 364.875 235.125 378.125 238.375C391.375 241.625 403.167 247.292 413.5 255.375C423.833 263.458 432.167 272.75 438.5 283.25C444.833 293.75 448 303.583 448 312.75C448 317.75 446.917 323.083 444.75 328.75C442.583 334.417 439.375 339.875 435.125 345.125C430.875 350.375 425.042 354.75 417.625 358.25C410.208 361.75 401.917 363.5 392.75 363.5C375.917 363.5 358.292 359.042 339.875 350.125C321.458 341.208 306.917 330.417 296.25 317.75L210.25 214.5Z"></path></svg>