<svg width="512" height="512" viewBox="0 0 512 512" version="1.1" xmlns="http://www.w3.org/2000/svg"><path fill="currentColor" d="M384 80V48C384 39.1634 391.163 32 400 32C408.837 32 416 39.1635 416 48V64H432C441.94 64 450.293 70.7988 452.661 80H460.348C475.032 80 498.498 89.9935 502.06 104.239L512 144C512 152.837 504.837 160 496 160C487.163 160 480 152.837 480 144H432C432 144 416.021 248.76 400 272C379.938 301.101 336 320 336 320V456C336 469.255 325.255 480 312 480H296C282.745 480 272 469.255 272 456V320H128L113.255 393.724C112.427 397.867 112.427 402.133 113.255 406.276L124.172 460.862C126.153 470.763 118.58 480 108.483 480H83.6753C72.2349 480 62.385 471.925 60.1414 460.707L49.2551 406.276C48.4266 402.133 48.4266 397.867 49.2551 393.724L64 320L32 240L0 304V240C0 204.654 28.6538 176 64 176L80.7947 148.915C101.195 116.015 137.155 80 175.867 80C214.302 80 250.045 99.731 270.527 132.254C293.872 169.323 276.466 192 320 192C350.738 186.411 384 80 384 80Z"></path></svg>