<svg width="448" height="512" viewBox="0 0 448 512" fill="none" xmlns="http://www.w3.org/2000/svg">
<path fill-rule="evenodd" clip-rule="evenodd" d="M43.875 301.17C41.4583 309.922 40.0833 319.298 39.75 329.3C38.4167 377.475 54.75 415.064 88.75 442.069C122.75 469.073 170.667 481.659 232.5 479.825C242.333 479.492 253.25 478.075 265.25 475.574C277.25 473.074 289.875 469.323 303.125 464.323C316.375 459.322 328.625 452.195 339.875 442.944C351.125 433.692 359.333 423.149 364.5 411.314C346.333 422.816 328.25 428.483 310.25 428.316C285.75 428.15 262.417 420.523 240.25 405.438C218.083 390.352 201.167 369.307 189.5 342.302C195 351.637 203.667 360.263 215.5 368.181C227.333 376.099 240.625 382.559 255.375 387.56C270.125 392.56 285.833 395.561 302.5 396.561C319.167 397.561 334.917 396.478 349.75 393.311C364.583 390.143 378.125 383.642 390.375 373.807C402.625 363.972 411.583 351.387 417.25 336.051C421.583 324.549 425.917 316.548 430.25 312.047C434.583 307.546 440.5 304.962 448 304.296C444.833 294.961 438.25 287.501 428.25 281.917C418.25 276.333 410.333 274.207 404.5 275.541C406.333 269.873 410.667 264.331 417.5 258.913C424.333 253.495 432.167 250.787 441 250.787C438.5 243.285 434.667 237.368 429.5 233.034C424.333 228.7 419.458 226.158 414.875 225.407C410.292 224.657 405.917 224.157 401.75 223.907C397.583 223.657 395.333 223.365 395 223.032C403.833 216.864 410.75 209.655 415.75 201.403C420.75 193.152 423.958 185.359 425.375 178.025C426.792 170.69 427.083 162.48 426.25 153.395C425.417 144.311 424.25 136.976 422.75 131.392C421.25 125.807 419.25 119.515 416.75 112.514C412.583 121.015 406.958 130.517 399.875 141.018C392.792 151.52 384.292 162.605 374.375 174.274C364.458 185.942 354.208 196.528 343.625 206.029C333.042 215.531 321.708 223.407 309.625 229.658C297.542 235.909 286.25 238.951 275.75 238.785C266.417 238.618 256.208 235.743 245.125 230.158C234.042 224.574 223.75 217.698 214.25 209.53C213.083 206.863 210.958 198.653 207.875 184.901C204.792 171.148 201.042 156.938 196.625 142.268C192.208 127.599 187.5 116.598 182.5 109.263C182.167 108.763 181.375 107.554 180.125 105.637C178.875 103.72 178.125 102.554 177.875 102.137C177.625 101.72 176.958 100.762 175.875 99.2613C174.792 97.761 174.083 96.8859 173.75 96.6358C173.417 96.3858 172.792 95.719 171.875 94.6355C170.958 93.552 170.208 92.8852 169.625 92.6352C169.042 92.3851 168.25 91.9267 167.25 91.2599C166.25 90.5932 165.333 90.1347 164.5 89.8847C163.667 89.6347 162.667 89.3429 161.5 89.0096C160.333 88.6762 159.083 88.4261 157.75 88.2594C162.583 81.7583 165 74.5905 165 66.7558C165 57.0875 161.667 48.8778 155 42.1267C148.333 35.3756 140.333 32 131 32C121.833 32 114.708 34.7088 109.625 40.1264C104.542 45.5439 101.5 51.6283 100.5 58.3794C99.5 65.1306 99.5833 72.4234 100.75 80.2581C97.25 73.2569 92.5 66.8808 86.5 61.1299C80.5 55.3789 73.9167 52.5034 66.75 52.5034C58.4167 52.5034 50.6667 55.9624 43.5 62.8802C36.3333 69.798 32.75 77.841 32.75 87.0092C32.75 99.678 37.9167 109.43 48.25 116.264C37.645 124.423 27.7223 133.915 17.8622 143.346C11.9304 149.02 6.02133 154.673 0 160C8.79872 164.4 18.1019 167.503 27.3944 170.603C39.0339 174.486 50.6566 178.363 61.25 184.776C70.9167 189.11 75.5 198.445 75 212.78C74.6667 221.448 73.2917 229.742 70.875 237.66C68.4583 245.578 65.625 252.704 62.375 259.038C59.125 265.372 55.8333 271.79 52.5 278.291C49.1667 284.792 46.2917 292.419 43.875 301.17ZM104 160C117.255 160 128 149.255 128 136C128 122.745 117.255 112 104 112C90.7452 112 80 122.745 80 136C80 149.255 90.7452 160 104 160Z" fill="black"/>
</svg>
