<svg width="576" height="512" viewBox="0 0 576 512" version="1.1" xmlns="http://www.w3.org/2000/svg"><path fill="currentColor" d="M372.706,80c10.765,0 22.059,16.471 33.882,27.765c8.824,0 16.765,-0.574 23.824,-1.721c7.059,-1.147 13.367,-2.956 18.926,-5.426c5.559,-2.471 10.28,-4.941 14.162,-7.412c3.882,-2.471 7.941,-6.088 12.176,-10.853c4.236,-4.765 7.633,-8.779 10.192,-12.044c2.559,-3.265 6.176,-8.162 10.853,-14.691c4.676,-6.53 8.514,-11.736 11.514,-15.618c3.883,10.588 6.044,20.559 6.486,29.912c0.441,9.353 -0.574,17.426 -3.045,24.22c-2.47,6.795 -6,13.059 -10.588,18.795c-4.588,5.735 -9.617,10.455 -15.088,14.161c-5.471,3.706 -11.426,6.927 -17.868,9.662c-6.441,2.735 -12.485,4.765 -18.132,6.088c-5.647,1.324 -11.029,2.25 -16.147,2.78c1.235,4.764 2.603,12.529 4.103,23.294c1.5,10.765 2.338,18.618 2.515,23.559c1.411,-1.412 13.014,-7.324 34.808,-17.736c21.795,-10.411 33.486,-15.617 35.074,-15.617c1.941,0 7.588,3.617 16.941,10.853c9.353,7.235 19.324,15.264 29.912,24.088c10.588,8.823 16.853,13.941 18.794,15.353c-7.235,4.941 -13.323,10.191 -18.265,15.75c-4.941,5.559 -8.47,10.235 -10.588,14.029c-2.118,3.794 -4.544,7.368 -7.279,10.721c-2.736,3.353 -6.574,5.912 -11.515,7.676c-4.941,1.765 -11.647,2.647 -20.118,2.647c-6.706,0 -13.235,-1.103 -19.588,-3.308c-6.353,-2.206 -12.75,-5.647 -19.191,-10.324c-6.441,-4.676 -11.382,-8.515 -14.824,-11.515c-3.441,-3 -8.25,-7.5 -14.426,-13.5c-1.235,13.589 -3.75,26.03 -7.544,37.324c-3.794,11.294 -7.544,20.162 -11.25,26.603c-3.706,6.441 -7.059,14.823 -10.059,25.147c-3,10.323 -4.588,21.75 -4.765,34.279c-0.176,7.765 2.603,19.677 8.338,35.736c5.736,16.058 8.603,26.735 8.603,32.029c0,10.588 -3.308,20.074 -9.926,28.456c-6.618,8.382 -14.824,14.956 -24.618,19.72c-9.794,4.765 -21.088,8.692 -33.882,11.78c-12.794,3.088 -24.618,5.162 -35.471,6.22c-10.853,1.059 -21.397,1.589 -31.632,1.589c-10.235,0 -20.779,-0.53 -31.632,-1.589c-10.853,-1.058 -22.677,-3.132 -35.471,-6.22c-12.794,-3.088 -24.088,-7.015 -33.882,-11.78c-9.794,-4.764 -18,-11.338 -24.618,-19.72c-6.618,-8.382 -9.926,-17.868 -9.926,-28.456c0,-5.294 2.867,-15.971 8.603,-32.029c5.735,-16.059 8.514,-27.971 8.338,-35.736c-0.177,-12.529 -1.765,-23.956 -4.765,-34.279c-3,-10.324 -6.353,-18.706 -10.059,-25.147c-3.706,-6.441 -7.456,-15.309 -11.25,-26.603c-3.794,-11.294 -6.309,-23.735 -7.544,-37.324c-6.176,6 -10.985,10.5 -14.426,13.5c-3.442,3 -8.383,6.839 -14.824,11.515c-6.441,4.677 -12.838,8.118 -19.191,10.324c-6.353,2.205 -12.882,3.308 -19.588,3.308c-8.471,0 -15.177,-0.882 -20.118,-2.647c-4.941,-1.764 -8.779,-4.323 -11.515,-7.676c-2.735,-3.353 -5.161,-6.927 -7.279,-10.721c-2.118,-3.794 -5.647,-8.47 -10.588,-14.029c-4.942,-5.559 -11.03,-10.809 -18.265,-15.75c1.765,-1.235 8.029,-6.309 18.794,-15.221c10.765,-8.911 20.824,-16.985 30.177,-24.22c9.352,-7.236 15,-10.853 16.941,-10.853c1.588,0 13.235,5.206 34.941,15.617c21.706,10.412 33.265,16.324 34.676,17.736c0.177,-4.941 1.059,-12.794 2.647,-23.559c1.589,-10.765 3,-18.53 4.236,-23.294c-5.118,-0.53 -10.5,-1.456 -16.147,-2.78c-5.647,-1.323 -11.691,-3.353 -18.133,-6.088c-6.441,-2.735 -12.441,-5.956 -18,-9.662c-5.559,-3.706 -10.632,-8.426 -15.22,-14.161c-4.589,-5.736 -8.074,-12 -10.456,-18.795c-2.383,-6.794 -3.397,-14.867 -3.044,-24.22c0.353,-9.353 2.47,-19.324 6.353,-29.912c3,3.882 6.838,9.088 11.514,15.618c4.677,6.529 8.294,11.426 10.853,14.691c2.559,3.265 5.956,7.279 10.192,12.044c4.235,4.765 8.294,8.382 12.176,10.853c3.882,2.471 8.603,4.941 14.162,7.412c5.559,2.47 11.867,4.279 18.926,5.426c7.059,1.147 15,1.721 23.824,1.721c11.823,-11.294 23.117,-27.765 33.882,-27.765l169.412,0Zm-23.294,292.206c-6.706,0 -12.221,1.897 -16.544,5.691c-4.324,3.794 -6.486,8.868 -6.486,15.221l0,20.912c0,6.352 2.162,11.426 6.486,15.22c4.323,3.794 9.838,5.691 16.544,5.691c6.529,0 12,-1.897 16.412,-5.691c4.411,-3.794 6.617,-8.868 6.617,-15.22l0,-20.912c0,-6.353 -2.206,-11.427 -6.617,-15.221c-4.412,-3.794 -9.883,-5.691 -16.412,-5.691Zm-122.824,0c-6.529,0 -12,1.897 -16.412,5.691c-4.411,3.794 -6.617,8.868 -6.617,15.221l0,20.912c0,6.352 2.206,11.426 6.617,15.22c4.412,3.794 9.883,5.691 16.412,5.691c6.706,0 12.221,-1.897 16.544,-5.691c4.324,-3.794 6.486,-8.868 6.486,-15.22l0,-20.912c0,-6.353 -2.162,-11.427 -6.486,-15.221c-4.323,-3.794 -9.838,-5.691 -16.544,-5.691Zm112.236,-230.559l-101.648,0c-9.882,0 -21.529,1.765 -34.941,5.294c-13.411,3.53 -22.941,8.03 -28.588,13.5c-3.882,3.883 -6.309,9.044 -7.279,15.486c-0.971,6.441 -0.839,18.661 0.397,36.661l51.059,0c6,0 11.205,2.25 15.617,6.75c4.412,4.5 6.618,9.839 6.618,16.015c0,6.177 -2.206,11.515 -6.618,16.015c-4.412,4.5 -9.617,6.75 -15.617,6.75l-37.295,0c9.353,16.941 16.015,32.073 19.986,45.397c3.97,13.323 4.897,27.132 2.779,41.426c10.412,-4.411 23.25,-8.338 38.515,-11.779c15.265,-3.441 30.662,-5.162 46.191,-5.162c29.294,0 57.529,5.647 84.706,16.941c-2.118,-14.294 -1.147,-28.014 2.912,-41.161c4.059,-13.148 10.853,-28.368 20.382,-45.662l-37.559,0c-6,0 -11.162,-2.25 -15.485,-6.75c-4.324,-4.5 -6.485,-9.838 -6.485,-16.015c0,-6.176 2.161,-11.515 6.485,-16.015c4.323,-4.5 9.485,-6.75 15.485,-6.75l51.324,0c1.235,-18 1.367,-30.22 0.397,-36.661c-0.971,-6.442 -3.397,-11.603 -7.28,-15.486c-5.647,-5.47 -15.264,-9.97 -28.853,-13.5c-13.588,-3.529 -25.323,-5.294 -35.205,-5.294Z"></path></svg>