<svg xmlns="http://www.w3.org/2000/svg" width="576" height="512" viewBox="0 0 576 512"><path d="M288 511.99c58.1.48 130-27.84 130-95.99 0-64.89-7.91-79.58-5-112 2.25-25.05 14.88-61.52 24.12-102.92 20.8 21.15 28.28 36.7 59.09 36.7 22.43 0 34.23-7.2 44.89-27.7 9.4-18.07 23.13-20.48 34.9-28.89l-51.11-41.41c-10.39-8.42-17.97-11.32-20.13-11.32-1.76 0-16.63 2.76-38.82 18.16L438 166c4.67-14.48-5.61-32.51-17.4-42.58C459.46 121.75 514 91.12 514 64c0-17.35-3.39-39.29-16.58-55.27C493.1 3.49 489.25 0 482 0c-6.28 0-4.38 7.13-2.91 9.14 4.61 6.26 3.97 25.88-4.54 37.61-8.09 11.13-43.24 28.89-84.78 27.02C381.07 67.1 365.96 64 354 64H222c-11.96 0-27.07 3.1-35.77 9.77-41.54 1.87-76.69-15.89-84.78-27.02-8.51-11.73-9.15-31.35-4.54-37.61C98.38 7.13 100.28 0 94 0c-7.25 0-11.1 3.49-15.42 8.73C65.39 24.71 62 46.65 62 64c0 27.12 54.54 57.75 93.4 59.42-11.79 10.07-22.07 28.1-17.4 42.58l-27.94-19.38c-22.19-15.4-37.06-18.16-38.82-18.16-2.16 0-9.74 2.9-20.13 11.32L0 181.19c11.77 8.41 25.5 10.82 34.9 28.89 10.66 20.5 22.46 27.7 44.89 27.7 30.81 0 38.29-15.55 59.09-36.7 9.24 41.4 21.87 77.87 24.12 102.92 2.91 32.42-5 47.11-5 112 0 68.15 71.9 96.47 130 95.99zm0-177.22c-31.16-.07-68.37 4.54-97 17.23-2.2-45.62-3.63-74.37-13.01-103.46h62.04c18.42 0 25.84-15.74 24.7-26.46-1.49-14.11-10.98-21.46-24.7-21.46h-74.86c-5.02-20.1 3.07-47.33 15.77-60.62 13.93-14.11 48.87-23 68.06-23h78c19.19 0 54.13 8.89 68.06 23 12.7 13.29 20.79 40.52 15.77 60.62h-74.86c-13.72 0-23.21 7.35-24.7 21.46-1.14 10.72 6.28 26.46 24.7 26.46h62.04C388.63 277.63 387.2 306.38 385 352c-28.63-12.69-65.84-17.3-97-17.23zm53.86 51.38c13.98 0 25.59 8.9 25.59 24.31v24.31c0 15.4-11.61 24.3-25.59 24.3-14.14 0-25.59-8.72-25.59-24.3v-24.31c0-15.59 11.45-24.31 25.59-24.31zm-107.72 0c14.14 0 25.59 8.72 25.59 24.31v24.31c0 15.58-11.45 24.3-25.59 24.3-13.98 0-25.59-8.9-25.59-24.3v-24.31c0-15.41 11.61-24.31 25.59-24.31z"/></svg>