<svg width="576" height="512" viewBox="0 0 576 512" fill="none" xmlns="http://www.w3.org/2000/svg">
<path d="M416 288C433.673 288 448 273.673 448 256C448 238.327 433.673 224 416 224C398.327 224 384 238.327 384 256C384 273.673 398.327 288 416 288Z" fill="black"/>
<path fill-rule="evenodd" clip-rule="evenodd" d="M576 288C576 319.894 461.385 448 320 448C243.699 448 158.901 394.902 112 352C90.6666 373.167 43.5 408 32 416C21.4873 423.313 0 414.5 0 400C0 388.4 21.3333 320.5 32 288C21.3333 255.5 0 187.6 0 176C0 161.5 21.4873 152.687 32 160C43.5 168 90.6666 202.833 112 224C158.901 181.098 243.699 128 320 128C461.385 128 576 256.106 576 288ZM480 256C480 291.346 451.346 320 416 320C380.654 320 352 291.346 352 256C352 220.654 380.654 192 416 192C451.346 192 480 220.654 480 256Z" fill="black"/>
</svg>
