<svg width="512" height="512" viewBox="0 0 512 512" version="1.1" xmlns="http://www.w3.org/2000/svg"><path fill="currentColor" d="M359.95,109.454c2.318,-3.552 5.085,-7.414 8.3,-11.588c3.667,-4.759 7.542,-9.518 11.625,-14.277c4.083,-4.76 8.875,-9.654 14.375,-14.682c5.5,-5.029 11.167,-9.609 17,-13.739c11.5,-8.262 21.458,-14.188 29.875,-17.78c8.417,-3.592 17.375,-5.388 26.875,-5.388c5,10.596 16.292,37.85 13.875,81.761c-1.602,29.106 -3.808,51.169 -6.618,66.191c23.322,28.824 36.743,64.918 36.743,108.048c0,136.039 -114.615,192 -256,192c-141.385,0 -256,-45.961 -256,-192c0,-43.13 13.421,-79.224 36.743,-108.048c-2.81,-15.022 -5.016,-37.085 -6.618,-66.191c-2.417,-43.911 8.875,-71.165 13.875,-81.761c9.5,0 18.458,1.796 26.875,5.388c8.417,3.592 18.375,9.518 29.875,17.78c5.833,4.13 11.5,8.71 17,13.739c5.5,5.029 10.292,9.922 14.375,14.682c4.083,4.759 7.958,9.518 11.625,14.278c3.215,4.173 5.982,8.035 8.3,11.587c31.765,-8.934 66.94,-13.454 103.95,-13.454c36.981,0 72.129,4.513 103.95,13.454Zm-199.95,226.546c-8.837,0 -16,7.163 -16,16c0,33.106 32.34,54 64,54c14.677,0 29.76,-2.434 41.774,-9.178c2.185,-1.227 4.27,-2.604 6.226,-4.128c1.956,1.524 4.041,2.901 6.226,4.128c12.014,6.744 27.097,9.178 41.774,9.178c31.66,0 64,-20.894 64,-54c0,-8.837 -7.163,-16 -16,-16c-8.837,0 -16,7.163 -16,16c0,8.868 -10.64,22 -32,22c-11.833,0 -20.75,-2.073 -26.108,-5.082c-4.524,-2.539 -5.892,-5.155 -5.892,-8.918c0,-8.837 -7.163,-16 -16,-16c-8.837,0 -16,7.163 -16,16c0,3.763 -1.368,6.379 -5.892,8.918c-5.358,3.009 -14.275,5.082 -26.108,5.082c-21.36,0 -32,-13.132 -32,-22c0,-8.837 -7.163,-16 -16,-16Zm16,-80c0,-17.673 -14.327,-32 -32,-32c-17.673,0 -32,14.327 -32,32c0,17.673 14.327,32 32,32c17.673,0 32,-14.327 32,-32Zm192,32c17.673,0 32,-14.327 32,-32c0,-17.673 -14.327,-32 -32,-32c-17.673,0 -32,14.327 -32,32c0,17.673 14.327,32 32,32Z"></path></svg>