<svg width="512" height="512" viewBox="0 0 512 512" fill="none" xmlns="http://www.w3.org/2000/svg">
<path fill-rule="evenodd" clip-rule="evenodd" d="M359.95 109.454C328.185 100.52 293.01 96 256 96C218.99 96 183.815 100.52 152.05 109.454C149.732 105.902 146.965 102.04 143.75 97.8665C140.083 93.1072 136.208 88.348 132.125 83.5887C128.042 78.8294 123.25 73.9355 117.75 68.9068C112.25 63.8781 106.583 59.2984 100.75 55.1678C89.25 46.9064 79.2917 40.9797 70.875 37.3878C62.4583 33.796 53.5 32 44 32C39 42.5961 27.7084 69.8497 30.125 113.761C31.7269 142.867 33.9329 164.93 36.743 179.952C13.421 208.776 0 244.87 0 288C0 434.039 114.615 480 256 480C397.385 480 512 424.039 512 288C512 244.87 498.579 208.776 475.257 179.952C478.067 164.93 480.273 142.867 481.875 113.761C484.292 69.8497 473 42.5961 468 32C458.5 32 449.542 33.796 441.125 37.3878C432.708 40.9797 422.75 46.9064 411.25 55.1678C405.417 59.2984 399.75 63.8781 394.25 68.9068C388.75 73.9355 383.958 78.8294 379.875 83.5887C375.792 88.348 371.917 93.1072 368.25 97.8665C365.035 102.04 362.268 105.902 359.95 109.454ZM176 256C176 273.673 161.673 288 144 288C126.327 288 112 273.673 112 256C112 238.327 126.327 224 144 224C161.673 224 176 238.327 176 256ZM368 288C385.673 288 400 273.673 400 256C400 238.327 385.673 224 368 224C350.327 224 336 238.327 336 256C336 273.673 350.327 288 368 288ZM160 336C168.837 336 176 343.163 176 352C176 360.868 186.64 374 208 374C219.833 374 228.75 371.927 234.108 368.918C238.632 366.379 240 363.763 240 360C240 351.163 247.163 344 256 344C264.837 344 272 351.163 272 360C272 363.763 273.368 366.379 277.892 368.918C283.25 371.927 292.167 374 304 374C325.36 374 336 360.868 336 352C336 343.163 343.163 336 352 336C360.837 336 368 343.163 368 352C368 385.106 335.66 406 304 406C289.323 406 274.24 403.566 262.226 396.822C260.041 395.595 257.956 394.218 256 392.694C254.044 394.218 251.959 395.595 249.774 396.822C237.76 403.566 222.677 406 208 406C176.34 406 144 385.106 144 352C144 343.163 151.163 336 160 336Z" fill="black"/>
</svg>
