<svg width="448" height="512" viewBox="0 0 448 512" fill="none" xmlns="http://www.w3.org/2000/svg">
<path d="M208 296C208 309.255 200.837 320 192 320C183.163 320 176 309.255 176 296C176 282.745 183.163 272 192 272C200.837 272 208 282.745 208 296Z" fill="black"/>
<path d="M256 320C264.837 320 272 309.255 272 296C272 282.745 264.837 272 256 272C247.163 272 240 282.745 240 296C240 309.255 247.163 320 256 320Z" fill="black"/>
<path fill-rule="evenodd" clip-rule="evenodd" d="M192 416C200.333 416.833 211 417.25 224 417.25C237 417.25 247.667 416.833 256 416C255.667 423 255.667 434.583 256 450.75C256.167 453.25 256.167 455.833 256 458.5C255.833 461.167 255.917 463.792 256.25 466.375C256.583 468.958 257.083 471.25 257.75 473.25C258.417 475.25 259.708 476.875 261.625 478.125C263.542 479.375 266.083 480 269.25 480H292.75C298.583 480 303.208 479 306.625 477C310.042 475 313.583 471.417 317.25 466.25L376.25 381.5C393.417 365.5 407.458 344.667 418.375 319C429.292 293.333 434.75 270.833 434.75 251.5C434.75 244.667 434.375 238.083 433.625 231.75C432.875 225.417 431.417 218.792 429.25 211.875C427.083 204.958 425.583 200.125 424.75 197.375C423.917 194.625 421.833 189.375 418.5 181.625C415.167 173.875 413.5 169.917 413.5 169.75C415.667 162.917 419.583 151.375 425.25 135.125C430.917 118.875 436 104.167 440.5 91C445 77.8333 447.5 69.6667 448 66.5C447.167 65.6667 445.125 63.5417 441.875 60.125C438.625 56.7083 436.458 54.5417 435.375 53.625C434.292 52.7083 432.042 50.875 428.625 48.125C425.208 45.375 422.375 43.5417 420.125 42.625C417.875 41.7083 414.583 40.3333 410.25 38.5C405.917 36.6667 401.625 35.4167 397.375 34.75C393.125 34.0833 387.917 33.4583 381.75 32.875C375.583 32.2917 368.917 32 361.75 32C351.083 32 342.042 33.5833 334.625 36.75C327.208 39.9167 321.917 43.4583 318.75 47.375C315.583 51.2917 311.958 56.1667 307.875 62C303.792 67.8333 300.083 72.25 296.75 75.25C273.417 67.5833 249.167 63.75 224 63.75C198.833 63.75 174.583 67.5833 151.25 75.25C147.917 72.25 144.208 67.8333 140.125 62C136.042 56.1667 132.417 51.2917 129.25 47.375C126.083 43.4583 120.792 39.9167 113.375 36.75C105.958 33.5833 96.9167 32 86.25 32C79.0833 32 72.4167 32.2917 66.25 32.875C60.0833 33.4583 54.875 34.0833 50.625 34.75C46.375 35.4167 42.0833 36.6667 37.75 38.5C33.4167 40.3333 30.125 41.7083 27.875 42.625C25.625 43.5417 22.7917 45.375 19.375 48.125C15.9583 50.875 13.7083 52.7083 12.625 53.625C11.5417 54.5417 9.375 56.7083 6.125 60.125C2.875 63.5417 0.833333 65.6667 0 66.5C0.5 69.6667 3 77.8333 7.5 91C12 104.167 17.0833 118.875 22.75 135.125C28.4167 151.375 32.3333 162.917 34.5 169.75C34.5 169.917 32.8333 173.875 29.5 181.625C26.1667 189.375 24.0833 194.625 23.25 197.375C22.4167 200.125 20.9167 204.958 18.75 211.875C16.5833 218.792 15.125 225.417 14.375 231.75C13.625 238.083 13.25 244.667 13.25 251.5C13.25 270.833 18.7083 293.333 29.625 319C40.5417 344.667 54.5833 365.5 71.75 381.5L130.75 466.25C134.417 471.417 137.958 475 141.375 477C144.792 479 149.417 480 155.25 480H178.75C181.917 480 184.458 479.375 186.375 478.125C188.292 476.875 189.583 475.25 190.25 473.25C190.917 471.25 191.417 468.958 191.75 466.375C192.083 463.792 192.167 461.167 192 458.5C191.833 455.833 191.833 453.25 192 450.75C192.333 434.583 192.333 423 192 416ZM141.25 299.25C141.25 288.917 143.625 279.625 148.375 271.375C153.125 263.125 159.375 256.417 167.125 251.25C174.875 246.083 183.708 242.125 193.625 239.375C203.542 236.625 213.667 235.25 224 235.25C234.333 235.25 244.458 236.625 254.375 239.375C264.292 242.125 273.125 246.083 280.875 251.25C288.625 256.417 294.875 263.125 299.625 271.375C304.375 279.625 306.75 288.917 306.75 299.25C306.75 309.583 304.375 318.875 299.625 327.125C294.875 335.375 288.625 342.083 280.875 347.25C273.125 352.417 264.292 356.375 254.375 359.125C244.458 361.875 234.333 363.25 224 363.25C213.667 363.25 203.542 361.875 193.625 359.125C183.708 356.375 174.875 352.417 167.125 347.25C159.375 342.083 153.125 335.375 148.375 327.125C143.625 318.875 141.25 309.583 141.25 299.25ZM128 184C128 170.745 138.745 160 152 160C165.255 160 176 170.745 176 184V200C176 213.255 165.255 224 152 224C138.745 224 128 213.255 128 200V184ZM296 160C282.745 160 272 170.745 272 184V200C272 213.255 282.745 224 296 224C309.255 224 320 213.255 320 200V184C320 170.745 309.255 160 296 160Z" fill="black"/>
</svg>
