<svg xmlns="http://www.w3.org/2000/svg" width="448" height="512" viewBox="0 0 448 512"><path d="M224 64c24.98 0 49.42 3.58 72.75 11.25l22-22.88C329.87 38.62 351.74 32 368 32c40.29 0 53.44 5.48 80 32l-34.5 105.75c12.64 23.56 21.25 48.27 21.25 81.75 0 19.33-5.46 41.83-16.37 67.5-10.92 25.67-24.96 46.5-42.13 62.5l-59 84.75c-6.87 9.68-12.36 13.75-24.5 13.75h-23.5c-9.44 0-13.25-7.16-13.25-16v-48c-10.43 1.76-21.4 2.34-32 2.34-10.6 0-21.57-.58-32-2.34v48c0 8.84-3.81 16-13.25 16h-23.5c-12.14 0-17.63-4.07-24.5-13.75l-59-84.75c-17.17-16-31.21-36.83-42.13-62.5-10.91-25.67-16.37-48.17-16.37-67.5 0-33.48 8.61-58.19 21.25-81.75L0 64c26.56-26.52 39.71-32 80-32 16.26 0 38.13 6.62 49.25 20.37l22 22.88C174.58 67.58 199.02 64 224 64zm0 299.25c38.58 0 82.75-19.69 82.75-64 0-44.35-44.24-64-82.75-64s-82.75 19.65-82.75 64 44.24 64 82.75 64zM152 160c-13.26 0-24 10.74-24 24v16c0 13.25 10.74 24 24 24 13.25 0 24-10.75 24-24v-16c0-13.26-10.75-24-24-24zm144 0c-13.25 0-24 10.74-24 24v16c0 13.25 10.75 24 24 24 13.26 0 24-10.75 24-24v-16c0-13.26-10.74-24-24-24zM192 320c-8.84 0-16-10.75-16-24 0-13.26 7.16-24 16-24 8.83 0 16 10.74 16 24 0 13.25-7.17 24-16 24zm64 0c-8.83 0-16-10.75-16-24 0-13.26 7.17-24 16-24 8.84 0 16 10.74 16 24 0 13.25-7.16 24-16 24z"/></svg>