<svg width="448" height="512" viewBox="0 0 448 512" version="1.1" xmlns="http://www.w3.org/2000/svg"><path fill="currentColor" d="M178.75,480l-23.5,0c-5.833,0 -10.458,-1 -13.875,-3c-3.417,-2 -6.958,-5.583 -10.625,-10.75l-59,-84.75c-17.167,-16 -31.208,-36.833 -42.125,-62.5c-10.917,-25.667 -16.375,-48.167 -16.375,-67.5c0,-6.833 0.375,-13.417 1.125,-19.75c0.75,-6.333 2.208,-12.958 4.375,-19.875c2.167,-6.917 3.667,-11.75 4.5,-14.5c0.833,-2.75 2.917,-8 6.25,-15.75c3.333,-7.75 5,-11.708 5,-11.875c-2.167,-6.833 -6.083,-18.375 -11.75,-34.625c-5.667,-16.25 -10.75,-30.958 -15.25,-44.125c-4.5,-13.167 -7,-21.333 -7.5,-24.5c0.833,-0.833 2.875,-2.958 6.125,-6.375c3.25,-3.417 5.417,-5.583 6.5,-6.5c1.083,-0.917 3.333,-2.75 6.75,-5.5c3.417,-2.75 6.25,-4.583 8.5,-5.5c2.25,-0.917 5.542,-2.292 9.875,-4.125c4.333,-1.833 8.625,-3.083 12.875,-3.75c4.25,-0.667 9.458,-1.292 15.625,-1.875c6.167,-0.583 12.833,-0.875 20,-0.875c10.667,0 19.708,1.583 27.125,4.75c7.417,3.167 12.708,6.708 15.875,10.625c3.167,3.917 6.792,8.792 10.875,14.625c4.083,5.833 7.792,10.25 11.125,13.25c23.333,-7.667 47.583,-11.5 72.75,-11.5c25.167,0 49.417,3.833 72.75,11.5c3.333,-3 7.042,-7.417 11.125,-13.25c4.083,-5.833 7.708,-10.708 10.875,-14.625c3.167,-3.917 8.458,-7.458 15.875,-10.625c7.417,-3.167 16.458,-4.75 27.125,-4.75c7.167,0 13.833,0.292 20,0.875c6.167,0.583 11.375,1.208 15.625,1.875c4.25,0.667 8.542,1.917 12.875,3.75c4.333,1.833 7.625,3.208 9.875,4.125c2.25,0.917 5.083,2.75 8.5,5.5c3.417,2.75 5.667,4.583 6.75,5.5c1.083,0.917 3.25,3.083 6.5,6.5c3.25,3.417 5.292,5.542 6.125,6.375c-0.5,3.167 -3,11.333 -7.5,24.5c-4.5,13.167 -9.583,27.875 -15.25,44.125c-5.667,16.25 -9.583,27.792 -11.75,34.625c0,0.167 1.667,4.125 5,11.875c3.333,7.75 5.417,13 6.25,15.75c0.833,2.75 2.333,7.583 4.5,14.5c2.167,6.917 3.625,13.542 4.375,19.875c0.75,6.333 1.125,12.917 1.125,19.75c0,19.333 -5.458,41.833 -16.375,67.5c-10.917,25.667 -24.958,46.5 -42.125,62.5l-59,84.75c-3.667,5.167 -7.208,8.75 -10.625,10.75c-3.417,2 -8.041,3 -13.875,3l-23.5,0c-3.167,0 -5.708,-0.625 -7.625,-1.875c-1.917,-1.25 -3.208,-2.875 -3.875,-4.875c-0.667,-2 -1.167,-4.292 -1.5,-6.875c-0.333,-2.583 -0.417,-5.208 -0.25,-7.875c0.167,-2.667 0.167,-5.25 0,-7.75c-0.333,-16.167 -0.333,-27.75 0,-34.75c-8.333,0.833 -19,1.25 -32,1.25c-13,0 -23.667,-0.417 -32,-1.25c0.333,7 0.333,18.583 0,34.75c-0.167,2.5 -0.167,5.083 0,7.75c0.167,2.667 0.083,5.292 -0.25,7.875c-0.333,2.583 -0.833,4.875 -1.5,6.875c-0.667,2 -1.958,3.625 -3.875,4.875c-1.917,1.25 -4.456,1.875 -7.625,1.875Zm-37.5,-180.75c0,10.333 2.375,19.625 7.125,27.875c4.75,8.25 11,14.958 18.75,20.125c7.75,5.167 16.583,9.125 26.5,11.875c9.917,2.75 20.042,4.125 30.375,4.125c10.333,0 20.458,-1.375 30.375,-4.125c9.917,-2.75 18.75,-6.708 26.5,-11.875c7.75,-5.167 14,-11.875 18.75,-20.125c4.75,-8.25 7.125,-17.542 7.125,-27.875c0,-10.333 -2.375,-19.625 -7.125,-27.875c-4.75,-8.25 -11,-14.958 -18.75,-20.125c-7.75,-5.167 -16.583,-9.125 -26.5,-11.875c-9.917,-2.75 -20.042,-4.125 -30.375,-4.125c-10.333,0 -20.458,1.375 -30.375,4.125c-9.917,2.75 -18.75,6.708 -26.5,11.875c-7.75,5.167 -14,11.875 -18.75,20.125c-4.75,8.25 -7.125,17.542 -7.125,27.875Zm114.75,20.75c-8.837,0 -16,-10.745 -16,-24c0,-13.255 7.163,-24 16,-24c8.837,0 16,10.745 16,24c0,13.255 -7.163,24 -16,24Zm-48,-24c0,-13.255 -7.163,-24 -16,-24c-8.837,0 -16,10.745 -16,24c0,13.255 7.163,24 16,24c8.837,0 16,-10.745 16,-24Zm-80,-112l0,16c0,13.255 10.745,24 24,24c13.255,0 24,-10.745 24,-24l0,-16c0,-13.255 -10.745,-24 -24,-24c-13.255,0 -24,10.745 -24,24Zm168,-24c-13.255,0 -24,10.745 -24,24l0,16c0,13.255 10.745,24 24,24c13.255,0 24,-10.745 24,-24l0,-16c0,-13.255 -10.745,-24 -24,-24Z"></path></svg>