<svg width="448" height="512" viewBox="0 0 448 512" version="1.1" xmlns="http://www.w3.org/2000/svg"><path fill="currentColor" d="M150.63,80.887c-8.97,-3.588 -18.052,-5.494 -27.246,-5.718c-9.195,-0.225 -17.791,1.083 -25.789,3.924c-7.999,2.84 -15.511,6.728 -22.538,11.661c-7.026,4.934 -12.969,10.951 -17.828,18.052c-4.858,7.102 -8.633,14.652 -11.324,22.65c-2.691,7.998 -3.85,16.632 -3.476,25.901c0.374,9.269 2.429,18.389 6.167,27.359c-15.698,6.428 -27.845,16.557 -36.441,30.386c-8.597,13.829 -12.633,28.667 -12.11,44.514c0.523,15.847 5.345,30.125 14.464,42.832c-2.242,10.316 -2.616,19.435 -1.121,27.359c1.495,7.625 4.373,13.642 8.634,18.052c4.261,4.411 9.83,6.093 16.707,5.046c0.448,-0.149 1.083,-0.336 1.906,-0.561c0.822,-0.224 1.457,-0.411 1.906,-0.56c-1.196,10.913 -0.037,21.603 3.476,32.068c3.513,10.465 8.783,19.547 15.81,27.246c7.026,7.7 15.324,14.166 24.892,19.398c9.568,5.233 19.846,7.961 30.834,8.186c10.989,0.224 22.239,-1.832 33.75,-6.167c5.233,12.259 12.82,22.425 22.762,30.498c9.942,8.073 20.743,13.193 32.404,15.361c11.661,2.168 23.323,2.168 34.984,0c11.661,-2.168 22.5,-7.288 32.516,-15.361c10.017,-8.073 17.716,-18.239 23.098,-30.498c11.512,4.335 22.762,6.391 33.75,6.167c10.989,-0.225 21.304,-2.953 30.947,-8.186c9.643,-5.232 17.94,-11.698 24.892,-19.398c6.952,-7.699 12.184,-16.781 15.698,-27.246c3.513,-10.465 4.672,-21.155 3.476,-32.068c0.448,0.149 1.158,0.336 2.13,0.56c0.972,0.225 1.682,0.412 2.13,0.561c6.728,1.047 12.11,-0.635 16.147,-5.046c4.036,-4.41 6.652,-10.427 7.848,-18.052c1.645,-8.372 1.346,-17.492 -0.897,-27.359c8.97,-12.707 13.792,-26.947 14.465,-42.72c0.672,-15.772 -3.177,-30.648 -11.549,-44.626c-8.372,-13.978 -20.482,-24.107 -36.329,-30.386c3.737,-8.97 5.793,-18.09 6.167,-27.359c0.373,-9.269 -0.823,-17.903 -3.588,-25.901c-2.766,-7.998 -6.578,-15.548 -11.437,-22.65c-4.859,-7.101 -10.839,-13.118 -17.94,-18.052c-7.102,-4.933 -14.652,-8.821 -22.65,-11.661c-7.998,-2.841 -16.595,-4.149 -25.789,-3.924c-9.194,0.224 -18.276,2.13 -27.247,5.718c-4.335,-10.615 -10.427,-19.66 -18.276,-27.135c-7.849,-7.475 -16.408,-12.969 -25.677,-16.482c-9.269,-3.513 -19.061,-5.27 -29.377,-5.27c-10.316,0 -20.108,1.757 -29.377,5.27c-9.269,3.513 -17.828,9.007 -25.677,16.482c-7.829,7.456 -13.91,16.475 -18.277,27.135Zm191.512,129.618c5.382,11.661 8.26,24.742 8.634,39.244c0.373,14.502 -1.458,27.134 -5.495,37.899c1.944,3.438 4.336,8.521 7.176,15.249c2.841,6.727 5.308,12.296 7.401,16.707c2.093,4.41 5.606,9.157 10.54,14.24c4.933,5.083 10.913,9.194 17.94,12.333c2.392,11.064 2.355,21.603 -0.112,31.62c-2.467,10.017 -6.952,18.389 -13.455,25.116c-6.504,6.728 -14.203,11.923 -23.098,15.586c-8.896,3.663 -18.95,4.896 -30.162,3.7c-11.213,-1.196 -22.351,-4.859 -33.414,-10.988c-3.438,11.81 -8.596,21.902 -15.473,30.274c-6.877,8.372 -14.39,14.501 -22.538,18.388c-8.148,3.887 -16.856,5.831 -26.125,5.831c-9.269,0 -17.978,-1.944 -26.125,-5.831c-8.148,-3.887 -15.661,-10.016 -22.538,-18.388c-6.877,-8.372 -12.035,-18.464 -15.473,-30.274c-11.063,6.129 -22.201,9.792 -33.414,10.988c-11.212,1.196 -21.229,-0.037 -30.05,-3.7c-8.82,-3.663 -16.482,-8.858 -22.985,-15.586c-6.504,-6.727 -10.989,-15.099 -13.456,-25.116c-2.466,-10.017 -2.504,-20.556 -0.112,-31.62c8.97,-4.036 15.96,-9.082 20.968,-15.137c5.008,-6.054 9.493,-14.053 13.455,-23.995c3.962,-9.941 6.84,-16.407 8.634,-19.397c-4.186,-10.765 -6.167,-23.435 -5.943,-38.011c0.224,-14.577 3.027,-27.621 8.409,-39.132c0.299,-0.598 -1.681,0.149 -5.942,2.242c-4.261,2.093 -9.793,5.308 -16.595,9.643c-6.802,4.336 -13.941,9.419 -21.416,15.249c-7.475,5.831 -14.95,12.895 -22.425,21.192c-7.475,8.298 -13.381,16.782 -17.716,25.453c-4.336,-8.372 -6.541,-17.155 -6.616,-26.35c-0.074,-9.194 1.832,-17.94 5.719,-26.237c3.887,-8.298 10.129,-15.885 18.725,-22.762c8.596,-6.877 18.949,-12.035 31.059,-15.473c-6.13,-10.914 -9.867,-21.828 -11.213,-32.741c-1.345,-10.914 -0.598,-20.669 2.243,-29.265c2.84,-8.596 7.475,-16.146 13.903,-22.65c6.429,-6.503 13.941,-11.25 22.538,-14.24c8.596,-2.99 18.351,-3.924 29.265,-2.803c10.913,1.121 21.902,4.672 32.965,10.652c3.289,-11.96 8.372,-22.201 15.249,-30.722c6.877,-8.522 14.427,-14.764 22.649,-18.725c8.223,-3.962 16.969,-5.943 26.238,-5.943c9.269,0 18.015,1.981 26.237,5.943c8.223,3.961 15.773,10.203 22.65,18.725c6.877,8.521 11.96,18.762 15.249,30.722c11.063,-5.98 22.089,-9.531 33.077,-10.652c10.989,-1.121 20.781,-0.187 29.377,2.803c8.597,2.99 16.109,7.737 22.538,14.24c6.428,6.504 11.063,14.054 13.903,22.65c2.841,8.596 3.626,18.351 2.355,29.265c-1.271,10.913 -4.971,21.827 -11.1,32.741c11.96,3.438 22.238,8.596 30.834,15.473c8.597,6.877 14.801,14.464 18.613,22.762c3.812,8.297 5.681,17.043 5.606,26.237c-0.074,9.195 -2.279,17.978 -6.615,26.35c-4.336,-8.671 -10.241,-17.155 -17.716,-25.453c-7.475,-8.297 -14.95,-15.361 -22.425,-21.192c-7.475,-5.83 -14.651,-10.913 -21.528,-15.249c-6.877,-4.335 -12.446,-7.512 -16.707,-9.531c-4.008,-1.898 -6.065,-2.706 -6.167,-2.354Zm-214.61,-6.728c-6.129,17.641 -9.194,34.759 -9.194,51.354c0,23.023 3.028,43.953 9.082,62.791c6.055,18.837 14.091,34.161 24.107,45.971c10.017,11.811 21.23,20.893 33.638,27.247c12.409,6.354 25.341,9.606 38.796,9.755c13.455,0 26.387,-3.177 38.796,-9.531c12.408,-6.354 23.621,-15.473 33.637,-27.359c10.017,-11.885 18.015,-27.246 23.995,-46.083c5.98,-18.838 8.97,-39.768 8.97,-62.791c0,-12.558 -1.494,-24.817 -4.485,-36.777c-9.119,0 -17.454,-3.402 -25.004,-10.204c-7.55,-6.802 -12.296,-14.838 -14.24,-24.107c-4.036,4.635 -8.82,8.522 -14.352,11.661c-5.531,3.14 -11.063,4.709 -16.594,4.709c-9.12,0 -19.062,-5.681 -29.826,-17.043c-1.794,8.372 -5.905,15.661 -12.334,21.865c-6.428,6.204 -13.754,9.306 -21.977,9.306c-6.428,0 -12.595,-2.504 -18.5,-7.512c-5.906,-5.008 -10.353,-10.802 -13.343,-17.38c-0.15,0.15 -0.972,0.935 -2.467,2.355c-1.495,1.42 -2.43,2.28 -2.803,2.579c-0.374,0.299 -1.271,1.046 -2.691,2.242c-1.421,1.196 -2.467,2.019 -3.14,2.467c-0.673,0.449 -1.644,1.084 -2.915,1.906c-1.271,0.823 -2.392,1.383 -3.364,1.682c-0.972,0.299 -2.093,0.598 -3.364,0.897c-1.271,0.299 -2.504,0.449 -3.7,0.449c-3.081,0 -5.298,-0.144 -6.728,-0.449Zm64.468,60.223c0,13.255 -10.745,24 -24,24c-13.255,0 -24,-10.745 -24,-24c0,-13.255 10.745,-24 24,-24c13.255,0 24,10.745 24,24Zm88,24c-13.255,0 -24,-10.745 -24,-24c0,-13.255 10.745,-24 24,-24c13.255,0 24,10.745 24,24c0,13.255 -10.745,24 -24,24Z"></path></svg>