<svg xmlns="http://www.w3.org/2000/svg" width="512" height="512" viewBox="0 0 512 512"><path d="M141.01 49.34c-10.51-.26-20.33 1.23-29.47 4.48-9.15 3.25-17.73 7.69-25.76 13.33-8.03 5.64-14.82 12.51-20.38 20.63-5.55 8.12-9.86 16.74-12.94 25.88-3.07 9.15-4.4 19.01-3.97 29.61.43 10.59 2.78 21.01 7.05 31.26-17.94 7.35-31.82 18.93-41.65 34.73C4.07 225.06-.55 242.02.05 260.13c.6 18.11 6.11 34.43 16.53 48.95-2.56 11.79-2.99 22.22-1.28 31.27 1.71 8.72 5 15.59 9.87 20.63 4.05 4.2 9.15 6.24 15.28 6.11 2.98-.06 5.35-.69 8.17-1.62-1.37 12.47-.04 24.69 3.97 36.65 4.01 11.96 10.04 22.34 18.07 31.14 8.03 8.8 17.51 16.19 28.45 22.17 10.93 5.98 22.68 9.09 35.24 9.35 12.55.26 25.41-2.09 38.57-7.05 5.98 14.01 14.65 25.63 26.01 34.86 11.36 9.22 23.71 15.08 37.03 17.55 13.33 2.48 26.66 2.48 39.99 0 13.32-2.47 25.71-8.33 37.16-17.55 11.44-9.23 20.24-20.85 26.4-34.86 13.15 4.96 26.01 7.31 38.57 7.05 12.56-.26 24.34-3.37 35.36-9.35 11.02-5.98 20.51-13.37 28.45-22.17 7.95-8.8 13.93-19.18 17.94-31.14 4.02-11.96 5.34-24.18 3.98-36.65 2.88.96 6.4 1.66 9.45 1.62 5.59-.08 10.21-2.11 13.87-6.11 4.61-5.04 7.6-11.91 8.97-20.63 1.88-9.57 1.54-19.99-1.03-31.27 10.25-14.52 15.76-30.79 16.53-48.82.77-18.02-3.63-35.03-13.19-51-9.57-15.97-23.41-27.55-41.52-34.73 4.27-10.25 6.62-20.67 7.04-31.26.43-10.6-.94-20.46-4.1-29.61-3.16-9.14-7.51-17.76-13.07-25.88-5.55-8.12-12.38-14.99-20.5-20.63-8.12-5.64-16.74-10.08-25.89-13.33-9.14-3.25-18.96-4.74-29.47-4.48-10.51.25-20.89 2.43-31.14 6.53-4.95-12.13-11.91-22.47-20.89-31.01-8.96-8.54-18.75-14.82-29.34-18.84C278.94 2.01 267.75 0 255.96 0s-22.98 2.01-33.58 6.02c-10.59 4.02-20.37 10.3-29.34 18.84-8.95 8.52-15.9 18.83-20.89 31.01-9.97-3.99-20.39-6.27-31.14-6.53zm250.01 154.67c6.15 13.32 9.44 28.27 9.87 44.85.42 16.57-1.67 31.01-6.28 43.31 2.22 3.93 4.95 9.74 8.2 17.43 3.24 7.69 6.06 14.05 8.46 19.09 2.39 5.04 6.4 10.47 12.04 16.28 5.64 5.8 12.47 10.5 20.5 14.09 2.74 12.64 2.7 24.69-.12 36.14-2.82 11.45-7.95 21.01-15.38 28.7-7.43 7.69-16.23 13.63-26.4 17.81-10.17 4.19-21.66 5.6-34.47 4.23-12.81-1.36-25.54-5.55-38.19-12.55-3.93 13.49-9.82 25.03-17.68 34.59-7.86 9.57-16.45 16.58-25.76 21.02-9.31 4.44-19.26 6.66-29.85 6.66-10.6 0-20.55-2.22-29.86-6.66-9.31-4.44-17.9-11.45-25.76-21.02-7.86-9.56-13.75-21.1-17.68-34.59-12.65 7-25.38 11.19-38.19 12.55-12.81 1.37-24.26-.04-34.34-4.23-10.08-4.18-18.84-10.12-26.27-17.81-7.44-7.69-12.56-17.25-15.38-28.7-2.82-11.45-2.86-23.5-.13-36.14 10.25-4.61 18.24-10.38 23.97-17.3 5.72-6.92 10.84-16.06 15.37-27.42 4.53-11.36 7.82-18.75 9.87-22.17-4.78-12.3-7.05-26.78-6.79-43.44.25-16.66 3.46-31.57 9.61-44.72.34-.69-1.92.17-6.79 2.56s-11.2 6.06-18.97 11.02c-7.77 4.95-15.93 10.76-24.47 17.43-8.55 6.66-17.09 14.73-25.63 24.22-8.55 9.48-15.29 19.18-20.25 29.08-4.96-9.56-7.47-19.6-7.56-30.11-.09-10.51 2.09-20.5 6.54-29.98 4.44-9.49 11.57-18.16 21.4-26.02 9.82-7.86 21.65-13.75 35.49-17.68-7-12.47-11.28-24.95-12.81-37.42-1.54-12.47-.69-23.62 2.56-33.45 3.25-9.82 8.54-18.45 15.89-25.88 7.35-7.43 15.93-12.86 25.76-16.28 9.82-3.41 20.97-4.48 33.44-3.2 12.47 1.28 25.03 5.34 37.68 12.17 3.76-13.66 9.57-25.37 17.42-35.11 7.86-9.74 16.49-16.87 25.89-21.4 9.4-4.52 19.39-6.79 29.99-6.79 10.59 0 20.58 2.27 29.98 6.79 9.4 4.53 18.03 11.66 25.89 21.4 7.86 9.74 13.66 21.45 17.42 35.11 12.65-6.83 25.25-10.89 37.8-12.17 12.56-1.28 23.76-.21 33.58 3.2 9.82 3.42 18.41 8.85 25.76 16.28 7.34 7.43 12.64 16.06 15.89 25.88 3.24 9.83 4.14 20.98 2.69 33.45-1.46 12.47-5.68 24.95-12.69 37.42 13.67 3.93 25.42 9.82 35.24 17.68 9.83 7.86 16.92 16.53 21.27 26.02 4.36 9.48 6.49 19.47 6.41 29.98-.09 10.51-2.6 20.55-7.56 30.11-4.96-9.9-11.7-19.6-20.25-29.08-8.54-9.49-17.08-17.56-25.63-24.22-8.54-6.67-16.74-12.48-24.6-17.43-1.61-1.02-25.62-15.41-26.14-13.58zm-245.27-7.69c-7 20.16-10.51 39.72-10.51 58.69 0 26.31 3.46 50.23 10.38 71.76 6.92 21.53 16.11 39.04 27.55 52.54 11.45 13.5 24.27 23.87 38.45 31.14 14.18 7.26 28.96 10.98 44.34 11.15 15.37 0 30.15-3.63 44.33-10.9 14.18-7.26 27-17.68 38.45-31.26 11.44-13.59 20.58-31.14 27.42-52.67 6.83-21.53 10.25-45.45 10.25-71.76 0-14.35-1.71-28.36-5.13-42.03-10.42 0-19.94-3.89-28.57-11.66-8.63-7.78-14.05-16.96-16.28-27.56-4.61 5.3-10.08 9.74-16.4 13.33-6.32 3.59-12.64 5.38-18.96 5.38-10.43 0-21.79-6.49-34.09-19.47-2.05 9.56-6.75 17.89-14.1 24.98-7.34 7.09-15.72 10.64-25.11 10.64-7.35 0-14.4-2.86-21.15-8.59-6.75-5.72-11.83-12.34-15.24-19.86-7.19 7.19-14.92 16.66-27.94 16.66-2.4 0-5.34-.01-7.69-.51zm73.68 68.82c0 15.15-12.28 27.43-27.43 27.43s-27.43-12.28-27.43-27.43c0-15.14 12.28-27.42 27.43-27.42s27.43 12.28 27.43 27.42zM320 292.57c-15.15 0-27.43-12.28-27.43-27.43 0-15.14 12.28-27.42 27.43-27.42s27.43 12.28 27.43 27.42c0 15.15-12.28 27.43-27.43 27.43z"/></svg>