<svg width="448" height="512" viewBox="0 0 448 512" fill="none" xmlns="http://www.w3.org/2000/svg">
<path fill-rule="evenodd" clip-rule="evenodd" d="M127.532 203.777C128.878 204.076 131.12 204.226 134.26 204.226C135.456 204.226 136.689 204.076 137.96 203.777C139.231 203.478 140.352 203.179 141.324 202.88C142.296 202.581 143.417 202.021 144.688 201.198C145.959 200.376 146.93 199.741 147.603 199.292C148.276 198.844 149.322 198.021 150.743 196.825C152.163 195.629 153.06 194.882 153.434 194.583C153.807 194.284 154.742 193.424 156.237 192.004C157.732 190.584 158.554 189.799 158.704 189.649C161.694 196.227 166.141 202.021 172.047 207.029C177.952 212.037 184.119 214.541 190.547 214.541C198.77 214.541 206.096 211.439 212.524 205.235C218.953 199.031 223.064 191.742 224.858 183.37C235.622 194.732 245.564 200.413 254.684 200.413C260.215 200.413 265.747 198.844 271.278 195.704C276.81 192.565 281.594 188.678 285.63 184.043C287.574 193.312 292.32 201.348 299.87 208.15C307.42 214.952 315.755 218.354 324.874 218.354C327.865 230.314 329.359 242.573 329.359 255.131C329.359 278.154 326.369 299.084 320.389 317.922C314.409 336.759 306.411 352.12 296.394 364.005C286.378 375.891 275.165 385.01 262.757 391.364C250.348 397.718 237.416 400.895 223.961 400.895C210.506 400.746 197.574 397.494 185.165 391.14C172.757 384.786 161.544 375.704 151.527 363.893C141.511 352.083 133.475 336.759 127.42 317.922C121.366 299.084 118.338 278.154 118.338 255.131C118.338 238.536 121.403 221.418 127.532 203.777ZM192 264C192 277.255 181.255 288 168 288C154.745 288 144 277.255 144 264C144 250.745 154.745 240 168 240C181.255 240 192 250.745 192 264ZM280 288C293.255 288 304 277.255 304 264C304 250.745 293.255 240 280 240C266.745 240 256 250.745 256 264C256 277.255 266.745 288 280 288Z" fill="black"/>
<path fill-rule="evenodd" clip-rule="evenodd" d="M150.63 80.887C154.966 70.2724 161.058 61.2275 168.907 53.7525C176.756 46.2774 185.315 40.7832 194.584 37.2699C203.853 33.7567 213.645 32 223.961 32C234.277 32 244.069 33.7567 253.338 37.2699C262.607 40.7832 271.166 46.2774 279.015 53.7525C286.864 61.2275 292.956 70.2724 297.291 80.887C306.262 77.299 315.344 75.3928 324.538 75.1686C333.732 74.9443 342.329 76.2524 350.327 79.093C358.325 81.9335 365.875 85.8206 372.977 90.7541C380.078 95.6877 386.058 101.705 390.917 108.806C395.776 115.908 399.588 123.458 402.354 131.456C405.119 139.454 406.315 148.088 405.942 157.357C405.568 166.626 403.512 175.746 399.775 184.716C415.622 190.995 427.732 201.124 436.104 215.102C444.476 229.08 448.325 243.956 447.653 259.728C446.98 275.501 442.158 289.741 433.188 302.448C435.431 312.315 435.73 321.435 434.085 329.807C432.889 337.432 430.273 343.449 426.237 347.859C422.2 352.27 416.818 353.952 410.09 352.905C409.642 352.756 408.932 352.569 407.96 352.344C406.988 352.12 406.278 351.933 405.83 351.784C407.026 362.697 405.867 373.387 402.354 383.852C398.84 394.317 393.608 403.399 386.656 411.098C379.704 418.798 371.407 425.264 361.764 430.496C352.121 435.729 341.806 438.457 330.817 438.682C319.829 438.906 308.579 436.85 297.067 432.515C291.685 444.774 283.986 454.94 273.969 463.013C263.953 471.086 253.114 476.206 241.453 478.374C229.792 480.542 218.13 480.542 206.469 478.374C194.808 476.206 184.007 471.086 174.065 463.013C164.123 454.94 156.536 444.774 151.303 432.515C139.792 436.85 128.542 438.906 117.553 438.682C106.565 438.457 96.2866 435.729 86.7185 430.496C77.1505 425.264 68.8531 418.798 61.8265 411.098C54.8 403.399 49.53 394.317 46.0168 383.852C42.5035 373.387 41.3448 362.697 42.5408 351.784C42.0923 351.933 41.457 352.12 40.6347 352.344C39.8124 352.569 39.1771 352.756 38.7286 352.905C31.8515 353.952 26.2825 352.27 22.0218 347.859C17.761 343.449 14.8831 337.432 13.388 329.807C11.893 321.883 12.2668 312.764 14.5093 302.448C5.38972 289.741 0.568289 275.463 0.0450347 259.616C-0.478223 243.769 3.55832 228.931 12.1547 215.102C20.751 201.273 32.898 191.144 48.5957 184.716C44.8581 175.746 42.8025 166.626 42.4287 157.357C42.055 148.088 43.2136 139.454 45.9046 131.456C48.5957 123.458 52.3706 115.908 57.2294 108.806C62.0882 101.705 68.0309 95.6877 75.0574 90.7541C82.084 85.8206 89.5964 81.9335 97.5948 79.093C105.593 76.2524 114.189 74.9443 123.384 75.1686C132.578 75.3928 141.66 77.299 150.63 80.887ZM342.142 210.505C341.992 210.056 344.048 210.841 348.309 212.859C352.57 214.878 358.139 218.055 365.016 222.39C371.893 226.726 379.069 231.809 386.544 237.639C394.019 243.47 401.494 250.534 408.969 258.831C416.444 267.129 422.349 275.613 426.685 284.284C431.021 275.912 433.226 267.129 433.3 257.934C433.375 248.74 431.506 239.994 427.694 231.697C423.882 223.399 417.678 215.812 409.081 208.935C400.485 202.058 390.207 196.9 378.247 193.462C384.376 182.548 388.076 171.634 389.347 160.721C390.618 149.807 389.833 140.052 386.992 131.456C384.152 122.86 379.517 115.31 373.089 108.806C366.66 102.303 359.148 97.5564 350.551 94.5664C341.955 91.5764 332.163 90.642 321.174 91.7632C310.186 92.8845 299.16 96.4352 288.097 102.415C284.808 90.4551 279.725 80.2142 272.848 71.6927C265.971 63.1711 258.421 56.9294 250.198 52.9676C241.976 49.0058 233.23 47.0249 223.961 47.0249C214.692 47.0249 205.946 49.0058 197.723 52.9676C189.501 56.9294 181.951 63.1711 175.074 71.6927C168.197 80.2142 163.114 90.4551 159.825 102.415C148.762 96.4352 137.773 92.8845 126.86 91.7632C115.946 90.642 106.191 91.5764 97.5948 94.5664C88.9984 97.5564 81.486 102.303 75.0574 108.806C68.6288 115.31 63.9943 122.86 61.1538 131.456C58.3132 140.052 57.5657 149.807 58.9113 160.721C60.2568 171.634 63.9943 182.548 70.1239 193.462C58.0143 196.9 47.6613 202.058 39.0649 208.935C30.4686 215.812 24.2269 223.399 20.3399 231.697C16.4528 239.994 14.5467 248.74 14.6214 257.934C14.6962 267.129 16.9013 275.912 21.2369 284.284C25.5724 275.613 31.4777 267.129 38.9528 258.831C46.4279 250.534 53.903 243.47 61.378 237.639C68.8531 231.809 75.9918 226.726 82.7941 222.39C89.5964 218.055 95.128 214.84 99.3888 212.747C103.65 210.654 105.63 209.907 105.331 210.505C99.9494 222.016 97.1463 235.06 96.922 249.637C96.6978 264.213 98.6786 276.883 102.865 287.648C101.071 290.638 98.1928 297.104 94.231 307.045C90.2692 316.987 85.7841 324.986 80.7758 331.04C75.7675 337.095 68.7784 342.141 59.8083 346.177C57.4162 357.241 57.4536 367.78 59.9204 377.797C62.3872 387.814 66.8722 396.186 73.3755 402.913C79.8788 409.641 87.5408 414.836 96.3614 418.499C105.182 422.162 115.199 423.395 126.411 422.199C137.624 421.003 148.762 417.34 159.825 411.211C163.263 423.021 168.421 433.113 175.298 441.485C182.175 449.857 189.688 455.986 197.836 459.873C205.983 463.76 214.692 465.704 223.961 465.704C233.23 465.704 241.938 463.76 250.086 459.873C258.234 455.986 265.747 449.857 272.624 441.485C279.501 433.113 284.659 423.021 288.097 411.211C299.16 417.34 310.298 421.003 321.511 422.199C332.723 423.395 342.777 422.162 351.673 418.499C360.568 414.836 368.267 409.641 374.771 402.913C381.274 396.186 385.759 387.814 388.226 377.797C390.693 367.78 390.73 357.241 388.338 346.177C381.311 343.038 375.331 338.927 370.398 333.844C365.464 328.761 361.951 324.014 359.858 319.604C357.765 315.193 355.298 309.624 352.457 302.897C349.617 296.169 347.225 291.086 345.281 287.648C349.318 276.883 351.149 264.251 350.776 249.749C350.402 235.247 347.524 222.166 342.142 210.505Z" fill="black"/>
</svg>
