<svg width="512" height="512" viewBox="0 0 512 512" version="1.1" xmlns="http://www.w3.org/2000/svg"><path fill="currentColor" d="M464,448l-416,0c-26.51,0 -48,-21.49 -48,-48l0,-288c0,-26.51 21.49,-48 48,-48l416,0c26.51,0 48,21.49 48,48l0,288c0,26.473 -21.43,47.94 -48,48Zm-278.131,-272l-73.869,0c-8.9,0.063 -16,7.202 -16,16l0,128c0,8.837 7.163,16 16,16l73.869,0c14.943,0 27.701,-4.601 38.273,-13.802c10.572,-9.202 15.858,-20.28 15.858,-33.233c0,-12.864 -5.413,-23.853 -15.782,-32.965c10.369,-9.112 15.782,-20.101 15.782,-32.965c0,-12.953 -5.286,-24.031 -15.858,-33.233c-10.546,-9.178 -23.267,-13.779 -38.273,-13.802Zm200.208,100c-1.903,0.01 -3.631,0.286 -4.714,0.637c-1.104,0.357 -1.839,0.692 -2.207,1.005c-0.368,0.312 -1.057,1.183 -2.069,2.613c-1.011,1.429 -1.838,2.546 -2.482,3.35c-4.321,5.36 -9.654,9.603 -15.998,12.73c-6.344,3.127 -13.194,4.69 -20.549,4.69c-12.872,0 -23.836,-4.4 -32.892,-13.199c-9.056,-8.8 -13.584,-19.408 -13.584,-31.826c0,-12.418 4.528,-23.026 13.584,-31.826c9.056,-8.799 20.02,-13.199 32.892,-13.199c7.355,0 14.205,1.563 20.549,4.69c6.344,3.127 11.677,7.37 15.998,12.73c0.644,0.804 1.471,1.921 2.482,3.35c1.012,1.43 1.701,2.301 2.069,2.613c0.368,0.313 1.103,0.648 2.207,1.005c1.103,0.358 2.876,0.637 4.714,0.637l25.015,0c4.873,0 6.266,-3.719 3.508,-10.955c-5.884,-15.097 -15.653,-27.046 -29.307,-35.846c-13.653,-8.799 -29.306,-13.199 -46.959,-13.199c-14.895,0 -28.663,3.573 -41.305,10.72c-12.642,7.147 -22.641,16.862 -29.996,29.146c-7.355,12.284 -11.033,25.662 -11.033,40.134c0,14.472 3.678,27.85 11.033,40.134c7.355,12.284 17.354,21.999 29.996,29.146c12.642,7.147 26.41,10.72 41.305,10.72c17.653,0 33.306,-4.4 46.959,-13.199c13.654,-8.8 23.423,-20.749 29.307,-35.846c2.736,-7.18 1.386,-10.897 -3.508,-10.955l-25.015,0Zm-194.077,-4c8.852,0.015 16,7.172 16,16c0,8.837 -7.163,16 -16,16l-64,0l0,-32l64,0Zm0,-64c8.852,0.015 16,7.172 16,16c0,8.837 -7.163,16 -16,16l-64,0l0,-32l64,0Z"></path></svg>