<svg width="512" height="512" viewBox="0 0 512 512" fill="none" xmlns="http://www.w3.org/2000/svg">
<path d="M128 208V240H192C200.837 240 208 232.837 208 224C208 215.163 200.837 208 192 208H128Z" fill="black"/>
<path d="M128 272V304H192C200.837 304 208 296.837 208 288C208 279.163 200.837 272 192 272H128Z" fill="black"/>
<path fill-rule="evenodd" clip-rule="evenodd" d="M0 112C0 85.4903 21.4903 64 48 64H464C490.51 64 512 85.4903 512 112V400C512 426.51 490.51 448 464 448H48C21.4903 448 0 426.51 0 400V112ZM112 176C103.163 176 96 183.163 96 192V320C96 328.837 103.163 336 112 336H185.869C200.812 336 213.57 331.399 224.142 322.198C234.714 312.996 240 301.918 240 288.965C240 276.101 234.587 265.112 224.218 256C234.587 246.888 240 235.899 240 223.035C240 210.082 234.714 199.004 224.142 189.802C213.57 180.601 200.812 176 185.869 176H112ZM256 256C256 241.528 259.678 228.15 267.033 215.866C274.388 203.582 284.387 193.867 297.029 186.72C309.671 179.573 323.439 176 338.334 176C355.987 176 371.64 180.4 385.293 189.199C398.947 197.999 408.716 209.948 414.6 225.045C417.358 232.281 415.965 236 411.092 236H386.077C384.239 236 382.466 235.721 381.363 235.363C380.259 235.006 379.524 234.671 379.156 234.358C378.788 234.046 378.099 233.175 377.087 231.745C376.076 230.316 375.249 229.199 374.605 228.395C370.284 223.035 364.951 218.792 358.607 215.665C352.263 212.538 345.413 210.975 338.058 210.975C325.186 210.975 314.222 215.375 305.166 224.174C296.11 232.974 291.582 243.582 291.582 256C291.582 268.418 296.11 279.026 305.166 287.826C314.222 296.625 325.186 301.025 338.058 301.025C345.413 301.025 352.263 299.462 358.607 296.335C364.951 293.208 370.284 288.965 374.605 283.605C375.249 282.801 376.076 281.684 377.087 280.255C378.099 278.825 378.788 277.954 379.156 277.642C379.524 277.329 380.259 276.994 381.363 276.637C382.466 276.279 384.239 276 386.077 276H411.092C415.965 276 417.358 279.719 414.6 286.955C408.716 302.052 398.947 314.001 385.293 322.801C371.64 331.6 355.987 336 338.334 336C323.439 336 309.671 332.427 297.029 325.28C284.387 318.133 274.388 308.418 267.033 296.134C259.678 283.85 256 270.472 256 256Z" fill="black"/>
</svg>
