<svg width="480" height="512" viewBox="0 0 480 512" version="1.1" xmlns="http://www.w3.org/2000/svg"><path fill="currentColor" d="M134.342 320H346.032L368.579 94.7692C371.501 64.6154 367.222 41.282 355.74 24.7692C344.257 8.2564 325.886 0 300.625 0H180.375C155.114 0 136.638 8.2564 124.947 24.7692C113.256 41.282 108.872 64.6154 111.795 94.7692L134.342 320ZM320 416H160V491.077C160 496.82 158.069 501.743 154.207 505.846C150.345 509.949 145.595 512 139.958 512L100.208 512C94.5716 512 89.8222 510.154 85.96 506.461C82.0978 502.769 80.1667 498.051 80.1667 492.308L79.8535 408.923C72.5467 405.846 66.1271 401.897 60.5947 397.077C55.0624 392.256 50.5739 386.359 47.1292 379.384C43.6846 372.41 40.8662 365.487 38.6742 358.615C36.4821 351.743 34.8642 343.231 33.8203 333.077C32.7765 322.923 32.098 313.743 31.7848 305.538C31.4717 297.333 31.3151 287.077 31.3151 274.769C22.1293 272.923 14.6137 268.564 8.76823 261.692C2.92274 254.82 0 246.359 0 236.308C0 225.026 4.01877 215.641 12.0563 208.154C20.0939 200.667 32.5677 196.923 49.4779 196.923C56.7847 196.923 62.9956 197.949 68.1104 200C73.2252 202.051 77.4527 205.282 80.793 209.692C84.1332 214.103 86.6385 218 88.3086 221.385C89.9787 224.769 91.8576 229.538 93.9453 235.692L105.797 335.038C107.467 343.449 109.137 348.269 110.807 349.5C112.895 351.141 117.488 351.961 124.586 351.961H355.065C362.789 351.961 367.434 351.141 369 349.5C370.566 347.859 372.184 343.038 373.854 335.038L386.428 235.692C388.516 229.538 390.395 224.769 392.065 221.385C393.735 218 396.24 214.103 399.581 209.692C402.921 205.282 407.149 202.051 412.263 200C417.378 197.949 423.589 196.923 430.896 196.923C447.806 196.923 460.384 200.667 468.631 208.154C476.877 215.641 481 225.026 481 236.308C481 246.154 478.025 254.564 472.075 261.538C466.125 268.513 458.453 272.923 449.059 274.769C449.059 287.282 448.902 297.59 448.589 305.692C448.276 313.795 447.597 323.025 446.553 333.384C445.51 343.743 443.944 352.41 441.856 359.384C439.768 366.359 437.002 373.384 433.558 380.461C430.113 387.538 425.624 393.487 420.092 398.308C414.56 403.128 408.14 407.077 400.833 410.154V492.308C400.833 498.051 398.902 502.769 395.04 506.461C391.178 510.154 386.428 512 380.792 512H340.042C334.405 512 329.655 510.154 325.793 506.461C321.931 502.769 320 498.051 320 492.308V416Z"></path></svg>