<svg width="320" height="512" viewBox="0 0 320 512" fill="none" xmlns="http://www.w3.org/2000/svg">
<path d="M112 16C103.163 16 96 23.1634 96 32V208L0 288V488C0 492.418 3.58172 496 8 496H40C44.4183 496 48 492.418 48 488V320H176V488C176 492.418 179.582 496 184 496H216C220.418 496 224 492.418 224 488V320L272 288V392C272 396.418 275.582 400 280 400H312C316.418 400 320 396.418 320 392V32C320 23.1634 312.837 16 304 16H112Z" fill="black"/>
<path d="M96 336H144V392C144 396.418 140.418 400 136 400H104C99.5817 400 96 396.418 96 392V336Z" fill="black"/>
</svg>
