<svg width="320" height="512" viewBox="0 0 320 512" version="1.1" xmlns="http://www.w3.org/2000/svg"><path fill="currentColor" d="M304,16c8.857,0.02 16,7.176 16,16l0,360c0,4.418 -3.582,8 -8,8l-32,0c-4.418,0 -8,-3.582 -8,-8l0,-104l-48,32l0,168c0,4.418 -3.582,8 -8,8l-32,0c-4.418,0 -8,-3.582 -8,-8l0,-168l-128,0l0,168c0,4.418 -3.582,8 -8,8l-32,0c-4.418,0 -8,-3.582 -8,-8l0,-200l96,-80l0,-176c0,-8.824 7.143,-15.98 16,-16l192,0Zm-168,384l-32,0c-4.418,0 -8,-3.582 -8,-8l0,-56l48,0l0,56c0,4.403 -3.558,7.976 -8,8Z"></path></svg>