<svg width="384" height="512" viewBox="0 0 384 512" fill="none" xmlns="http://www.w3.org/2000/svg">
<path d="M192 160C227.346 160 256 131.346 256 96C256 60.6538 227.346 32 192 32C156.654 32 128 60.6538 128 96C128 131.346 156.654 160 192 160Z" fill="black"/>
<path d="M9.92136 73.6278C0.55163 82.9975 0.39968 98.3408 9.76941 107.711L112 209.941V488C112 501.255 122.745 512 136 512H152C165.255 512 176 501.255 176 488V352H208V488C208 501.255 218.745 512 232 512H248C261.255 512 272 501.255 272 488V209.796L374.21 107.71C383.589 98.3422 383.746 83.2948 374.372 73.921C365.002 64.5513 349.659 64.3994 340.289 73.7691L238.059 176H145.796L43.7105 73.79C34.3425 64.4106 19.2951 64.254 9.92136 73.6278Z" fill="black"/>
</svg>
