<svg width="384" height="512" viewBox="0 0 384 512" version="1.1" xmlns="http://www.w3.org/2000/svg"><path fill="currentColor" d="M248.105,146.918c0.202,-0.436 0.41,-0.867 0.623,-1.293l10.345,0.083c12.673,0.103 24.012,7.895 28.653,19.688l3.202,8.139c5.149,13.087 17.781,21.692 31.845,21.692c11.399,0 22.049,-5.676 28.406,-15.137l5.344,-7.954c4.442,-6.611 10.918,-11.543 18.395,-14.086c6.497,17.954 8.639,40.357 9.065,66.157c1.007,60.911 -43.783,159.698 -103.67,209.859c-59.887,50.161 -143.931,47.602 -210.361,44.531c-66.429,-3.071 -69.952,-29.175 -69.952,-39.412c0,-9.248 19.301,-9.724 50.113,-10.484l0.015,-0.001c3.293,-0.081 6.717,-0.165 10.263,-0.264c36.737,-1.024 89.076,-28.152 111.219,-51.185c22.143,-23.034 48.312,-80.251 48.312,-127.963c0,-42.112 9.22,-61.819 24.788,-95.099c1.1,-2.351 2.232,-4.771 3.395,-7.271Zm57.957,-34.581c1.352,-12.978 2.294,-29.89 -0.062,-39.837c-3.6,-15.2 -12.167,-25.667 -16,-29l-2,-11.5l16,0l0,11.5c2.333,2.833 7.7,11.5 14.5,23.5c5.225,9.22 11.965,33.201 15.412,49.259c15.715,5.567 26.626,14.841 34.153,27.255c-10.062,3.815 -18.758,10.672 -24.823,19.699l-5.344,7.954c-3.385,5.038 -9.056,8.06 -15.125,8.06c-7.488,0 -14.214,-4.582 -16.956,-11.551l-3.202,-8.138c-6.805,-17.295 -23.12,-28.91 -41.571,-29.778c13.301,-11.639 31.295,-16.231 45.018,-17.423Z"></path></svg>