<svg width="442" height="512" viewBox="0 0 442 512" fill="none" xmlns="http://www.w3.org/2000/svg">
<g clip-path="url(#clip0)">
<path fill-rule="evenodd" clip-rule="evenodd" d="M38.7695 107.711L16.142 130.338C-5.986 108.21 -5.30939 72.6037 16.294 51.0003C38.4347 28.8596 73.7554 29.5538 95.3517 51.1763L126.029 81.8914C132.853 35.5609 172.774 0 221 0C269.209 0 309.118 35.5349 315.963 81.8406L346.662 51.1417L369.289 73.7691L267.059 176H174.796L72.7106 73.79C63.3425 64.4106 48.2952 64.254 38.9214 73.6278C29.5517 82.9975 29.3997 98.3408 38.7695 107.711ZM38.7695 107.711L141 209.941V456C141 469.255 151.745 480 165 480H181C194.255 480 205 469.255 205 456V352H237V456C237 469.255 247.745 480 261 480H277C290.255 480 301 469.255 301 456V209.796L403.21 107.71C412.589 98.3422 412.746 83.2948 403.372 73.9211C394.003 64.5513 378.659 64.3994 369.289 73.7691L346.662 51.1417C368.79 29.0137 404.396 29.6902 426 51.2936C448.14 73.4344 447.446 108.755 425.824 130.351L333 223.062V456C333 486.928 307.928 512 277 512H261C245.331 512 231.164 505.564 221 495.192C210.836 505.564 196.67 512 181 512H165C134.072 512 109 486.928 109 456L109 223.196L16.142 130.338L38.7695 107.711ZM178.667 144C183.762 148.497 189.579 152.196 195.922 154.9C203.623 158.183 212.099 160 221 160C229.868 160 238.315 158.196 245.994 154.936C252.37 152.228 258.215 148.517 263.333 144C271.769 136.555 278.226 126.921 281.818 115.986C283.883 109.698 285 102.979 285 96C285 60.6538 256.346 32 221 32C185.654 32 157 60.6538 157 96C157 103.034 158.135 109.804 160.232 116.135C163.832 127.008 170.27 136.589 178.667 144Z" fill="black"/>
</g>
<defs>
<clipPath id="clip0">
<rect width="442" height="512" fill="white"/>
</clipPath>
</defs>
</svg>
