<svg xmlns="http://www.w3.org/2000/svg" width="576" height="512" viewBox="0 0 576 512"><path d="M144 0c35.35 0 64 28.65 64 64s-28.65 64-64 64-64-28.65-64-64 28.65-64 64-64zm288 0c35.35 0 64 28.65 64 64s-28.65 64-64 64-64-28.65-64-64 28.65-64 64-64zM74 197.65v291.37c0 13.4 5.98 22.98 19.4 22.98h17.67c13.42 0 19.4-9.56 19.4-22.98V353.91h27.05v135.11c0 13.42 5.99 22.98 19.41 22.98h17.66c13.43 0 19.41-9.58 19.41-22.98V197.65c3.68 0 15.81 3.68 21 20.52L259 296c6.27 20.33 15.19 24 32.2 24 17.02 0 29.35-7.98 34.89-23.34l33.92-94.06c1.33-3.7 2.38-10.59 5.4-10.6H368c0 23.69 8.45 46.81 16 58l-55.28 104.18C321.43 367.93 336.38 384 352 384h32v96c0 18.35 13.96 31.46 32 32h32c18.04-.54 32-13.65 32-32v-96h32c15.62 0 30.58-16.06 23.28-29.82L480 250c7.55-11.19 16-34.31 16-58h2.59c3.02.01 4.45 6.79 5.41 10.6l24.78 99.12c3.21 12.84 16.22 20.65 29.06 17.44 12.84-3.21 20.65-16.22 17.44-29.06l-28.54-114.16C541.54 155.12 514.27 144 496 144H368c-18.27 0-44.53 11.41-50.74 31.94L296 246.28 283 198c-10.08-37.45-36.42-54-69-54H54c-28 0-54 26-54 54v114c0 13.2 10.8 24 24 24s24-10.8 24-24v-93.83c0-4.92 2.39-20.52 10.36-20.52H74z"/></svg>