<svg xmlns="http://www.w3.org/2000/svg" width="480" height="512" viewBox="0 0 480 512"><path d="M43.571 144c.81.443 29.107 15.857 52.429 15.857 23.322 0 52.592-15.414 53.429-15.857h10.857c17.568.053 31.714 14.232 31.714 31.714V320c0 17.673-14.327 32-32 32v136c0 13.255-10.745 24-24 24H56c-13.255 0-24-10.745-24-24V352c-17.673 0-32-14.327-32-32V176.714C0 158.672 14.605 144.041 32.714 144h10.857zm271 0c.521.553 14.218 14.857 37.429 14.857 23.211 0 36.908-14.304 37.429-14.857h6.857c11.676.039 21.806 7.844 24.794 19.049l48.188 180.706c5.417 20.315-9.895 40.245-30.92 40.245H400v104c0 13.255-10.745 24-24 24h-48c-13.255 0-24-10.745-24-24V384h-38.18c-21.12-.056-36.389-20.051-30.888-40.365l49.176-181.571c2.88-10.634 12.513-18.027 23.606-18.064h6.857zM96 128c35.346 0 64-28.654 64-64 0-35.346-28.654-64-64-64-35.346 0-64 28.654-64 64 0 35.346 28.654 64 64 64zm320-64c0 35.346-28.654 64-64 64-35.346 0-64-28.654-64-64 0-35.346 28.654-64 64-64 35.346 0 64 28.654 64 64z"/></svg>