<svg width="448" height="512" viewBox="0 0 448 512" fill="none" xmlns="http://www.w3.org/2000/svg">
<path d="M86.8821 392.921C87.2171 392.585 87.5432 392.245 87.8604 391.899L87.9038 391.942C87.5578 392.259 87.2171 392.585 86.8821 392.921Z" fill="black"/>
<path fill-rule="evenodd" clip-rule="evenodd" d="M199.923 380.738C191.912 381.135 184.412 378.997 177.598 373.4L165.849 385.15C178.945 409.399 175.25 440.317 154.764 460.803C129.771 485.796 89.2482 485.796 64.2546 460.803C56.0118 452.56 50.4874 442.628 47.6815 432.121C37.1746 429.315 27.2427 423.791 18.9998 415.548C-5.99375 390.554 -5.99375 350.032 18.9998 325.038C38.6184 305.42 67.805 301.201 91.5388 312.381L104.399 299.521C100.294 293.438 98.7194 286.853 99.0647 279.88C99.4646 271.803 102.076 264.498 106.898 257.966C109.492 254.64 111.489 251.752 112.889 249.301C114.289 246.851 115.504 244.593 116.535 242.528C117.566 240.462 118.294 237.452 118.72 233.496C119.145 229.54 119.516 226.157 119.833 223.346C120.15 220.535 120.552 215.188 121.039 207.305C121.527 199.422 122.004 192.208 122.471 185.664C122.806 164.421 128.671 143.61 140.065 123.23C151.459 102.85 165.981 85.5434 183.63 71.3093C201.28 57.0752 221.596 46.374 244.58 39.2056C267.563 32.0371 290.188 30.3125 312.454 34.0316C332.186 37.3274 350.676 44.577 367.924 55.7804C379.327 63.1873 389.563 71.651 398.632 81.1714C408.152 90.2402 416.616 100.476 424.023 111.879C435.226 129.127 442.475 147.616 445.771 167.349C449.49 189.615 447.766 212.24 440.597 235.223C433.429 258.206 422.728 278.523 408.494 296.172C394.26 313.822 376.953 328.344 356.573 339.738C336.193 351.132 315.382 356.997 294.139 357.332C287.595 357.799 280.381 358.276 272.498 358.763C264.615 359.251 259.268 359.653 256.457 359.97C253.646 360.286 250.263 360.658 246.307 361.083C242.351 361.509 239.34 362.237 237.275 363.268C235.21 364.299 232.952 365.514 230.502 366.914C228.051 368.314 225.163 370.311 221.837 372.905C215.305 377.727 208 380.338 199.923 380.738ZM126.672 322.503L92.9876 356.187C91.4765 353.11 89.4414 350.225 86.8821 347.666C86.5528 347.336 86.2182 347.016 85.8784 346.704C83.5773 344.591 81.0419 342.877 78.3605 341.56C66.412 335.693 51.5647 337.728 41.6272 347.666C29.1304 360.162 29.1304 380.424 41.6272 392.921C43.5785 394.872 45.7191 396.518 47.9899 397.86C54.9086 401.949 63.0358 403.209 70.6994 401.641C73.3339 401.102 75.9137 400.229 78.3707 399.021C81.0413 397.708 83.5669 396.001 85.8604 393.899C86.2063 393.582 86.547 393.256 86.8821 392.921C86.547 393.256 86.2208 393.596 85.9037 393.942C83.4672 396.6 81.561 399.57 80.1854 402.717C79.8924 403.387 79.6235 404.065 79.3786 404.749C76.2136 413.599 77.0681 423.565 81.9422 431.813C83.2841 434.083 84.9307 436.224 86.8821 438.175C99.3788 450.672 119.64 450.672 132.137 438.175C141.179 429.133 143.679 416.026 139.636 404.736C138.238 400.834 136.059 397.149 133.099 393.924C132.787 393.585 132.466 393.25 132.137 392.921C128.682 389.466 124.635 386.966 120.321 385.422L154.956 350.787L126.672 322.503ZM268.805 84.9701C269.947 86.303 270.772 87.7311 271.28 89.2545C272.676 93.3167 272.042 95.919 269.376 97.0615C255.415 103.028 242.723 110.803 231.3 120.387C219.878 129.972 210.39 141.555 202.839 155.138C195.287 168.721 191.257 183.002 190.749 197.982C190.622 201.155 189.448 203.789 187.227 205.884C185.006 207.979 182.88 208.518 180.85 207.503C175.265 204.71 171.331 201.79 169.046 198.743C166.508 195.316 165.556 191.19 166.19 186.366C169.363 162.755 177.708 141.714 191.225 123.244C204.742 104.773 222.289 89.7622 243.865 78.2104C250.719 74.2751 256.05 73.9577 259.857 77.2583C260.238 77.6391 261.539 78.6864 263.76 80.4001C265.981 82.1139 267.663 83.6372 268.805 84.9701Z" fill="black"/>
</svg>
