<svg width="448" height="512" viewBox="0 0 448 512" version="1.1" xmlns="http://www.w3.org/2000/svg"><path fill="currentColor" d="M199.923,380.738c8.077,-0.4 15.382,-3.011 21.914,-7.833c3.326,-2.594 6.214,-4.591 8.665,-5.991c2.45,-1.4 4.708,-2.615 6.773,-3.646c2.065,-1.031 5.076,-1.759 9.032,-2.185c3.956,-0.425 7.339,-0.797 10.15,-1.113c2.811,-0.317 8.158,-0.719 16.041,-1.207c7.883,-0.487 15.097,-0.964 21.641,-1.431c21.243,-0.335 42.054,-6.2 62.434,-17.594c20.38,-11.394 37.687,-25.916 51.921,-43.566c14.234,-17.649 24.935,-37.966 32.103,-60.949c7.169,-22.983 8.893,-45.608 5.174,-67.874c-3.296,-19.733 -10.545,-38.222 -21.748,-55.47c-7.407,-11.403 -15.871,-21.639 -25.391,-30.708c-9.069,-9.52 -19.305,-17.984 -30.708,-25.391c-17.248,-11.203 -35.738,-18.453 -55.47,-21.748c-22.266,-3.72 -44.891,-1.995 -67.874,5.174c-22.984,7.168 -43.3,17.869 -60.95,32.103c-17.649,14.234 -32.171,31.541 -43.565,51.921c-11.394,20.38 -17.259,41.191 -17.594,62.434c-0.467,6.544 -0.944,13.758 -1.432,21.641c-0.487,7.883 -0.889,13.23 -1.206,16.041c-0.317,2.811 -0.688,6.194 -1.113,10.15c-0.426,3.956 -1.154,6.966 -2.185,9.032c-1.031,2.065 -2.246,4.323 -3.646,6.773c-1.4,2.451 -3.397,5.339 -5.991,8.665c-4.822,6.532 -7.433,13.837 -7.833,21.914c-0.346,6.973 1.229,13.558 5.334,19.641l-12.86,12.86c-23.734,-11.18 -52.921,-6.961 -72.539,12.657c-24.994,24.994 -24.994,65.516 0,90.51c8.243,8.243 18.175,13.767 28.682,16.573c2.805,10.507 8.33,20.439 16.573,28.682c24.993,24.993 65.516,24.993 90.509,0c20.486,-20.486 24.181,-51.404 11.085,-75.653l11.749,-11.75c6.814,5.597 14.314,7.735 22.325,7.338Zm-73.251,-58.235l28.284,28.284l-34.635,34.635c4.314,1.544 8.361,4.044 11.816,7.499c0.329,0.329 0.65,0.664 0.962,1.003c2.96,3.225 5.139,6.91 6.537,10.812c4.043,11.29 1.543,24.397 -7.499,33.439c-12.497,12.497 -32.758,12.497 -45.255,0c-1.951,-1.951 -3.598,-4.092 -4.94,-6.362c-4.874,-8.248 -5.728,-18.214 -2.563,-27.064c0.245,-0.684 0.513,-1.362 0.806,-2.032c1.376,-3.147 3.282,-6.117 5.719,-8.775c0.317,-0.346 0.643,-0.686 0.978,-1.021c-0.335,0.335 -0.676,0.661 -1.022,0.978c-2.293,2.102 -4.819,3.809 -7.489,5.122c-2.457,1.208 -5.037,2.081 -7.672,2.62c-7.663,1.568 -15.79,0.308 -22.709,-3.781c-2.271,-1.342 -4.411,-2.988 -6.363,-4.939c-12.497,-12.497 -12.497,-32.759 0,-45.255c9.938,-9.938 24.785,-11.973 36.734,-6.106c2.681,1.317 5.216,3.031 7.517,5.144c0.34,0.312 0.675,0.632 1.004,0.962c2.559,2.559 4.595,5.444 6.106,8.521l33.684,-33.684Zm142.133,-237.533c1.142,1.333 1.967,2.761 2.475,4.284c1.396,4.063 0.762,6.665 -1.904,7.807c-13.961,5.967 -26.653,13.742 -38.076,23.326c-11.422,9.585 -20.91,21.168 -28.461,34.751c-7.552,13.583 -11.582,27.864 -12.09,42.844c-0.127,3.173 -1.301,5.807 -3.522,7.902c-2.221,2.095 -4.347,2.634 -6.377,1.619c-5.585,-2.793 -9.519,-5.713 -11.804,-8.76c-2.538,-3.427 -3.49,-7.553 -2.856,-12.377c3.173,-23.611 11.518,-44.652 25.035,-63.122c13.517,-18.471 31.064,-33.482 52.64,-45.034c6.854,-3.935 12.185,-4.252 15.992,-0.952c0.381,0.381 1.682,1.428 3.903,3.142c2.221,1.714 3.903,3.237 5.045,4.57Z"></path></svg>