<svg xmlns="http://www.w3.org/2000/svg" width="512" height="512" viewBox="0 0 512 512"><path d="M471.06 57.57C439.88 22.15 395.32 1.26 348.12-.01c-1.66-.03-3.41-.07-5.09-.07-45.34 0-88.88 17.91-121.1 49.79C195.34 76.13 160 119.38 160 189.73v60.42l-43.7 43.77c-1.93 1.88-5.75 1-7.75.17a79.418 79.418 0 0 0-29.3-5.62c-43.72 0-79.19 35.46-79.19 79.19 0 20.98 8.34 41.12 23.16 55.96a76.471 76.471 0 0 0 43.57 21.59 76.45 76.45 0 0 0 21.57 43.55A79.207 79.207 0 0 0 144.4 512c43.73 0 79.19-35.46 79.19-79.19 0-10.05-1.93-20.05-5.65-29.38-1-2.5-1.56-6 .16-7.75l43.74-43.76H323c38.72 0 72.75-10.17 104-31.08 46.22-30.88 76.69-79.36 83.56-133 6.22-48.32-7.81-94.58-39.5-130.27zM256.12 178.69c-.06 13.2-10.8 23.87-24 23.82-13.2-.05-24.48-10.82-23.81-24 2.86-56.07 53.15-119.85 110.23-128.59 13.03-2 24.77 8.43 26.01 21.56 1.24 13.15-8.42 24.82-21.56 26.07-27.62 2.62-66.74 52.65-66.87 81.14zm-82.75 242.57c1.48 3.68 2.24 7.62 2.24 11.59 0 17.16-13.91 31.07-31.07 31.07h-.11c-12 0-27.64-7.82-30.11-25.39l-5-35.8-35.81-5.05C56 395.2 48 379.61 48 367.57v-.02c0-17.19 13.94-31.13 31.13-31.13 3.89 0 7.75.73 11.37 2.15 7.14 2.9 14.78 4.4 22.5 4.42h.23c13.85 0 27.17-5.45 37.04-15.17l20.43-20.45a84.89 84.89 0 0 0 34.01 33.87l-20.49 20.5c-15.3 15.24-19.43 38.05-10.84 59.52h-.01z"/></svg>