<svg width="448" height="512" viewBox="0 0 448 512" fill="none" xmlns="http://www.w3.org/2000/svg">
<g clip-path="url(#clip0)">
<path fill-rule="evenodd" clip-rule="evenodd" d="M224 480C347.712 480 448 379.712 448 256C448 132.288 347.712 32 224 32C100.288 32 0 132.288 0 256C0 379.712 100.288 480 224 480ZM98.6863 138.314C104.935 132.065 115.065 132.065 121.314 138.314L144 161L166.686 138.314C172.935 132.065 183.065 132.065 189.314 138.314C195.562 144.562 195.562 154.693 189.314 160.941L166.627 183.627L189.196 206.196C195.444 212.444 195.444 222.575 189.196 228.823C182.948 235.072 172.817 235.072 166.569 228.823L144 206.255L121.431 228.823C115.183 235.072 105.052 235.072 98.804 228.823C92.5556 222.575 92.5556 212.444 98.804 206.196L121.373 183.627L98.6863 160.941C92.4379 154.693 92.4379 144.562 98.6863 138.314ZM281.941 139.314C275.693 133.065 265.562 133.065 259.314 139.314C253.065 145.562 253.065 155.693 259.314 161.941L282 184.627L259.431 207.196C253.183 213.444 253.183 223.575 259.431 229.823C265.68 236.072 275.811 236.072 282.059 229.823L304.627 207.255L327.196 229.823C333.444 236.072 343.575 236.072 349.823 229.823C356.072 223.575 356.072 213.444 349.823 207.196L327.255 184.627L349.941 161.941C356.19 155.693 356.19 145.562 349.941 139.314C343.693 133.065 333.562 133.065 327.314 139.314L304.627 162L281.941 139.314ZM139.314 308.686C133.065 302.438 122.935 302.438 116.686 308.686L84.6863 340.686C78.4379 346.935 78.4379 357.065 84.6863 363.314C90.9347 369.562 101.065 369.562 107.314 363.314L128 342.627L164.686 379.314C170.935 385.562 181.065 385.562 187.314 379.314L224 342.627L260.686 379.314C266.935 385.562 277.065 385.562 283.314 379.314L320 342.627L340.686 363.314C346.935 369.562 357.065 369.562 363.314 363.314C369.562 357.065 369.562 346.935 363.314 340.686L331.314 308.686C325.065 302.438 314.935 302.438 308.686 308.686L272 345.373L235.314 308.686C229.065 302.438 218.935 302.438 212.686 308.686L176 345.373L139.314 308.686Z" fill="black"/>
</g>
<defs>
<clipPath id="clip0">
<rect width="448" height="512" fill="white"/>
</clipPath>
</defs>
</svg>
