<svg width="448" height="512" viewBox="0 0 448 512" version="1.1" xmlns="http://www.w3.org/2000/svg"><path fill="currentColor" d="M224,480c123.712,0 224,-100.288 224,-224c0,-123.712 -100.288,-224 -224,-224c-123.712,0 -224,100.288 -224,224c0,123.712 100.288,224 224,224Zm-84.686,-171.314l36.686,36.687l36.686,-36.687c6.249,-6.248 16.379,-6.248 22.628,0l36.686,36.687l36.686,-36.687c6.249,-6.248 16.379,-6.248 22.628,0l32,32c6.248,6.249 6.248,16.379 0,22.628c-6.249,6.248 -16.379,6.248 -22.628,0l-20.686,-20.687l-36.686,36.687c-6.249,6.248 -16.379,6.248 -22.628,0l-36.686,-36.687l-36.686,36.687c-6.249,6.248 -16.379,6.248 -22.628,0l-36.686,-36.687l-20.686,20.687c-6.249,6.248 -16.379,6.248 -22.628,0c-6.248,-6.249 -6.248,-16.379 0,-22.628l32,-32c6.249,-6.248 16.379,-6.248 22.628,0Zm142.627,-169.372l22.686,22.686l22.687,-22.686c6.248,-6.249 16.379,-6.249 22.627,0c6.249,6.248 6.249,16.379 0,22.627l-22.686,22.686l22.568,22.569c6.249,6.248 6.249,16.379 0,22.627c-6.248,6.249 -16.379,6.249 -22.627,0l-22.569,-22.568l-22.568,22.568c-6.248,6.249 -16.379,6.249 -22.628,0c-6.248,-6.248 -6.248,-16.379 0,-22.627l22.569,-22.569l-22.686,-22.686c-6.249,-6.248 -6.249,-16.379 0,-22.627c6.248,-6.249 16.379,-6.249 22.627,0Zm-183.255,-1c6.249,-6.249 16.379,-6.249 22.628,0l22.686,22.686l22.686,-22.686c6.249,-6.249 16.379,-6.249 22.628,0c6.248,6.248 6.248,16.379 0,22.627l-22.687,22.686l22.569,22.569c6.248,6.248 6.248,16.379 0,22.627c-6.248,6.249 -16.379,6.249 -22.627,0l-22.569,-22.568l-22.569,22.568c-6.248,6.249 -16.379,6.249 -22.627,0c-6.248,-6.248 -6.248,-16.379 0,-22.627l22.569,-22.569l-22.687,-22.686c-6.248,-6.248 -6.248,-16.379 0,-22.627Z"></path></svg>