<svg xmlns="http://www.w3.org/2000/svg" width="288" height="512" viewBox="0 0 288 512"><path d="M160 512c18.03-.54 32-13.65 32-32v-96h32c15.62 0 30.58-16.06 23.28-29.82L192 250c7.55-11.19 16-34.31 16-58h2.59c3.02.01 4.45 6.79 5.4 10.6l24.79 99.12c3.21 12.84 16.22 20.65 29.06 17.44 12.84-3.21 20.65-16.22 17.44-29.06l-28.54-114.16C253.53 155.12 226.27 144 208 144H80c-18.28 0-45.54 11.12-50.74 31.94L.72 290.1c-3.21 12.84 4.6 25.85 17.44 29.06 12.84 3.21 25.85-4.6 29.06-17.44L72 202.6c.95-3.81 2.39-10.59 5.4-10.6H80c0 23.69 8.45 46.81 16 58L40.72 354.18C33.42 367.93 48.38 384 64 384h32v96c0 18.35 13.96 31.46 32 32h32zM144 0c35.34 0 64 28.65 64 64s-28.65 64-64 64-64-28.65-64-64 28.65-64 64-64z"/></svg>