<svg xmlns="http://www.w3.org/2000/svg" width="320" height="512" viewBox="0 0 320 512"><path d="M160 0c35.34 0 64 28.65 64 64s-28.65 64-64 64-64-28.65-64-64 28.65-64 64-64zM96 144c-21.45 0-50.77 12.58-57.98 34.38L1.31 288.5c-4.14 12.53 2.66 26.05 15.19 30.19 12.53 4.14 26.04-2.66 30.19-15.19 10.32-30.98 20.65-61.96 30.98-92.94C81.77 198.27 87.95 192.97 96 192c0 23.69 8.45 46.81 16 58v6l-48.08 96.15C48 384 48 384 80 384h32v96c0 18.35 13.96 31.46 32 32h32c18.04-.54 32-13.65 32-32v-96h32c32 0 32 0 16.08-31.85L208 256v-6c7.55-11.19 16-34.31 16-58 8.05.97 14.23 6.27 18.33 18.56 10.33 30.98 20.66 61.96 30.98 92.94 4.15 12.53 17.66 19.33 30.19 15.19 12.53-4.14 19.33-17.66 15.19-30.19l-36.71-110.12C274.77 156.58 245.45 144 224 144H96z"/></svg>