<svg width="545" height="512" viewBox="0 0 545 512" fill="none" xmlns="http://www.w3.org/2000/svg">
<path d="M32 0C14.3269 0 0 14.3269 0 32V480C0 497.673 14.3269 512 32 512H352C369.673 512 384 497.673 384 480V352H127V224H384V160H256C238.327 160 224 145.673 224 128V0H32Z" fill="black"/>
<path d="M257.745 0H255V128H383V125.255C383 116.768 379.629 108.629 373.627 102.627L280.373 9.37258C274.371 3.37142 266.232 0 257.745 0Z" fill="black"/>
<path d="M415 320V369.121C415 391.159 442.213 401.545 456.896 385.112L528.785 304.658C536.892 295.586 536.927 281.883 528.868 272.769L456.979 191.472C442.34 174.918 415 185.272 415 207.371V256H159V320H415Z" fill="black"/>
</svg>
