<svg width="545" height="512" viewBox="0 0 545 512" version="1.1" xmlns="http://www.w3.org/2000/svg"><path fill="currentColor" d="M352,512l-320,0c-17.673,0 -32,-14.327 -32,-32l0,-448c0,-17.673 14.326,-31.999 32,-32l192,0l0,128c0,17.64 14.273,31.946 32,32l128,0l0,64l-257,0l0,128l257,0l0,128c0,17.64 -14.273,31.946 -32,32Zm63,-256l0,-48.629c0,-22.099 27.34,-32.453 41.979,-15.899l71.889,81.297c8.059,9.114 8.024,22.817 -0.083,31.889l-71.889,80.454c-14.683,16.433 -41.896,6.047 -41.896,-15.991l0,-49.121l-256,0l0,-64l256,0Zm-32,-128l-128,0l0,-128l2.745,0c8.488,0 16.626,3.372 22.628,9.373l93.254,93.254c6.002,6.002 9.373,14.141 9.373,22.628l0,2.745Z"></path></svg>