<svg width="448" height="512" viewBox="0 0 448 512" version="1.1" xmlns="http://www.w3.org/2000/svg"><path fill="currentColor" d="M69.282,324l-59.657,29.789c-3.5,1.751 -5.979,3.647 -7.437,5.689c-1.459,2.043 -2.188,4.814 -2.188,8.315c0,3.501 0.729,6.273 2.188,8.315c1.458,2.042 3.937,3.938 7.437,5.689l185.792,92.774c7.583,3.695 17.111,5.349 28.583,4.96c11.472,0.389 21,-1.265 28.583,-4.96l185.792,-92.774c3.5,-1.751 5.979,-3.647 7.437,-5.689c1.459,-2.042 2.188,-4.814 2.188,-8.315c0,-3.501 -0.729,-6.272 -2.188,-8.315c-1.458,-2.042 -3.937,-3.938 -7.437,-5.689l-59.657,-29.789l-35.814,17.884l51.886,25.909l-156.31,78.052c-1.562,0.738 -5.496,1.972 -13.396,1.704l-1.084,-0.037l-1.084,0.037c-7.9,0.268 -11.834,-0.966 -13.396,-1.704l-156.31,-78.052l51.886,-25.909l-35.814,-17.884Zm-45.504,58.494c0,0 0.007,-0.004 0.02,-0.011l-0.015,0.008l-0.005,0.003Zm-14.153,-140.29l60.072,-29.997l35.814,17.884l-52.301,26.116l156.31,78.053c1.562,0.737 5.496,1.971 13.396,1.703l1.084,-0.037l1.084,0.037c7.9,0.268 11.834,-0.966 13.396,-1.703l156.31,-78.053l-52.301,-26.116l35.815,-17.884l60.071,29.997c3.5,1.75 5.979,3.646 7.437,5.689c1.459,2.042 2.188,4.813 2.188,8.314c0,3.501 -0.729,6.273 -2.188,8.315c-1.458,2.042 -3.937,3.938 -7.437,5.689l-185.792,92.774c-7.583,3.695 -17.111,5.349 -28.583,4.96c-11.472,0.389 -21,-1.265 -28.583,-4.96l-185.792,-92.774c-3.5,-1.751 -5.979,-3.647 -7.438,-5.689c-1.458,-2.042 -2.187,-4.814 -2.187,-8.315c0,-3.501 0.729,-6.272 2.187,-8.314c1.459,-2.043 3.938,-3.939 7.438,-5.689Zm185.792,-205.189l-185.792,92.774c-3.5,1.751 -5.979,3.647 -7.438,5.689c-1.458,2.043 -2.187,4.814 -2.187,8.315c0,3.501 0.729,6.272 2.187,8.315c1.459,2.042 3.938,3.938 7.438,5.689l185.792,92.774c7.583,3.695 17.111,5.348 28.583,4.959c11.472,0.389 21,-1.264 28.583,-4.959l185.792,-92.774c3.5,-1.751 5.979,-3.647 7.437,-5.689c1.459,-2.043 2.188,-4.814 2.188,-8.315c0,-3.501 -0.729,-6.272 -2.188,-8.315c-1.458,-2.042 -3.937,-3.938 -7.437,-5.689l-185.792,-92.774c-7.583,-3.695 -17.111,-5.348 -28.583,-4.959c-11.472,-0.389 -21,1.264 -28.583,4.959Zm-171.638,204.492l0.001,0.001l0.018,0.01c-0.013,-0.008 -0.019,-0.011 -0.019,-0.011Zm200.221,-177.433l1.084,-0.037c7.899,-0.268 11.834,0.966 13.396,1.704l156.31,78.052l-156.31,78.052c-1.562,0.738 -5.496,1.972 -13.396,1.704l-1.084,-0.037l-1.084,0.037c-7.9,0.268 -11.834,-0.966 -13.396,-1.704l-156.31,-78.052l156.31,-78.052c1.562,-0.738 5.497,-1.972 13.396,-1.704l1.084,0.037Z"></path></svg>