<svg width="448" height="512" viewBox="0 0 448 512" version="1.1" xmlns="http://www.w3.org/2000/svg"><path fill="currentColor" d="M334.701 280.867C312.501 302.181 284.371 315.226 250.309 320H240V423.711C242.922 417.648 251.429 411.402 260.185 404.975C264.915 401.503 269.717 397.978 273.75 394.399C285.25 384.197 298.5 375.723 313.5 368.979C336.5 358.603 361.333 352.983 388 352.118C414.667 351.253 434.667 355.144 448 363.791C424.5 402.008 392.833 430.931 353 450.559C313.167 470.186 270.167 480 224 480C177.833 480 134.875 470.186 95.125 450.559C55.375 430.931 23.6667 402.008 0 363.791C13.3333 355.144 33.3333 351.253 60 352.118C86.6667 352.983 111.5 358.603 134.5 368.979C149.5 375.723 162.75 384.24 174.25 394.529C178.382 398.226 183.342 401.85 188.203 405.402C196.871 411.736 205.224 417.839 208 423.711V320H197.691C181.423 317.783 166.256 313.478 152.191 307.083C138.125 300.689 125.67 292.462 114.824 282.401C103.979 272.341 95.4634 260.021 89.278 245.442C83.0927 230.863 80 214.877 80 197.485V52.7176C80 46.92 82.0335 42.0178 86.1006 38.0107C90.1677 34.0035 94.9974 32 100.59 32C104.318 33.7051 110.122 38.5222 118.002 46.4511C125.659 54.1559 132.335 66.6984 139.01 79.2383C145.682 91.7729 152.352 104.305 160 112C167.858 104.093 175.656 91.1057 183.457 78.1111C191.268 65.1013 199.083 52.084 206.969 44.1492C215.019 36.0497 220.738 32 224.127 32C227.347 32 232.981 36.0497 241.031 44.1492C248.935 52.1025 256.74 65.1083 264.54 78.1073C272.332 91.0928 280.12 104.071 288 112C295.648 104.305 302.382 91.7731 309.117 79.2385C315.855 66.6987 322.595 54.1559 330.252 46.4511C338.132 38.5222 343.852 33.7051 347.41 32C353.172 32 358.044 34.0035 362.026 38.0107C366.009 42.0178 368 46.92 368 52.7176V197.485C368 231.758 356.9 259.552 334.701 280.867Z"></path></svg>