<svg width="544" height="512" viewBox="0 0 544 512" fill="none" xmlns="http://www.w3.org/2000/svg">
<path fill-rule="evenodd" clip-rule="evenodd" d="M112 32C103.163 32 96 39.1634 96 48V80H16C7.16344 80 0 87.1634 0 96V160C0 168.837 7.16345 176 16 176H96V336H48C39.1634 336 32 343.163 32 352V416C32 424.837 39.1634 432 48 432H96V464C96 472.837 103.163 480 112 480C120.837 480 128 472.837 128 464V432H256V464C256 472.837 263.163 480 272 480C280.837 480 288 472.837 288 464V432H368C376.837 432 384 424.837 384 416V352C384 343.163 376.837 336 368 336H288V304H416V464C416 472.837 423.163 480 432 480C440.837 480 448 472.837 448 464V304H528C536.837 304 544 296.837 544 288V224C544 215.163 536.837 208 528 208H448V48C448 39.1634 440.837 32 432 32C423.163 32 416 39.1634 416 48V208H288V176H336C344.837 176 352 168.837 352 160V96C352 87.1634 344.837 80 336 80H288V48C288 39.1634 280.837 32 272 32C263.163 32 256 39.1634 256 48V80H128V48C128 39.1634 120.837 32 112 32ZM256 336V304H208C199.163 304 192 296.837 192 288V224C192 215.163 199.163 208 208 208H256V176H128V336H256Z" fill="black"/>
</svg>
