<svg xmlns="http://www.w3.org/2000/svg" width="544" height="512" viewBox="0 0 544 512"><path d="M114.66 384h250.68c10.26 0 18.66 8.4 18.66 18.66v74.68c0 10.26-8.4 18.66-18.66 18.66H114.66C104.4 496 96 487.6 96 477.34v-74.68c0-10.26 8.4-18.66 18.66-18.66zM18.67 240h250.66c10.27 0 18.67 8.4 18.67 18.67v74.66c0 10.27-8.4 18.67-18.67 18.67H18.67C8.4 352 0 343.6 0 333.33v-74.66C0 248.4 8.4 240 18.67 240zm128-224h378.66C535.6 16 544 24.4 544 34.67v74.66c0 10.27-8.4 18.67-18.67 18.67H146.67c-10.27 0-18.67-8.4-18.67-18.67V34.67C128 24.4 136.4 16 146.67 16z"/></svg>