<svg width="544" height="512" viewBox="0 0 544 512" version="1.1" xmlns="http://www.w3.org/2000/svg"><path fill="currentColor" d="M464,400c8.885,0.048 16,7.193 16,16l0,64c0,8.837 -7.163,16 -16,16l-240,0c-8.837,0 -16,-7.163 -16,-16l0,-64c0,-8.807 7.115,-15.952 16,-16l240,0Zm-160,-32l-240,0c-8.837,0 -16,-7.163 -16,-16l0,-64c0,-8.837 7.163,-16 16,-16l240,0c8.837,0 16,7.163 16,16l0,64c0,8.807 -7.115,15.952 -16,16Zm224,-224c8.885,0.048 16,7.193 16,16l0,64c0,8.837 -7.163,16 -16,16l-384,0c-8.837,0 -16,-7.163 -16,-16l0,-64c0,-8.807 7.115,-15.952 16,-16l384,0Zm-160,-128c8.885,0.048 16,7.193 16,16l0,64c0,8.837 -7.163,16 -16,16l-352,0c-8.837,0 -16,-7.163 -16,-16l0,-64c0,-8.807 7.116,-15.952 16,-16l352,0Z"></path></svg>