<svg width="544" height="512" viewBox="0 0 544 512" fill="none" xmlns="http://www.w3.org/2000/svg">
<path d="M16 16C7.16344 16 0 23.1634 0 32V96C0 104.837 7.16345 112 16 112H368C376.837 112 384 104.837 384 96V32C384 23.1634 376.837 16 368 16H16Z" fill="black"/>
<path d="M144 144C135.163 144 128 151.163 128 160V224C128 232.837 135.163 240 144 240H528C536.837 240 544 232.837 544 224V160C544 151.163 536.837 144 528 144H144Z" fill="black"/>
<path d="M48 288C48 279.163 55.1634 272 64 272H304C312.837 272 320 279.163 320 288V352C320 360.837 312.837 368 304 368H64C55.1634 368 48 360.837 48 352V288Z" fill="black"/>
<path d="M224 400C215.163 400 208 407.163 208 416V480C208 488.837 215.163 496 224 496H464C472.837 496 480 488.837 480 480V416C480 407.163 472.837 400 464 400H224Z" fill="black"/>
</svg>
