<svg width="544" height="512" viewBox="0 0 544 512" version="1.1" xmlns="http://www.w3.org/2000/svg"><path fill="currentColor" d="M416,208l0,-160c0,-8.837 7.163,-16 16,-16c8.837,0 16,7.163 16,16l0,160l80,0c8.837,0 16,7.163 16,16l0,64c0,8.837 -7.163,16 -16,16l-80,0l0,160c0,8.837 -7.163,16 -16,16c-8.837,0 -16,-7.163 -16,-16l0,-160l-128,0l0,32l80,0c8.837,0 16,7.163 16,16l0,64c0,8.837 -7.163,16 -16,16l-80,0l0,32c0,8.837 -7.163,16 -16,16c-8.837,0 -16,-7.163 -16,-16l0,-32l-128,0l0,32c0,8.837 -7.163,16 -16,16c-8.837,0 -16,-7.163 -16,-16l0,-32l-48,0c-8.884,-0.048 -16,-7.193 -16,-16l0,-64c0,-8.807 7.116,-15.952 16,-16l48,0l0,-160l-80,0c-8.884,-0.048 -16,-7.193 -16,-16l0,-64c0,-8.807 7.116,-15.952 16,-16l80,0l0,-32c0,-8.837 7.163,-16 16,-16c8.837,0 16,7.163 16,16l0,32l128,0l0,-32c0,-8.837 7.163,-16 16,-16c8.837,0 16,7.163 16,16l0,32l48,0c8.837,0 16,7.163 16,16l0,64c0,8.837 -7.163,16 -16,16l-48,0l0,32l128,0Zm-160,-32l-128,0l0,160l128,0l0,-32l-48,0c-8.837,0 -16,-7.163 -16,-16l0,-64c0,-8.837 7.163,-16 16,-16l48,0l0,-32Z"></path></svg>