<svg xmlns="http://www.w3.org/2000/svg" width="640" height="512" viewBox="0 0 640 512"><path d="M280 255.18v-60.93M36.01 3.51C33.17 1.24 29.64 0 26 0c-4.85 0-9.45 2.21-12.48 5.99l-10 12.5C1.24 21.32 0 24.86 0 28.5c0 4.86 2.18 9.5 6.01 12.49L281.04 256l238.93 186.78 84.06 65.71c2.84 2.27 6.37 3.51 10 3.51 4.85 0 9.45-2.21 12.48-5.99l10-12.49c2.36-2.94 3.49-6.32 3.49-10.07 0-4.87-2.11-9.42-5.97-12.44l-101.95-79.7 6.81-28.98c3.37-14.39 5.11-29.18 5.11-43.97V168c0-21.83-17.49-39.57-39.22-39.99-22.43-.43-40.78 18.35-40.78 40.78V256h-8V79.79c0-22.43-18.36-41.21-40.78-40.78C393.49 39.43 376 57.17 376 79v177h-8V40.79C368 18.36 349.64-.42 327.22.01 305.49.43 288 18.17 288 40v160.5l-8-6.25V80.79c0-22.43-18.36-41.21-40.78-40.78C217.49 40.43 200 58.17 200 80v51.71L36.01 3.51zM200 253.58v62.41l-31.65-43.52c-12.99-17.86-38.01-21.81-55.87-8.82-17.87 13-21.82 38.01-8.83 55.88l125.6 172.7c9.04 12.41 23.47 19.77 38.83 19.77h197.58c15.9 0 30.31-7.81 39.11-20.17L200 253.58z"/></svg>