<svg width="448" height="512" viewBox="0 0 448 512" fill="none" xmlns="http://www.w3.org/2000/svg">
<path fill-rule="evenodd" clip-rule="evenodd" d="M363 352.5H448V304H190.25C192.871 299.107 195.149 295.794 197.083 292.981C198.299 291.213 199.379 289.642 200.324 288H384V128H64V288H130.897C129.976 289.699 128.911 291.322 127.7 293.166C125.879 295.939 123.729 299.213 121.25 304H0V352.5H96L82.25 373.75C80.4167 376.917 79.5 380 79.5 383C79.5 387.333 81.1667 391.167 84.5 394.5C87.8333 397.833 91 399.75 94 400.25C115.5 402.417 143.167 406.75 177 413.25C120.333 425.917 64 432.25 8 432.25L20.25 480C125.083 476.167 201.083 463.75 248.25 442.75L257.25 438.75C338.583 459.083 385.917 472.667 399.25 479.5L433.75 425.75C414.25 419.25 378.5 409.75 326.5 397.25C341.667 382.583 353.833 367.667 363 352.5ZM251.75 386C210.75 377.167 178.75 370.583 155.75 366.25L164 352.5H288.75C277.75 366.333 265.417 377.5 251.75 386ZM313 160H128V192H313V160ZM128 224H313V256H128V224Z" fill="black"/>
<path d="M448 176V64H256V32H192V64H0V176H48V112H400V176H448Z" fill="black"/>
</svg>
