<svg width="448" height="512" viewBox="0 0 448 512" version="1.1" xmlns="http://www.w3.org/2000/svg"><path fill="currentColor" d="M384 464V480H448V256H192V480H256V464H384ZM384 336H256V304H384V336ZM256 416V384H384V416H256ZM171 279.25L165.75 227.5C159.417 230 146.833 233.917 128 239.25V160H160V112H128V32H64V112H16V160H64V255.75C33.8333 262.917 13.1667 271.833 0 273.5L11.25 327L64 313V406.25C64 416.083 58.75 421 48.25 421H9.75L17 480H71.75C87.4167 480 100.5 474.667 111 466C121.5 457.167 128 444.833 128 429V295C147 288.833 161.333 283.583 171 279.25ZM448 175.5V118.5L393.5 112C393.5 143.333 391.417 161.083 387.25 165.25C382.75 169.417 368.833 171.5 329.5 171.5C314 171.5 299.75 171.083 286.75 170.25C276.583 169.75 269.333 169.167 265 168.5C262 167.833 259.75 166.417 258.25 164.25C256.583 161.75 255.75 158.917 255.75 155.75V137C352.083 120.333 408.583 104.917 441.25 90.75L408 39.5C380 53.3333 334.833 68.1667 256 84V32H192V173.5C192 189.167 197 201.25 206 209.75C215.167 218.417 231.75 223.5 255.75 225C278.917 226.667 301.083 227.5 322.25 227.5C383.75 227.5 413.5 223.167 427.5 214.5C441.167 205.833 448 192.833 448 175.5Z"></path></svg>