<svg width="448" height="512" viewBox="0 0 448 512" version="1.1" xmlns="http://www.w3.org/2000/svg"><path fill="currentColor" d="M132.5 301.75L76 283C70.6667 301.667 61.0833 327.75 47.25 361.25C32.75 396.583 17.9167 425.25 2.75 447.25L59 480C73.5 456.667 88 427.417 102.5 392.25C117.5 355.917 127.5 325.75 132.5 301.75ZM115.75 219.25C96.4167 199.917 68.9167 176.75 33.25 149.75L0 198C30.8333 222.667 57.6667 246.833 80.5 270.5L115.75 219.25ZM136.5 110.5C120.5 94.5 92.75 71 53.25 40L17.75 86.75C48.75 112.75 76.25 137.75 100.25 161.75L136.5 110.5ZM448 480V415.75H322.25V320H433V256H322.25V193H448V128H332L346 113.5C320.5 86.3333 292.583 59.1667 262.25 32L212.5 69.75C237.167 93.0833 255.667 114.667 268 128H128V193H255.5V256H145V320H255.5V415.75H128V480H448Z"></path></svg>