<svg xmlns="http://www.w3.org/2000/svg" width="512" height="512" viewBox="0 0 512 512"><path d="m 28.75,291.45 c 42.84,43.42 120.28,36.08 182.99,-13.66 L 420.8,488.28 c 10.23,10.3 26.99,10.29 37.22,0 l 9.73,-9.78 c 10.23,-10.29 10.23,-27.13 0,-37.43 l -61.32,-61.74 26.96,-27.12 35.83,36.04 c 1.77,1.77 4.65,1.77 6.42,0 l 35.04,-35.24 c 0.88,-0.89 1.32,-2.05 1.32,-3.22 0,-1.17 -0.44,-2.34 -1.32,-3.23 L 410.78,246.1 c -1.77,-1.77 -4.65,-1.77 -6.42,0 l -35.04,35.24 c -1.76,1.77 -1.76,4.67 0,6.45 l 35.84,36.03 -26.95,27.1 L 257.52,229.4 C 303.1,165 308.38,87.27 266.23,44.55 217.92,-4.41 125.6,11.16 60.02,79.33 -5.56,147.51 -19.56,242.48 28.75,291.45 Z m 134,-99.66 c 6.61,18.27 3.9,36.08 -14.37,54.35 -18.27,18.28 -57.21,21.83 -79.03,0 -21.82,-21.82 -18.27,-60.75 0,-79.03 18.27,-18.27 36.08,-20.97 54.35,-14.37 3.4,1.23 8.06,6.1 11.31,2.78 3.32,-3.25 -1.55,-7.91 -2.78,-11.31 -6.6,-18.27 -3.9,-36.08 14.37,-54.35 18.28,-18.28 57.21,-21.83 79.03,0 21.83,21.82 18.28,60.75 0,79.03 -18.27,18.27 -36.07,20.97 -54.34,14.37 -3.41,-1.23 -8.07,-6.1 -11.32,-2.78 -3.31,3.25 1.55,7.91 2.78,11.31 z"/></svg>