<svg width="416" height="512" viewBox="0 0 416 512" fill="none" xmlns="http://www.w3.org/2000/svg">
<path fill-rule="evenodd" clip-rule="evenodd" d="M208 160C252.183 160 288 124.183 288 80C288 35.8172 252.183 0 208 0C163.817 0 128 35.8172 128 80C128 124.183 163.817 160 208 160ZM168 80C168 57.9086 185.909 40 208 40C212.418 40 216 36.4183 216 32C216 27.5817 212.418 24 208 24C177.072 24 152 49.0721 152 80C152 84.4183 155.582 88 160 88C164.418 88 168 84.4183 168 80Z" fill="black"/>
<path d="M96.0011 80H32C14.3269 80 0 94.3269 0 112V480C0 497.673 14.3269 512 32 512H256V384C256 366.327 270.327 352 288 352H416V112C416 94.3269 401.673 80 384 80H318.999C318.73 141.35 268.913 191 207.5 191C146.087 191 96.2704 141.35 96.0011 80Z" fill="black"/>
<path d="M290.745 512H288V384H416V386.745C416 395.232 412.629 403.371 406.627 409.373L313.373 502.627C307.371 508.629 299.232 512 290.745 512Z" fill="black"/>
</svg>
