<svg width="416" height="512" viewBox="0 0 416 512" version="1.1" xmlns="http://www.w3.org/2000/svg"><path fill="currentColor" d="M290.745,512l-2.745,0l0,-128l128,0l0,2.745c0,8.487 -3.371,16.626 -9.373,22.628l-93.254,93.254c-5.987,5.987 -14.1,9.356 -22.628,9.373Zm-194.744,-432c0.303,61.383 50.107,111 111.499,111c61.392,0 111.197,-49.617 111.499,-111l65.001,0c17.703,0.03 32,14.346 32,32l0,240l-128,0c-17.673,0 -32,14.327 -32,32l0,128l-224,0c-17.673,0 -32,-14.327 -32,-32l0,-368c0,-17.654 14.297,-31.97 32,-32l64.001,0Zm111.999,80c44.183,0 80,-35.817 80,-80c0,-44.183 -35.817,-80 -80,-80c-44.183,0 -80,35.817 -80,80c0,44.183 35.817,80 80,80Zm-40,-80c0,4.418 -3.582,8 -8,8c-4.418,0 -8,-3.582 -8,-8c0,-30.928 25.072,-56 56,-56c4.418,0 8,3.582 8,8c0,4.418 -3.582,8 -8,8c-22.091,0 -40,17.909 -40,40Z"></path></svg>