<svg width="480" height="512" viewBox="0 0 480 512" fill="none" xmlns="http://www.w3.org/2000/svg">
<path d="M96 128C131.346 128 160 99.3462 160 64C160 28.6538 131.346 0 96 0C60.6538 0 32 28.6538 32 64C32 99.3462 60.6538 128 96 128Z" fill="black"/>
<path d="M32.7143 144C14.6467 144 0 158.647 0 176.714V320C0 337.673 14.3269 352 32 352V488C32 501.255 42.7452 512 56 512H136C149.255 512 160 501.255 160 488V352C177.673 352 192 337.673 192 320V175.714C192 158.199 177.801 144 160.286 144H149.429C149.429 144 119.655 159.857 96 159.857C72.3454 159.857 43.5714 144 43.5714 144H32.7143Z" fill="black"/>
<path d="M416 64C416 99.3462 387.346 128 352 128C316.654 128 288 99.3462 288 64C288 28.6538 316.654 0 352 0C387.346 0 416 28.6538 416 64Z" fill="black"/>
<path d="M307.714 144C296.669 144 286.995 151.403 284.108 162.064L234.932 343.635C229.423 363.978 244.743 384 265.82 384H304V488C304 501.255 314.745 512 328 512H376C389.255 512 400 501.255 400 488V384H438.348C459.373 384 474.685 364.07 469.268 343.755L421.08 163.049C418.084 151.816 407.911 144 396.286 144H389.429C389.429 144 375.655 158.857 352 158.857C328.345 158.857 314.571 144 314.571 144H307.714Z" fill="black"/>
</svg>
