<svg width="480" height="512" viewBox="0 0 480 512" version="1.1" xmlns="http://www.w3.org/2000/svg"><path fill="currentColor" d="M43.571,144c0.81,0.443 29.107,15.857 52.429,15.857c23.322,0 52.592,-15.414 53.429,-15.857l10.857,0c17.568,0.053 31.714,14.232 31.714,31.714l0,144.286c0,17.673 -14.327,32 -32,32l0,136c0,13.255 -10.745,24 -24,24l-80,0c-13.255,0 -24,-10.745 -24,-24l0,-136c-17.673,0 -32,-14.327 -32,-32l0,-143.286c0,-18.042 14.605,-32.673 32.714,-32.714l10.857,0Zm271,0c0.521,0.553 14.218,14.857 37.429,14.857c23.211,0 36.908,-14.304 37.429,-14.857l6.857,0c11.676,0.039 21.806,7.844 24.794,19.049l48.188,180.706c5.417,20.315 -9.895,40.245 -30.92,40.245l-38.348,0l0,104c0,13.255 -10.745,24 -24,24l-48,0c-13.255,0 -24,-10.745 -24,-24l0,-104l-38.18,0c-21.12,-0.056 -36.389,-20.051 -30.888,-40.365l49.176,-181.571c2.88,-10.634 12.513,-18.027 23.606,-18.064l6.857,0Zm-218.571,-16c35.346,0 64,-28.654 64,-64c0,-35.346 -28.654,-64 -64,-64c-35.346,0 -64,28.654 -64,64c0,35.346 28.654,64 64,64Zm320,-64c0,35.346 -28.654,64 -64,64c-35.346,0 -64,-28.654 -64,-64c0,-35.346 28.654,-64 64,-64c35.346,0 64,28.654 64,64Z"></path></svg>