<svg xmlns="http://www.w3.org/2000/svg" width="320" height="512" viewBox="0 0 320 512"><path d="M160 0c35.34 0 64 28.65 64 64s-28.65 64-64 64-64-28.65-64-64 28.65-64 64-64zM80 197.65v291.37c0 13.4 5.98 22.98 19.4 22.98h25.2c13.42 0 19.4-9.56 19.4-22.98V353.91h32v135.11c0 13.42 5.98 22.98 19.4 22.98h25.2c13.42 0 19.4-9.58 19.4-22.98V197.65h21.64c7.97 0 10.36 15.6 10.36 20.52V312c0 13.2 10.8 24 24 24s24-10.8 24-24V198c0-28-26-54-54-54H54c-28 0-54 26-54 54v114c0 13.2 10.8 24 24 24s24-10.8 24-24v-93.83c0-4.92 2.39-20.52 10.36-20.52H80z"/></svg>