<svg width="384" height="512" viewBox="0 0 384 512" version="1.1" xmlns="http://www.w3.org/2000/svg"><path fill="currentColor" d="M203.567 158.14C187.884 167.221 166.071 179.875 138.126 196.103C110.182 212.33 88.3684 225.068 72.6861 234.317C53.3335 228.263 37.1507 217.333 24.1377 201.526L21.385 203.291C19.383 204.469 17.2141 204.763 14.8785 204.174C12.5428 203.586 10.7076 202.282 9.37298 200.264L1.11475 185.887C-0.0530832 183.869 -0.303333 181.599 0.363999 179.076C1.03133 176.554 2.366 174.62 4.36799 173.275L7.12074 171.761C-1.72141 148.555 -1.92996 124.97 6.49511 101.008C14.9202 77.0446 30.0603 58.7571 51.9154 46.1451C74.1042 33.3649 97.4608 29.2449 121.985 33.7853C146.51 38.3256 166.613 50.265 182.295 69.6035L185.048 67.8378C187.384 66.6607 189.719 66.4505 192.055 67.2072C194.391 67.964 196.226 69.3513 197.561 71.3692L205.569 85.747C206.736 87.7649 207.028 89.951 206.445 92.3052C205.861 94.6595 204.568 96.5092 202.566 97.8546L199.312 99.6202C206.319 118.286 207.737 137.793 203.567 158.14ZM266.88 442.921C273.053 454.86 280.769 464.025 290.028 470.415C299.287 476.805 309.255 480 319.933 480C338.618 480 354.008 473.82 366.104 461.46C378.199 449.1 384.163 433.756 383.997 415.426C383.997 409.541 383.538 403.655 382.62 397.769C381.703 391.884 380.743 386.923 379.742 382.887C378.741 378.851 377.198 374.269 375.113 369.14C373.027 364.011 371.484 360.396 370.483 358.294C369.482 356.192 367.814 352.912 365.478 348.456C363.142 344 361.891 341.52 361.724 341.015C358.054 333.952 354.259 329.16 350.338 326.637C346.417 324.115 343.206 323.526 340.703 324.872C339.035 325.712 337.867 327.31 337.2 329.664C336.533 332.018 336.616 335.087 337.45 338.871C338.284 342.655 339.869 346.648 342.205 350.852C347.043 359.261 351.84 370.317 356.594 384.022C361.349 397.727 363.726 408.868 363.726 417.444C363.726 428.375 359.18 437.876 350.088 445.947C340.995 454.019 330.527 458.055 318.681 458.055C309.005 458.055 298.661 448.974 287.651 430.813L289.652 429.552C294.157 426.861 297.494 424.381 299.662 422.111C301.831 419.84 303.166 416.856 303.666 413.156C304.167 409.457 303.166 405.253 300.663 400.544L206.069 182.355L165.278 206.066L186.049 242.137C187.05 243.818 187.259 245.71 186.675 247.812C186.091 249.914 184.965 251.469 183.296 252.478L173.537 258.028L163.777 263.577C161.942 264.754 160.065 265.048 158.146 264.46C156.228 263.871 154.685 262.652 153.517 260.802L132.996 224.984L92.2056 248.695L232.345 440.398C237.017 446.62 241.771 450.025 246.61 450.614C251.448 451.202 256.87 449.479 262.876 445.443L266.88 442.921Z"></path></svg>