<svg width="544" height="512" viewBox="0 0 544 512" version="1.1" xmlns="http://www.w3.org/2000/svg"><path fill="currentColor" d="M336 48C336 30.3269 321.673 16 304 16L240 16C222.327 16 208 30.3269 208 48L208 168.781C191.576 204.561 171.382 242.914 150.776 269.309C130.007 295.913 96.5681 326.066 66.9006 350.421C65.8889 351.251 64.8839 352.073 63.8863 352.886L27.3137 316.314C17.2343 306.234 0 313.373 0 327.627V433C0 441.837 7.16345 449 16 449H121.373C135.627 449 142.766 431.766 132.686 421.686L109.363 398.363C139.35 373.639 176.387 340.506 201.224 308.691C215.051 290.979 228.151 269.765 240 248.021V384H190.879C168.841 384 158.455 411.213 174.888 425.896L255.342 497.785C264.414 505.892 278.117 505.927 287.231 497.868L368.528 425.979C385.082 411.34 374.728 384 352.629 384H304V248.021C315.849 269.765 328.949 290.979 342.776 308.691C367.613 340.506 404.65 373.639 434.637 398.363L411.314 421.686C401.234 431.766 408.373 449 422.627 449H528C536.837 449 544 441.837 544 433V327.627C544 313.373 526.766 306.234 516.686 316.314L480.114 352.886C479.116 352.073 478.111 351.251 477.099 350.421C447.432 326.066 413.993 295.913 393.224 269.309C372.618 242.914 352.424 204.561 336 168.781V48Z"></path></svg>