<svg width="160" height="512" viewBox="0 0 160 512" version="1.1" xmlns="http://www.w3.org/2000/svg"><path fill="currentColor" d="M56.875,144l46.25,0l2.5,0.125c1.667,0.083 2.458,0.292 2.375,0.625c-0.083,0.333 0.458,0.792 1.625,1.375c1.167,0.583 1.667,1.292 1.5,2.125c-0.167,0.833 0.125,1.917 0.875,3.25l48,248.5l-80,80l-80,-80l48,-248.5c0.75,-1.333 1.042,-2.417 0.875,-3.25c-0.167,-0.833 0.333,-1.542 1.5,-2.125c1.167,-0.583 1.708,-1.042 1.625,-1.375c-0.083,-0.333 0.708,-0.542 2.375,-0.625l2.5,-0.125Zm39.125,-16l-32,0c-7.333,-0.167 -13,-0.833 -17,-2c-4,-1.167 -6.792,-2.583 -8.375,-4.25c-1.583,-1.667 -3.375,-4.167 -5.375,-7.5c-0.5,-1 -0.917,-1.75 -1.25,-2.25l-30.5,-48c-2.5,-7.167 -0.792,-14.25 5.125,-21.25c5.917,-7 14.375,-10.583 25.375,-10.75l96,0c11,0.167 19.458,3.75 25.375,10.75c5.917,7 7.625,14.083 5.125,21.25l-30.5,48c-0.333,0.5 -0.75,1.25 -1.25,2.25c-2,3.333 -3.792,5.833 -5.375,7.5c-1.583,1.667 -4.375,3.083 -8.375,4.25c-3.982,1.162 -9.617,1.827 -17,2Z"></path></svg>