<svg width="512" height="512" viewBox="0 0 512 512" fill="none" xmlns="http://www.w3.org/2000/svg">
<path d="M102.5 193H344.5C361.786 193 374.57 200.764 382.853 216.292C391.135 231.819 394.665 246.16 393.585 271.979C393.225 280.646 390.929 288.545 386.698 295.677C382.466 302.809 377.334 308.361 371.302 312.333C365.27 316.306 359.238 319.33 353.206 321.406C347.174 323.483 341.638 324.521 336.596 324.521C323.992 324.521 312.513 323.347 302.16 321C291.806 318.653 283.388 315.809 276.906 312.469C270.424 309.128 264.437 305.833 258.945 302.583C253.453 299.333 247.737 296.535 241.795 294.188C235.853 291.84 229.731 290.667 223.429 290.667C215.866 290.667 208.214 292.427 200.471 295.948C192.728 299.469 185.706 303.351 179.404 307.594C173.102 311.837 163.874 315.719 151.72 319.24C139.566 322.76 125.746 324.521 110.261 324.521C105.219 324.521 99.6827 323.483 93.6507 321.406C87.6187 319.33 81.5417 316.306 75.4196 312.333C69.2976 308.361 64.1209 302.809 59.8895 295.677C55.6581 288.545 53.3624 280.646 53.0022 271.979C52.1019 245.979 55.8646 231.594 64.1473 216.156C72.43 200.719 85.2143 193 102.5 193ZM223.429 464C251.518 464 278.347 458.493 303.915 447.479C329.484 436.465 351.541 421.705 370.087 403.198C388.633 384.691 403.353 362.573 414.247 336.844C425.14 311.115 430.587 284.167 430.587 256C430.587 234.694 427.616 214.382 421.674 195.062L477.042 239.208L500 186.667L415.462 177.458C415.282 177.097 415.102 176.646 414.922 176.104C414.742 175.562 414.562 175.066 414.382 174.615C414.202 174.163 414.022 173.757 413.842 173.396L495.409 139.542L461.107 92.6875L409.25 163.917C392.144 129.069 366.936 101.038 333.625 79.8229C300.314 58.6076 263.582 48 223.429 48C185.796 48 151.09 57.2986 119.309 75.8958C87.5287 94.4931 62.3653 119.726 43.8192 151.594C25.2731 183.462 16 218.264 16 256C16 293.736 25.2731 328.538 43.8192 360.406C62.3653 392.274 87.5287 417.507 119.309 436.104C151.09 454.701 185.796 464 223.429 464ZM99.1875 200.208L85.1429 238.667L118.904 237.854C113.862 243.812 111.342 251.396 111.342 260.604C111.342 268.549 114.087 275.545 119.579 281.594C125.071 287.642 130.878 290.667 137 290.667C143.302 290.667 148.929 287.688 153.881 281.729C158.832 275.771 161.308 268.729 161.308 260.604C161.308 256.09 160.678 252.208 159.417 248.958L194.799 256.542L201.551 240.021L99.1875 200.208ZM347.67 200.208L245.306 240.021L252.058 256.542L287.44 248.958C286.179 252.208 285.549 256.09 285.549 260.604C285.549 268.729 288.025 275.771 292.977 281.729C297.928 287.688 303.555 290.667 309.857 290.667C315.979 290.667 321.786 287.642 327.278 281.594C332.77 275.545 335.516 268.549 335.516 260.604C335.516 251.396 332.995 243.812 327.953 237.854L361.714 238.667L347.67 200.208Z" fill="black"/>
</svg>
