<svg width="416" height="512" viewBox="0 0 416 512" fill="none" xmlns="http://www.w3.org/2000/svg">
<path fill-rule="evenodd" clip-rule="evenodd" d="M240 72C240 32.2355 207.764 0 168 0C128.236 0 96 32.2355 96 72V80H32C14.3269 80 0 94.3269 0 112V480C0 497.673 14.3269 512 32 512H256V384C256 366.327 270.327 352 288 352H416V112C416 94.3269 401.673 80 384 80H240V72ZM208 80V72C208 49.9086 190.091 32 168 32C145.909 32 128 49.9086 128 72V80H96V264C96 294.928 121.072 320 152 320C182.928 320 208 294.928 208 264V117.333H176V264C176 277.255 165.255 288 152 288C138.745 288 128 277.255 128 264V80H208Z" fill="black"/>
<path d="M288 512H290.745C299.232 512 307.371 508.629 313.373 502.627L406.627 409.373C412.629 403.371 416 395.232 416 386.745V384H288V512Z" fill="black"/>
</svg>
