<svg width="416" height="512" viewBox="0 0 416 512" version="1.1" xmlns="http://www.w3.org/2000/svg"><path fill="currentColor" d="M256,512l-204,0c-28.719,0 -52,-23.281 -52,-52l0,-328c0,-28.719 23.281,-52 52,-52l44,0l0,-8c0,-39.765 32.236,-72 72,-72c39.764,0 72,32.236 72,72l0,8l124,0c28.719,0 52,23.281 52,52l0,220l-0.296,0c-1.259,11.755 -6.497,22.793 -14.934,31.23l-113.54,113.54c-8.437,8.437 -19.475,13.675 -31.23,14.934l0,0.296Zm-160,-400l-44,0c-11.071,0.025 -20,8.97 -20,20l0,328c0,11.046 8.954,20 20,20l172,0l0,-96c0,-35.346 28.654,-64 64,-64l96,0l0,-188c0,-11.03 -8.929,-19.975 -20,-20l-236,0l0,152c0,13.255 10.745,24 24,24c13.255,0 24,-10.745 24,-24l0,-120l32,0l0,120c0,30.928 -25.072,56 -56,56c-30.928,0 -56,-25.072 -56,-56l0,-152Zm160,367.218c3.222,-0.929 6.189,-2.662 8.603,-5.076l113.539,-113.539c2.414,-2.414 4.147,-5.381 5.076,-8.603l-95.218,0c-17.673,0 -32,14.327 -32,32l0,95.218Zm-48,-399.218l0,-8c0,-22.091 -17.909,-40 -40,-40c-22.091,0 -40,17.909 -40,40l0,8l80,0Z"></path></svg>