<svg width="416" height="512" viewBox="0 0 416 512" version="1.1" xmlns="http://www.w3.org/2000/svg"><path fill="currentColor" d="M256,512l-224,0c-17.673,0 -32,-14.327 -32,-32l0,-368c0,-17.64 14.273,-31.946 32,-32l64,0l0,-8c0,-39.765 32.236,-72 72,-72c39.764,0 72,32.236 72,72l0,8l144,0c17.727,0.054 32,14.36 32,32l0,240l-128,0c-17.727,0.054 -32,14.36 -32,32l0,128Zm160,-128l0,2.745c0,8.487 -3.371,16.626 -9.373,22.628l-93.254,93.254c-6.002,6.002 -14.141,9.373 -22.628,9.373l-2.745,0l0,-128l128,0Zm-240,-266.667l0,146.667c0,13.255 -10.745,24 -24,24c-13.255,0 -24,-10.745 -24,-24l0,-184l80,0l0,-8c0,-22.091 -17.909,-40 -40,-40c-22.091,0 -40,17.909 -40,40l0,8l-32,0l0,184c0,30.928 25.072,56 56,56c30.928,0 56,-25.072 56,-56l0,-146.667l-32,0Z"></path></svg>