<svg width="512" height="512" viewBox="0 0 512 512" fill="none" xmlns="http://www.w3.org/2000/svg">
<path d="M80 160C115.346 160 144 131.346 144 96C144 60.6538 115.346 32 80 32C44.6538 32 16 60.6538 16 96C16 131.346 44.6538 160 80 160Z" fill="black"/>
<path d="M27.2619 176C12.2056 176 0 188.206 0 203.262V304C0 321.673 14.3269 336 32 336V456C32 469.255 42.7452 480 56 480H104C117.255 480 128 469.255 128 456V336C145.673 336 160 321.673 160 304V202.429C160 187.832 148.168 176 133.571 176H124.524C124.524 176 99.7121 189.789 80 189.789C60.2879 189.789 36.3095 176 36.3095 176H27.2619Z" fill="black"/>
<path d="M256 160C291.346 160 320 131.346 320 96C320 60.6538 291.346 32 256 32C220.654 32 192 60.6538 192 96C192 131.346 220.654 160 256 160Z" fill="black"/>
<path d="M203.262 176C188.206 176 176 188.206 176 203.262V304C176 321.673 190.327 336 208 336V456C208 469.255 218.745 480 232 480H280C293.255 480 304 469.255 304 456V336C321.673 336 336 321.673 336 304V202.429C336 187.832 324.168 176 309.571 176H300.524C300.524 176 275.712 189.789 256 189.789C236.288 189.789 212.31 176 212.31 176H203.262Z" fill="black"/>
<path d="M496 96C496 131.346 467.346 160 432 160C396.654 160 368 131.346 368 96C368 60.6538 396.654 32 432 32C467.346 32 496 60.6538 496 96Z" fill="black"/>
<path d="M352 203.262C352 188.206 364.206 176 379.262 176H388.31C388.31 176 412.288 189.789 432 189.789C451.712 189.789 476.524 176 476.524 176H485.571C500.168 176 512 187.832 512 202.429V304C512 321.673 497.673 336 480 336V456C480 469.255 469.255 480 456 480H408C394.745 480 384 469.255 384 456V336C366.327 336 352 321.673 352 304V203.262Z" fill="black"/>
</svg>
