<svg xmlns="http://www.w3.org/2000/svg" width="320" height="512" viewBox="0 0 320 512"><path d="M240 64c0 35.35-28.65 64-64 64s-64-28.65-64-64 28.65-64 64-64 64 28.65 64 64zm28.69 198.31c-11.74-10-29.21-8.2-39.98 2.92l-4.23 4.35-4.22-4.35c-10.76-11.12-28.24-12.92-39.98-2.92-13.46 11.49-14.17 32.1-2.13 44.55l41.47 42.82a6.728 6.728 0 0 0 9.71 0l41.46-42.82c12.06-12.45 11.36-33.06-2.1-44.55zm-200.8-96.28L3.92 265.85c-7.24 11.37-4.17 26.64 6.86 34.11 11.03 7.46 25.85 4.3 33.09-7.07 18-28.08 35.99-56.17 53.98-84.25 5.72-8.93 11.58-13.04 17.81-13.7 1.93 12.19 3.78 24.35 5.12 36.77v23.71c-9.06 39.36-17.48 79.89-27.39 118.93-2.07 8.05-3.75 14.56 3.26 21.4 3.72 3.62 7.76 4.33 12.83 4.33L128 400v80c0 18.04 14.06 32 32 32h32c18.4-.08 32-13.68 32-32v-80h48c10.51 0 17.48-5.37 17.48-16.25v-32c22.1-16.37 32-36.75 32-64C321.48 250.98 288 224 256 208c-8.7-4.35-10.68-18.98-16-32-7.55-18.48-21.86-32-43.43-32h-75.79c-18.3 0-42.57 5.82-52.89 22.03z"/></svg>