<svg width="288" height="512" viewBox="0 0 288 512" version="1.1" xmlns="http://www.w3.org/2000/svg"><path fill="currentColor" d="M76.598,224.023l-27.1,87.429c-4.358,17.698 -31.929,17.601 -41.72,8.201c-11.435,-10.978 -8.079,-21.71 -3.676,-34.587l34.22,-110.679c2.873,-9.223 9.337,-16.593 19.391,-22.111c10.055,-5.517 20.744,-8.276 32.066,-8.276l75.79,0c21.575,0 31.38,22.377 39.394,40.67c1.264,2.885 2.484,5.668 3.698,8.246c1.859,3.788 5.957,7.988 12.294,12.6c6.337,4.611 13.138,9.388 20.405,14.329c7.266,4.941 14.49,10.582 21.672,16.923c7.182,6.341 13.139,14.287 17.871,23.84c4.731,9.553 7.097,20.094 7.097,31.623c0,13.67 -2.704,26.352 -8.111,38.046c-5.408,11.693 -15.519,21.84 -23.968,28.099l0,25.693c0,6.588 -1.141,9.282 -3.422,12.081c-2.282,2.8 -4.126,4.03 -11.9,4.03l-48.837,-0.106l0,79.562c0,9.059 -3.042,16.717 -9.125,22.976c-6.043,6.217 -13.587,9.346 -22.813,9.388l-31.601,0c-8.956,0 -16.645,-3.171 -23.067,-9.511c-6.421,-6.341 -9.632,-13.959 -9.632,-22.853l0,-79.562l-17.042,0c-5.07,0 -9.112,-0.706 -12.83,-4.329c-7.011,-6.833 -5.333,-13.344 -3.256,-21.401c0.044,-0.172 0.089,-0.345 0.133,-0.518l0.081,-0.316l27.169,-118.09l0,-31.397l-13.181,0Zm118.016,122.672l5.175,5.075l0.053,-0.053l0.295,0.283l44.418,-43.187c6.903,-6.591 10.719,-13.528 11.445,-20.813c0,-9.192 -2.544,-16.823 -7.63,-22.895c-5.087,-6.07 -11.99,-9.105 -20.71,-9.105c-8.721,0 -15.397,2.255 -20.03,6.765c-4.586,4.464 -7.081,10.374 -7.482,17.729c-0.006,0.037 -0.011,0.073 -0.017,0.11c-0.384,-7.406 -2.971,-13.353 -7.761,-17.839c-4.814,-4.51 -11.673,-6.765 -20.575,-6.765c-8.72,0 -15.532,3.035 -20.437,9.105c-4.905,6.072 -7.358,13.703 -7.358,22.895c0.726,7.458 4.451,14.395 11.173,20.813l39.441,37.882Zm14.386,-282.695c0,35.346 -28.654,64 -64,64c-35.346,0 -64,-28.654 -64,-64c0,-35.346 28.654,-64 64,-64c35.346,0 64,28.654 64,64Z"></path></svg>