<svg xmlns="http://www.w3.org/2000/svg" width="320" height="512" viewBox="0 0 320 512"><path d="M240 64c0 35.35-28.65 64-64 64s-64-28.65-64-64 28.65-64 64-64 64 28.65 64 64zm-11.29 201.23c10.56-10.89 28.13-13.03 39.98-2.92 13.46 11.48 14.16 32.1 2.1 44.55l-41.46 42.82a6.728 6.728 0 0 1-9.71 0l-41.47-42.82c-12.05-12.44-11.33-33.07 2.13-44.55 11.74-10.01 29.2-8.18 39.98 2.92l4.22 4.35 4.23-4.35zm-160.82-99.2L3.92 265.85c-7.24 11.37-4.17 26.64 6.86 34.11 11.03 7.46 25.85 4.3 33.09-7.07 18-28.08 35.99-56.17 53.98-84.25 5.72-8.93 11.58-13.04 17.81-13.7 1.93 12.19 3.78 24.35 5.12 36.77v23.71c-9.06 39.36-17.48 79.89-27.39 118.93-2.07 8.05-3.75 14.56 3.26 21.4 3.72 3.62 7.76 4.33 12.83 4.33L128 400v80c0 18.04 14.06 32 32 32h32c18.4-.08 32-13.68 32-32v-80h48c10.51 0 17.48-5.37 17.48-16.25v-16c22.1-16.37 32-36.75 32-64C321.48 247.61 288 224 256 208c-8.7-4.35-26.68-18.98-32-32-7.55-18.48-5.86-32-27.43-32h-75.79c-18.3 0-42.57 5.82-52.89 22.03z"/></svg>