<svg xmlns="http://www.w3.org/2000/svg" width="288" height="512" viewBox="0 0 288 512"><path d="M208 64c0 35.35-28.65 64-64 64S80 99.35 80 64s28.65-64 64-64 64 28.65 64 64zM58.08 153.71c9.82-5.22 19.68-9.71 30.7-9.71h75.79c21.57 0 31.84 22.18 39.39 40.67 10.38 25.4 25.18 23.72 46.29 42.35C266.16 241.07 288 259.56 288 288c0 27.25-9.9 47.63-32 64v32c0 10.88-6.97 16.25-17.48 16.25L192 400v80c0 18.32-13.6 31.92-32 32h-32c-17.94 0-32-13.96-32-32v-80l-18.52.08c-5.07 0-9.11-.71-12.83-4.33-7.01-6.83-5.33-13.34-3.25-21.4 9.9-39.04 18.32-79.57 27.38-118.93V208h-2.55c-4.97 0-8.2 6.63-9.6 11.38l-24.41 82.34c-3.21 12.84-21.22 20.65-34.06 17.44C5.32 315.95-2.49 302.94.72 290.1l38.54-114.16c3.16-9.34 10.28-16.85 18.82-22.23zm178.13 108.86c-11.74-10.01-29.21-8.21-39.99 2.91l-4.22 4.35-4.22-4.35c-10.76-11.12-28.24-12.92-39.98-2.91-13.46 11.48-14.17 32.09-2.13 44.55l41.47 42.81c2.68 2.76 7.03 2.76 9.7 0l41.47-42.81c12.06-12.46 11.35-33.07-2.1-44.55z"/></svg>