<svg width="480" height="512" viewBox="0 0 480 512" version="1.1" xmlns="http://www.w3.org/2000/svg"><path fill="currentColor" d="M224.042 502.494C233.841 508.486 246.159 508.486 255.958 502.494C275.045 490.82 292.726 478.876 309 466.662C329.72 451.11 347.84 436.077 363.36 421.563C378.88 407.048 392.68 391.417 404.76 374.669C416.84 357.921 426.96 342.37 435.12 328.015C443.28 313.66 450.2 297.351 455.88 279.088C461.56 260.825 465.96 244.476 469.08 230.041C472.2 215.606 474.6 198.38 476.28 178.363C477.96 158.345 479 140.999 479.4 126.325C479.644 117.388 479.813 107.149 479.908 95.6083C480.025 81.4672 470.717 68.9996 457.169 64.9477L258.338 5.48415C246.374 1.90633 233.626 1.90633 221.662 5.48415L22.8311 64.9477C9.28243 68.9996 -0.0250434 81.4672 0.0916613 95.6083C0.186904 107.149 0.356336 117.388 0.599955 126.325C0.999957 140.999 2.03996 158.345 3.71996 178.363C5.39996 198.38 7.79996 215.606 10.92 230.041C14.04 244.476 18.44 260.825 24.12 279.088C29.8 297.351 36.72 313.66 44.88 328.015C53.0399 342.37 63.16 357.921 75.24 374.669C87.32 391.417 101.12 407.048 116.64 421.563C132.16 436.077 150.28 451.11 171 466.662C187.274 478.876 204.955 490.82 224.042 502.494ZM160.804 122.177C167.052 115.928 177.183 115.928 183.431 122.177L240 178.745L296.569 122.177C302.817 115.928 312.948 115.928 319.196 122.177L341.823 144.804C348.072 151.052 348.072 161.183 341.823 167.431L285.255 224L341.823 280.568C348.072 286.817 348.072 296.947 341.823 303.196L319.196 325.823C312.947 332.072 302.817 332.072 296.568 325.823L240 269.255L183.431 325.823C177.183 332.072 167.052 332.072 160.804 325.823L138.177 303.196C131.928 296.947 131.928 286.817 138.177 280.568L194.745 224L138.176 167.431C131.928 161.183 131.928 151.052 138.176 144.804L160.804 122.177Z"></path></svg>