<svg width="576" height="512" viewBox="0 0 576 512" version="1.1" xmlns="http://www.w3.org/2000/svg"><path fill="currentColor" d="M564.601,481l-137.143,0c-2.947,0 -6.027,-1.098 -8.188,-3.295c-2.16,-2.197 -3.241,-4.975 -3.241,-8.143l-0.022,-26.124c0,-4.701 1.424,-8.705 4.272,-11.974l89.6,-95.446l-82.421,0c-3.045,0 -6.027,-1.175 -8.188,-3.372c-2.16,-2.197 -3.241,-4.898 -3.241,-8.066l0,-25.142c0,-3.168 1.081,-5.946 3.241,-8.143c2.161,-2.197 5.143,-3.295 8.188,-3.295l137.522,0c3.045,0 5.648,1.098 7.809,3.295c2.161,2.197 3.241,4.975 3.241,8.143l0,25.142c0,4.7 -1.473,8.705 -4.42,11.974l-89.452,95.446l82.421,0c3.009,0.025 5.927,1.225 8.114,3.448c2.21,2.248 3.315,4.924 3.315,7.99l0.022,26.124c0,3.066 -1.105,5.818 -3.315,8.066c-2.187,2.224 -5.105,3.348 -8.114,3.372Zm-207.625,-321c3.1,0.023 5.671,1.121 7.809,3.295c2.161,2.197 3.241,4.975 3.241,8.143l0,25.142c0,4.701 -1.473,8.705 -4.42,11.974l-89.451,95.446l82.42,0c2.947,0 5.904,1.201 8.114,3.448c2.21,2.248 3.315,4.924 3.315,7.99l0.022,26.124c0,3.066 -1.105,5.818 -3.315,8.066c-2.21,2.248 -5.167,3.372 -8.113,3.372l-137.143,0c-2.947,0 -6.027,-1.098 -8.188,-3.295c-2.16,-2.197 -3.241,-4.975 -3.241,-8.143l-0.022,-26.124c0,-4.701 1.424,-8.705 4.272,-11.974l89.599,-95.446l-82.42,0c-3.108,-0.025 -6.05,-1.198 -8.188,-3.372c-2.16,-2.197 -3.241,-4.898 -3.241,-8.066l0,-25.142c0,-3.168 1.081,-5.946 3.241,-8.143c2.138,-2.174 5.08,-3.272 8.188,-3.295l137.521,0Zm-208.019,-128c3.1,0.023 5.671,1.122 7.808,3.295c2.161,2.197 3.242,4.975 3.242,8.142l0,25.143c0,4.7 -1.474,8.705 -4.42,11.974l-89.452,95.446l82.421,0c2.946,0 5.904,1.201 8.113,3.448c2.21,2.248 3.315,4.924 3.315,7.99l0.023,26.124c0,3.066 -1.105,5.818 -3.315,8.066c-2.21,2.248 -5.167,3.372 -8.114,3.372l-137.143,0c-2.946,0 -6.026,-1.098 -8.187,-3.295c-2.161,-2.197 -3.241,-4.975 -3.241,-8.143l-0.023,-26.124c0,-4.701 1.425,-8.705 4.273,-11.974l89.599,-95.446l-82.421,0c-3.107,-0.025 -6.049,-1.198 -8.187,-3.372c-2.161,-2.197 -3.241,-4.898 -3.241,-8.066l0,-25.143c0,-3.167 1.08,-5.945 3.241,-8.142c2.138,-2.173 5.08,-3.272 8.187,-3.295l137.522,0Z"></path></svg>