<svg width="448" height="512" viewBox="0 0 448 512" version="1.1" xmlns="http://www.w3.org/2000/svg"><path fill="currentColor" d="M400,32c26.555,0.045 48,21.518 48,48l0,352c0,26.51 -21.49,48 -48,48l-352,0c-26.51,0 -48,-21.49 -48,-48l0,-352c0,-26.482 21.445,-47.955 48,-48l352,0Zm-56.303,368l53.651,-63.798c1.768,-2.169 2.652,-4.824 2.652,-7.941l0,-16.675c0,-2.101 -0.648,-3.944 -1.944,-5.401c-1.297,-1.457 -2.858,-2.185 -4.685,-2.185l-82.501,0c-1.827,0 -3.616,0.728 -4.912,2.185c-1.297,1.457 -1.945,3.3 -1.945,5.401l-0.012,16.828c0,2.101 0.648,3.893 1.944,5.35c1.297,1.457 3.086,2.236 4.912,2.236l49.446,0l-53.74,63.147c-1.709,2.168 -2.563,4.824 -2.563,7.941l0.013,17.327c0,2.1 0.648,3.943 1.945,5.4c1.296,1.457 3.144,2.185 4.912,2.185l82.274,0c1.817,-0.021 3.561,-0.766 4.867,-2.236c1.326,-1.491 1.989,-3.317 1.989,-5.349l-0.001,-16.83c0,-2.032 -0.663,-3.807 -1.989,-5.298c-1.306,-1.47 -3.049,-2.264 -4.867,-2.287l-49.446,0Zm-78.326,-208l-82.501,0c-1.877,0.021 -3.634,0.749 -4.912,2.185c-1.296,1.457 -1.945,3.3 -1.945,5.4l-0.012,16.83c0,2.1 0.648,3.892 1.944,5.349c1.279,1.436 3.036,2.214 4.912,2.236l49.446,0l-53.74,63.147c-1.709,2.168 -2.563,4.824 -2.563,7.941l0.013,17.327c0,2.1 0.649,3.943 1.945,5.4c1.296,1.457 3.144,2.185 4.912,2.185l82.274,0c1.767,0 3.542,-0.745 4.867,-2.236c1.326,-1.491 1.989,-3.317 1.989,-5.349l-0.001,-16.83c0,-2.032 -0.663,-3.807 -1.989,-5.298c-1.325,-1.491 -3.099,-2.287 -4.867,-2.287l-49.446,0l53.651,-63.798c1.768,-2.169 2.652,-4.824 2.652,-7.941l0,-16.676c0,-2.1 -0.648,-3.943 -1.944,-5.4c-1.279,-1.436 -2.814,-2.164 -4.685,-2.185Zm-177.674,-16l53.651,-63.798c1.768,-2.169 2.652,-4.824 2.652,-7.941l0,-16.675c0,-2.101 -0.648,-3.944 -1.944,-5.401c-1.297,-1.456 -2.858,-2.185 -4.685,-2.185l-82.501,0c-1.827,0 -3.616,0.729 -4.912,2.185c-1.296,1.457 -1.945,3.3 -1.945,5.401l-0.012,16.829c0,2.1 0.648,3.892 1.944,5.349c1.297,1.457 3.086,2.236 4.912,2.236l49.446,0l-53.74,63.147c-1.709,2.168 -2.563,4.824 -2.563,7.941l0.013,17.327c0,2.1 0.649,3.943 1.945,5.4c1.296,1.457 3.144,2.185 4.912,2.185l82.274,0c1.818,-0.021 3.561,-0.766 4.867,-2.236c1.326,-1.491 1.989,-3.317 1.989,-5.349l-0.001,-16.83c0,-2.032 -0.663,-3.807 -1.989,-5.298c-1.306,-1.47 -3.049,-2.264 -4.867,-2.287l-49.445,0Z"></path></svg>