<svg width="448" height="512" viewBox="0 0 448 512" fill="none" xmlns="http://www.w3.org/2000/svg">
<path fill-rule="evenodd" clip-rule="evenodd" d="M48 32C21.4903 32 0 53.4903 0 80V432C0 458.51 21.4903 480 48 480H400C426.51 480 448 458.51 448 432V80C448 53.4903 426.51 32 400 32H48ZM141.348 112.202L87.6975 176H137.143C138.911 176 140.685 176.796 142.01 178.287C143.336 179.778 143.999 181.553 143.999 183.585L144 200.415C144 202.447 143.337 204.273 142.011 205.764C140.686 207.255 138.912 208 137.144 208H54.8695C53.1018 208 51.2542 207.272 49.9578 205.815C48.6615 204.358 48.0134 202.515 48.0134 200.415L48 183.088C48 179.971 48.8544 177.315 50.5632 175.147L104.303 112H54.8571C53.0305 112 51.2418 111.221 49.9454 109.764C48.6491 108.307 48.001 106.515 48.001 104.415L48.0134 87.5855C48.0134 85.4848 48.6615 83.6424 49.9578 82.1854C51.2542 80.7285 53.0429 80 54.8695 80H137.371C139.198 80 140.759 80.7285 142.056 82.1854C143.352 83.6424 144 85.4848 144 87.5855L144 104.261C144 107.378 143.116 110.033 141.348 112.202ZM215.697 288L269.348 224.202C271.116 222.033 272 219.378 272 216.261V199.585C272 197.485 271.352 195.642 270.056 194.185C268.759 192.728 267.198 192 265.371 192H182.87C181.043 192 179.254 192.728 177.958 194.185C176.662 195.642 176.013 197.485 176.013 199.585L176.001 216.415C176.001 218.515 176.649 220.307 177.945 221.764C179.242 223.221 181.031 224 182.857 224H232.303L178.563 287.147C176.854 289.315 176 291.971 176 295.088L176.013 312.415C176.013 314.515 176.662 316.358 177.958 317.815C179.254 319.272 181.102 320 182.87 320H265.144C266.911 320 268.686 319.255 270.011 317.764C271.337 316.273 272 314.447 272 312.415L271.999 295.585C271.999 293.553 271.336 291.778 270.01 290.287C268.685 288.796 266.911 288 265.143 288H215.697ZM397.348 336.202L343.697 400H393.143C394.911 400 396.685 400.796 398.01 402.287C399.336 403.778 399.999 405.553 399.999 407.585L400 424.415C400 426.447 399.337 428.273 398.011 429.764C396.686 431.255 394.911 432 393.144 432H310.87C309.102 432 307.254 431.272 305.958 429.815C304.661 428.358 304.013 426.515 304.013 424.415L304 407.088C304 403.971 304.854 401.315 306.563 399.147L360.303 336H310.857C309.031 336 307.242 335.221 305.945 333.764C304.649 332.307 304.001 330.515 304.001 328.414L304.013 311.586C304.013 309.485 304.661 307.642 305.958 306.185C307.254 304.728 309.043 304 310.87 304H393.371C395.198 304 396.759 304.728 398.056 306.185C399.352 307.642 400 309.485 400 311.586V328.261C400 331.378 399.116 334.033 397.348 336.202Z" fill="black"/>
</svg>
