<svg width="512" height="512" viewBox="0 0 512 512" version="1.1" xmlns="http://www.w3.org/2000/svg"><path fill="currentColor" d="M512,256c0,141.385 -114.615,256 -256,256c-141.385,0 -256,-114.615 -256,-256c0,-141.385 114.615,-256 256,-256c141.385,0 256,114.615 256,256Zm-126.869,163.072l-292.203,-292.203c-28.129,35.474 -44.928,80.341 -44.928,129.131c0,114.875 93.125,208 208,208c48.79,0 93.657,-16.799 129.131,-44.928Zm-47.19,-115.072l81.131,81.131c28.129,-35.475 44.928,-80.341 44.928,-129.131c0,-114.875 -93.125,-208 -208,-208c-48.79,0 -93.656,16.799 -129.131,44.928l147.072,147.072l126.059,0c8.891,0.054 16,7.196 16,16l0,32c0,8.804 -7.109,15.946 -16,16l-62.059,0Zm-177.137,-64l64,64l-112.804,0c-8.837,0 -16,-7.163 -16,-16l0,-32c0,-8.82 7.136,-15.973 16,-16l48.804,0Zm119.196,-144c4.449,0.033 7.934,3.676 9.275,7.866c4.155,12.988 17.788,24.134 30.725,24.134c29.445,0 54.657,21.591 62.39,55.034c1.088,4.703 -2.669,8.966 -7.496,8.966l-14.394,0c-4.418,0 -7.912,-3.658 -9.236,-7.873c-4.118,-13.109 -17.866,-23.627 -31.264,-23.627c-29.445,-0.46 -54.657,-22.088 -62.39,-55.534c-1.084,-4.687 2.644,-8.938 7.496,-8.966l14.894,0Z"></path></svg>