<svg xmlns="http://www.w3.org/2000/svg" width="544" height="512" viewBox="0 0 544 512"><path d="M0 256h416v96H0v-96zm448.29-55v30c0 6.07 4.54 10 10.46 10 5.93 0 10.46-3.93 10.46-10v-30c0-16.2-2.92-32.72-17.3-42.27-8.89-5.9-23.51-7.06-33.85-7.57-14.77-.75-29.14-.15-43.97-1.72-13.19-1.4-29.65-6.22-40.7-13.6-14.5-9.67-26.33-25.27-33.34-41.09C288.8 69.38 282.84 38.54 280.92 11c-.42-6.05-4.53-10-10.46-10-5.92 0-10.93 3.95-10.46 10 2.49 32.05 9.88 69.21 23.7 98.44 8.59 18.16 24.47 34.88 41.52 45.47 11.8 7.32 32.23 12.99 46.18 14.06 16.83 1.28 34.74.51 51.56 2.66 8.48 1.07 11.84 2.87 18.25 8.23 6.1 5.1 7.08 13.7 7.08 21.14zm-56.3-170c22.03 0 39.29 5.16 51.81 15.47 12.53 10.31 18.8 25.57 18.8 45.78 19.19 0 33.72 1.3 47.73 15.62 12.21 12.5 17.65 30.21 17.65 53.13v70c0 6.07-4.54 10-10.46 10-5.93 0-10.46-3.93-10.46-10v-70c0-15-3.38-27.08-10.14-36.25-6.74-9.16-17.3-13.75-31.71-13.75h-20.92v-10c0-33.32-17.85-50-52.3-50h-31.38c-5.93 0-10.46-3.92-10.46-10s4.53-10 10.46-10h31.38zm117.56 225h20.9c7.45 0 13.55 6.1 13.55 13.55v68.9c0 7.45-6.1 13.55-13.55 13.55h-20.9c-7.45 0-13.55-6.1-13.55-13.55v-68.9c0-7.45 6.1-13.55 13.55-13.55zm-64 0h20.9c7.45 0 13.55 6.1 13.55 13.55v68.9c0 7.45-6.1 13.55-13.55 13.55h-20.9c-7.45 0-13.55-6.1-13.55-13.55v-68.9c0-7.45 6.1-13.55 13.55-13.55z"/></svg>