<svg xmlns="http://www.w3.org/2000/svg" width="544" height="512" viewBox="0 0 544 512"><path d="M0 272h185.68l63.07 112H0V272zm426.07 205.84c4.79 8.52 2.26 19.93-6.69 24.14l-16.32 7.67c-8.95 4.21-20.15 2.07-24.96-6.47L301.97 368l-54.06-96L113.96 34.16c-4.8-8.54-2.27-19.92 6.69-24.14l16.31-7.66c8.98-4.22 20.17-2.06 24.97 6.46L310.14 272H416v112h-42.78l52.85 93.84zM448 272h16c8.8 0 16 7.2 16 16v80c0 8.8-7.2 16-16 16h-16c-8.8 0-16-7.2-16-16v-80c0-8.8 7.2-16 16-16zm64 0h16c8.8 0 16 7.2 16 16v80c0 8.8-7.2 16-16 16h-16c-8.8 0-16-7.2-16-16v-80c0-8.8 7.2-16 16-16zM256 16c0-8.84 7.16-16 16-16s16 7.16 16 16v79.38C288 134 314 160 352.62 160H432c32 0 48 16 48 48v32c0 8.84-7.16 16-16 16s-16-7.16-16-16v-25.38C448 200 440 192 425.38 192H346c-48 0-90-42-90-90V16zm192 112h41.38C504 128 512 136 512 150.62V240c0 8.83 7.16 16 16 16s16-7.16 16-16v-96c0-32-16-48-48-48h-16V80c0-32-16-48-48-48h-64c-8.84 0-16 7.16-16 16 0 8.83 7.16 16 16 16h57.38C440 64 448 72 448 86.62V128z"/></svg>