<svg width="512" height="512" viewBox="0 0 512 512" fill="none" xmlns="http://www.w3.org/2000/svg">
<path d="M160.804 240H112C103.163 240 96 247.163 96 256V288C96 296.837 103.163 304 112 304H224.804L160.804 240Z" fill="black"/>
<path d="M382.39 183.034C374.657 149.591 349.445 128 320 128C307.063 128 293.43 116.854 289.275 103.866C287.928 99.6574 284.418 96 280 96H265.106C260.279 96 256.522 100.263 257.61 104.966C265.343 138.412 290.555 160.04 320 160.5C333.398 160.5 347.146 171.018 351.264 184.127C352.588 188.342 356.082 192 360.5 192H374.894C379.721 192 383.478 187.737 382.39 183.034Z" fill="black"/>
<path fill-rule="evenodd" clip-rule="evenodd" d="M512 256C512 397.385 397.385 512 256 512C114.615 512 0 397.385 0 256C0 114.615 114.615 0 256 0C397.385 0 512 114.615 512 256ZM385.131 419.072C349.657 447.201 304.79 464 256 464C141.125 464 48 370.875 48 256C48 207.21 64.7987 162.343 92.9278 126.869L385.131 419.072ZM419.072 385.131L337.941 304H400C408.837 304 416 296.837 416 288V256C416 247.163 408.837 240 400 240H273.941L126.869 92.9276C162.344 64.7986 207.21 48 256 48C370.875 48 464 141.125 464 256C464 304.79 447.201 349.656 419.072 385.131Z" fill="black"/>
</svg>
