<svg width="512" height="512" viewBox="0 0 512 512" version="1.1" xmlns="http://www.w3.org/2000/svg"><path fill="currentColor" d="M480,384c17.703,0.03 32,14.346 32,32c0,17.654 -14.297,31.97 -32,32l-448,0c-17.673,0 -32,-14.327 -32,-32c0,-17.654 14.297,-31.97 32,-32l448,0Zm0,-48l-50.902,0c1.906,-10.377 2.902,-21.072 2.902,-32c0,-10.928 -0.996,-21.623 -2.902,-32l50.902,0c17.673,0 32,14.327 32,32c0,17.654 -14.297,31.97 -32,32Zm-397.098,0l-50.902,0c-17.673,0 -32,-14.327 -32,-32c0,-17.673 14.327,-32 32,-32l50.902,0c-1.906,10.377 -2.902,21.072 -2.902,32c0,10.907 0.992,21.583 2.902,32Zm45.098,-32c0,11.05 1.4,21.772 4.033,32l247.934,0c2.633,-10.228 4.033,-20.95 4.033,-32c0,-70.692 -57.308,-128 -128,-128c-70.692,0 -128,57.308 -128,128Zm-13.421,-175.363l35.096,35.097c-17.112,12.992 -31.774,29.043 -43.171,47.339l-37.18,-37.181c-12.497,-12.497 -12.497,-32.758 0,-45.255c12.496,-12.496 32.758,-12.496 45.255,0Zm316.783,33.942l-35.096,35.096c-12.992,-17.112 -29.043,-31.774 -47.339,-43.171l37.181,-37.18c12.496,-12.497 32.758,-12.497 45.254,0c12.497,12.497 12.497,32.758 0,45.255Zm-143.362,-82.579c0,-17.673 -14.327,-32 -32,-32c-17.673,0 -32,14.327 -32,32l0,50.902c10.377,-1.906 21.072,-2.902 32,-2.902c10.928,0 21.623,0.996 32,2.902l0,-50.902Z"></path></svg>