<svg width="512" height="512" viewBox="0 0 512 512" version="1.1" xmlns="http://www.w3.org/2000/svg"><path fill="currentColor" d="M216,316l-120,-60l0,120c0,22.091 -17.909,40 -40,40c-22.091,0 -40,-17.909 -40,-40l0,-160l-16,-8l0,-48l256,-128l256,128l0,48l-16,8l0,160c0,22.091 -17.909,40 -40,40c-22.091,0 -40,-17.909 -40,-40l0,-120l-120,60l0,156c0,22.091 -17.909,40 -40,40c-22.091,0 -40,-17.909 -40,-40l0,-156Zm48,16l-8,4l-8,-4l0,140c0,4.418 3.582,8 8,8c4.418,0 8,-3.582 8,-8l0,-140Zm184,-92l0,136c0,4.418 3.582,8 8,8c4.418,0 8,-3.582 8,-8l0,-144l-16,8Zm-400,-8l0,144c0,4.418 3.582,8 8,8c4.418,0 8,-3.582 8,-8l0,-136l-16,-8Zm208,-164.223l-194.446,97.223l192.02,91.072c0.803,-0.048 1.611,-0.072 2.426,-0.072c0.815,0 1.623,0.024 2.426,0.072l192.02,-91.072l-194.446,-97.223Z"></path></svg>