<svg width="448" height="512" viewBox="0 0 448 512" version="1.1" xmlns="http://www.w3.org/2000/svg"><path fill="currentColor" d="M416,480l-144,0c-17.673,0 -32,-14.327 -32,-32l0,-144c0,-17.673 14.327,-32 32,-32l144,0c17.673,0 32,14.327 32,32l0,144c0,17.64 -14.273,31.946 -32,32Zm-240,-208c17.727,0.054 32,14.36 32,32l0,144c0,17.673 -14.327,32 -32,32l-144,0c-17.673,0 -32,-14.327 -32,-32l0,-144c0,-17.64 14.273,-31.946 32,-32l144,0Zm240,176l0,-144l-144,0l0,144l144,0Zm-240,-144l-144,0l0,144l144,0l0,-144Zm240,-272c17.727,0.054 32,14.36 32,32l0,144c0,17.673 -14.327,32 -32,32l-144,0c-17.673,0 -32,-14.327 -32,-32l0,-144c0,-17.64 14.273,-31.946 32,-32l144,0Zm-240,208l-144,0c-17.673,0 -32,-14.327 -32,-32l0,-144c0,-17.673 14.327,-32 32,-32l144,0c17.673,0 32,14.327 32,32l0,144c0,17.64 -14.273,31.946 -32,32Zm0,-32l0,-144l-144,0l0,144l144,0Z"></path></svg>