<svg width="448" height="512" viewBox="0 0 448 512" fill="none" xmlns="http://www.w3.org/2000/svg">
<path d="M272 32C254.327 32 240 46.3269 240 64V208C240 225.673 254.327 240 272 240H416C433.673 240 448 225.673 448 208V64C448 46.3269 433.673 32 416 32H272Z" fill="black"/>
<path fill-rule="evenodd" clip-rule="evenodd" d="M240 304C240 286.327 254.327 272 272 272H416C433.673 272 448 286.327 448 304V448C448 465.673 433.673 480 416 480H272C254.327 480 240 465.673 240 448V304ZM272 304H416V448H272V304Z" fill="black"/>
<path fill-rule="evenodd" clip-rule="evenodd" d="M32 272C14.3269 272 0 286.327 0 304V448C0 465.673 14.3269 480 32 480H176C193.673 480 208 465.673 208 448V304C208 286.327 193.673 272 176 272H32ZM176 304H32L32 448H176V304Z" fill="black"/>
<path fill-rule="evenodd" clip-rule="evenodd" d="M0 64C0 46.3269 14.3269 32 32 32H176C193.673 32 208 46.3269 208 64V208C208 225.673 193.673 240 176 240H32C14.3269 240 0 225.673 0 208V64ZM32 64H176V208H32L32 64Z" fill="black"/>
</svg>
