<svg xmlns="http://www.w3.org/2000/svg" width="544" height="512" viewBox="0 0 544 512"><path d="M168 0c39.77 0 72 32.24 72 72 0 39.77-32.23 72-72 72-39.76 0-72-32.23-72-72 0-39.76 32.24-72 72-72zm120 304h176c8.84 0 16 7.16 16 16v176c0 8.84-7.16 16-16 16H288c-8.84 0-16-7.16-16-16V320c0-8.84 7.16-16 16-16zm160 32H304v144h144V336zm-35.31-100.69l-104-104c-6.25-6.24-6.25-16.38 0-22.62l104-104c6.24-6.25 16.38-6.25 22.62 0l104 104c6.25 6.24 6.25 16.38 0 22.62l-104 104c-6.24 6.25-16.38 6.25-22.62 0zM342.63 120L424 201.37 505.38 120 424 38.62 342.63 120zM72 336c39.77 0 72 32.24 72 72s-32.23 72-72 72c-39.76 0-72-32.24-72-72s32.24-72 72-72zm96-160c39.77 0 72 32.24 72 72 0 39.77-32.23 72-72 72-39.76 0-72-32.23-72-72 0-39.76 32.24-72 72-72zm0 32c-22.09 0-40 17.91-40 40s17.91 40 40 40 40-17.91 40-40-17.91-40-40-40zM72 368c-22.09 0-40 17.91-40 40s17.91 40 40 40 40-17.91 40-40-17.91-40-40-40zm96-336c-22.09 0-40 17.91-40 40s17.91 40 40 40 40-17.91 40-40-17.91-40-40-40z"/></svg>