<svg width="544" height="512" viewBox="0 0 544 512" version="1.1" xmlns="http://www.w3.org/2000/svg"><path fill="currentColor" d="M24,400.001l-16,0c-4.418,0 -8,-3.581 -8,-8l0,-184l0.005,-0.001l-0.005,0l117.333,-96l234.667,0l-0.001,0.002l0.001,-0.001l0,184c0,4.411 -3.569,7.987 -8,8l-16,0c-4.418,0 -8,-3.581 -8,-8l0,-122.022l-64.022,57.43c0.015,0.196 0.022,0.393 0.022,0.592l0,160c0,4.411 -3.569,7.987 -8,8l-15,0c-4.418,0 -8,-3.581 -8,-8l0,-152l-193,0l0,152c0,4.411 -3.568,7.987 -8,8Zm456,-40.001c0,13.255 -10.745,24 -24,24c-13.255,0 -24,-10.745 -24,-24c0,-13.255 10.745,-24 24,-24c13.255,0 24,10.745 24,24Zm-64,-160c0,-22.091 17.909,-40 40,-40c22.091,0 40,17.909 40,40c0,22.091 -17.909,40 -40,40c-13.255,0 -24,10.745 -24,24l0,32c0,13.255 10.745,24 24,24c13.255,0 24,-10.745 24,-24l0,-11.313c36.936,-10.446 64,-44.406 64,-84.687c0,-48.601 -39.399,-88 -88,-88c-48.601,0 -88,39.399 -88,88c0,13.255 10.745,24 24,24c13.255,0 24,-10.745 24,-24Zm-288,56.001l0,40c0,4.419 -3.582,8 -8,8l-16,0c-4.418,0 -8,-3.581 -8,-8l0,-40l32,0Z"></path></svg>