<svg width="480" height="512" viewBox="0 0 480 512" version="1.1" xmlns="http://www.w3.org/2000/svg"><path fill="currentColor" d="M32,448l-16,0c-8.837,0 -16,-7.163 -16,-16l0,-240l160,-128l320,0l0,240c0,8.825 -7.143,15.98 -16,16l-16,0c-8.837,0 -16,-7.163 -16,-16l0,-149.333l-80,71.111l0,206.222c0,8.825 -7.143,15.98 -16,16l-16,0c-8.837,0 -16,-7.163 -16,-16l0,-192l-256,0l0,192c0,8.825 -7.143,15.98 -16,16Zm128,-128l-16,0c-8.837,0 -16,-7.163 -16,-16l0,-48l48,0l0,48c0,8.825 -7.143,15.98 -16,16Z"></path></svg>