<svg width="576" height="512" viewBox="0 0 576 512" version="1.1" xmlns="http://www.w3.org/2000/svg"><path fill="currentColor" d="M184,81l184,92l0,34.636l-16,8.032l0,112.332c0,13.255 -10.745,24 -24,24c-13.255,0 -24,-10.745 -24,-24l0,-88.237l-96,48.19l0,120.047c0,13.255 -10.745,24 -24,24c-13.255,0 -24,-10.745 -24,-24l0,-120.047l-96,-48.19l0,88.237c0,13.255 -10.745,24 -24,24c-13.255,0 -24,-10.745 -24,-24l0,-112.332l-16,-8.032l0,-34.636l184,-92Zm288,303c13.255,0 24,-10.745 24,-24c0,-13.255 -10.745,-24 -24,-24c-13.255,0 -24,10.745 -24,24c0,13.255 10.745,24 24,24Zm-40,-184c0,-22.091 17.909,-40 40,-40c22.091,0 40,17.909 40,40c0,22.091 -17.909,40 -40,40c-13.255,0 -24,10.745 -24,24l0,32c0,13.255 10.745,24 24,24c13.255,0 24,-10.745 24,-24l0,-11.312c36.936,-10.447 64,-44.407 64,-84.688c0,-48.601 -39.399,-88 -88,-88c-48.601,0 -88,39.399 -88,88c0,13.255 10.745,24 24,24c13.255,0 24,-10.745 24,-24Z"></path></svg>