<svg xmlns="http://www.w3.org/2000/svg" width="544" height="512" viewBox="0 0 544 512"><path d="M32 384v64h96v-64H32zm384 0v64h96v-64h-96zM16 32h128c8.8 0 16 7.2 16 16v96c0 8.8-7.2 16-16 16H16c-8.8 0-16-7.2-16-16V48c0-8.8 7.2-16 16-16zm16 192v64h96v-64H32zm-16-32h128c8.8 0 16 7.2 16 16v96c0 8.8-7.2 16-16 16H16c-8.8 0-16-7.2-16-16v-96c0-8.8 7.2-16 16-16zM208 32h128c8.8 0 16 7.2 16 16v96c0 8.8-7.2 16-16 16H208c-8.8 0-16-7.2-16-16V48c0-8.8 7.2-16 16-16zm192 0h128c8.8 0 16 7.2 16 16v96c0 8.8-7.2 16-16 16H400c-8.8 0-16-7.2-16-16V48c0-8.8 7.2-16 16-16zm0 160h128c8.8 0 16 7.2 16 16v96c0 8.8-7.2 16-16 16H400c-8.8 0-16-7.2-16-16v-96c0-8.8 7.2-16 16-16zM208 352h128c8.8 0 16 7.2 16 16v96c0 8.8-7.2 16-16 16H208c-8.8 0-16-7.2-16-16v-96c0-8.8 7.2-16 16-16zm0-160h128c8.8 0 16 7.2 16 16v96c0 8.8-7.2 16-16 16H208c-8.8 0-16-7.2-16-16v-96c0-8.8 7.2-16 16-16zm192 160h128c8.8 0 16 7.2 16 16v96c0 8.8-7.2 16-16 16H400c-8.8 0-16-7.2-16-16v-96c0-8.8 7.2-16 16-16zm-384 0h128c8.8 0 16 7.2 16 16v96c0 8.8-7.2 16-16 16H16c-8.8 0-16-7.2-16-16v-96c0-8.8 7.2-16 16-16z"/></svg>