<svg xmlns="http://www.w3.org/2000/svg" width="544" height="512" viewBox="0 0 544 512"><path d="M400 192h128c8.8 0 16 7.2 16 16v96c0 8.8-7.2 16-16 16H400c-8.8 0-16-7.2-16-16v-96c0-8.8 7.2-16 16-16zm120 208c4.4 0 8 3.6 8 8v16c0 4.4-3.6 8-8 8H408c-4.4 0-8-3.6-8-8v-16c0-4.4 3.6-8 8-8h112zM136 240c4.4 0 8 3.6 8 8v16c0 4.4-3.6 8-8 8H24c-4.4 0-8-3.6-8-8v-16c0-4.4 3.6-8 8-8h112zm0 160c4.4 0 8 3.6 8 8v16c0 4.4-3.6 8-8 8H24c-4.4 0-8-3.6-8-8v-16c0-4.4 3.6-8 8-8h112zM32 64v64h96V64H32zm192 320v64h96v-64h-96zm0-160v64h96v-64h-96zm192 0v64h96v-64h-96zm0-160v64h96V64h-96zm-192 0v64h96V64h-96zm-16-32h128c8.8 0 16 7.2 16 16v96c0 8.8-7.2 16-16 16H208c-8.8 0-16-7.2-16-16V48c0-8.8 7.2-16 16-16zM16 32h128c8.8 0 16 7.2 16 16v96c0 8.8-7.2 16-16 16H16c-8.8 0-16-7.2-16-16V48c0-8.8 7.2-16 16-16zm384 0h128c8.8 0 16 7.2 16 16v96c0 8.8-7.2 16-16 16H400c-8.8 0-16-7.2-16-16V48c0-8.8 7.2-16 16-16zM208 192h128c8.8 0 16 7.2 16 16v96c0 8.8-7.2 16-16 16H208c-8.8 0-16-7.2-16-16v-96c0-8.8 7.2-16 16-16zm0 160h128c8.8 0 16 7.2 16 16v96c0 8.8-7.2 16-16 16H208c-8.8 0-16-7.2-16-16v-96c0-8.8 7.2-16 16-16z"/></svg>