<svg width="512" height="512" viewBox="0 0 512 512" version="1.1" xmlns="http://www.w3.org/2000/svg"><path fill="currentColor" d="M448,360c0,13.255 -10.745,24 -24,24c-13.255,0 -24,-10.745 -24,-24c0,-13.255 10.745,-24 24,-24c13.255,0 24,10.745 24,24Zm-176,8l-224,0c-26.51,0 -48,-21.49 -48,-48l0,-128c0,-26.51 21.49,-48 48,-48l224,0c26.51,0 48,21.49 48,48l0,128c0,26.478 -21.439,47.949 -48,48Zm112,-168c0,-22.091 17.909,-40 40,-40c22.091,0 40,17.909 40,40c0,22.091 -17.909,40 -40,40c-13.255,0 -24,10.745 -24,24l0,32c0,13.255 10.745,24 24,24c13.255,0 24,-10.745 24,-24l0,-11.313c36.936,-10.446 64,-44.406 64,-84.687c0,-48.601 -39.399,-88 -88,-88c-48.601,0 -88,39.399 -88,88c0,13.255 10.745,24 24,24c13.255,0 24,-10.745 24,-24Zm-112,120l0,-128l-224,0l0,128l224,0Z"></path></svg>