<svg xmlns="http://www.w3.org/2000/svg" width="544" height="512" viewBox="0 0 544 512"><path d="M400 352h128c8.8 0 16 7.2 16 16v96c0 8.8-7.2 16-16 16H400c-8.8 0-16-7.2-16-16v-96c0-8.8 7.2-16 16-16zm32 48h64v32h-64v-32zM208 192h128c8.8 0 16 7.2 16 16v96c0 8.8-7.2 16-16 16H208c-8.8 0-16-7.2-16-16v-96c0-8.8 7.2-16 16-16zm0 160h128c8.8 0 16 7.2 16 16v96c0 8.8-7.2 16-16 16H208c-8.8 0-16-7.2-16-16v-96c0-8.8 7.2-16 16-16zm192-160h128c8.8 0 16 7.2 16 16v96c0 8.8-7.2 16-16 16H400c-8.8 0-16-7.2-16-16v-96c0-8.8 7.2-16 16-16zM208 32h128c8.8 0 16 7.2 16 16v96c0 8.8-7.2 16-16 16H208c-8.8 0-16-7.2-16-16V48c0-8.8 7.2-16 16-16zM16 32h128c8.8 0 16 7.2 16 16v96c0 8.8-7.2 16-16 16H16c-8.8 0-16-7.2-16-16V48c0-8.8 7.2-16 16-16zm384 0h128c8.8 0 16 7.2 16 16v96c0 8.8-7.2 16-16 16H400c-8.8 0-16-7.2-16-16V48c0-8.8 7.2-16 16-16zM16 352h128c8.8 0 16 7.2 16 16v96c0 8.8-7.2 16-16 16H16c-8.8 0-16-7.2-16-16v-96c0-8.8 7.2-16 16-16zm32 48h64v32H48v-32zM16 192h128c8.8 0 16 7.2 16 16v96c0 8.8-7.2 16-16 16H16c-8.8 0-16-7.2-16-16v-96c0-8.8 7.2-16 16-16zm32 48h64v32H48v-32z"/></svg>