<svg xmlns="http://www.w3.org/2000/svg" width="544" height="512" viewBox="0 0 544 512"><path d="M27.12 392h105.76c6.12 0 11.12 5 11.12 11.12v25.76c0 6.12-5 11.12-11.12 11.12H27.12C21 440 16 435 16 428.88v-25.76C16 397 21 392 27.12 392zm0-160h105.76c6.12 0 11.12 5.01 11.12 11.12v25.76c0 6.12-5 11.12-11.12 11.12H27.12C21 280 16 275 16 268.88v-25.76c0-6.11 5-11.12 11.12-11.12zM48 80v32h64V80H48zm192 160v32h64v-32h-64zm0-160v32h64V80h-64zm192 0v32h64V80h-64zm0 160v32h64v-32h-64zM240 400v32h64v-32h-64zm171.12-8h105.76c6.12 0 11.12 5 11.12 11.12v25.76c0 6.12-5 11.12-11.12 11.12H411.12c-6.11 0-11.12-5-11.12-11.12v-25.76c0-6.12 5.01-11.12 11.12-11.12zM208 352h128c8.8 0 16 7.2 16 16v96c0 8.8-7.2 16-16 16H208c-8.8 0-16-7.2-16-16v-96c0-8.8 7.2-16 16-16zm192-160h128c8.8 0 16 7.2 16 16v96c0 8.8-7.2 16-16 16H400c-8.8 0-16-7.2-16-16v-96c0-8.8 7.2-16 16-16zm0-160h128c8.8 0 16 7.2 16 16v96c0 8.8-7.2 16-16 16H400c-8.8 0-16-7.2-16-16V48c0-8.8 7.2-16 16-16zm-192 0h128c8.8 0 16 7.2 16 16v96c0 8.8-7.2 16-16 16H208c-8.8 0-16-7.2-16-16V48c0-8.8 7.2-16 16-16zm0 160h128c8.8 0 16 7.2 16 16v96c0 8.8-7.2 16-16 16H208c-8.8 0-16-7.2-16-16v-96c0-8.8 7.2-16 16-16zM16 32h128c8.8 0 16 7.2 16 16v96c0 8.8-7.2 16-16 16H16c-8.8 0-16-7.2-16-16V48c0-8.8 7.2-16 16-16z"/></svg>