<svg width="544" height="512" viewBox="0 0 544 512" version="1.1" xmlns="http://www.w3.org/2000/svg"><path fill="currentColor" d="M128,480l-96,0c-17.673,0 -32,-14.327 -32,-32l0,-64c0,-17.654 14.297,-31.97 32,-32l96,0c17.703,0.03 32,14.346 32,32l0,64c0,17.654 -14.297,31.97 -32,32Zm192,0l-96,0c-17.673,0 -32,-14.327 -32,-32l0,-64c0,-17.673 14.327,-32 32,-32l96,0c17.673,0 32,14.327 32,32l0,64c0,17.636 -14.267,31.939 -32,32Zm192,0l-96,0c-17.673,0 -32,-14.327 -32,-32l0,-64c0,-17.654 14.297,-31.97 32,-32l96,0c17.703,0.03 32,14.346 32,32l0,64c0,17.654 -14.297,31.97 -32,32Zm-192,-96l-96,0l0,64l96,0l0,-64Zm-192,0l-96,0l0,64l96,0l0,-64Zm384,0l-96,0l0,64l96,0l0,-64Zm-384,-64l-96,0c-17.673,0 -32,-14.327 -32,-32l0,-64c0,-17.654 14.297,-31.97 32,-32l96,0c17.703,0.03 32,14.346 32,32l0,64c0,17.654 -14.297,31.97 -32,32Zm192,0l-96,0c-17.673,0 -32,-14.327 -32,-32l0,-64c0,-17.673 14.327,-32 32,-32l96,0c17.673,0 32,14.327 32,32l0,64c0,17.636 -14.267,31.939 -32,32Zm192,0l-96,0c-17.673,0 -32,-14.327 -32,-32l0,-64c0,-17.673 14.327,-32 32,-32l96,0c17.673,0 32,14.327 32,32l0,64c0,17.636 -14.267,31.939 -32,32Zm-192,-96l-96,0l0,64l96,0l0,-64Zm-192,0l-96,0l0,64l96,0l0,-64Zm384,0l-96,0l0,64l96,0l0,-64Zm-384,-64l-96,0c-17.673,0 -32,-14.327 -32,-32l0,-64c0,-17.673 14.327,-32 32,-32l96,0c17.673,0 32,14.327 32,32l0,64c0,17.636 -14.267,31.939 -32,32Zm192,0l-96,0c-17.673,0 -32,-14.327 -32,-32l0,-64c0,-17.673 14.327,-32 32,-32l96,0c17.673,0 32,14.327 32,32l0,64c0,17.636 -14.267,31.939 -32,32Zm192,0l-96,0c-17.673,0 -32,-14.327 -32,-32l0,-64c0,-17.673 14.327,-32 32,-32l96,0c17.673,0 32,14.327 32,32l0,64c0,17.636 -14.267,31.939 -32,32Zm-384,-96l-96,0l0,64l96,0l0,-64Zm192,0l-96,0l0,64l96,0l0,-64Zm192,0l-96,0l0,64l96,0l0,-64Z"></path></svg>