<svg xmlns="http://www.w3.org/2000/svg" width="544" height="512" viewBox="0 0 544 512"><path d="M400 192h128c8.8 0 16 7.2 16 16v96c0 8.8-7.2 16-16 16H400c-8.8 0-16-7.2-16-16v-96c0-8.8 7.2-16 16-16zM32 64h96v64H32V64zm192 320h96v64h-96v-64zm0-160h96v64h-96v-64zm192 0h96v64h-96v-64zm0-160h96v64h-96V64zm-192 0h96v64h-96V64zm-16-32h128c8.8 0 16 7.2 16 16v96c0 8.8-7.2 16-16 16H208c-8.8 0-16-7.2-16-16V48c0-8.8 7.2-16 16-16zM16 32h128c8.8 0 16 7.2 16 16v96c0 8.8-7.2 16-16 16H16c-8.8 0-16-7.2-16-16V48c0-8.8 7.2-16 16-16zm384 0h128c8.8 0 16 7.2 16 16v96c0 8.8-7.2 16-16 16H400c-8.8 0-16-7.2-16-16V48c0-8.8 7.2-16 16-16zM208 192h128c8.8 0 16 7.2 16 16v96c0 8.8-7.2 16-16 16H208c-8.8 0-16-7.2-16-16v-96c0-8.8 7.2-16 16-16zm0 160h128c8.8 0 16 7.2 16 16v96c0 8.8-7.2 16-16 16H208c-8.8 0-16-7.2-16-16v-96c0-8.8 7.2-16 16-16zm184 48h144c4.4 0 8 3.6 8 8v16c0 4.4-3.6 8-8 8H392c-4.4 0-8-3.6-8-8v-16c0-4.4 3.6-8 8-8zM8 400h144c4.4 0 8 3.6 8 8v16c0 4.4-3.6 8-8 8H8c-4.4 0-8-3.6-8-8v-16c0-4.4 3.6-8 8-8zm0-160h144c4.4 0 8 3.6 8 8v16c0 4.4-3.6 8-8 8H8c-4.4 0-8-3.6-8-8v-16c0-4.4 3.6-8 8-8z"/></svg>