<svg width="512" height="512" viewBox="0 0 512 512" version="1.1" xmlns="http://www.w3.org/2000/svg"><path fill="currentColor" d="M512,512.145l-512,0c0,-94.957 2.909,-149.218 8.727,-162.783c2.909,-3.603 7.091,-7.154 12.546,-10.651c5.454,-3.497 12.606,-6.941 21.454,-10.333c8.849,-3.391 16.909,-6.305 24.182,-8.743c7.273,-2.437 17.212,-5.67 29.818,-9.697c12.606,-4.027 22.546,-7.207 29.818,-9.538c6.303,-2.12 12.425,-4.557 18.364,-7.313c5.939,-2.755 9.758,-4.451 11.455,-5.087c1.697,1.908 3.272,11.817 4.727,29.727c1.454,17.911 3.515,38.312 6.182,61.203c2.666,22.891 5.939,38.06 9.818,49.505c1.697,5.087 5.212,9.326 10.545,12.718c5.334,3.391 9.94,5.511 13.819,6.358c3.256,0.712 6,0.675 8.232,0.645c0.426,-0.006 0.833,-0.011 1.222,-0.011l92.364,0c0.389,0 0.796,0.005 1.222,0.011c2.232,0.03 4.976,0.067 8.232,-0.645c3.879,-0.847 8.485,-2.967 13.818,-6.358c5.334,-3.392 8.849,-7.631 10.546,-12.718c3.879,-11.445 6.97,-26.614 9.273,-49.505c2.303,-22.891 4,-43.292 5.091,-61.203c1.09,-17.91 2.484,-27.819 4.181,-29.727c1.697,0.636 5.516,2.332 11.455,5.087c5.939,2.756 12.061,5.193 18.364,7.313c7.272,2.331 17.212,5.511 29.818,9.538c12.606,4.027 22.545,7.26 29.818,9.697c7.273,2.438 15.333,5.352 24.182,8.743c8.848,3.392 16,6.836 21.454,10.333c5.455,3.497 9.637,7.048 12.546,10.651c3.151,8.478 5.394,31.793 6.727,69.946c1.332,38.135 1.999,69.069 2,92.837Zm-240,-96.145c0,8.837 -7.163,16 -16,16c-8.837,0 -16,-7.163 -16,-16c0,-8.837 7.163,-16 16,-16c8.837,0 16,7.163 16,16Zm-16,-32c8.837,0 16,-7.163 16,-16c0,-8.837 -7.163,-16 -16,-16c-8.837,0 -16,7.163 -16,16c0,8.837 7.163,16 16,16Zm-64,-112l64,16l64,-16l0,64l-64,-14l-64,14l0,-64Zm64,-16c-70.692,0 -128,-57.308 -128,-128c0,-70.692 57.308,-128 128,-128c70.692,0 128,57.308 128,128c0,70.692 -57.308,128 -128,128Zm108.8,-127.2c-10.4,2.133 -25.267,1.133 -44.6,-3c-19.333,-4.134 -35.667,-9 -49,-14.6c-9.067,-4 -17.733,-8.6 -26,-13.8c-8.267,-5.2 -17.733,-11.734 -28.4,-19.6c-10.667,-7.867 -18.933,-13.667 -24.8,-17.4c4.267,31.733 -10.667,54.4 -44.8,68c0.267,30.133 11,55.733 32.2,76.8c21.2,21.066 46.733,31.6 76.6,31.6c29.867,0 55.4,-10.534 76.6,-31.6c21.2,-21.067 31.933,-46.533 32.2,-76.4Z"></path></svg>