<svg width="512" height="512" viewBox="0 0 512 512" version="1.1" xmlns="http://www.w3.org/2000/svg"><path fill="currentColor" d="M304,304l-31.955,31.955c6.302,16.342 16.023,63.88 29.165,128.141l0,0.002l2.063,10.083c0.242,-0.727 2.788,-1.697 7.636,-2.909c4.849,-1.212 10,-3.454 15.455,-6.727c5.454,-3.273 9.03,-7.818 10.727,-13.636c3.879,-13.091 6.97,-32.728 9.273,-58.909c2.303,-26.182 4,-49.516 5.091,-70c1.09,-20.485 2.484,-31.819 4.181,-34c1.697,0.727 5.516,2.666 11.455,5.818c5.939,3.151 12.061,5.939 18.364,8.363c7.272,2.667 17.212,6.303 29.818,10.91c12.606,4.606 22.545,8.303 29.818,11.09c7.273,2.788 15.333,6.122 24.182,10c8.848,3.879 16,7.819 21.454,11.819c5.455,4 9.637,8.06 12.546,12.181c3.151,9.697 5.394,36.364 6.727,80c0.47,15.374 0.857,25.707 1.161,33.831l0,0.006c0.559,14.931 0.839,22.398 0.839,39.982l-512,0c0,-108.606 2.909,-138.303 8.727,-153.819c2.909,-4.121 7.091,-8.181 12.546,-12.181c5.454,-4 12.606,-7.94 21.454,-11.819c8.849,-3.878 16.909,-7.212 24.182,-10c7.273,-2.787 17.212,-6.484 29.818,-11.09c12.606,-4.607 22.546,-8.243 29.818,-10.91c6.303,-2.424 12.425,-5.212 18.364,-8.363c5.939,-3.152 9.758,-5.091 11.455,-5.818c1.697,2.181 3.272,13.515 4.727,34c1.454,20.484 3.515,43.818 6.182,70c2.666,26.181 5.939,45.818 9.818,58.909c1.697,5.818 5.273,10.363 10.727,13.636c5.455,3.273 10.606,5.515 15.455,6.727c4.848,1.212 7.394,2.182 7.636,2.909c0.243,-0.969 2.727,-12.969 7.455,-36c4.727,-23.03 9.151,-43.393 13.272,-61.09c1.775,-7.621 3.37,-15.905 4.785,-23.255c1.421,-7.379 2.66,-13.817 3.718,-17.697l-32.139,-32.139l48,-32l48,32Zm-48,-304c37.308,0 68.62,13.733 93.935,41.2c7.196,-3.467 15.323,-3.867 24.384,-1.2c3.464,0.533 7.328,0.667 11.592,0.4c4.263,-0.267 8.327,-0.6 12.191,-1c3.864,-0.4 7.662,1.467 11.392,5.6c3.731,4.133 6.796,10.867 9.194,20.2c1.066,4.267 1.932,8.2 2.598,11.8c0.667,3.6 0.866,7 0.6,10.2c-0.267,3.2 -0.4,5.867 -0.4,8c0,2.133 -0.599,4.533 -1.799,7.2c-1.199,2.667 -1.932,4.6 -2.198,5.8c-0.267,1.2 -1.466,3.067 -3.598,5.6c-2.131,2.533 -3.397,4.067 -3.797,4.6c-0.4,0.533 -1.865,2.133 -4.397,4.8c-2.532,2.667 -3.931,4.133 -4.197,4.4c-1.332,6.667 -4.197,12.533 -8.594,17.6c-4.397,5.067 -8.194,7.6 -11.392,7.6c-5.863,29.6 -20.519,54.2 -43.97,73.8c-23.451,19.6 -50.632,29.4 -81.544,29.4c-30.912,0 -58.093,-9.8 -81.544,-29.4c-23.45,-19.6 -38.107,-44.2 -43.97,-73.8c-3.197,0 -6.995,-2.533 -11.392,-7.6c-4.397,-5.067 -7.261,-10.933 -8.594,-17.6c-0.266,-0.267 -1.665,-1.733 -4.197,-4.4c-2.532,-2.667 -3.997,-4.267 -4.397,-4.8c-0.4,-0.533 -1.665,-2.067 -3.797,-4.6c-2.132,-2.533 -3.331,-4.4 -3.598,-5.6c-0.266,-1.2 -0.999,-3.133 -2.198,-5.8c-1.2,-2.667 -1.799,-5.067 -1.799,-7.2c0,-2.133 -0.133,-4.8 -0.4,-8c-0.266,-3.2 -0.066,-6.6 0.6,-10.2c0.666,-3.6 1.532,-7.533 2.598,-11.8c2.398,-9.333 5.463,-16.067 9.194,-20.2c3.73,-4.133 7.528,-6 11.392,-5.6c3.864,0.4 7.928,0.733 12.191,1c4.264,0.267 8.128,0.133 11.592,-0.4c9.061,-2.667 17.189,-2.267 24.384,1.2c25.316,-27.467 56.627,-41.2 93.935,-41.2Zm-24,160l-64,0c-4.418,0 -8,-3.582 -8,-8l0,-43.305c-3.209,1.308 -7.299,2.934 -11.526,4.505c-0.799,4.8 -1.199,9.733 -1.199,14.8c0,29.867 10.659,55.467 31.978,76.8c21.319,21.333 46.901,32 76.747,32c29.846,0 55.429,-10.667 76.747,-32c21.319,-21.333 31.978,-46.933 31.978,-76.8c0,-5.067 -0.399,-10 -1.199,-14.8c-4.227,-1.571 -8.317,-3.197 -11.526,-4.505l0,43.305c0,4.401 -3.555,7.973 -8,8l-64,0c-4.418,0 -8,-3.582 -8,-8l0,-10.153c-4.481,1.02 -10.586,2.153 -16,2.153c-5.414,0 -11.519,-1.133 -16,-2.153l0,10.153c0,4.401 -3.555,7.973 -8,8Zm-8,-48l-48,0l0,32l48,0l0,-32Zm112,0l-48,0l0,32l48,0l0,-32Zm-104,-16c4.445,0.027 8,3.598 8,8l0,21.377c0.986,0.258 2.125,0.542 3.361,0.826c4.216,0.967 9,1.797 12.639,1.797c3.639,0 8.423,-0.83 12.639,-1.797c1.236,-0.284 2.375,-0.568 3.361,-0.826l0,-21.377c0,-4.41 3.569,-7.987 8,-8l57.739,0l-4.992,-6.4c0,0 -7.328,-15.333 -6.795,-18.8c0.266,-2.667 0.733,-4.533 1.399,-5.6c0.666,-1.067 1.399,-1.733 2.198,-2c0.8,-0.267 2.132,-0.867 3.998,-1.8c1.865,-0.933 3.597,-2.2 5.196,-3.8c-21.585,-25.6 -49.166,-38.4 -82.743,-38.4c-33.577,0 -61.158,12.8 -82.743,38.4c1.599,1.6 3.331,2.867 5.196,3.8c1.866,0.933 3.198,1.533 3.998,1.8c0.799,0.267 1.532,0.933 2.198,2c0.666,1.067 1.133,2.933 1.399,5.6c0.533,3.467 -6.795,18.8 -6.795,18.8l-4.992,6.4l57.739,0Z"></path></svg>