<svg width="480" height="512" viewBox="0 0 480 512" version="1.1" xmlns="http://www.w3.org/2000/svg"><path fill="currentColor" d="M240,364.865c-18.723,0.194 -36.899,-5.382 -52.908,-14.952l-19.792,-61.913c-5.975,2.319 -23.9,6.203 -53.775,11.653c-29.875,5.449 -56.265,11.71 -79.169,18.782c-22.904,7.073 -34.356,15.015 -34.356,23.826c0,51.448 12.162,96.485 26.989,151.388l0.004,0.016c1.617,5.988 3.266,12.092 4.933,18.335l416.148,0c1.668,-6.243 3.316,-12.348 4.933,-18.335l0.004,-0.017c14.827,-54.903 26.989,-99.939 26.989,-151.387c0,-8.812 -11.452,-16.754 -34.356,-23.826c-22.904,-7.073 -49.294,-13.334 -79.169,-18.783c-29.875,-5.449 -47.8,-9.333 -53.775,-11.652l-19.792,61.913c-16.009,9.569 -34.185,15.146 -52.908,14.952Zm0,12.183c16.313,-0.187 31.786,-3.746 46.815,-10.092l-46.815,121.871l-46.815,-121.871c15.029,6.347 30.502,9.905 46.815,10.092Zm61.763,-133.062c26.032,19.708 50.312,27.567 72.839,23.575c-12.014,-6.985 -19.148,-17.588 -21.401,-31.808c4.005,5.239 9.825,8.607 17.459,10.104c7.634,1.497 15.081,0.998 22.34,-1.497c-12.265,-10.727 -20.4,-21.829 -24.405,-33.305c-4.005,-11.476 -7.009,-27.193 -9.011,-47.15c-1.001,-10.977 -1.69,-26.507 -2.065,-46.59c-0.375,-20.082 -1.564,-35.737 -3.567,-46.963c-2.002,-11.227 -6.007,-21.081 -12.015,-29.563c-7.509,-10.727 -23.028,-20.207 -46.557,-28.44c-23.528,-8.233 -43.178,-12.349 -58.947,-12.349c-21.777,0 -44.68,5.364 -68.709,16.091c-24.03,10.728 -39.173,25.322 -45.431,43.783c-1.752,5.239 -3.191,16.216 -4.318,32.93c-1.126,16.715 -1.939,33.368 -2.44,49.958c-0.501,16.59 -0.751,25.259 -0.751,26.007c-4.505,44.157 -13.767,71.599 -27.784,82.327c3.504,2.245 9.011,2.307 16.52,0.187c7.509,-2.121 14.017,-5.301 19.524,-9.542c-0.25,7.484 -5.882,17.463 -16.896,29.936c6.759,1.248 17.96,-1.122 33.604,-7.11c15.644,-5.987 27.722,-11.725 36.232,-17.213c18.773,10.727 38.923,16.091 60.449,16.091c23.779,0 45.556,-6.487 65.33,-19.459Zm-140.797,-31.808c-2.253,-14.969 -0.751,-40.415 4.505,-76.339c5.257,-35.925 13.016,-56.381 23.279,-61.371c1.752,-0.748 5.006,0.811 9.762,4.678c4.755,3.867 7.384,7.172 7.884,9.916c1.502,7.984 0,15.717 -4.505,23.201c4.756,4.241 13.954,6.861 27.596,7.859c13.642,0.998 26.032,1.06 37.171,0.187c11.138,-0.873 19.586,-1.933 25.343,-3.181c3.004,3.243 5.82,6.736 8.448,10.478c2.628,3.742 4.818,7.921 6.571,12.536c1.752,4.615 3.254,8.607 4.505,11.975c1.252,3.368 2.441,7.983 3.567,13.846c1.126,5.862 1.877,9.979 2.253,12.349c0.375,2.37 0.938,6.611 1.689,12.723c0.751,6.112 1.252,9.667 1.502,10.665c-9.511,13.471 -21.651,24.137 -36.419,31.995c-14.769,7.858 -30.663,11.788 -47.684,11.788c-30.037,0 -55.193,-11.102 -75.467,-33.305Z"></path></svg>