<svg width="512" height="512" viewBox="0 0 512 512" fill="none" xmlns="http://www.w3.org/2000/svg">
<path fill-rule="evenodd" clip-rule="evenodd" d="M256 0C293.308 0 324.62 13.7333 349.935 41.2C357.131 37.7333 365.258 37.3333 374.319 40C377.783 40.5333 381.647 40.6667 385.911 40.4C390.174 40.1333 394.238 39.8 398.102 39.4C401.966 39 405.764 40.8667 409.494 45C413.225 49.1333 416.29 55.8666 418.688 65.2C419.754 69.4666 420.62 73.4 421.286 77C421.953 80.6 422.152 84 421.886 87.2C421.619 90.4 421.486 93.0667 421.486 95.2C421.486 97.3333 420.887 99.7333 419.687 102.4C418.488 105.067 417.755 107 417.489 108.2C417.222 109.4 416.023 111.267 413.891 113.8C411.76 116.333 410.494 117.867 410.094 118.4C409.694 118.933 408.229 120.533 405.697 123.2C403.165 125.867 401.766 127.333 401.5 127.6C400.168 134.267 397.303 140.133 392.906 145.2C388.509 150.267 384.712 152.8 381.514 152.8C375.651 182.4 360.995 207 337.544 226.6C314.093 246.2 286.912 256 256 256C225.088 256 197.907 246.2 174.456 226.6C151.006 207 136.349 182.4 130.486 152.8C127.289 152.8 123.491 150.267 119.094 145.2C114.697 140.133 111.833 134.267 110.5 127.6C110.234 127.333 108.835 125.867 106.303 123.2C103.771 120.533 102.306 118.933 101.906 118.4C101.506 117.867 100.241 116.333 98.1087 113.8C95.9768 111.267 94.7777 109.4 94.5112 108.2C94.2447 107 93.5119 105.067 92.3127 102.4C91.1135 99.7333 90.5139 97.3333 90.5139 95.2C90.5139 93.0667 90.3807 90.4 90.1142 87.2C89.8477 84 90.0476 80.6 90.7138 77C91.38 73.4 92.2461 69.4666 93.312 65.2C95.7104 55.8666 98.7749 49.1333 102.506 45C106.236 40.8667 110.034 39 113.898 39.4C117.762 39.8 121.826 40.1333 126.089 40.4C130.353 40.6667 134.217 40.5333 137.681 40C146.742 37.3333 154.87 37.7333 162.065 41.2C187.381 13.7333 218.692 0 256 0ZM332.747 89.6L337.739 96H280C275.582 96 272 99.5817 272 104V124.361V125.377C271.014 125.635 269.875 125.919 268.639 126.203C264.423 127.17 259.639 128 256 128C252.361 128 247.577 127.17 243.361 126.203C242.125 125.919 240.986 125.635 240 125.377V124.361V104C240 99.5817 236.418 96 232 96H174.261L179.253 89.6C179.253 89.6 186.581 74.2666 186.048 70.8C185.782 68.1333 185.315 66.2666 184.649 65.2C183.983 64.1333 183.25 63.4666 182.451 63.2C181.651 62.9333 180.319 62.3333 178.453 61.4C176.588 60.4667 174.856 59.2 173.257 57.6C194.842 32 222.423 19.2 256 19.2C289.577 19.2 317.158 32 338.743 57.6C337.144 59.2 335.412 60.4667 333.547 61.4C331.681 62.3333 330.349 62.9333 329.549 63.2C328.75 63.4666 328.017 64.1333 327.351 65.2C326.685 66.2666 326.218 68.1333 325.952 70.8C325.419 74.2666 332.747 89.6 332.747 89.6ZM240 141.847V152C240 156.418 236.418 160 232 160H168C163.582 160 160 156.418 160 152V108.695C156.791 110.003 152.701 111.629 148.474 113.2C147.675 118 147.275 122.933 147.275 128C147.275 157.867 157.934 183.467 179.253 204.8C200.572 226.133 226.154 236.8 256 236.8C285.846 236.8 311.429 226.133 332.747 204.8C354.066 183.467 364.725 157.867 364.725 128C364.725 122.933 364.326 118 363.526 113.2C359.299 111.629 355.209 110.003 352 108.695V152C352 156.418 348.418 160 344 160H280C275.582 160 272 156.418 272 152V141.847C267.519 142.867 261.414 144 256 144C250.586 144 244.481 142.867 240 141.847ZM176 112V144H224V112H176ZM288 144V112H336V144H288Z" fill="black"/>
<path d="M272.045 335.955L304 304L256 272L208 304L240.139 336.139C239.081 340.019 237.842 346.457 236.421 353.836C235.006 361.186 233.411 369.47 231.636 377.091C227.515 394.788 223.091 415.151 218.364 438.181C213.636 461.212 211.152 473.212 210.909 474.181C210.667 473.454 208.121 472.484 203.273 471.272C198.424 470.06 193.273 467.818 187.818 464.545C182.364 461.272 178.788 456.727 177.091 450.909C173.212 437.818 169.939 418.181 167.273 392C164.606 365.818 162.545 342.484 161.091 322C159.636 301.515 158.061 290.181 156.364 288C154.667 288.727 150.848 290.666 144.909 293.818C138.97 296.969 132.848 299.757 126.545 302.181C119.273 304.848 109.333 308.484 96.7273 313.091C84.1212 317.697 74.1818 321.394 66.9091 324.181C59.6364 326.969 51.5758 330.303 42.7273 334.181C33.8788 338.06 26.7273 342 21.2727 346C15.8182 350 11.6364 354.06 8.72728 358.181C2.90909 373.697 0 403.394 0 512H512C512 494.416 511.72 486.949 511.161 472.018L511.161 472.014L511.161 472.013V472.012C510.857 463.888 510.47 453.555 510 438.181C508.667 394.545 506.424 367.878 503.273 358.181C500.364 354.06 496.182 350 490.727 346C485.273 342 478.121 338.06 469.273 334.181C460.424 330.303 452.364 326.969 445.091 324.181C437.818 321.394 427.879 317.697 415.273 313.091C402.667 308.484 392.727 304.848 385.455 302.181C379.152 299.757 373.03 296.969 367.091 293.818C361.152 290.666 357.333 288.727 355.636 288C353.939 290.181 352.545 301.515 351.455 322C350.364 342.484 348.667 365.818 346.364 392C344.061 418.181 340.97 437.818 337.091 450.909C335.394 456.727 331.818 461.272 326.364 464.545C320.909 467.818 315.758 470.06 310.909 471.272C306.061 472.484 303.515 473.454 303.273 474.181L301.21 464.098L301.21 464.096C288.068 399.835 278.347 352.297 272.045 335.955Z" fill="black"/>
</svg>
