<svg width="512" height="512" viewBox="0 0 512 512" version="1.1" xmlns="http://www.w3.org/2000/svg"><path fill="currentColor" d="M256,512l-208,0c-2.84,-16.436 -11.062,-36.722 -19.916,-58.569c-13.326,-32.877 -28.084,-69.289 -28.084,-101.431c24.171,-29.938 66.956,-40.385 107.27,-50.228c17.388,-4.246 34.317,-8.379 49.094,-13.916c1.697,1.908 3.272,11.817 4.727,29.727c1.454,17.91 3.515,38.311 6.182,61.202c2.666,22.892 5.939,38.06 9.818,49.506c1.697,5.087 5.212,9.326 10.545,12.717c5.334,3.391 9.94,5.511 13.819,6.359c3.256,0.712 6,0.675 8.232,0.644c0.426,-0.006 0.833,-0.011 1.222,-0.011l45.091,0l0,0.144l45.091,0c0.389,0 0.796,0.006 1.222,0.011c2.232,0.031 4.976,0.068 8.232,-0.644c3.879,-0.848 8.485,-2.968 13.819,-6.359c5.333,-3.391 8.848,-7.63 10.545,-12.717c3.879,-11.446 7.152,-26.614 9.818,-49.506c2.667,-22.891 4.728,-43.292 6.182,-61.202c1.455,-17.91 3.03,-27.819 4.727,-29.727c14.777,5.537 31.706,9.67 49.094,13.916c40.314,9.843 83.099,20.29 107.27,50.228c0,32.142 -14.758,68.554 -28.084,101.431c-8.849,21.834 -17.066,42.109 -19.916,58.569l-208,0l0,-0.144Zm16,-96c0,8.837 -7.163,16 -16,16c-8.837,0 -16,-7.163 -16,-16c0,-8.837 7.163,-16 16,-16c8.837,0 16,7.163 16,16Zm-16,-32c8.837,0 16,-7.163 16,-16c0,-8.837 -7.163,-16 -16,-16c-8.837,0 -16,7.163 -16,16c0,8.837 7.163,16 16,16Zm0,-96l-64,-16l0,64l64,-14l64,14l0,-64l-64,16Zm134.602,-20.439c-22.527,3.992 -46.807,-3.867 -72.839,-23.575c-19.774,12.972 -41.551,19.459 -65.33,19.459c-21.526,0 -41.676,-5.364 -60.449,-16.091c-8.51,5.488 -20.588,11.226 -36.232,17.213c-15.644,5.988 -26.845,8.358 -33.604,7.11c11.014,-12.473 16.646,-22.452 16.896,-29.936c-5.507,4.241 -12.015,7.421 -19.524,9.542c-7.509,2.12 -13.016,2.058 -16.52,-0.187c14.017,-10.728 23.279,-38.17 27.784,-82.327c0,-0.748 0.25,-9.417 0.751,-26.007c0.501,-16.59 1.314,-33.243 2.44,-49.958c1.127,-16.714 2.566,-27.691 4.318,-32.93c6.258,-18.461 21.401,-33.056 45.431,-43.783c24.029,-10.727 46.932,-16.091 68.709,-16.091c15.769,0 35.419,4.116 58.947,12.349c23.529,8.233 39.048,17.713 46.557,28.44c6.008,8.482 10.013,18.336 12.015,29.563c2.003,11.226 3.192,26.881 3.567,46.963c0.375,20.083 1.064,35.613 2.065,46.59c2.002,19.957 5.006,35.674 9.011,47.15c4.005,11.476 12.14,22.578 24.405,33.305c-7.259,2.495 -14.706,2.994 -22.34,1.497c-7.634,-1.497 -13.454,-4.865 -17.459,-10.104c2.253,14.22 9.387,24.823 21.401,31.808Zm-209.131,-131.722c-5.256,35.924 -6.758,61.37 -4.505,76.339c20.274,22.203 45.43,33.305 75.467,33.305c17.021,0 32.915,-3.93 47.684,-11.788c14.768,-7.858 26.908,-18.524 36.419,-31.995c-0.25,-0.998 -0.751,-4.553 -1.502,-10.665c-0.751,-6.112 -1.314,-10.353 -1.689,-12.723c-0.376,-2.37 -1.127,-6.487 -2.253,-12.349c-1.126,-5.863 -2.315,-10.478 -3.567,-13.846c-1.251,-3.368 -2.753,-7.36 -4.505,-11.975c-1.753,-4.615 -3.943,-8.794 -6.571,-12.536c-2.628,-3.742 -5.444,-7.235 -8.448,-10.478c-5.757,1.248 -14.205,2.308 -25.343,3.181c-11.139,0.873 -23.529,0.811 -37.171,-0.187c-13.642,-0.998 -22.84,-3.618 -27.596,-7.859c4.505,-7.484 6.007,-15.218 4.505,-23.201c-0.5,-2.744 -3.129,-6.05 -7.884,-9.916c-4.756,-3.867 -8.01,-5.426 -9.762,-4.678c-10.263,4.989 -18.022,25.446 -23.279,61.371Z"></path></svg>