<svg width="320" height="512" viewBox="0 0 320 512" version="1.1" xmlns="http://www.w3.org/2000/svg"><path fill="currentColor" d="M16,0c-8.837,0 -16,7.163 -16,16l0,187.643c0,7.328 0.667,13.595 2,18.802c1.333,5.207 2.917,9.305 4.75,12.294c1.833,2.989 4.5,5.641 8,7.955c3.5,2.314 6.583,3.953 9.25,4.917c2.667,0.965 6.542,2.266 11.625,3.905c2.399,0.774 5.771,1.515 8.997,2.224c1.163,0.256 2.306,0.507 3.378,0.754l0,225.506c0,17.673 14.327,32 32,32c17.673,0 32,-14.327 32,-32l0,-225.506c1.072,-0.247 2.215,-0.499 3.377,-0.754c3.227,-0.709 6.599,-1.45 8.998,-2.224c5.083,-1.639 8.958,-2.94 11.625,-3.905c2.667,-0.964 5.75,-2.603 9.25,-4.917c3.5,-2.314 6.167,-4.966 8,-7.955c1.833,-2.989 3.417,-7.087 4.75,-12.294c1.333,-5.207 2,-11.474 2,-18.802l0,-187.643c0,-8.837 -7.163,-16 -16,-16c-8.837,0 -16,7.163 -16,16l0,128c0,8.837 -7.163,16 -16,16c-8.837,0 -16,-7.163 -16,-16l0,-128c0,-8.837 -7.163,-16 -16,-16c-8.837,0 -16,7.163 -16,16l0,128c0,8.837 -7.163,16 -16,16c-8.837,0 -16,-7.163 -16,-16l0,-128c0,-8.837 -7.163,-16 -16,-16Zm304,18.286l0,267.143c0,0.458 -0.007,0.913 -0.022,1.364c0.015,0.4 0.022,0.803 0.022,1.207l0,192c0,17.673 -14.327,32 -32,32c-17.673,0 -32,-14.327 -32,-32l0,-160l-69.266,0c-2.41,0 -4.449,-0.952 -6.118,-2.857c-3.523,-3.619 -3.377,-8.286 0.887,-32.286c0.741,-4.762 2.178,-14.428 4.31,-29c2.133,-14.571 4.126,-28.19 5.98,-40.857c1.854,-12.667 4.449,-28.048 7.787,-46.143c3.337,-18.095 6.767,-34.428 10.29,-49c3.522,-14.571 7.926,-29.619 13.21,-45.143c5.284,-15.523 10.8,-28.476 16.547,-38.857c5.748,-10.381 12.515,-18.952 20.302,-25.714c7.787,-6.762 15.945,-10.143 24.473,-10.143l17.799,0c4.821,0 8.992,1.81 12.515,5.429c3.523,3.619 5.284,7.904 5.284,12.857Z"></path></svg>