<svg xmlns="http://www.w3.org/2000/svg" width="416" height="512" viewBox="0 0 416 512"><path d="M207.99 112c2.05 0 4.1-.81 5.66-2.42l48.37-49.95c14.07-14.53 12.32-39.38-2.45-51.97-14.76-12.6-34.32-9.31-46.64 3.4L208 16.14l-4.93-5.08c-12.56-12.96-32.95-15.08-46.64-3.4-15.71 13.39-16.53 37.46-2.48 51.97l48.38 49.95a7.86 7.86 0 0 0 5.66 2.42zM416 512H0V404.89C9.68 419.1 20.66 440 48 440c41.39 0 45.28-48 64-48 18.84 0 22.44 48 64 48 41.34 0 45.32-48 64-48 18.75 0 22.56 48 64 48 41.37 0 45.24-48 64-48 16 0 21.17 34.9 48 45.18V512zM0 362.82V352c0-17.6 14.4-32 32-32h352c17.6 0 32 14.4 32 32v43.19c-9.69-14.22-20.59-35.19-48-35.19-41.46 0-45.16 48-64 48-18.72 0-22.56-48-64-48-41.5 0-45.2 48-64 48-18.69 0-22.64-48-64-48s-45.32 48-64 48c-16.01 0-21.12-34.91-48-45.18zM352 288H64v-83.12C73.7 219.1 84.7 240 112 240c41.36 0 45.31-48 64-48 18.8 0 22.5 48 64 48 41.44 0 45.28-48 64-48 16.07 0 21.13 34.92 48 45.19V288zM64 162.82v-5.87C64 141.03 77.03 128 92.95 128h230.1c15.92 0 28.95 13.03 28.95 28.95v38.22c-9.7-14.21-20.67-35.17-48-35.17-41.44 0-45.25 48-64 48-18.68 0-22.66-48-64-48-41.56 0-45.16 48-64 48-15.96 0-21.14-34.91-48-45.18z"/></svg>