<svg width="384" height="512" viewBox="0 0 384 512" fill="none" xmlns="http://www.w3.org/2000/svg">
<path d="M144.226 41.1057C149.044 35.0352 155.735 32 164.299 32C173.042 32 179.778 34.2547 184.506 38.7642C189.234 43.2737 191.777 49.2575 192.134 56.7154C192.491 49.2575 194.944 43.2737 199.494 38.7642C204.044 34.2547 210.601 32 219.165 32C227.73 32 234.51 35.0352 239.506 41.1057C244.502 47.1762 247 54.8076 247 64C246.286 71.2845 242.539 78.2222 235.759 84.813L192.134 128L147.973 84.813C141.371 78.3957 137.714 71.458 137 64C137 54.8076 139.409 47.1762 144.226 41.1057Z" fill="black"/>
<path d="M272 202.667V144C272 135.163 264.837 128 256 128H192.134H128C119.163 128 112 135.163 112 144V202.667C116.267 202.667 120.524 204.365 123.673 207.724L132 216.606L150.327 197.057C153.352 193.831 157.577 192 162 192C166.423 192 170.648 193.831 173.673 197.057L192 216.606L210.327 197.057C213.352 193.831 217.577 192 222 192C226.423 192 230.648 193.831 233.673 197.057L252 216.606L260.327 207.724C263.476 204.365 267.733 202.667 272 202.667Z" fill="black"/>
<path d="M287.089 224C286.374 226.027 285.237 227.941 283.673 229.61L263.673 250.943C260.648 254.169 256.423 256 252 256C247.577 256 243.352 254.169 240.327 250.943L222 231.394L203.673 250.943C200.648 254.169 196.423 256 192 256C187.577 256 183.352 254.169 180.327 250.943L162 231.394L143.673 250.943C140.648 254.169 136.423 256 132 256C127.577 256 123.352 254.169 120.327 250.943L100.327 229.61C98.7633 227.941 97.6259 226.027 96.9108 224H96C87.1634 224 80 231.163 80 240V322.914C80.5356 321.949 81.1796 321.025 81.9334 320.16C87.7362 313.495 97.8428 312.797 104.507 318.6L118.5 330.784L144.743 307.933C150.766 302.689 159.734 302.689 165.757 307.933L192 330.784L218.243 307.933C224.266 302.689 233.234 302.689 239.257 307.933L265.5 330.784L279.493 318.6C286.157 312.797 296.264 313.495 302.067 320.16C302.82 321.025 303.464 321.949 304 322.914V240C304 231.163 296.837 224 288 224H287.089Z" fill="black"/>
<path d="M300.507 342.733C302.666 340.853 304.2 338.521 305.088 336H336C344.837 336 352 343.163 352 352V448H368C376.837 448 384 455.163 384 464C384 472.837 376.837 480 368 480H16C7.16345 480 0 472.837 0 464C0 455.163 7.16344 448 16 448H32V352C32 343.163 39.1634 336 48 336H78.9121C79.8005 338.521 81.3335 340.853 83.493 342.733L107.993 364.067C114.016 369.311 122.984 369.311 129.007 364.067L155.25 341.216L181.493 364.067C187.516 369.311 196.484 369.311 202.507 364.067L228.75 341.216L254.993 364.067C261.016 369.311 269.984 369.311 276.007 364.067L300.507 342.733Z" fill="black"/>
</svg>
