<svg xmlns="http://www.w3.org/2000/svg" width="416" height="512" viewBox="0 0 416 512"><path d="M252.21 6.57C240.47-3.44 223-1.64 212.22 9.48L208 13.83l-4.22-4.35C193.02-1.64 175.54-3.44 163.8 6.57c-13.46 11.48-14.17 32.1-2.13 44.54l41.47 42.82c1.34 1.38 3.09 2.07 4.85 2.07H272c8.89.05 16 7.19 16 16v67.51l-20 21.1-18.33-19.55c-3.02-3.23-7.25-5.06-11.67-5.06s-8.65 1.83-11.67 5.06L208 200.61l-18.33-19.55c-3.02-3.23-7.25-5.06-11.67-5.06s-8.65 1.83-11.67 5.06L148 200.61l-20-21.1V112c0-8.81 7.11-15.95 16-16h63.99c1.76 0 3.51-.69 4.85-2.07l41.47-42.82c12.06-12.44 11.35-33.06-2.1-44.54zM208 330.79l26.24-22.85c2.99-2.61 6.71-3.92 10.44-3.94h.17l.18.01c3.65.06 7.29 1.37 10.23 3.93l26.2 22.81 26.21-22.81c3.01-2.63 6.76-3.94 10.5-3.94v-.16c3.75 0 7.5 1.31 10.51 3.93L342.72 320H352v-96c0-8.8-7.11-15.95-16-16h-31.07l-25.26 26.94c-3.02 3.23-7.25 5.06-11.67 5.06-4.5-.02-8.57-1.8-11.67-5.06L238 215.4l-18.33 19.54c-3.02 3.23-7.25 5.06-11.67 5.06s-8.65-1.83-11.67-5.06L178 215.4l-18.33 19.54c-3.1 3.26-7.17 5.04-11.67 5.06-4.42 0-8.65-1.83-11.67-5.06L111.07 208H80c-8.89.05-16 7.2-16 16v96h9.28l14.04-12.23c3.01-2.62 6.76-3.93 10.51-3.93v.16c3.74 0 7.49 1.31 10.5 3.94l26.21 22.81 26.2-22.81c2.94-2.56 6.58-3.87 10.23-3.93l.18-.01h.17c3.73.02 7.45 1.33 10.44 3.94L208 330.79zm0 37.21c3.75 0 7.49-1.31 10.5-3.93l26.25-22.85 26.24 22.85c6.02 5.24 14.99 5.24 21.02 0l24.5-21.33c5.49-4.79 13.39-6.74 19.26-6.74H400c8.84 0 16 7.16 16 16v160H0V352c0-8.84 7.16-16 16-16h64.23c5.87 0 13.77 1.95 19.26 6.74l24.5 21.33c6.03 5.24 15 5.24 21.02 0l26.24-22.85 26.25 22.85c3.01 2.62 6.75 3.93 10.5 3.93z"/></svg>