<svg width="384" height="512" viewBox="0 0 384 512" version="1.1" xmlns="http://www.w3.org/2000/svg"><path fill="currentColor" d="M368,480l-352,0c-8.837,0 -16,-7.163 -16,-16c0,-8.837 7.163,-16 16,-16l16,0l0,-96c0,-8.837 7.163,-16 16,-16l30.912,0c0.888,2.521 2.421,4.853 4.581,6.733l24.5,21.334c6.023,5.244 14.991,5.244 21.014,0l26.243,-22.851l26.243,22.851c6.023,5.244 14.991,5.244 21.014,0l26.243,-22.851l26.243,22.851c6.023,5.244 14.991,5.244 21.014,0l24.5,-21.334c2.159,-1.88 3.693,-4.212 4.581,-6.733l30.912,0c8.837,0 16,7.163 16,16l0,96l16,0c8.885,0.048 16,7.193 16,16c0,8.807 -7.115,15.952 -16,16Zm-271.089,-256c0.739,2.067 1.869,3.959 3.416,5.61l20,21.333c3.025,3.226 7.25,5.057 11.673,5.057c4.423,0 8.648,-1.831 11.673,-5.057l18.327,-19.549l18.327,19.549c3.025,3.226 7.25,5.057 11.673,5.057c4.423,0 8.648,-1.831 11.673,-5.057l18.327,-19.549l18.327,19.549c3.025,3.226 7.25,5.057 11.673,5.057c4.423,0 8.648,-1.831 11.673,-5.057l20,-21.333c1.547,-1.651 2.677,-3.543 3.416,-5.61l0.911,0c8.885,0.048 16,7.193 16,16l0,82.914c-0.536,-0.965 -1.18,-1.889 -1.933,-2.754c-5.803,-6.665 -15.91,-7.363 -22.574,-1.56l-13.993,12.184l-26.243,-22.851c-6.023,-5.244 -14.991,-5.244 -21.014,0l-26.243,22.851l-26.243,-22.851c-6.023,-5.244 -14.991,-5.244 -21.014,0l-26.243,22.851l-13.993,-12.184c-6.664,-5.803 -16.771,-5.105 -22.574,1.56c-0.753,0.865 -1.397,1.789 -1.933,2.754l0,-82.914c0,-8.807 7.116,-15.952 16,-16l0.911,0Zm159.089,-96c8.885,0.048 16,7.193 16,16l0,58.667c-4.267,0 -8.524,1.698 -11.673,5.057l-8.327,8.882l-18.327,-19.549c-3.025,-3.226 -7.25,-5.057 -11.673,-5.057c-4.423,0 -8.648,1.831 -11.673,5.057l-18.327,19.549l-18.327,-19.549c-3.025,-3.226 -7.25,-5.057 -11.673,-5.057c-4.423,0 -8.648,1.831 -11.673,5.057l-18.327,19.549l-8.327,-8.882c-3.149,-3.359 -7.406,-5.057 -11.673,-5.057l0,-58.667c0,-8.807 7.115,-15.952 16,-16l128,0Zm-111.774,-86.894c4.818,-6.071 11.509,-9.106 20.073,-9.106c8.743,0 15.479,2.255 20.207,6.764c4.728,4.51 7.271,10.494 7.628,17.951c0.357,-7.457 2.81,-13.441 7.36,-17.951c4.55,-4.509 11.107,-6.764 19.671,-6.764c8.565,0 15.345,3.035 20.341,9.106c4.996,6.07 7.494,13.702 7.494,22.894c-0.714,7.284 -4.461,14.222 -11.241,20.813l-43.625,43.187l-44.161,-43.187c-6.602,-6.417 -10.259,-13.355 -10.973,-20.813c0,-9.192 2.409,-16.824 7.226,-22.894Z"></path></svg>