<svg width="512" height="512" viewBox="0 0 512 512" fill="none" xmlns="http://www.w3.org/2000/svg">
<path d="M448 32H64L64 288H32V32C32 14.3269 46.3269 0 64 0H448C465.673 0 480 14.3269 480 32V288H448V32Z" fill="black"/>
<path d="M224 288H96V320H16C7.16344 320 0 327.163 0 336C0 344.837 7.16344 352 16 352H176.584L139.84 489.133C137.553 497.668 142.618 506.442 151.153 508.729C159.689 511.016 168.462 505.951 170.749 497.415L209.713 352H240V448C240 456.837 247.163 464 256 464C264.837 464 272 456.837 272 448V352H302.287L341.251 497.415C343.538 505.951 352.311 511.016 360.847 508.729C369.382 506.442 374.447 497.668 372.16 489.133L335.416 352H496C504.837 352 512 344.837 512 336C512 327.163 504.837 320 496 320H224V288Z" fill="black"/>
</svg>
