<svg width="512" height="512" viewBox="0 0 512 512" version="1.1" xmlns="http://www.w3.org/2000/svg"><path fill="currentColor" d="M224,288l0,32l272,0c8.837,0 16,7.163 16,16c0,8.837 -7.163,16 -16,16l-160.584,0l36.744,137.133c2.287,8.535 -2.778,17.309 -11.313,19.596c-8.536,2.287 -17.309,-2.778 -19.596,-11.314l-38.964,-145.415l-30.287,0l0,96c0,8.837 -7.163,16 -16,16c-8.837,0 -16,-7.163 -16,-16l0,-96l-30.287,0l-38.964,145.415c-2.287,8.536 -11.06,13.601 -19.596,11.314c-8.535,-2.287 -13.6,-11.061 -11.313,-19.596l36.744,-137.133l-160.584,0c-8.884,-0.048 -16,-7.193 -16,-16c0,-8.807 7.116,-15.952 16,-16l80,0l0,-32l128,0Zm-160,0l-32,0l0,-256c0,-17.673 14.327,-32 32,-32l384,0c17.673,0 32,14.327 32,32l0,256l-32,0l0,-256l-384,0l0,256Z"></path></svg>