<svg width="448" height="512" viewBox="0 0 448 512" version="1.1" xmlns="http://www.w3.org/2000/svg"><path fill="currentColor" d="M400,480l-352,0c-26.51,0 -48,-21.49 -48,-48l0,-352c0,-26.51 21.49,-48 48,-48l352,0c26.51,0 48,21.49 48,48l0,352c0,26.478 -21.439,47.949 -48,48Zm-192,-208l-144,0l0,144l144,0l0,-144Zm176,0l-144,0l0,144l144,0l0,-144Zm-256,128l-48,0l0,-112c9.663,0 18.353,5.883 21.942,14.856l15.33,38.323c7.087,17.718 10.728,36.625 10.728,55.708l0,3.113Zm240,0l-48,0l0,-3.113c0,-19.083 3.641,-37.99 10.728,-55.708l15.33,-38.323c3.589,-8.973 12.279,-14.856 21.942,-14.856l0,112Zm16,-304l-144,0l0,144l144,0l0,-144Zm-176,0l-144,0l0,144l144,0l0,-144Zm64,16l96,0l0,112l-17.733,-5.541c-46.563,-14.552 -78.267,-57.675 -78.267,-106.459Zm-96,0c-0.016,48.806 -31.716,91.911 -78.267,106.459l-17.733,5.541l0,-112l96,0Z"></path></svg>