<svg width="448" height="512" viewBox="0 0 448 512" version="1.1" xmlns="http://www.w3.org/2000/svg"><path fill="currentColor" d="M224 176C199.527 176 160 184.335 160 230V282C160 292.777 162.201 301.474 165.887 308.474L241.518 177.477C235.341 176.393 229.316 176 224 176Z M224 336C218.63 336 212.535 335.599 206.292 334.49L282.013 203.337C285.759 210.369 288 219.126 288 230V282C288 327.665 248.473 336 224 336Z M48 32C21.4903 32 0 53.4903 0 80V432C0 458.51 21.4903 480 48 480H400C426.51 480 448 458.51 448 432V80C448 53.4903 426.51 32 400 32H48ZM224 128C287.45 128 336 158.53 336 232V280C336 353.47 287.45 384 224 384C160.55 384 112 353.47 112 280V232C112 158.53 160.55 128 224 128Z"></path></svg>