<svg width="448" height="512" viewBox="0 0 448 512" version="1.1" xmlns="http://www.w3.org/2000/svg"><path fill="currentColor" d="M400,480l-352,0c-26.51,0 -48,-21.49 -48,-48l0,-352c0,-26.51 21.49,-48 48,-48l352,0c26.51,0 48,21.49 48,48l0,352c0,26.51 -21.49,48 -48,48Zm-160,-352l-48,0c-10.757,16.519 -39.874,35.11 -62.5,40c-0.078,0.016 -0.155,0.032 -0.233,0.049c-0.418,-0.032 -0.841,-0.049 -1.267,-0.049c-8.837,0 -16,7.163 -16,16c0,0.455 0.019,0.905 0.056,1.35c-0.037,0.325 -0.056,0.646 -0.056,0.962l0,21.904c0,0.024 0.001,0.05 0.003,0.077c0.156,8.702 7.258,15.707 15.997,15.707c0.71,0 1.408,-0.046 2.093,-0.136c0.649,0.089 1.307,0.136 1.973,0.136c21.32,0 39.868,-11.383 55.959,-21.258c1.342,-0.824 2.667,-1.637 3.975,-2.432l0,119.69l-64,0c-8.837,0 -16,7.163 -16,16l0,32c0,8.837 7.163,16 16,16l192,0c8.837,0 16,-7.163 16,-16l0,-32c0,-8.837 -7.163,-16 -16,-16l-64,0l0,-176c0,-8.837 -7.163,-16 -16,-16Z"></path></svg>