<svg width="448" height="512" viewBox="0 0 448 512" version="1.1" xmlns="http://www.w3.org/2000/svg"><path fill="currentColor" d="M400,480l-352,0c-26.51,0 -48,-21.49 -48,-48l0,-352c0,-26.51 21.49,-48 48,-48l352,0c26.51,0 48,21.49 48,48l0,352c0,26.509 -21.489,47.999 -48,48Zm-252.677,-375.235l-23.259,0c-2.046,0 -3.791,0.085 -5.24,0.255c-1.448,0.17 -2.769,0.34 -3.961,0.51c-1.193,0.17 -2.258,0.595 -3.195,1.275c-0.937,0.68 -1.662,1.19 -2.173,1.53c-0.511,0.34 -1.193,1.19 -2.045,2.55c-0.851,1.361 -1.448,2.381 -1.789,3.061c-0.34,0.68 -1.065,2.082 -2.172,4.207c-1.108,2.126 -1.917,3.783 -2.428,4.973c-7.838,14.961 -16.955,24.737 -27.349,29.327c-2.556,1.19 -4.813,3.825 -6.773,7.906c-1.959,4.08 -2.939,7.99 -2.939,11.73l0,20.657c0,5.1 1.448,9.52 4.345,13.261c2.897,3.74 6.475,5.61 10.735,5.61c0.649,0 1.22,0.009 1.734,0.017c3.041,0.046 4.11,0.062 7.723,-1.93l4.856,-2.677l4.601,-3.06c1.022,-0.68 2.939,-2.083 5.75,-4.208c2.812,-2.125 4.899,-3.613 6.262,-4.463l0,150.97l-18.658,0c-4.09,0.001 -7.625,1.829 -10.607,5.483c-2.982,3.655 -4.473,8.118 -4.473,13.388l0,24.992c0,5.27 1.491,9.733 4.473,13.388c2.982,3.655 6.518,5.483 10.607,5.483l90.735,0c4.09,0 7.625,-1.828 10.607,-5.483c2.982,-3.655 4.473,-8.118 4.473,-13.388l0,-24.992c0,-5.27 -1.491,-9.733 -4.473,-13.388c-2.982,-3.655 -6.517,-5.483 -10.607,-5.483l-18.658,0l0,-219.059c0,-8.161 -1.15,-13.941 -3.451,-17.342c-2.3,-3.4 -6.516,-5.1 -12.651,-5.1Zm106.837,283.196c13.291,13.516 27.774,20.274 43.45,20.274c15.676,0 30.16,-6.758 43.451,-20.274c13.29,-13.516 23.77,-31.962 31.437,-55.339c7.668,-23.376 11.502,-48.835 11.502,-76.377c0,-27.542 -3.834,-53.001 -11.502,-76.378c-7.667,-23.376 -18.147,-41.865 -31.437,-55.466c-13.291,-13.601 -27.775,-20.401 -43.451,-20.401c-15.676,0 -30.159,6.8 -43.45,20.401c-13.291,13.601 -23.77,32.09 -31.438,55.466c-7.668,23.377 -11.502,48.836 -11.502,76.378c0,27.542 3.834,53.001 11.502,76.377c7.668,23.377 18.147,41.823 31.438,55.339Zm71.693,-71.15c7.753,-16.746 11.629,-36.934 11.629,-60.566c0,-23.632 -3.876,-43.82 -11.629,-60.566c-7.753,-16.747 -17.167,-25.12 -28.243,-25.12c-11.075,0 -20.49,8.373 -28.243,25.12c-7.752,16.746 -11.629,36.934 -11.629,60.566c0,23.632 3.877,43.82 11.629,60.566c7.753,16.747 17.168,25.12 28.243,25.12c11.076,0 20.49,-8.373 28.243,-25.12Z"></path></svg>