<svg width="448" height="512" viewBox="0 0 448 512" version="1.1" xmlns="http://www.w3.org/2000/svg"><path fill="currentColor" d="M400,32c26.51,0 48,21.491 48,48l0,352c0,26.51 -21.49,48 -48,48l-352,0c-26.51,0 -48,-21.49 -48,-48l0,-352c0,-26.509 21.49,-48 48,-48l352,0Zm-226.627,288c5.916,-21.568 35.574,-34.343 66.425,-38.477c44.833,-6.007 96.202,-26.301 96.202,-77.523c0,-50.47 -48.55,-76 -112,-76c-57.532,0 -98.234,19.23 -111.005,62c-2.886,9.72 0.555,18 9.696,18l34.474,0c4.33,0 6.07,0 9.641,-4.494c13.675,-23.006 26.687,-27.506 57.194,-27.506c10.473,0 51.692,1.335 51.692,28c0,26.433 -32.999,31.855 -67.49,36.477c-42.446,5.687 -90.753,33.146 -95.774,79.523l-0.428,0l0,48c0,8.837 7.163,16 16,16l192,0c8.837,0 16,-7.163 16,-16l0,-32c0,-8.837 -7.163,-16 -16,-16l-146.627,0Z"></path></svg>