<svg width="448" height="512" viewBox="0 0 448 512" version="1.1" xmlns="http://www.w3.org/2000/svg"><path fill="currentColor" d="M400,480l-352,0c-26.51,0 -48,-21.49 -48,-48l0,-352c0,-26.51 21.49,-48 48,-48l352,0c26.51,0 48,21.49 48,48l0,352c0,26.51 -21.49,48 -48,48Zm-277.309,-175.028c-9.141,0.001 -12.582,8.283 -9.696,18.006c12.771,42.785 53.473,62.022 111.005,62.022c63.45,0 112,-25.539 112,-76.027c0,-23.755 -11.041,-40.61 -27.353,-52.474c16.312,-11.364 27.353,-27.717 27.353,-51.472c0,-50.488 -48.55,-76.027 -112,-76.027c-57.532,0 -98.234,19.237 -111.005,62.022c-2.886,9.723 0.555,18.006 9.696,18.006l34.474,0c4.33,0 6.07,0 9.641,-4.495c13.675,-23.014 26.687,-27.516 57.194,-27.516c10.473,0 51.692,1.336 51.692,28.01c0,8.581 -3.475,14.504 -9.348,18.973l-58.344,0c-8.837,0 -16,7.163 -16,16l0,32c0,8.837 7.163,16 16,16l57.404,0c6.441,5.124 10.288,11.944 10.288,20.973c0,26.674 -41.219,28.01 -51.692,28.01c-30.507,0 -43.519,-4.502 -57.194,-27.516c-3.571,-4.495 -5.311,-4.495 -9.641,-4.495l-34.474,0Z"></path></svg>