<svg width="448" height="512" viewBox="0 0 448 512" version="1.1" xmlns="http://www.w3.org/2000/svg"><path fill="currentColor" d="M400,480l-352,0c-26.51,0 -48,-21.49 -48,-48l0,-352c0,-26.51 21.49,-48 48,-48l352,0c26.51,0 48,21.49 48,48l0,352c0,26.51 -21.489,47.999 -48,48Zm-112,-352l-45.838,0c-6.108,0 -11.51,3.014 -14.802,7.636c-0.506,0.475 -0.986,0.989 -1.437,1.54l-110.176,134.746c-2.049,2.506 -3.212,5.446 -3.526,8.442c-0.145,0.802 -0.221,1.629 -0.221,2.474l0,37.162c0,4.876 2.182,9.243 5.622,12.178c2.404,2.051 5.423,3.402 8.742,3.739c0.538,0.055 1.083,0.083 1.636,0.083l112,0l0,32c0,8.837 7.163,16 16,16l32,0c8.837,0 16,-7.163 16,-16l0,-32l16,0c8.837,0 16,-7.163 16,-16l0,-16c0,-8.837 -7.163,-16 -16,-16l-16,0l0,-144c0,-8.837 -7.162,-15.999 -16,-16Zm-113.062,160l65.062,0l0,-79.571l-65.062,79.571Z"></path></svg>