<svg width="448" height="512" viewBox="0 0 448 512" version="1.1" xmlns="http://www.w3.org/2000/svg"><path fill="currentColor" d="M48 32C21.4903 32 0 53.4903 0 80V432C0 458.51 21.4903 480 48 480H400C426.51 480 448 458.51 448 432V80C448 53.4903 426.51 32 400 32H48ZM112.01 261H112L112.007 260.913C111.971 259.606 112.078 258.226 112.33 256.798L121.603 142.835C122.26 134.473 129.759 128 138.788 128H318.769C328.285 128 336 135.163 336 144V160C336 168.837 328.285 176 318.769 176H166.829L163.857 221.806C178.832 216.231 203.983 209 232.615 209C293.911 209 336 232.03 336 296.5C336 346.97 298.219 384 231.538 384C174.006 384 125.766 364.77 112.995 322C110.109 312.28 113.55 304 122.691 304H157.165C161.495 304 163.235 304 166.806 308.494C180.012 330.711 206.759 336 232.615 336C261.808 336 288.308 322.735 288.308 296.5C288.308 269.385 260.615 256 232.615 256C198.611 256 184.658 261.749 173.479 266.354C166.008 269.432 159.776 272 149.627 272H122.691C115.866 272 112.219 267.384 112.01 261Z"></path></svg>