<svg width="448" height="512" viewBox="0 0 448 512" version="1.1" xmlns="http://www.w3.org/2000/svg"><path fill="currentColor" d="M225.077 336C257.789 336 284.308 321.673 284.308 304C284.308 286.327 257.789 272 225.077 272C192.365 272 165.846 286.327 165.846 304C165.846 320.569 189.153 334.196 219.021 335.835C221.012 335.944 223.032 336 225.077 336Z M48 32C21.4903 32 0 53.4903 0 80V432C0 458.51 21.4903 480 48 480H400C426.51 480 448 458.51 448 432V80C448 53.4903 426.51 32 400 32H48ZM112 232C112 158.53 160.55 128 224 128C281.532 128 322.235 147.23 335.005 190C337.892 199.72 334.45 208 325.309 208H290.835C286.505 208 284.765 208 281.194 203.506C267.519 180.5 254.507 176 224 176C199.527 176 160 184.335 160 230V236.633C177.641 228.207 199.399 224 224 224C241.935 224 260.582 226.689 277.357 232.506C303.44 240.975 320.427 256.007 328.813 274.469C332.752 283.013 334.972 292.748 335.005 303.755C335.005 303.837 335.005 303.918 335.005 304C335.005 361 276.456 384 224 384C165.961 384 123.74 360.585 114.092 313.586C113.457 310.493 112.963 307.298 112.615 304C112.208 300.14 112 296.14 112 292L112 232Z"></path></svg>