<svg width="448" height="512" viewBox="0 0 448 512" version="1.1" xmlns="http://www.w3.org/2000/svg"><path fill="currentColor" d="M48 32C21.4903 32 0 53.4903 0 80V432C0 458.51 21.4903 480 48 480H400C426.51 480 448 458.51 448 432V80C448 53.4903 426.51 32 400 32H48ZM239.521 347.122L239.73 368.134C239.87 372.422 238.367 376.138 235.221 379.283C232.075 382.428 228.405 384 224.21 384H192.086C187.752 384 184.046 382.463 180.97 379.39C177.894 376.317 176.356 372.565 176.356 368.134V336C176.356 326.274 180.2 285.123 197.888 254.178C200.091 250.323 202.136 246.712 204.062 243.313C217.592 219.427 225.189 206.015 240 192H128C123.665 192 119.69 190.173 116.614 187.028C113.538 183.884 112 180.431 112 176L112 144C112 139.712 113.538 135.862 116.614 132.717C119.69 129.572 123.396 128 127.73 128H320.27C324.604 128 328.31 129.572 331.386 132.717C334.462 135.862 336 139.578 336 143.866V154.586C336 158.017 334.986 161.876 332.959 166.164C330.931 170.452 328.799 174.026 326.562 176.884C324.325 179.743 321.703 182.959 318.697 186.533C315.69 190.106 313.978 192.107 313.558 192.536C309.923 197.396 305.203 203.578 299.401 211.082C293.598 218.586 288.984 224.59 285.558 229.092C282.132 233.595 278.042 239.241 273.288 246.03C268.534 252.82 264.724 258.716 261.858 263.719C258.991 268.721 255.95 274.689 252.734 281.621C249.518 288.554 247.071 295.165 245.393 301.454C243.715 307.743 242.317 314.819 241.198 322.68C240.08 330.542 239.521 338.689 239.521 347.122Z"></path></svg>