<svg width="448" height="512" viewBox="0 0 448 512" version="1.1" xmlns="http://www.w3.org/2000/svg"><path fill="currentColor" d="M224 281C234.473 281 275.692 282.335 275.692 309C275.692 335.665 234.473 337 224 337C213.527 337 172.308 335.665 172.308 309C172.308 282.335 213.527 281 224 281Z M224 233C234.473 233 275.692 231.665 275.692 205C275.692 178.335 234.473 177 224 177C213.527 177 172.308 178.335 172.308 205C172.308 231.665 213.527 233 224 233Z M48 32C21.4903 32 0 53.4903 0 80V432C0 458.51 21.4903 480 48 480H400C426.51 480 448 458.51 448 432V80C448 53.4903 426.51 32 400 32H48ZM224 129C287.45 129 336 154.53 336 205C336 227.157 326.643 244.507 310.777 257C326.643 269.493 336 286.843 336 309C336 359.47 287.45 385 224 385C160.55 385 112 359.47 112 309C112 286.843 121.357 269.493 137.223 257C121.357 244.507 112 227.157 112 205C112 154.53 160.55 129 224 129Z"></path></svg>