<svg width="448" height="512" viewBox="0 0 448 512" version="1.1" xmlns="http://www.w3.org/2000/svg"><path fill="currentColor" d="M222.923 176C190.211 176 163.692 190.327 163.692 208C163.692 225.673 190.211 240 222.923 240C255.635 240 282.154 225.673 282.154 208C282.154 191.431 258.847 177.804 228.979 176.165C226.988 176.056 224.968 176 222.923 176Z M48 32C21.4903 32 0 53.4903 0 80V432C0 458.51 21.4903 480 48 480H400C426.51 480 448 458.51 448 432V80C448 53.4903 426.51 32 400 32H48ZM336 280C336 353.47 287.45 384 224 384C166.468 384 125.765 364.77 112.995 322C110.108 312.28 113.55 304 122.691 304H157.165C161.495 304 163.235 304 166.806 308.494C180.481 331.5 193.493 336 224 336C248.473 336 288 327.665 288 282V275.367C270.359 283.793 248.601 288 224 288C206.065 288 187.418 285.311 170.643 279.494C144.56 271.025 127.573 255.993 119.187 237.531C115.248 228.987 113.028 219.252 112.995 208.245C112.995 208.163 112.995 208.082 112.995 208C112.995 151 171.544 128 224 128C282.039 128 324.26 151.415 333.908 198.414C334.543 201.507 335.037 204.702 335.385 208C335.792 211.86 336 215.86 336 220L336 280Z"></path></svg>