<svg width="448" height="512" viewBox="0 0 448 512" version="1.1" xmlns="http://www.w3.org/2000/svg"><path fill="currentColor" d="M188.16 270.365H259.841L231.08 187.819C229.9 184.103 227.54 182.245 224 182.245C220.46 182.245 218.1 184.103 216.92 187.819L188.16 270.365Z M48 32C21.4903 32 0 53.4903 0 80V432C0 458.51 21.4903 480 48 480H400C426.51 480 448 458.51 448 432V80C448 53.4903 426.51 32 400 32H48ZM274.663 318.606H173.337L154.531 372.422C152.909 377.568 151.139 380.784 149.222 382.07C147.304 383.357 144.059 384 139.487 384H104.753C96.9359 384 94.3547 379.069 97.0096 369.206L170.682 162.519C173.189 153.371 177.429 145.331 183.403 138.399C189.376 131.466 196.567 128 204.974 128H243.026C251.433 128 258.624 131.466 264.597 138.399C270.571 145.331 274.811 153.371 277.318 162.519L350.99 369.206C353.645 379.069 351.064 384 343.247 384H308.513C303.941 384 300.696 383.357 298.778 382.07C296.861 380.784 295.091 377.568 293.469 372.422L274.663 318.606Z"></path></svg>