<svg width="448" height="512" viewBox="0 0 448 512" version="1.1" xmlns="http://www.w3.org/2000/svg"><path fill="currentColor" d="M176 224V192H256C264.837 192 272 199.163 272 208C272 216.837 264.837 224 256 224H176Z M176 320V288H256C264.837 288 272 295.163 272 304C272 312.837 264.837 320 256 320H176Z M48 32C21.4903 32 0 53.4903 0 80V432C0 458.51 21.4903 480 48 480H400C426.51 480 448 458.51 448 432V80C448 53.4903 426.51 32 400 32H48ZM112 144C112 135.163 119.163 128 128 128H257.111C278.889 128 297.481 135.361 312.889 150.084C328.296 164.806 336 182.53 336 203.256C336 223.839 328.111 241.42 313 256C328.111 270.58 336 288.161 336 308.744C336 329.47 328.296 347.194 312.889 361.916C297.481 376.639 278.889 384 257.111 384L128 384C119.163 384 112 376.837 112 368V144Z"></path></svg>