<svg width="448" height="512" viewBox="0 0 448 512" version="1.1" xmlns="http://www.w3.org/2000/svg"><path fill="currentColor" d="M48 32C21.4903 32 0 53.4903 0 80V432C0 458.51 21.4903 480 48 480H400C426.51 480 448 458.51 448 432V80C448 53.4903 426.51 32 400 32H48ZM96 256C96 232.844 101.884 211.439 113.653 191.786C125.421 172.132 141.419 156.587 161.647 145.152C181.874 133.717 203.903 128 227.734 128C255.979 128 281.024 135.04 302.869 149.119C324.715 163.198 340.345 182.316 349.76 206.472C354.173 218.05 351.944 224 344.148 224H304.124C301.182 224 298.346 223.553 296.58 222.982C294.815 222.41 293.638 221.874 293.05 221.374C292.461 220.873 291.358 219.48 289.74 217.193C288.122 214.906 286.798 213.119 285.768 211.832C278.854 203.256 270.322 196.467 260.171 191.464C250.021 186.461 239.062 183.96 227.293 183.96C206.698 183.96 189.156 190.999 174.666 205.079C160.175 219.158 152.93 236.132 152.93 256C152.93 275.868 160.175 292.842 174.666 306.921C189.156 321.001 206.698 328.04 227.293 328.04C239.062 328.04 250.021 325.539 260.171 320.536C270.322 315.533 278.854 308.744 285.768 300.167C286.798 298.881 288.122 297.094 289.74 294.807C291.358 292.52 292.461 291.127 293.05 290.626C293.638 290.126 294.815 289.59 296.58 289.018C298.346 288.447 301.182 288 304.124 288H344.148C351.944 288 354.173 293.95 349.76 305.528C340.345 329.684 324.715 348.802 302.869 362.881C281.024 376.96 255.979 384 227.734 384C203.903 384 181.874 378.283 161.647 366.848C141.419 355.413 125.421 339.868 113.653 320.214C101.884 300.561 96 279.156 96 256Z"></path></svg>