<svg width="448" height="512" viewBox="0 0 448 512" version="1.1" xmlns="http://www.w3.org/2000/svg"><path fill="currentColor" d="M192 192C216.336 192 230.786 192.186 235.349 192.557C253.835 193.919 266.94 198.81 274.662 207.231C283.554 216.889 288 233.711 288 256C288 278.289 283.554 295.111 274.662 304.769C266.94 313.19 253.835 318.081 235.349 319.443C230.786 319.814 216.336 320 192 320V192Z M48 32C21.4903 32 0 53.4903 0 80V432C0 458.51 21.4903 480 48 480H400C426.51 480 448 458.51 448 432V80C448 53.4903 426.51 32 400 32H48ZM128 144C128 135.163 135.163 128 144 128L229.721 128C311.24 128 352 170.452 352 255.357C352 298.238 341.792 330.399 321.377 351.839C300.961 373.28 270.766 384 230.792 384H144C135.163 384 128 376.837 128 368V144Z"></path></svg>