<svg width="448" height="512" viewBox="0 0 448 512" version="1.1" xmlns="http://www.w3.org/2000/svg"><path fill="currentColor" d="M48 32C21.4903 32 0 53.4903 0 80V432C0 458.51 21.4903 480 48 480H400C426.51 480 448 458.51 448 432V80C448 53.4903 426.51 32 400 32H48ZM128 144C128 135.163 135.163 128 144 128H304C312.837 128 320 135.163 320 144V176C320 184.837 312.837 192 304 192H192V224H272C280.837 224 288 231.163 288 240V272C288 280.837 280.837 288 272 288H192V320H304C312.837 320 320 327.163 320 336V368C320 376.837 312.837 384 304 384H144C135.163 384 128 376.837 128 368V144Z"></path></svg>