<svg width="448" height="512" viewBox="0 0 448 512" version="1.1" xmlns="http://www.w3.org/2000/svg"><path fill="currentColor" d="M400,480l-352,0c-26.51,0 -48,-21.49 -48,-48l0,-352c0,-26.51 21.49,-48 48,-48l352,0c26.51,0 48,21.49 48,48l0,352c0,26.51 -21.49,48 -48,48Zm-96,-352l-160,0c-8.837,0 -16,7.163 -16,16l0,224c0,8.837 7.163,16 16,16l32,0c8.837,0 16,-7.163 16,-16l0,-80l80,0c8.837,0 16,-7.163 16,-16l0,-32c0,-8.837 -7.163,-16 -16,-16l-80,0l0,-32l112,0c8.837,0 16,-7.163 16,-16l0,-32c0,-8.837 -7.163,-16 -16,-16Z"></path></svg>