<svg width="448" height="512" viewBox="0 0 448 512" version="1.1" xmlns="http://www.w3.org/2000/svg"><path fill="currentColor" d="M400,480l-352,0c-26.51,0 -48,-21.49 -48,-48l0,-352c0,-26.51 21.49,-48 48,-48l352,0c26.51,0 48,21.49 48,48l0,352c0,26.51 -21.49,48 -48,48Zm-123.426,-176c-6.83,15.996 -23.81,23.994 -50.94,23.994c-20.335,0 -37.656,-7.046 -51.963,-21.137c-14.306,-14.091 -21.46,-31.078 -21.46,-50.963c0,-19.885 7.154,-36.873 21.46,-50.964c14.307,-14.091 31.628,-21.136 51.963,-21.136c18.592,0 35.97,2.464 49.914,14.766c1.452,1.288 2.759,2.575 3.921,3.863c1.162,1.287 2.034,2.182 2.615,2.682c0.581,0.501 1.053,0.966 1.416,1.395c0.363,0.429 1.126,0.68 2.288,0.751c1.162,0.072 2.215,0.143 3.159,0.215c0.944,0.071 2.941,0.107 5.991,0.107l41.832,0c3.569,0 9.219,-2.175 7.169,-7.9c-10.458,-23.032 -26.181,-40.771 -47.17,-53.216c-20.988,-12.446 -44.555,-18.598 -70.699,-18.455c-17.575,0 -34.388,3.362 -50.438,10.086c-16.05,6.723 -29.884,15.807 -41.504,27.252c-11.62,11.444 -20.88,25.035 -27.779,40.771c-6.899,15.736 -10.349,32.33 -10.349,49.783c0,23.175 5.81,44.597 17.43,64.268c11.62,19.67 27.415,35.227 47.387,46.671c19.972,11.445 41.723,17.167 65.253,17.167c15.396,0 30.175,-3.648 44.337,-10.944c13.461,-6.935 24.659,-15.292 33.593,-25.071l0,20.015c0,8.837 7.163,16 16,16l16,0c8.837,0 16,-7.163 16,-16l0,-96c0,-8.837 -7.163,-16 -16,-16l-80,0c-8.837,0 -16,7.163 -16,16l0,16c0,8.837 7.163,16 16,16l20.574,0Z"></path></svg>