<svg width="448" height="512" viewBox="0 0 448 512" version="1.1" xmlns="http://www.w3.org/2000/svg"><path fill="currentColor" d="M48 32C21.4903 32 0 53.4903 0 80V432C0 458.51 21.4903 480 48 480H400C426.51 480 448 458.51 448 432V80C448 53.4903 426.51 32 400 32H48ZM352 144V368C352 372.431 350.428 376.317 347.283 379.39C344.138 382.463 340.351 384 335.92 384H303.973C299.542 384 295.79 382.463 292.717 379.39C289.644 376.317 288 372.431 288 368V288H160V368C160 372.431 158.356 376.317 155.283 379.39C152.21 382.463 148.458 384 144.027 384H112.08C107.649 384 103.862 382.463 100.717 379.39C97.5723 376.317 96 372.431 96 368V144C96 139.569 97.5723 135.683 100.717 132.61C103.862 129.537 107.649 128 112.08 128H144.027C148.458 128 152.21 129.537 155.283 132.61C158.356 135.683 160 139.569 160 144V224H288V144C288 139.569 289.644 135.683 292.717 132.61C295.79 129.537 299.542 128 303.973 128H335.92C340.351 128 344.138 129.537 347.283 132.61C350.428 135.683 352 139.569 352 144Z"></path></svg>