<svg width="448" height="512" viewBox="0 0 448 512" version="1.1" xmlns="http://www.w3.org/2000/svg"><path fill="currentColor" d="M48 32C21.4903 32 0 53.4903 0 80V432C0 458.51 21.4903 480 48 480H400C426.51 480 448 458.51 448 432V80C448 53.4903 426.51 32 400 32H48ZM159.62 128H288.169C292.531 128 296.26 129.572 299.356 132.717C302.452 135.862 304 139.649 304 144.08V176.027C304 180.458 302.452 184.21 299.356 187.283C296.26 190.356 292.531 191.893 288.169 191.893H255.451V320.107H288.169C292.531 320.107 296.26 321.644 299.356 324.717C302.452 327.79 304 331.542 304 335.973V367.92C304 372.351 302.452 376.138 299.356 379.283C296.26 382.428 292.531 384 288.169 384H159.62C155.398 384 151.74 382.428 148.644 379.283C145.548 376.138 144 372.351 144 367.92V335.973C144 331.542 145.548 327.79 148.644 324.717C151.74 321.644 155.398 320.107 159.62 320.107H192.549V191.893H159.62C155.398 191.893 151.74 190.356 148.644 187.283C145.548 184.21 144 180.458 144 176.027V144.08C144 139.649 145.548 135.862 148.644 132.717C151.74 129.572 155.398 128 159.62 128Z"></path></svg>