<svg width="448" height="512" viewBox="0 0 448 512" version="1.1" xmlns="http://www.w3.org/2000/svg"><path fill="currentColor" d="M400,480l-352,0c-26.51,0 -48,-21.49 -48,-48l0,-352c0,-26.51 21.49,-48 48,-48l352,0c26.51,0 48,21.49 48,48l0,352c0,26.51 -21.49,48 -48,48Zm-80,-352l-32,0c-8.837,0 -16,7.163 -16,16l0,138c0,12.86 -3.87,23.65 -11.609,29.366c-7.739,5.716 -21.207,9.654 -36.391,9.654c-15.184,0 -28.652,-3.938 -36.391,-9.654c-7.739,-5.716 -11.609,-16.506 -11.609,-29.366l0,-10c0,-8.837 -7.163,-16 -16,-16l-32,0c-8.837,0 -16,7.163 -16,16l0,10c0,8.288 1.216,16.408 3.649,25.267c2.432,8.859 6.523,17.933 12.272,27.221c5.749,9.288 12.752,17.54 21.007,24.756c8.255,7.216 18.906,13.146 31.953,17.79c13.046,4.644 27.345,6.966 43.119,6.966c15.774,0 30.294,-2.322 43.341,-6.966c13.046,-4.644 23.697,-10.574 31.952,-17.79c8.256,-7.216 15.221,-15.468 20.897,-24.756c5.675,-9.288 9.729,-18.362 12.161,-27.221c2.433,-8.859 3.649,-16.979 3.649,-25.267l0,-138c0,-8.837 -7.163,-16 -16,-16Z"></path></svg>