<svg width="448" height="512" viewBox="0 0 448 512" version="1.1" xmlns="http://www.w3.org/2000/svg"><path fill="currentColor" d="M400,480l-352,0c-26.51,0 -48,-21.49 -48,-48l0,-352c0,-26.51 21.49,-48 48,-48l352,0c26.51,0 48,21.49 48,48l0,352c0,26.51 -21.49,48 -48,48Zm-240,-352l-32,0c-8.837,0 -16,7.163 -16,16l0,224c0,8.837 7.163,16 16,16l32,0c8.837,0 16,-7.163 16,-16l0,-80.054l4.427,0c4.889,0 8.765,0.787 11.629,2.359c2.864,1.572 6.042,4.502 9.534,8.79l70.41,75.905c0.227,0.215 0.521,0.539 0.884,0.938c2.301,2.527 7.342,8.062 15.116,8.062l36.266,0c7.683,0 11.594,-2.287 11.734,-6.861c0,-5.43 -1,-9.139 -7.963,-16.796l-96.037,-104.343l96.037,-104.343c6.963,-7.657 7.963,-11.366 7.963,-16.796c-0.14,-4.574 -4.051,-6.861 -11.734,-6.861l-36.266,0c-7.774,0 -12.814,5.535 -15.115,8.062c-0.363,0.399 -0.658,0.723 -0.885,0.938l-70.41,75.905c-3.492,4.288 -6.67,7.218 -9.534,8.79c-2.864,1.572 -6.74,2.359 -11.629,2.359l-4.427,0l0,-80.054c0,-8.837 -7.163,-16 -16,-16Z"></path></svg>