<svg width="448" height="512" viewBox="0 0 448 512" version="1.1" xmlns="http://www.w3.org/2000/svg"><path fill="currentColor" d="M48 32C21.4903 32 0 53.4903 0 80V432C0 458.51 21.4903 480 48 480H400C426.51 480 448 458.51 448 432V80C448 53.4903 426.51 32 400 32H48ZM132.766 379.39C129.589 376.317 128 372.431 128 368V144C128 139.569 129.589 135.683 132.766 132.61C135.943 129.537 139.77 128 144.248 128H176.526C181.003 128 184.83 129.537 188.008 132.61C191.185 135.683 192 139.569 192 144V320H336C340.477 320 344.057 321.644 347.234 324.717C350.411 327.79 352 331.569 352 336V368C352 372.431 350.411 376.317 347.234 379.39C344.057 382.463 340.477 384 336 384H144C139.523 384 135.943 382.463 132.766 379.39Z"></path></svg>