<svg width="448" height="512" viewBox="0 0 448 512" version="1.1" xmlns="http://www.w3.org/2000/svg"><path fill="currentColor" d="M400,480l-352,0c-26.51,0 -48,-21.49 -48,-48l0,-352c0,-26.51 21.49,-48 48,-48l352,0c26.51,0 48,21.49 48,48l0,352c0,26.51 -21.49,48 -48,48Zm-255.973,-352l-32.027,0c-8.837,0 -16,7.163 -16,16l0,224c0,8.837 7.163,16 16,16l32,0c8.837,0 16,-7.163 16,-16l0,-144l47.491,67.162c5.431,7.862 10.934,11.838 16.509,11.838c5.575,0 11.078,-3.976 16.509,-11.838l47.491,-67.162l0,144c0,8.837 7.163,16 16,16l32,0c8.837,0 16,-7.163 16,-16l0,-224c0,-8.837 -7.163,-16 -16,-16l-32.027,0c-1.858,0 -3.609,0.143 -5.253,0.429c-4.941,0.859 -10.245,3.368 -13.722,7.075c-5.339,5.694 -6.623,7.519 -26.419,35.66l-0.018,0.025c-4.561,6.484 -10.104,14.301 -16.905,23.891c-5.13,7.235 -10.976,15.478 -17.656,24.92c-6.677,-9.438 -12.521,-17.679 -17.65,-24.912c-6.807,-9.598 -12.353,-17.42 -16.917,-23.907l-0.012,-0.017c-19.796,-28.141 -21.08,-29.966 -26.419,-35.66c-3.477,-3.707 -8.781,-6.216 -13.722,-7.075c-1.644,-0.286 -3.395,-0.429 -5.253,-0.429Z"></path></svg>