<svg width="448" height="512" viewBox="0 0 448 512" version="1.1" xmlns="http://www.w3.org/2000/svg"><path fill="currentColor" d="M400,32c26.555,0.045 48,21.518 48,48l0,352c0,26.51 -21.49,48 -48,48l-352,0c-26.51,0 -48,-21.49 -48,-48l0,-352c0,-26.482 21.445,-47.955 48,-48l352,0Zm-255,96l-33,0c-8.885,0.048 -16,7.193 -16,16l0,224c0,8.837 7.163,16 16,16l32,0c8.837,0 16,-7.163 16,-16l0,-144l117.953,145.42c2.032,2.716 3.775,4.896 5.227,6.54c1.452,1.644 4.029,3.395 7.731,5.253c3.702,1.858 7.443,2.787 12.089,2.787l33,0c8.837,0 16,-7.163 16,-16l0,-224c0,-8.807 -7.115,-15.952 -16,-16l-32,0c-8.885,0.048 -16,7.193 -16,16l0,144c-13.533,-16.685 -18.081,-22.291 -22.625,-27.901c-9.142,-11.286 -18.27,-22.584 -100.555,-124.166c-1.597,-1.715 -4.21,-3.466 -7.84,-5.253c-3.608,-1.776 -7.29,-2.669 -11.98,-2.68Z"></path></svg>