<svg width="448" height="512" viewBox="0 0 448 512" version="1.1" xmlns="http://www.w3.org/2000/svg"><path fill="currentColor" d="M288 256C288 291.346 259.346 320 224 320C188.654 320 160 291.346 160 256C160 220.654 188.654 192 224 192C259.346 192 288 220.654 288 256Z M48 32C21.4903 32 0 53.4903 0 80V432C0 458.51 21.4903 480 48 480H400C426.51 480 448 458.51 448 432V80C448 53.4903 426.51 32 400 32H48ZM352 256C352 326.692 294.692 384 224 384C153.308 384 96 326.692 96 256C96 185.308 153.308 128 224 128C294.692 128 352 185.308 352 256Z"></path></svg>