<svg width="448" height="512" viewBox="0 0 448 512" version="1.1" xmlns="http://www.w3.org/2000/svg"><path fill="currentColor" d="M245 176L192 176.027V240H245C252.259 240 258.63 236.784 263.889 230.352C269.148 223.92 271.778 216.201 271.778 207.196C271.778 198.048 269.185 192.107 264 185.675C258.815 179.243 252.407 176 245 176Z M48 32C21.4903 32 0 53.4903 0 80V432C0 458.51 21.4903 480 48 480H400C426.51 480 448 458.51 448 432V80C448 53.4903 426.51 32 400 32H48ZM257 288L192 288.027V368C192 372.431 189.259 376.138 186 379.283C182.741 382.428 178.593 384 174 384H144C139.556 384 136.148 382.428 132.889 379.283C129.63 376.138 128 372.431 128 368V144C128 139.569 129.63 135.862 132.889 132.717C136.148 129.572 139.556 128 144 128H257C279.074 128 297.926 136.004 313.333 152.013C328.444 168.022 336 185.184 336 207.196C336 229.637 328.296 248.719 312.889 264.442C297.481 280.165 278.778 288 257 288Z"></path></svg>