<svg width="368" height="512" viewBox="0 0 368 512" version="1.1" xmlns="http://www.w3.org/2000/svg"><path fill="currentColor" d="M112 312.047L229.75 312C267.861 312 300.593 298.289 327.556 270.774C354.519 243.259 368 209.865 368 170.593C368 132.071 354.778 102.039 328.333 74.0234C301.37 46.0078 268.38 32 229.75 32H28C20.2222 32 14.2593 34.7515 8.55555 40.2546C2.85185 45.7577 0 52.2456 0 60V452C0 459.754 2.85185 466.242 8.55555 471.745C14.2593 477.248 20.2222 480 28 480H80.5C88.537 480 95.7963 477.248 101.5 471.745C107.204 466.242 112 459.754 112 452V312.047ZM112 116.047L208.75 116C221.713 116 232.926 121.675 242 132.931C251.074 144.188 255.611 154.584 255.611 170.593C255.611 186.352 251.009 199.859 241.806 211.116C232.602 222.372 221.454 228 208.75 228H112V116.047Z"></path></svg>