<svg width="448" height="512" viewBox="0 0 448 512" version="1.1" xmlns="http://www.w3.org/2000/svg"><path fill="currentColor" d="M172.65 204.864C158.428 218.658 151.317 235.703 151.317 256C151.317 275.868 158.356 292.842 172.436 306.921C186.515 321.001 203.489 328.04 223.357 328.04C231.075 328.04 238.365 326.968 245.226 324.824L220.57 295.236C215.853 289.376 213.494 285.159 213.494 282.586C213.494 275.116 223.486 272 229.575 272H263.665C268.61 272 273.988 274.512 277.28 278.191C280.892 282.228 284.477 286.316 287.893 290.519C293.753 279.942 296.683 268.436 296.683 256C296.683 236.132 289.644 219.158 275.564 205.079C261.485 190.999 244.511 183.96 224.643 183.96C204.203 184.103 186.872 191.071 172.65 204.864Z M48 32C21.4903 32 0 53.4903 0 80V432C0 458.51 21.4903 480 48 480H400C426.51 480 448 458.51 448 432V80C448 53.4903 426.51 32 400 32H48ZM352 256C352 285.445 342.852 311.817 324.556 335.116L343.853 358.271C344.138 358.7 344.96 359.701 346.318 361.273C347.676 362.845 348.641 364.025 349.213 364.811C349.784 365.597 350.392 366.705 351.035 368.134C351.678 369.563 352 370.921 352 372.208C352 375.781 350.285 378.64 346.854 380.784C343.424 382.928 339.779 384 335.92 384H301.829C296.54 384 290.037 379.355 282.318 370.064C263.736 379.355 244.297 384 224 384C200.844 384 179.439 378.283 159.786 366.848C140.132 355.413 124.587 339.868 113.152 320.214C101.717 300.561 96 279.156 96 256C96 232.844 101.717 211.439 113.152 191.786C124.587 172.132 140.132 156.587 159.786 145.152C179.439 133.717 200.844 128 224 128C247.156 128 268.561 133.717 288.214 145.152C307.868 156.587 323.413 172.132 334.848 191.786C346.283 211.439 352 232.844 352 256Z"></path></svg>