<svg width="448" height="512" viewBox="0 0 448 512" version="1.1" xmlns="http://www.w3.org/2000/svg"><path fill="currentColor" d="M400,480l-352,0c-26.51,0 -48,-21.49 -48,-48l0,-352c0,-26.509 21.49,-48 48,-48l352,0c26.51,0 48,21.491 48,48l0,352c0,26.509 -21.488,47.998 -48,48Zm-129,-96c0,-25.405 -20.595,-46 -46,-46c-25.405,0 -46,20.595 -46,46c0,25.405 20.595,46 46,46c25.405,0 46,-20.595 46,-46Zm-102.5,-190c18.5,-23.5 30.5,-35.5 57.5,-35.5c20.5,0 46,12.5 46,33c0,14.532 -11.078,20.996 -28.859,31.371c-1.184,0.691 -2.398,1.4 -3.641,2.129c-0.264,0.155 -0.529,0.31 -0.795,0.466c-22.923,13.45 -53.705,31.51 -53.705,72.534c0,9.2 5,14 11.5,14l56,0c7.5,0 12,-4.9 12,-12.5c0,-11.278 12.132,-18.391 27.12,-27.178c24.213,-14.196 55.88,-32.761 55.88,-80.322c0,-59 -59.5,-102 -116.5,-102c-54,0 -89.5,22.5 -116,64.5c0,0 -7.5,8.311 1.5,15l37,27.5c8.5,6.318 15,-3 15,-3Z"></path></svg>