<svg width="448" height="512" viewBox="0 0 448 512" version="1.1" xmlns="http://www.w3.org/2000/svg"><path fill="currentColor" d="M400,480l-352,0c-26.51,0 -48,-21.49 -48,-48l0,-352c0,-26.51 21.49,-48 48,-48l352,0c26.51,0 48,21.49 48,48l0,352c0,26.51 -21.489,47.999 -48,48Zm-146.256,-352l-126.564,0c-4.104,0 -7.659,1.572 -10.667,4.717c-3.009,3.144 -4.513,6.932 -4.513,11.363l0,223.92c0,4.431 1.504,8.138 4.513,11.283c3.008,3.145 6.564,4.717 10.667,4.717l32.82,0c4.239,0 7.863,-1.572 10.872,-4.717c3.008,-3.145 5.128,-6.852 5.128,-11.283l0,-79.946l72,0c6.838,0 12.65,2.966 17.436,8.898c4.786,5.932 7.179,13.115 7.179,21.548l0,49.5c0,4.431 1.505,8.138 4.513,11.283c3.009,3.145 6.633,4.717 10.872,4.717l32.82,0c4.103,0 7.659,-1.572 10.667,-4.717c3.009,-3.145 4.513,-6.852 4.513,-11.283l0,-59.256c0,-12.436 -1.675,-22.441 -5.026,-30.017c-3.35,-7.576 -8.649,-15.151 -15.897,-22.727c13.949,-14.58 20.923,-32.161 20.923,-52.744c0,-20.726 -7.111,-38.45 -21.333,-53.172c-14.223,-14.723 -40.82,-22.084 -60.923,-22.084Zm-7.744,48c14.359,0 26,11.641 26,26l0,12c0,14.359 -11.641,26 -26,26l-70,0l0,-64l70,0Z"></path></svg>