<svg width="448" height="512" viewBox="0 0 448 512" version="1.1" xmlns="http://www.w3.org/2000/svg"><path fill="currentColor" d="M400,480l-352,0c-26.51,0 -48,-21.49 -48,-48l0,-352c0,-26.51 21.49,-48 48,-48l352,0c26.51,0 48,21.49 48,48l0,352c0,26.51 -21.49,48 -48,48Zm-270.073,-176c-8.488,0.001 -11.683,8.28 -9.003,18c11.858,42.77 49.653,62 103.076,62c58.918,0 104,-25.53 104,-76c0,-51.222 -47.7,-66.516 -89.33,-72.523c-3.787,-0.547 -7.556,-1.035 -11.256,-1.514c-27.59,-3.571 -51.414,-6.656 -51.414,-29.963c0,-26.665 38.275,-28 48,-28c28.328,0 40.411,4.5 53.108,27.506c3.317,4.494 4.932,4.494 8.953,4.494l32.012,0c8.488,0 11.683,-8.28 9.003,-18c-11.858,-42.77 -49.653,-62 -103.076,-62c-58.918,0 -104,25.53 -104,76c0,51.222 47.7,66.516 89.33,72.523c3.787,0.547 7.556,1.035 11.256,1.514c27.59,3.571 51.414,6.656 51.414,29.963c0,27.665 -30.275,28 -48,28c-28.328,0 -40.411,-4.5 -53.108,-27.506c-3.317,-4.494 -4.932,-4.494 -8.953,-4.494l-32.012,0Z"></path></svg>