<svg width="448" height="512" viewBox="0 0 448 512" version="1.1" xmlns="http://www.w3.org/2000/svg"><path fill="currentColor" d="M48 32C21.4903 32 0 53.4903 0 80V432C0 458.51 21.4903 480 48 480H400C426.51 480 448 458.51 448 432V80C448 53.4903 426.51 32 400 32H48ZM96 144C96 135.163 103.163 128 112 128H336C344.837 128 352 135.163 352 144V176C352 184.837 344.837 192 336 192H256V368C256 376.837 248.837 384 240 384H208C199.163 384 192 376.837 192 368L192 192H112C103.163 192 96 184.837 96 176V144Z"></path></svg>