<svg width="448" height="512" viewBox="0 0 448 512" version="1.1" xmlns="http://www.w3.org/2000/svg"><path fill="currentColor" d="M48 32C21.4903 32 0 53.4903 0 80V432C0 458.51 21.4903 480 48 480H400C426.51 480 448 458.51 448 432V80C448 53.4903 426.51 32 400 32H48ZM240 384H208C204.013 384 201.282 382.606 199.004 379.819C196.726 377.032 194.518 373.065 192.382 367.92L96.6892 144.08C95.1228 140.221 96.2264 136.576 100 133.146C103.774 129.715 107.301 128 112 128H144C146.706 128 149.662 128.858 151.798 130.573C153.934 132.288 155.536 134.111 156.604 136.04C157.672 137.97 158.918 140.65 160.342 144.08L223.995 293L287.648 144.08C289.784 138.935 291.992 134.968 294.27 132.181C296.548 129.394 300.013 128 304 128H336C340.699 128 344.395 129.715 348.097 133.146C351.8 136.576 352.868 140.221 351.301 144.08L255.822 367.92C253.686 373.065 251.479 377.032 249.2 379.819C246.922 382.606 243.987 384 240 384Z"></path></svg>