<svg width="448" height="512" viewBox="0 0 448 512" version="1.1" xmlns="http://www.w3.org/2000/svg"><path fill="currentColor" d="M48 32C21.4903 32 0 53.4903 0 80V432C0 458.51 21.4903 480 48 480H400C426.51 480 448 458.51 448 432V80C448 53.4903 426.51 32 400 32H48ZM304.958 381.32C303.676 383.107 302.709 384 301 384H262C258.155 384 255.4 378.64 252.837 367.92L224 256L195.163 367.92C192.6 378.64 189.845 384 186 384H148C146.291 384 144.324 383.107 143.042 381.32C141.761 379.533 140.835 377.747 140.265 375.96C139.696 374.173 138.913 371.493 137.916 367.92L80.4551 144.08C79.4582 140.221 80.0991 136.576 82.3776 133.146C84.656 129.715 87.1519 128 90 128H128C129.709 128 131.508 128.893 132.789 130.68C134.071 132.467 134.996 134.254 135.566 136.04C136.136 137.827 136.919 140.507 137.916 144.08L167 256L195.163 144.08C196.587 138.935 197.975 134.968 199.328 132.181C200.681 129.394 202.722 128 205 128H243C244.566 128 246.215 128.858 247.497 130.573C248.779 132.288 249.775 134.111 250.487 136.04C251.199 137.97 251.983 140.65 252.837 144.08L281 256L310.084 144.08C311.081 140.507 311.864 137.827 312.434 136.04C313.004 134.254 313.929 132.467 315.211 130.68C316.492 128.893 318.291 128 320 128H358C360.848 128 363.344 129.715 365.622 133.146C367.901 136.576 368.542 140.221 367.545 144.08L310.084 367.92C309.087 371.493 308.304 374.173 307.735 375.96C307.165 377.747 306.239 379.533 304.958 381.32Z"></path></svg>