<svg width="448" height="512" viewBox="0 0 448 512" version="1.1" xmlns="http://www.w3.org/2000/svg"><path fill="currentColor" d="M48 32C21.4903 32 0 53.4903 0 80V432C0 458.51 21.4903 480 48 480H400C426.51 480 448 458.51 448 432V80C448 53.4903 426.51 32 400 32H48ZM280.818 367.92L224 300L167.183 367.92C164.467 371.35 162.394 373.851 160.965 375.424C159.536 376.996 157.356 378.819 154.426 380.891C151.495 382.964 148.573 384 146 384H112C108.141 384 104.576 382.928 101.146 380.784C97.7152 378.64 96 375.781 96 372.208C96 369.349 98.4299 365.061 103.29 359.343L189 256L103.29 152.657C98.4299 146.939 96 142.651 96 139.792C96 136.219 97.7152 133.36 101.146 131.216C104.576 129.072 108.141 128 112 128H146C148.573 128 151.495 129.036 154.426 131.109C157.356 133.181 159.536 135.004 160.965 136.576C162.394 138.149 164.467 140.65 167.183 144.08L224 213L280.818 144.08C283.534 140.65 285.606 138.149 287.036 136.576C288.465 135.004 290.645 133.181 293.575 131.109C296.505 129.036 299.427 128 302 128H336C339.859 128 343.424 129.072 346.855 131.216C350.285 133.36 352.001 136.219 352.001 139.792C352.001 142.651 349.571 146.939 344.711 152.657L259 256L344.711 359.343C349.571 365.061 352.001 369.349 352.001 372.208C352.001 375.781 350.285 378.64 346.855 380.784C343.424 382.928 339.859 384 336 384H302C299.427 384 296.505 382.964 293.575 380.891C290.645 378.819 288.465 376.996 287.036 375.424C285.606 373.851 283.534 371.35 280.818 367.92Z"></path></svg>