<svg width="448" height="512" viewBox="0 0 448 512" version="1.1" xmlns="http://www.w3.org/2000/svg"><path fill="currentColor" d="M48 32C21.4903 32 0 53.4903 0 80V432C0 458.51 21.4903 480 48 480H400C426.51 480 448 458.51 448 432V80C448 53.4903 426.51 32 400 32H48ZM192.054 367.92L192 283.444L188.573 278.397C167.762 247.753 137.6 203.338 98.3585 145.152C96.7862 142.294 96 139.721 96 137.434C96 131.145 101.36 128 112.08 128H138.024C145.313 128 152.603 133.36 159.893 144.08L224 234.559L288.108 144.08C295.398 133.36 302.687 128 309.977 128H335.92C346.641 128 352.001 131.145 352.001 137.434C352.001 139.721 351.215 142.294 349.642 145.152C310.482 203.217 280.364 247.568 259.557 278.205C258.34 279.999 257.154 281.745 256 283.444L255.947 367.92C255.947 372.351 254.41 376.138 251.337 379.283C248.264 382.428 244.512 384 240.081 384H207.92C203.632 384 199.915 382.428 196.771 379.283C193.626 376.138 192.054 372.351 192.054 367.92Z"></path></svg>