<svg width="448" height="512" viewBox="0 0 448 512" version="1.1" xmlns="http://www.w3.org/2000/svg"><path fill="currentColor" d="M48 32C21.4903 32 0 53.4903 0 80V432C0 458.51 21.4903 480 48 480H400C426.51 480 448 458.51 448 432V80C448 53.4903 426.51 32 400 32H48ZM329.812 192.75L204.611 320H320C324.125 320 328.265 321.68 331.359 324.824C334.453 327.969 336 331.712 336 336V368C336 372.288 334.453 376.138 331.359 379.283C328.265 382.428 324.125 384 320 384H128C123.875 384 119.563 382.463 116.538 379.39C113.513 376.317 112 372.431 112 368V336C112 329.425 113.994 323.824 117.982 319.25L243.389 192H128C123.737 192 119.563 190.356 116.538 187.283C113.513 184.21 112 180.431 112 176V144C112 139.569 113.513 135.683 116.538 132.61C119.563 129.537 123.737 128 128 128H320.53C324.793 128 328.437 129.537 331.462 132.61C334.487 135.683 336 139.569 336 144V176C336 182.575 333.937 188.176 329.812 192.75Z"></path></svg>