<svg width="448" height="512" viewBox="0 0 448 512" version="1.1" xmlns="http://www.w3.org/2000/svg"><path fill="currentColor" d="M400,480l-352,0c-26.51,0 -48,-21.49 -48,-48l0,-352c0,-26.509 21.489,-47.999 48,-48l352,0c26.511,0.001 48,21.491 48,48l0,352c0,26.51 -21.489,47.999 -48,48Zm-95.732,-351.086c-24.583,-11.276 -51.339,-16.914 -80.268,-16.914c-28.929,0 -55.685,5.638 -80.268,16.914c-24.583,11.276 -44.018,26.609 -58.303,45.999c-14.286,19.39 -21.429,40.54 -21.429,63.45c0,22.194 6.756,42.747 20.268,61.66c13.512,18.913 31.756,34.096 54.732,45.551c-10.119,34.127 -15.536,53.517 -16.25,58.17l0,0.716c0,0.477 0.119,1.014 0.357,1.611c0.238,0.597 0.595,1.074 1.072,1.432c1.19,0.596 2.44,0.656 3.75,0.179c2.738,-0.358 25.297,-15.273 67.678,-44.746c9.762,1.312 19.226,1.969 28.393,1.969c29.048,0 55.833,-5.638 80.357,-16.914c24.524,-11.276 43.929,-26.639 58.214,-46.089c14.286,-19.449 21.429,-40.629 21.429,-63.539c0,-22.91 -7.143,-44.06 -21.429,-63.45c-14.285,-19.39 -33.72,-34.723 -58.303,-45.999Zm37.411,145.335c0,-2.446 -0.774,-4.624 -2.322,-6.533c-0.714,-1.074 -8.214,-11.156 -22.5,-30.248c6.905,-7.04 13.869,-14.08 20.893,-21.12c1.786,-1.79 2.887,-3.908 3.304,-6.354c0.416,-2.446 -0.268,-4.743 -2.054,-6.891c-2.024,-1.909 -4.196,-2.685 -6.518,-2.327c-2.321,0.358 -4.494,1.551 -6.518,3.58c-0.357,0.358 -1.904,1.939 -4.643,4.743c-2.738,2.804 -6.279,6.413 -10.625,10.828c-4.345,4.415 -8.184,8.353 -11.517,11.813l0,-20.762c0,-2.506 -0.744,-4.832 -2.233,-6.98c-1.488,-2.148 -3.541,-3.222 -6.16,-3.222c-2.619,0 -4.643,0.955 -6.072,2.864c-1.428,1.909 -2.143,4.355 -2.143,7.338l0,60.855c0,2.983 0.715,5.429 2.143,7.338c1.429,1.909 3.453,2.864 6.072,2.864c2.619,0 4.672,-1.074 6.16,-3.222c1.489,-2.148 2.233,-4.474 2.233,-6.98l0,-16.288c0.476,-0.477 1.369,-1.402 2.678,-2.774c1.31,-1.372 2.381,-2.476 3.214,-3.311c7.858,10.739 14.881,20.225 21.072,28.458c1.667,2.267 3.601,3.729 5.803,4.385c2.203,0.657 4.435,0.15 6.697,-1.521c2.024,-1.909 3.036,-4.087 3.036,-6.533Zm-167.143,-8.323l31.071,0c1.31,4.296 2.262,7.1 2.857,8.413c0.596,1.193 1.25,2.386 1.965,3.579c0.714,1.194 2.023,2.357 3.928,3.49c1.905,1.134 3.869,1.343 5.893,0.627c4.405,-1.671 5.774,-5.907 4.107,-12.708c-0.476,-1.551 -3.839,-10.828 -10.089,-27.832c-6.25,-17.003 -9.851,-26.698 -10.804,-29.085c-3.214,-7.756 -7.619,-11.634 -13.214,-11.634c-6.071,0 -10.774,3.878 -14.107,11.634c-0.953,2.029 -4.583,11.903 -10.893,29.622c-6.31,17.719 -9.583,26.818 -9.821,27.295c-0.834,1.074 -1.042,3.043 -0.625,5.907c0.416,2.863 1.696,4.832 3.839,5.906c2.381,1.074 4.702,1.193 6.964,0.358c2.262,-0.835 3.81,-2.088 4.643,-3.759l4.286,-11.813Zm93.75,16.109l-25.715,0c-0.119,0 -0.327,-0.03 -0.625,-0.09c-0.297,-0.059 -0.506,-0.089 -0.625,-0.089c-0.119,0 -0.327,0.03 -0.625,0.089c-0.297,0.06 -0.506,0.09 -0.625,0.09c-2.619,0 -4.642,-0.955 -6.071,-2.864c-1.429,-1.909 -2.143,-4.355 -2.143,-7.338l0,-60.855c0,-2.983 0.714,-5.429 2.143,-7.338c1.429,-1.909 3.452,-2.864 6.071,-2.864c2.619,0 4.673,1.074 6.161,3.222c1.488,2.148 2.232,4.474 2.232,6.98l0,54.053l19.822,0c2.857,0 5.238,0.746 7.143,2.238c1.904,1.491 2.857,3.55 2.857,6.175c0,2.625 -1.042,4.713 -3.125,6.264c-2.084,1.551 -4.374,2.327 -6.875,2.327Zm-125.357,-65.15l0,54.948c0,2.506 -0.744,4.832 -2.233,6.98c-1.488,2.148 -3.541,3.222 -6.16,3.222c-2.619,0 -4.643,-0.955 -6.072,-2.864c-1.428,-1.909 -2.143,-4.355 -2.143,-7.338l0,-54.948l-14.107,0c-2.381,0 -4.524,-0.716 -6.428,-2.148c-1.905,-1.432 -2.857,-3.52 -2.857,-6.265c0,-2.744 0.892,-4.713 2.678,-5.906c1.786,-1.193 3.691,-1.79 5.714,-1.79l46.429,0c1.786,0 3.631,0.806 5.536,2.416c1.904,1.611 2.857,3.61 2.857,5.996c0,2.387 -1.042,4.266 -3.125,5.638c-2.083,1.373 -4.077,2.059 -5.982,2.059l-14.107,0Zm47.321,0.895l-10.893,32.038l21.607,0l-10.714,-32.038Z"></path></svg>