<svg width="448" height="512" viewBox="0 0 448 512" version="1.1" xmlns="http://www.w3.org/2000/svg"><path fill="currentColor" d="M189.425 192C190.406 192 191.203 192.313 191.816 192.939C192.429 193.565 192.736 194.379 192.736 195.38V268.808C192.736 270.936 191.632 272 189.425 272H177.839C175.632 272 174.529 270.936 174.529 268.808V195.38C174.529 194.379 174.866 193.565 175.54 192.939C176.215 192.313 176.981 192 177.839 192H189.425Z M269.057 192C271.142 192 272.184 193.127 272.184 195.38V268.808C272.184 270.936 271.142 272 269.057 272H257.471C256.245 272 255.326 271.562 254.713 270.685L221.793 225.052V268.808C221.793 270.936 220.751 272 218.667 272H207.08C204.874 272 203.77 270.936 203.77 268.808V195.38C203.77 193.127 204.874 192 207.08 192H218.667C219.77 192 220.628 192.438 221.241 193.315L254.161 238.948V195.38C254.161 194.379 254.467 193.565 255.08 192.939C255.693 192.313 256.49 192 257.471 192H269.057Z M161.471 253.596C163.678 253.596 164.782 254.66 164.782 256.789V268.808C164.782 270.936 163.678 272 161.471 272H115.31C113.103 272 112 270.936 112 268.808V195.38C112 193.127 113.103 192 115.31 192H126.897C128.981 192 130.023 193.127 130.023 195.38V253.596H161.471Z M332.69 210.404H301.425V222.986H332.69C334.897 222.986 336 224.05 336 226.178V237.822C336 238.823 335.663 239.668 334.988 240.357C334.314 241.045 333.548 241.39 332.69 241.39H301.425V253.596H332.69C334.897 253.596 336 254.66 336 256.789V268.808C336 270.936 334.897 272 332.69 272H286.529C284.444 272 283.402 270.936 283.402 268.808V195.38C283.402 193.127 284.444 192 286.529 192H332.69C333.548 192 334.314 192.313 334.988 192.939C335.663 193.565 336 194.379 336 195.38V207.211C336 209.34 334.897 210.404 332.69 210.404Z M48 32C21.4903 32 0 53.4903 0 80V432C0 458.51 21.4903 480 48 480H400C426.51 480 448 458.51 448 432V80C448 53.4903 426.51 32 400 32H48ZM371.321 179.528C379.774 196.34 384 213.996 384 232.495C384 262.244 372.571 290.243 349.714 316.492C334.833 334.492 313.077 353.96 284.446 374.896C255.815 395.833 235.667 408.864 224 413.989C216.504 418.767 208.524 414.74 210.071 404.989C210.31 403.364 211.083 398.552 212.393 390.552C212.988 383.177 212.81 378.178 211.857 375.553C210.31 371.553 205.607 368.74 197.75 367.115C172.512 363.616 149.714 355.491 129.357 342.741C109 329.992 93.0179 313.961 81.4107 294.649C69.8036 275.337 64 254.619 64 232.495C64 213.996 68.2262 196.34 76.6786 179.528C85.131 162.716 96.5 148.217 110.786 136.03C125.071 123.843 142.095 114.124 161.857 106.875C181.619 99.6249 202.333 96 224 96C245.667 96 266.381 99.6249 286.143 106.875C305.905 114.124 322.929 123.843 337.214 136.03C351.5 148.217 362.869 162.716 371.321 179.528Z"></path></svg>