<svg width="480" height="512" viewBox="0 0 480 512" version="1.1" xmlns="http://www.w3.org/2000/svg"><path fill="currentColor" d="M16 344L96 264C96.8333 281.5 100.833 298.333 108 314.5C115.167 330.667 125.167 345.167 138 358C150.833 370.833 165.333 380.833 181.5 388C197.667 395.167 214.5 399.167 232 400L152 480C120.667 467.667 93.3333 449.667 70 426C46.3333 402.667 28.3333 375.333 16 344ZM464 344L384 264C383.167 281.5 379.167 298.333 372 314.5C364.833 330.667 354.833 345.167 342 358C329.167 370.833 314.667 380.833 298.5 388C282.333 395.167 265.5 399.167 248 400L328 480C359.333 467.667 386.667 449.667 410 426C433.667 402.667 451.667 375.333 464 344ZM328 32L248 112C265.5 112.833 282.333 116.833 298.5 124C314.667 131.167 329.167 141.167 342 154C354.833 166.833 364.833 181.333 372 197.5C379.167 213.667 383.167 230.5 384 248L464 168C451.667 136.667 433.667 109.333 410 86C386.667 62.3333 359.333 44.3333 328 32ZM152 32L232 112C214.5 112.833 197.667 116.833 181.5 124C165.333 131.167 150.833 141.167 138 154C125.167 166.833 115.167 181.333 108 197.5C100.833 213.667 96.8333 230.5 96 248L16 168C28.3333 136.667 46.3333 109.333 70 86C93.3333 62.3333 120.667 44.3333 152 32Z"></path></svg>